<?xml version="1.0" standalone="no"?>
<!DOCTYPE svg PUBLIC "-//W3C//DTD SVG 20010904//EN"
 "http://www.w3.org/TR/2001/REC-SVG-20010904/DTD/svg10.dtd">
<svg version="1.0" xmlns="http://www.w3.org/2000/svg"
 width="559.000000pt" height="559.000000pt" viewBox="0 0 559.000000 559.000000"
 preserveAspectRatio="xMidYMid meet">
<metadata>
Created by potrace 1.11, written by Peter Selinger 2001-2013
</metadata>
<g transform="translate(0.000000,559.000000) scale(0.100000,-0.100000)"
fill="#000000" stroke="none">
<path d="M2565 5558 c-114 -10 -176 -17 -207 -24 -15 -3 -39 -7 -55 -9 -15 -2
-62 -11 -103 -20 -712 -158 -1329 -584 -1729 -1195 -98 -149 -215 -382 -274
-542 -44 -119 -114 -364 -124 -433 -6 -45 -10 -67 -17 -95 -3 -14 -8 -47 -11
-75 -2 -27 -8 -81 -12 -120 -10 -91 -10 -386 0 -495 45 -514 238 -1010 553
-1425 129 -170 222 -269 415 -441 85 -76 301 -228 413 -290 319 -178 640 -287
1007 -340 201 -30 634 -24 819 11 34 7 56 11 103 19 52 9 267 67 332 89 210
73 419 173 600 287 55 35 102 66 105 69 3 3 23 19 46 34 22 15 49 35 60 45 10
9 51 43 89 74 78 64 173 154 255 244 234 255 411 538 541 865 59 149 124 378
143 505 3 21 8 50 11 64 20 103 30 249 30 440 0 214 -5 279 -41 505 -18 116
-89 362 -149 515 -132 337 -342 656 -605 921 -238 239 -458 398 -745 539 -248
121 -507 208 -735 245 -19 3 -46 7 -60 10 -14 2 -50 7 -80 10 -30 4 -68 9 -85
12 -48 8 -402 10 -490 1z"/>
</g>
</svg>
