<?xml version="1.0" standalone="no"?>
<!DOCTYPE svg PUBLIC "-//W3C//DTD SVG 1.1//EN" "http://www.w3.org/Graphics/SVG/1.1/DTD/svg11.dtd" >
<svg xmlns="http://www.w3.org/2000/svg" xmlns:xlink="http://www.w3.org/1999/xlink" version="1.1">
<metadata>
Created by FontForge 20170731 at Tue Sep 13 13:43:23 2016
 By Aleksey,,,
Copyright (c) 2014 by MCF. All rights reserved.
</metadata>
<defs>
<font id="Pyidaungsu" horiz-adv-x="2" >
  <font-face 
    font-family="Pyidaungsu"
    font-weight="400"
    font-stretch="normal"
    units-per-em="2048"
    panose-1="2 11 5 2 4 2 4 2 2 3"
    ascent="1638"
    descent="-410"
    x-height="995"
    cap-height="1343"
    bbox="-2085 -1063.62 4234 1969.01"
    underline-thickness="119"
    underline-position="-355"
    unicode-range="U+001D-EE9A"
  />
<missing-glyph horiz-adv-x="978" 
d="M100 0v1342h771v-1342h-771zM147 47h677v1248h-677v-1248zM311 1074q29 26 54 40q49 29 105 29q86 0 138.5 -44.5t52.5 -119.5q0 -46 -22 -92.5t-81 -121.5q-59 -74 -93 -123t-34 -93q0 -35 23 -124h-30q-33 91 -33 138q0 71 76.5 204t76.5 203q0 54 -31 84.5t-85 30.5
q-36 0 -65 -15q-24 -14 -52 -38v42zM370 313l54 54q10 9 18 9q10 0 21 -10l52 -56q9 -11 9 -19q0 -10 -9 -21l-53 -58q-13 -13 -20 -13q-10 0 -18 10l-57 66q-7 9 -7 17q0 9 10 21z" />
    <glyph glyph-name=".notdef" horiz-adv-x="978" 
d="M100 0v1342h771v-1342h-771zM147 47h677v1248h-677v-1248zM311 1074q29 26 54 40q49 29 105 29q86 0 138.5 -44.5t52.5 -119.5q0 -46 -22 -92.5t-81 -121.5q-59 -74 -93 -123t-34 -93q0 -35 23 -124h-30q-33 91 -33 138q0 71 76.5 204t76.5 203q0 54 -31 84.5t-85 30.5
q-36 0 -65 -15q-24 -14 -52 -38v42zM370 313l54 54q10 9 18 9q10 0 21 -10l52 -56q9 -11 9 -19q0 -10 -9 -21l-53 -58q-13 -13 -20 -13q-10 0 -18 10l-57 66q-7 9 -7 17q0 9 10 21z" />
    <glyph glyph-name=".null" horiz-adv-x="0" 
 />
    <glyph glyph-name="nonmarkingreturn" horiz-adv-x="561" 
 />
    <glyph glyph-name="uni001D" horiz-adv-x="0" 
 />
    <glyph glyph-name="space" unicode=" " horiz-adv-x="561" 
 />
    <glyph glyph-name="exclam" unicode="!" horiz-adv-x="591" 
d="M215 1180l-4 192h170l-4 -192l-23 -774h-117zM174 102q0 60 36 95.5t87 35.5q49 0 85 -35.5t36 -95.5q0 -55 -36 -91t-85 -36q-51 0 -87 36t-36 91z" />
    <glyph glyph-name="quotedbl" unicode="&#x22;" horiz-adv-x="872" 
d="M169 1225l-6 188h180l-6 -188l-33 -342h-102zM530 1225l-5 188h179l-4 -188l-33 -342h-105z" />
    <glyph glyph-name="numbersign" unicode="#" horiz-adv-x="1017" 
d="M235 418h-164v117h178l37 303h-174v118h188l47 375h109l-47 -375h272l49 375h109l-49 -375h166v-118h-178l-37 -303h174v-117h-189l-51 -418h-108l49 418h-271l-51 -418h-110zM630 535l37 303h-270l-37 -303h270z" />
    <glyph glyph-name="dollar" unicode="$" horiz-adv-x="1017" 
d="M778 1073q-58 55 -112 86t-138 31q-94 0 -149.5 -53.5t-55.5 -143.5q0 -73 42 -120.5t105.5 -83t138.5 -69.5t138.5 -82t105 -118.5t41.5 -181.5q0 -148 -85 -242t-232 -114v-207h-123v202q-98 11 -190 55t-158 103l78 117q65 -57 144 -97t173 -40q115 0 171.5 57
t56.5 154q0 82 -42 136t-105.5 94t-138.5 75t-138.5 80t-105.5 109.5t-42 164.5q0 137 81 228.5t216 113.5v205h123v-203q98 -10 167 -53t124 -102z" />
    <glyph glyph-name="percent" unicode="%" horiz-adv-x="1687" 
d="M376 520q-139 0 -222 110.5t-83 315.5t83 313.5t222 108.5q137 0 221 -108.5t84 -313.5t-84 -315.5t-221 -110.5zM376 625q78 0 127 80.5t49 240.5q0 162 -49 240t-127 78q-80 0 -129 -78t-49 -240q0 -160 49 -240.5t129 -80.5zM415 -25l741 1393h113l-741 -1393h-113z
M1312 -25q-139 0 -222 111t-83 315q0 203 83 312.5t222 109.5q137 0 221 -109.5t84 -312.5q0 -204 -84 -315t-221 -111zM1312 80q78 0 127 81t49 240q0 160 -49 239t-127 79t-128 -79t-50 -239q0 -159 50 -240t128 -81z" />
    <glyph glyph-name="ampersand" unicode="&#x26;" horiz-adv-x="1247" 
d="M229 358q0 -55 20.5 -101t56 -79t84 -50t103.5 -17q70 0 133.5 28.5t122.5 79.5q-98 86 -189.5 188.5t-162.5 210.5q-72 -57 -120 -119.5t-48 -140.5zM387 1053q0 -56 17 -115t46 -121q45 31 87 62.5t74 65.5t50 72t18 83q0 59 -29.5 103t-97.5 44q-75 0 -120 -55
t-45 -139zM1171 -25q-72 21 -149.5 59t-159.5 95q-78 -70 -173.5 -112t-213.5 -42q-93 0 -167.5 28t-129 77t-84 117.5t-29.5 150.5q0 68 21.5 123t58.5 102.5t85 87t99 74.5q-41 84 -64.5 163t-23.5 153q0 67 22.5 124.5t63.5 100.5t98.5 67.5t126.5 24.5q125 0 195 -73.5
t70 -192.5q0 -66 -27 -121t-70 -103.5t-97 -90.5t-109 -82q65 -105 154 -201t185 -176q62 84 110 182t79 215h158q-41 -133 -98.5 -254t-137.5 -227q70 -47 133.5 -80t118.5 -49z" />
    <glyph glyph-name="quotesingle" unicode="'" horiz-adv-x="509" 
d="M169 1225l-6 188h180l-6 -188l-33 -342h-102z" />
    <glyph glyph-name="parenleft" unicode="(" horiz-adv-x="747" 
d="M437 -360q-127 204 -198.5 431.5t-71.5 497.5q0 271 71.5 497t198.5 433l105 -49q-119 -197 -177.5 -421t-58.5 -460q0 -235 58.5 -459.5t177.5 -420.5z" />
    <glyph glyph-name="parenright" unicode=")" horiz-adv-x="620" 
d="M77 -311q119 196 177.5 420.5t58.5 459.5q0 236 -58.5 460t-177.5 421l104 49q127 -207 199 -433t72 -497q0 -270 -72 -497.5t-199 -431.5z" />
    <glyph glyph-name="asterisk" unicode="*" horiz-adv-x="856" 
d="M200 920l117 192l-199 82l31 94l209 -51l18 221h100l19 -219l211 49l30 -94l-198 -82l115 -192l-80 -60l-146 176l-145 -176z" />
    <glyph glyph-name="plus" unicode="+" horiz-adv-x="1017" 
d="M442 612h-373v127h373v400h133v-400h373v-127h-373v-399h-133v399z" />
    <glyph glyph-name="comma" unicode="," horiz-adv-x="509" 
d="M96 -250q86 39 135 102.5t49 147.5q-6 -2 -20 -2q-49 0 -85 29.5t-36 87.5q0 55 37 86.5t88 31.5q65 0 103 -53t38 -145q0 -133 -71.5 -231.5t-196.5 -151.5z" />
    <glyph glyph-name="hyphen" unicode="-" horiz-adv-x="636" 
d="M83 578h471v-129h-471v129z" />
    <glyph glyph-name="period" unicode="." horiz-adv-x="509" 
d="M133 102q0 60 36 95.5t87 35.5q49 0 85 -35.5t36 -95.5q0 -55 -36 -91t-85 -36q-51 0 -87 36t-36 91z" />
    <glyph glyph-name="slash" unicode="/" horiz-adv-x="716" 
d="M567 1454h123l-547 -1782h-123z" />
    <glyph glyph-name="zero" unicode="0" horiz-adv-x="1017" 
d="M510 -25q-199 0 -309.5 176.5t-110.5 505.5q0 330 110.5 502t309.5 172q196 0 307 -172t111 -502q0 -329 -111 -505.5t-307 -176.5zM510 111q57 0 103 31.5t80 98t52.5 170t18.5 246.5q0 144 -18.5 246.5t-52.5 167t-80 95t-103 30.5q-58 0 -105 -30.5t-80.5 -95
t-52 -167t-18.5 -246.5q0 -286 70.5 -416t185.5 -130z" />
    <glyph glyph-name="one" unicode="1" horiz-adv-x="997" 
d="M161 139h299v963h-238v108q91 17 157.5 40.5t119.5 56.5h129v-1168h270v-139h-737v139z" />
    <glyph glyph-name="two" unicode="2" horiz-adv-x="1017" 
d="M81 100q148 148 262.5 266.5t192.5 220t119 186.5t41 165q0 113 -61.5 184.5t-186.5 71.5q-82 0 -151.5 -46t-127.5 -112l-96 97q82 90 174 144t221 54q183 0 287 -105.5t104 -279.5q0 -92 -39.5 -185t-110.5 -192.5t-168 -207t-214 -228.5q53 4 110.5 8t108.5 4h379
v-145h-844v100z" />
    <glyph glyph-name="three" unicode="3" horiz-adv-x="1017" 
d="M139 270q59 -61 138 -108t196 -47q119 0 194.5 64.5t75.5 174.5q0 58 -21.5 106t-70.5 83t-129 53t-197 18v129q105 0 175.5 18.5t114.5 51.5t62.5 78t18.5 96q0 96 -60.5 151.5t-164.5 55.5q-82 0 -150.5 -37t-128.5 -96l-90 106q76 72 167 118t208 46q86 0 157.5 -22.5
t124 -64.5t81 -103.5t28.5 -141.5q0 -118 -65.5 -194t-171.5 -117v-8q59 -14 110 -42t90 -70t60.5 -97t21.5 -123q0 -86 -33.5 -155.5t-92 -117.5t-136.5 -74t-168 -26q-78 0 -142.5 15.5t-117.5 41t-95 58.5t-75 70z" />
    <glyph glyph-name="four" unicode="4" horiz-adv-x="1017" 
d="M622 496v378q0 54 3 126.5t7 125.5h-8q-25 -47 -51.5 -92t-55.5 -92l-305 -446h410zM960 360h-178v-360h-160v360h-588v111l559 836h189v-811h178v-136z" />
    <glyph glyph-name="five" unicode="5" horiz-adv-x="1017" 
d="M133 264q57 -59 136 -104t194 -45q59 0 111 21.5t91 60.5t61.5 94t22.5 123q0 135 -75.5 210.5t-202.5 75.5q-68 0 -116 -20.5t-107 -58.5l-91 57l44 629h653v-146h-506l-35 -387q47 25 94 39t107 14q84 0 157.5 -24.5t129 -74.5t87 -127t31.5 -183q0 -107 -36.5 -189
t-98 -138t-140.5 -86t-165 -30q-78 0 -142.5 15.5t-116.5 40t-94 56.5t-75 67z" />
    <glyph glyph-name="six" unicode="6" horiz-adv-x="1017" 
d="M549 109q49 0 90 20.5t71.5 58t48 90t17.5 117.5q0 129 -59.5 203t-182.5 74q-61 0 -134 -40t-138 -132q16 -193 89 -292t198 -99zM817 1087q-41 48 -97.5 75.5t-117.5 27.5q-68 0 -129.5 -28.5t-108.5 -94.5t-75.5 -171t-30.5 -261q61 76 143 120t162 44
q170 0 271.5 -100.5t101.5 -303.5q0 -94 -31 -171t-84 -132t-123 -86t-149 -31q-97 0 -179 39t-142 118t-95 196.5t-35 275.5q0 197 41 335t110.5 225t158.5 127t188 40q106 0 183 -40t132 -99z" />
    <glyph glyph-name="seven" unicode="7" horiz-adv-x="1017" 
d="M362 0q9 184 33.5 338t68.5 292t112.5 267t164.5 264h-651v146h842v-105q-117 -147 -189.5 -282.5t-115.5 -275.5t-62.5 -297t-28.5 -347h-174z" />
    <glyph glyph-name="eight" unicode="8" horiz-adv-x="1017" 
d="M235 350q0 -55 21.5 -100t59 -79t89 -52.5t110.5 -18.5q115 0 185.5 63.5t70.5 166.5q0 63 -28.5 108t-78 79t-114 61.5t-133.5 56.5q-78 -53 -130 -124t-52 -161zM603 713q66 59 101.5 124.5t35.5 137.5q0 98 -59 164.5t-168 66.5q-92 0 -151.5 -57t-59.5 -154
q0 -59 24.5 -101t66.5 -75t96.5 -58.5t113.5 -47.5zM83 334q0 63 21.5 117.5t55.5 98.5t78 78t91 58v8q-72 51 -127.5 124t-55.5 177q0 76 29 137.5t78 105.5t116.5 68.5t147.5 24.5q86 0 153.5 -25.5t116 -71.5t74 -110.5t25.5 -140.5q0 -51 -17.5 -98t-43 -88t-57.5 -74
t-62 -55v-9q43 -24 84 -56t72.5 -71.5t51 -91t19.5 -116.5q0 -74 -31 -137.5t-86 -110.5t-133 -74t-172 -27q-92 0 -171 27t-135 75t-89 113.5t-33 143.5z" />
    <glyph glyph-name="nine" unicode="9" horiz-adv-x="1017" 
d="M480 635q64 0 136.5 40t138.5 134q-17 192 -90.5 290.5t-198.5 98.5q-47 0 -89 -20.5t-72.5 -58.5t-48 -91t-17.5 -117q0 -129 59 -202.5t182 -73.5zM198 219q41 -47 97 -75.5t118 -28.5q69 0 130.5 28.5t108.5 95t76 173t31 264.5q-62 -78 -143.5 -123t-163.5 -45
q-170 0 -270.5 100.5t-100.5 302.5q0 95 30.5 171.5t83 132t123 86t148.5 30.5q96 0 179 -39t143.5 -117.5t94.5 -196.5t34 -276q0 -196 -41 -334.5t-111 -225.5t-159 -127t-187 -40q-105 0 -183.5 39t-131.5 99z" />
    <glyph glyph-name="colon" unicode=":" horiz-adv-x="509" 
d="M133 842q0 59 36 94t87 35q49 0 85 -35t36 -94q0 -58 -36 -92.5t-85 -34.5q-51 0 -87 34.5t-36 92.5zM133 102q0 60 36 95.5t87 35.5q49 0 85 -35.5t36 -95.5q0 -55 -36 -91t-85 -36q-51 0 -87 36t-36 91z" />
    <glyph glyph-name="semicolon" unicode=";" horiz-adv-x="509" 
d="M256 715q-51 0 -87 34.5t-36 92.5q0 59 36 94t87 35q49 0 85 -35t36 -94q0 -58 -36 -92.5t-85 -34.5zM96 -250q86 39 135 102.5t49 147.5q-6 -2 -20 -2q-49 0 -85 29.5t-36 87.5q0 55 37 86.5t88 31.5q65 0 103 -53t38 -145q0 -133 -71.5 -231.5t-196.5 -151.5z" />
    <glyph glyph-name="less" unicode="&#x3c;" horiz-adv-x="1017" 
d="M69 748l879 344v-146l-433 -160l-274 -102v-8l274 -103l433 -159v-146l-879 344v136z" />
    <glyph glyph-name="equal" unicode="=" horiz-adv-x="1017" 
d="M69 958h879v-127h-879v127zM69 520h879v-127h-879v127z" />
    <glyph glyph-name="greater" unicode="&#x3e;" horiz-adv-x="1017" 
d="M948 612l-879 -344v146l432 159l275 103v8l-275 102l-432 160v146l879 -344v-136z" />
    <glyph glyph-name="question" unicode="?" horiz-adv-x="870" 
d="M327 406q-12 79 5 143.5t48 119t71 101.5t74.5 93t58 93.5t23.5 102.5q0 82 -50 140t-148 58q-68 0 -128.5 -31.5t-107.5 -86.5l-96 88q66 73 149.5 121.5t194.5 48.5q160 0 255 -87t95 -241q0 -68 -24.5 -123t-60.5 -104t-75.5 -97.5t-73.5 -99.5t-52.5 -109.5
t-10.5 -129.5h-147zM284 102q0 60 34.5 95.5t86.5 35.5q51 0 87 -35.5t36 -95.5q0 -55 -36 -91t-87 -36q-52 0 -86.5 36t-34.5 91z" />
    <glyph glyph-name="at" unicode="@" horiz-adv-x="1734" 
d="M104 416q0 205 68.5 372.5t186.5 286.5t272.5 183.5t326.5 64.5q156 0 279.5 -49t211 -138t134.5 -214t47 -277q0 -135 -38 -236.5t-97.5 -170t-132 -103.5t-142.5 -35q-84 0 -142.5 39t-68.5 117h-4q-51 -59 -116.5 -99t-133.5 -40q-104 0 -174.5 73.5t-70.5 215.5
q0 81 27.5 166t78.5 154t124 112t163 43q53 0 94 -23.5t70 -75.5h4l22 82h113l-80 -409q-61 -240 111 -240q49 0 97 28.5t88 83t64.5 133.5t24.5 179q0 123 -36 228.5t-107.5 181t-178 118.5t-245.5 43q-138 0 -267 -56t-229 -158.5t-160.5 -248t-60.5 -325.5
q0 -150 46 -266.5t128 -196.5t193.5 -122t242.5 -42q94 0 178 25.5t154 66.5l45 -100q-174 -104 -389 -104q-152 0 -283 47t-228 140t-153.5 230.5t-56.5 315.5zM645 416q0 -99 41 -142t102 -43q43 0 89 29t99 92l60 326q-29 47 -59.5 66.5t-71.5 19.5q-62 0 -110 -33
t-82 -84t-51 -112.5t-17 -118.5z" />
    <glyph glyph-name="A" unicode="A" horiz-adv-x="1114" 
d="M756 547l-64 205q-37 112 -69.5 223.5t-65.5 228.5h-8q-31 -117 -64 -228.5t-69 -223.5l-64 -205h404zM799 410h-490l-129 -410h-174l455 1343h192l455 -1343h-182z" />
    <glyph glyph-name="B" unicode="B" horiz-adv-x="1204" 
d="M184 1343h399q103 0 188 -18t145.5 -57t94 -101.5t33.5 -150.5q0 -101 -57.5 -181.5t-175.5 -111.5v-8q147 -23 229 -103t82 -219q0 -98 -37 -172t-104.5 -123t-161.5 -73.5t-207 -24.5h-428v1343zM553 770q174 0 248.5 59.5t74.5 171.5q0 111 -78.5 159t-236.5 48h-207
v-438h199zM587 135q175 0 271 64.5t96 201.5q0 125 -94 183.5t-273 58.5h-233v-508h233z" />
    <glyph glyph-name="C" unicode="C" horiz-adv-x="1169" 
d="M106 672q0 162 45 291t125 219t189.5 138t238.5 48q123 0 215 -50t152 -116l-97 -108q-53 57 -117.5 91t-150.5 34q-96 0 -174 -38t-133 -109t-86 -171t-31 -225q0 -127 30 -228.5t83 -173t130 -110.5t173 -39q98 0 171 39t138 110l96 -104q-79 -92 -179.5 -143.5
t-229.5 -51.5q-127 0 -234.5 47.5t-186.5 136.5t-123 219t-44 294z" />
    <glyph glyph-name="D" unicode="D" horiz-adv-x="1259" 
d="M184 1343h336q311 0 473 -172t162 -493q0 -160 -41 -286t-121 -213t-196.5 -133t-268.5 -46h-344v1343zM508 139q235 0 353 141.5t118 397.5t-118 391t-353 135h-154v-1065h154z" />
    <glyph glyph-name="E" unicode="E" horiz-adv-x="1079" 
d="M184 1343h774v-143h-604v-422h510v-145h-510v-488h625v-145h-795v1343z" />
    <glyph glyph-name="F" unicode="F" horiz-adv-x="1011" 
d="M184 1343h774v-143h-604v-455h512v-143h-512v-602h-170v1343z" />
    <glyph glyph-name="G" unicode="G" horiz-adv-x="1263" 
d="M106 672q0 162 46 291t129 219t195.5 138t247.5 48q140 0 233 -52t153 -114l-97 -108q-51 53 -117.5 89t-168.5 36q-103 0 -185 -38t-139 -109t-89 -171t-32 -225q0 -127 30 -228.5t86 -173t139 -110.5t192 -39q71 0 135.5 21.5t105.5 58.5v350h-284v141h440v-565
q-66 -68 -173.5 -112t-242.5 -44q-133 0 -243.5 47.5t-190.5 136.5t-125 219t-45 294z" />
    <glyph glyph-name="H" unicode="H" horiz-adv-x="1335" 
d="M184 1343h170v-563h625v563h172v-1343h-172v633h-625v-633h-170v1343z" />
    <glyph glyph-name="I" unicode="I" horiz-adv-x="538" 
d="M184 1343h170v-1343h-170v1343z" />
    <glyph glyph-name="J" unicode="J" horiz-adv-x="983" 
d="M186 276q45 -79 102.5 -115t128.5 -36q109 0 162 66.5t53 220.5v931h172v-948q0 -86 -21.5 -162.5t-65.5 -134t-114.5 -90.5t-168.5 -33q-252 0 -371 215z" />
    <glyph glyph-name="K" unicode="K" horiz-adv-x="1185" 
d="M184 1343h170v-673h6l559 673h193l-420 -512l485 -831h-190l-402 698l-231 -272v-426h-170v1343z" />
    <glyph glyph-name="L" unicode="L" horiz-adv-x="995" 
d="M184 1343h170v-1198h588v-145h-758v1343z" />
    <glyph glyph-name="M" unicode="M" horiz-adv-x="1488" 
d="M184 1343h201l260 -720l98 -275h8l95 275l258 720h200v-1343h-162v739q0 90 7.5 199t15.5 199h-8l-109 -299l-258 -703h-96l-260 703l-107 299h-8q6 -90 14.5 -199t8.5 -199v-739h-158v1343z" />
    <glyph glyph-name="N" unicode="N" horiz-adv-x="1325" 
d="M184 1343h176l486 -843l145 -279h8q-6 103 -13 212.5t-7 215.5v694h161v-1343h-176l-487 846l-146 276h-8q8 -102 15.5 -207.5t7.5 -212.5v-702h-162v1343z" />
    <glyph glyph-name="O" unicode="O" horiz-adv-x="1359" 
d="M679 -25q-127 0 -232 49.5t-181 140.5t-118 221t-42 292t42 290t118 217t181 136t232 47t232.5 -48t182.5 -137t119 -217t42 -288q0 -162 -42 -292t-119 -221t-182.5 -140.5t-232.5 -49.5zM679 125q91 0 163.5 39t124.5 111.5t81 174t29 228.5q0 125 -29 225.5t-81 170
t-124.5 107.5t-163.5 38q-90 0 -162.5 -38t-125 -107.5t-81 -170t-28.5 -225.5q0 -127 28.5 -228.5t81 -174t125 -111.5t162.5 -39z" />
    <glyph glyph-name="P" unicode="P" horiz-adv-x="1179" 
d="M184 1343h412q110 0 202.5 -20t157 -66.5t100 -122t35.5 -186.5q0 -106 -35.5 -184t-101 -129t-157 -77t-201.5 -26h-242v-532h-170v1343zM575 672q176 0 261 66.5t85 209.5q0 146 -86 202t-260 56h-221v-534h221z" />
    <glyph glyph-name="Q" unicode="Q" horiz-adv-x="1359" 
d="M282 678q0 -129 28.5 -232.5t81 -177t125 -112.5t162.5 -39q91 0 163.5 39t124.5 112.5t81 177t29 232.5q0 125 -29 225.5t-81 170t-124.5 107.5t-163.5 38q-90 0 -162.5 -38t-125 -107.5t-81 -170t-28.5 -225.5zM1284 -305q-31 -10 -82.5 -20.5t-110.5 -10.5
q-186 0 -311 89t-185 229q-110 14 -200 69t-154.5 145.5t-99.5 212t-35 269.5q0 162 42 290t118 217t181 136t232 47t232.5 -48t182.5 -137t119 -217t42 -288q0 -146 -34 -265.5t-96.5 -208.5t-150.5 -145.5t-194 -74.5q47 -90 133 -133.5t197 -43.5q45 0 78.5 6.5
t62.5 14.5z" />
    <glyph glyph-name="R" unicode="R" horiz-adv-x="1189" 
d="M354 707h225q158 0 242 64.5t84 195.5q0 133 -84 186t-242 53h-225v-499zM921 0l-323 567h-244v-567h-170v1343h420q102 0 189 -19t149.5 -64.5t97.5 -117t35 -175.5q0 -158 -82 -252t-219 -129l340 -586h-193z" />
    <glyph glyph-name="S" unicode="S" horiz-adv-x="1093" 
d="M188 293q72 -76 169.5 -122t201.5 -46q133 0 207 60.5t74 158.5q0 51 -17.5 87t-47.5 61.5t-70.5 46t-88.5 43.5l-192 84q-47 20 -96 48.5t-88 69.5t-63.5 97.5t-24.5 130.5q0 75 31.5 141t88 114t133 74.5t168.5 26.5q121 0 223.5 -46t174.5 -120l-92 -110
q-62 59 -136.5 93t-169.5 34q-112 0 -180.5 -52.5t-68.5 -144.5q0 -49 19 -83t52 -59.5t72 -45t80 -35.5l190 -82q58 -25 109 -56.5t88 -73.5t58.5 -98.5t21.5 -130.5q0 -79 -32 -149t-91.5 -122t-143 -82t-190.5 -30q-141 0 -262 53.5t-209 145.5z" />
    <glyph glyph-name="T" unicode="T" horiz-adv-x="1097" 
d="M463 1200h-406v143h983v-143h-405v-1200h-172v1200z" />
    <glyph glyph-name="U" unicode="U" horiz-adv-x="1320" 
d="M178 1343h170v-792q0 -121 24.5 -203t66.5 -131t99.5 -70.5t122.5 -21.5q68 0 125.5 21.5t100.5 70.5t67.5 131t24.5 203v792h164v-788q0 -162 -37 -272.5t-101.5 -179t-152.5 -98.5t-191 -30q-102 0 -191 30t-153.5 98.5t-101.5 179t-37 272.5v788z" />
    <glyph glyph-name="V" unicode="V" horiz-adv-x="1054" 
d="M0 1343h182l215 -725q37 -120 64.5 -222.5t66.5 -221.5h9q36 119 65 221.5t64 222.5l215 725h174l-426 -1343h-199z" />
    <glyph glyph-name="W" unicode="W" horiz-adv-x="1609" 
d="M47 1343h176l141 -731q19 -110 39.5 -216.5t38.5 -217.5h8q23 111 47.5 218.5t47.5 215.5l186 731h156l186 -731q25 -106 49.5 -214.5t48.5 -219.5h9q18 111 36.5 218.5t38.5 215.5l142 731h163l-278 -1343h-205l-203 809q-18 78 -33.5 152.5t-31.5 152.5h-8
q-17 -78 -34.5 -152.5t-33.5 -152.5l-199 -809h-202z" />
    <glyph glyph-name="X" unicode="X" horiz-adv-x="1050" 
d="M421 694l-364 649h188l182 -344q27 -47 50.5 -91t54.5 -103h8q29 59 50.5 103t45.5 91l178 344h181l-367 -657l391 -686h-188l-197 362q-26 50 -54 102t-61 114h-8q-28 -62 -55 -114t-51 -102l-195 -362h-180z" />
    <glyph glyph-name="Y" unicode="Y" horiz-adv-x="974" 
d="M401 520l-403 823h182l174 -378q33 -74 64 -145.5t65 -147.5h9q34 76 69 147.5t66 145.5l172 378h178l-404 -823v-520h-172v520z" />
    <glyph glyph-name="Z" unicode="Z" horiz-adv-x="1103" 
d="M92 102l707 1098h-644v143h857v-100l-709 -1098h715v-145h-926v102z" />
    <glyph glyph-name="bracketleft" unicode="[" horiz-adv-x="620" 
d="M192 1450h367v-96h-240v-1569h240v-96h-367v1761z" />
    <glyph glyph-name="backslash" unicode="\" horiz-adv-x="716" 
d="M28 1454h121l547 -1782h-121z" />
    <glyph glyph-name="bracketright" unicode="]" horiz-adv-x="620" 
d="M301 -215v1569h-238v96h365v-1761h-365v96h238z" />
    <glyph glyph-name="asciicircum" unicode="^" horiz-adv-x="1017" 
d="M433 1372h150l311 -790h-147l-133 360l-101 272h-8l-102 -272l-134 -360h-147z" />
    <glyph glyph-name="underscore" unicode="_" horiz-adv-x="1024" 
d="M999 -145v-113h-975v113h975z" />
    <glyph glyph-name="grave" unicode="`" horiz-adv-x="1110" 
d="M327 1462h176l184 -288h-129z" />
    <glyph glyph-name="a" unicode="a" horiz-adv-x="1048" 
d="M118 258q0 164 146.5 251t465.5 122q0 47 -9 92t-32.5 80t-62.5 56.5t-100 21.5q-89 0 -163.5 -33t-133.5 -74l-68 117q70 45 170 87t221 42q182 0 264 -111.5t82 -298.5v-610h-139l-14 119h-4q-72 -60 -155 -102t-175 -42q-127 0 -210 74t-83 209zM284 270
q0 -86 50 -122.5t124 -36.5q72 0 136.5 33.5t135.5 99.5v276q-125 -16 -211 -38.5t-138 -53.5t-74.5 -71t-22.5 -87z" />
    <glyph glyph-name="b" unicode="b" horiz-adv-x="1136" 
d="M167 1458h168v-397l-4 -180q67 59 147 99t164 40q96 0 170 -36t124 -102.5t75.5 -159.5t25.5 -208q0 -127 -34.5 -227.5t-94 -170t-137.5 -105.5t-164 -36q-69 0 -144 32t-140 91h-6l-15 -98h-135v1458zM335 221q65 -57 129.5 -80.5t114.5 -23.5q61 0 113.5 27.5t90 77.5
t59 124t21.5 166q0 82 -14 149.5t-46 115.5t-82 75t-120 27q-121 0 -266 -136v-522z" />
    <glyph glyph-name="c" unicode="c" horiz-adv-x="933" 
d="M94 496q0 125 39 222t104.5 164.5t152.5 102.5t183 35q99 0 169.5 -36t121.5 -83l-84 -108q-45 38 -93 63t-108 25q-67 0 -124.5 -28t-98.5 -79t-64.5 -121.5t-23.5 -156.5t22.5 -156t62.5 -120t97.5 -77.5t124.5 -27.5q72 0 130.5 29.5t103.5 70.5l76 -111
q-68 -59 -151 -94t-173 -35q-98 0 -184 35t-148.5 101.5t-98.5 164t-36 220.5z" />
    <glyph glyph-name="d" unicode="d" horiz-adv-x="1136" 
d="M96 496q0 120 36 217.5t95 165t137 104.5t164 37t149.5 -31t129.5 -84l-9 170v383h170v-1458h-139l-14 117h-6q-60 -58 -136.5 -100t-164.5 -42q-189 0 -300.5 135.5t-111.5 385.5zM270 498q0 -181 71.5 -281t203.5 -100q69 0 130.5 33.5t122.5 103.5v520
q-63 57 -121.5 81t-119.5 24q-60 0 -112 -28t-91 -78t-61.5 -119.5t-22.5 -155.5z" />
    <glyph glyph-name="e" unicode="e" horiz-adv-x="1015" 
d="M94 496q0 122 38 219.5t100.5 165t142 103.5t165.5 36q95 0 169.5 -33t125 -94.5t77 -147.5t26.5 -192q0 -55 -6 -92h-672q10 -162 99 -256t233 -94q71 0 131.5 21.5t115.5 55.5l60 -110q-66 -41 -145.5 -72t-182.5 -31q-100 0 -187 36t-151.5 102.5t-101.5 163
t-37 219.5zM790 571q0 154 -64.5 235t-180.5 81q-54 0 -102 -21.5t-87 -61.5t-64.5 -98.5t-33.5 -134.5h532z" />
    <glyph glyph-name="f" unicode="f" horiz-adv-x="598" 
d="M616 1321q-55 25 -113 25q-139 0 -139 -193v-158h211v-137h-211v-858h-168v858h-135v127l135 10v158q0 154 70.5 242t220.5 88q47 0 89 -9.5t77 -23.5z" />
    <glyph glyph-name="g" unicode="g" horiz-adv-x="1032" 
d="M239 -168q0 -80 77 -127t212 -47q72 0 130.5 17.5t99.5 45t63.5 64.5t22.5 76q0 69 -51.5 96t-149.5 27h-172q-29 0 -62.5 3t-66.5 13q-53 -39 -78 -82t-25 -86zM92 -190q0 63 39 120.5t106 104.5v8q-36 23 -62 62.5t-26 99.5q0 63 35 110t74 74v8q-49 41 -89 109.5
t-40 159.5q0 82 29.5 147.5t81 111.5t120 70.5t144.5 24.5q41 0 76.5 -7t64.5 -18h346v-129h-205q35 -35 58.5 -88t23.5 -116q0 -80 -28.5 -144.5t-77.5 -108.5t-116 -69t-142 -25q-37 0 -76 9.5t-74 25.5q-26 -22 -44.5 -50t-18.5 -69q0 -47 36.5 -77.5t139.5 -30.5h192
q174 0 261 -56.5t87 -181.5q0 -69 -34.5 -131.5t-100 -109.5t-159 -75t-209.5 -28q-93 0 -168.5 17.5t-130 52.5t-84 84t-29.5 115zM504 428q43 0 80.5 16.5t67.5 47t46.5 74.5t16.5 100q0 110 -61.5 170.5t-149.5 60.5t-149.5 -60.5t-61.5 -170.5q0 -56 16 -100t46 -74.5
t68 -47t81 -16.5z" />
    <glyph glyph-name="h" unicode="h" horiz-adv-x="1114" 
d="M167 1458h168v-397l-6 -205q71 68 149 116t183 48q157 0 230 -98.5t73 -290.5v-631h-168v608q0 142 -45 204t-144 62q-78 0 -137 -38.5t-135 -114.5v-721h-168v1458z" />
    <glyph glyph-name="i" unicode="i" horiz-adv-x="503" 
d="M254 1200q-49 0 -83 31t-34 78q0 49 34 78.5t83 29.5t82.5 -29.5t33.5 -78.5q0 -47 -33.5 -78t-82.5 -31zM168 995h168v-995h-168v995z" />
    <glyph glyph-name="j" unicode="j" horiz-adv-x="505" 
d="M171 995h168v-1108q0 -151 -61.5 -241t-211.5 -90q-47 0 -83.5 8t-63.5 18l35 127q18 -6 42.5 -11t51.5 -5q74 0 98.5 51t24.5 143v1108zM257 1200q-49 0 -83 31t-34 78q0 49 34 78.5t83 29.5q47 0 81 -29.5t34 -78.5q0 -47 -34 -78t-81 -31z" />
    <glyph glyph-name="k" unicode="k" horiz-adv-x="1013" 
d="M167 1458h166v-987h6l424 524h186l-333 -399l378 -596h-184l-291 479l-186 -217v-262h-166v1458z" />
    <glyph glyph-name="l" unicode="l" horiz-adv-x="522" 
d="M167 1458h168v-1270q0 -41 14.5 -57t32.5 -16h15.5t21.5 4l22 -127q-16 -8 -38.5 -12.5t-57.5 -4.5q-96 0 -137 57.5t-41 168.5v1257z" />
    <glyph glyph-name="m" unicode="m" horiz-adv-x="1697" 
d="M167 995h139l15 -143h6q65 72 142 120t167 48q115 0 179.5 -50t94.5 -141q78 86 157 138.5t171 52.5q154 0 228.5 -98.5t74.5 -290.5v-631h-168v608q0 142 -45 204t-139 62q-113 0 -250 -153v-721h-168v608q0 142 -45 204t-141 62q-113 0 -250 -153v-721h-168v995z" />
    <glyph glyph-name="n" unicode="n" horiz-adv-x="1120" 
d="M167 995h139l15 -143h6q71 72 150 120t184 48q157 0 230 -98.5t73 -290.5v-631h-168v608q0 142 -45 204t-144 62q-78 0 -137 -38.5t-135 -114.5v-721h-168v995z" />
    <glyph glyph-name="o" unicode="o" horiz-adv-x="1110" 
d="M94 496q0 125 38 222t101.5 164.5t146.5 102.5t175 35t175 -35t146.5 -102.5t101.5 -164.5t38 -222q0 -123 -38 -220.5t-101.5 -164t-146.5 -101.5t-175 -35t-175 35t-146.5 101.5t-101.5 164t-38 220.5zM268 496q0 -86 20.5 -156t58.5 -120t91 -77.5t117 -27.5
q63 0 116.5 27.5t91.5 77.5t58.5 120t20.5 156t-20.5 156.5t-58.5 121.5t-91.5 79t-116.5 28q-64 0 -117 -28t-91 -79t-58.5 -121.5t-20.5 -156.5z" />
    <glyph glyph-name="p" unicode="p" horiz-adv-x="1136" 
d="M335 -84v-336h-168v1415h139l15 -114h6q67 57 148 98t169 41q96 0 170 -36t123 -102.5t74.5 -159.5t25.5 -210q0 -127 -34.5 -226.5t-94 -169t-137.5 -105.5t-164 -36q-69 0 -138 31t-138 84zM335 221q68 -57 131 -80.5t113 -23.5q61 0 113.5 27.5t90 77.5t59 124
t21.5 166q0 82 -14 149.5t-46 115.5t-82 75t-120 27q-63 0 -127.5 -35t-138.5 -101v-522z" />
    <glyph glyph-name="q" unicode="q" horiz-adv-x="1126" 
d="M96 496q0 120 36 217.5t95 165t137 104.5t164 37t151.5 -29.5t133.5 -89.5h4l16 94h135v-1415h-170v354l9 177q-60 -56 -136.5 -96t-162.5 -40q-189 0 -300.5 135.5t-111.5 385.5zM270 498q0 -181 71.5 -281t203.5 -100q69 0 130.5 33.5t122.5 103.5v520
q-63 57 -121.5 81t-119.5 24q-60 0 -112 -28t-91 -78t-61.5 -119.5t-22.5 -155.5z" />
    <glyph glyph-name="r" unicode="r" horiz-adv-x="710" 
d="M167 995h139l15 -180h6q51 94 123.5 149.5t158.5 55.5q60 0 107 -21l-33 -147q-24 8 -44.5 12t-51.5 4q-64 0 -132.5 -51t-119.5 -178v-639h-168v995z" />
    <glyph glyph-name="s" unicode="s" horiz-adv-x="858" 
d="M141 225q66 -53 134.5 -86t158.5 -33q98 0 147 45.5t49 110.5q0 39 -20.5 67.5t-52 50t-72.5 38t-82 33.5q-53 18 -106.5 41.5t-95.5 57.5t-68.5 79t-26.5 108q0 60 23.5 112t67.5 90t107.5 59.5t143.5 21.5q94 0 173 -33t136 -80l-79 -106q-52 39 -107 63.5t-121 24.5
q-94 0 -138 -43t-44 -101q0 -34 18.5 -60t49 -45t70.5 -34.5t83 -32.5q53 -20 107.5 -42.5t97.5 -56.5t70.5 -83t27.5 -119q0 -61 -23.5 -114.5t-69.5 -94t-114.5 -64.5t-156.5 -24q-107 0 -203 39t-168 99z" />
    <glyph glyph-name="t" unicode="t" horiz-adv-x="692" 
d="M196 858h-147v127l156 10l20 279h141v-279h269v-137h-269v-553q0 -92 34 -142t120 -50q27 0 57.5 8t55.5 18l32 -127q-41 -14 -89 -25.5t-95 -11.5q-80 0 -134 25t-88 68t-48.5 104t-14.5 135v551z" />
    <glyph glyph-name="u" unicode="u" horiz-adv-x="1114" 
d="M153 995h170v-608q0 -141 44 -203.5t142 -62.5q78 0 137.5 40t131.5 128v706h168v-995h-140l-14 156h-6q-70 -82 -146.5 -131.5t-181.5 -49.5q-160 0 -232.5 98.5t-72.5 291.5v630z" />
    <glyph glyph-name="v" unicode="v" horiz-adv-x="956" 
d="M24 995h174l188 -565q23 -74 46.5 -147.5t46.5 -145.5h8q22 72 44.5 145.5t45.5 147.5l188 565h166l-352 -995h-197z" />
    <glyph glyph-name="w" unicode="w" horiz-adv-x="1470" 
d="M49 995h172l147 -575q17 -72 31.5 -139.5t28.5 -137.5h8q16 70 32.5 138.5t35.5 138.5l153 575h164l156 -575q18 -72 35.5 -139.5t33.5 -137.5h9q16 70 30.5 137.5t30.5 139.5l145 575h160l-266 -995h-205l-143 535q-19 71 -34 140.5t-34 145.5h-8q-16 -76 -32.5 -146.5
t-37.5 -142.5l-139 -532h-197z" />
    <glyph glyph-name="x" unicode="x" horiz-adv-x="913" 
d="M354 520l-301 475h182l133 -219q22 -41 47 -83t51 -83h8q23 41 45.5 83t45.5 83l120 219h177l-302 -493l324 -502h-182l-146 231q-26 45 -52.5 90.5t-55.5 88.5h-8q-27 -43 -51.5 -87t-49.5 -92l-135 -231h-176z" />
    <glyph glyph-name="y" unicode="y" horiz-adv-x="956" 
d="M100 -274q16 -5 36.5 -10t39.5 -5q86 0 140 60.5t85 152.5l22 74l-399 997h174l203 -551q22 -65 48 -138t48 -142h8q23 67 43.5 141t40.5 139l178 551h164l-375 -1077q-26 -74 -59 -137.5t-78 -109.5t-102 -72.5t-133 -26.5q-35 0 -63.5 5t-53.5 15z" />
    <glyph glyph-name="z" unicode="z" horiz-adv-x="870" 
d="M63 90l524 768h-467v137h680v-90l-524 -768h541v-137h-754v90z" />
    <glyph glyph-name="braceleft" unicode="{" horiz-adv-x="620" 
d="M558 -215v-96h-92q-121 0 -180 57t-59 215q0 55 3 105.5t6 97.5l6 94t3 98q0 31 -8 58.5t-27.5 50t-54.5 37t-86 14.5v107q51 0 86 14t54.5 35.5t27.5 50.5t8 57q0 105 -9 195t-9 203q0 157 59 214.5t180 57.5h92v-96h-55q-84 0 -111.5 -43t-27.5 -144q0 -94 6 -180
t6 -190q0 -101 -28.5 -153t-94.5 -71v-8q66 -18 94.5 -71.5t28.5 -151.5q0 -104 -6 -190t-6 -181q0 -100 27.5 -143t111.5 -43h55z" />
    <glyph glyph-name="bar" unicode="|" horiz-adv-x="493" 
d="M188 1536h119v-2048h-119v2048z" />
    <glyph glyph-name="braceright" unicode="}" horiz-adv-x="620" 
d="M116 -215q84 0 112 43t28 143q0 95 -5.5 181t-5.5 190q0 98 28 151.5t93 71.5v8q-65 19 -93 71t-28 153q0 104 5.5 190t5.5 180q0 101 -28 144t-112 43h-53v96h90q62 0 107 -13.5t74.5 -44t44 -83t14.5 -131.5q0 -113 -9.5 -203t-9.5 -195q0 -59 37 -107t139 -50v-107
q-51 0 -84.5 -14.5t-54 -37t-29 -50t-8.5 -58.5q0 -51 3 -98t6.5 -94t6.5 -97.5t3 -105.5q0 -80 -14.5 -132t-44 -83t-74.5 -44t-107 -13h-90v96h53z" />
    <glyph glyph-name="asciitilde" unicode="~" horiz-adv-x="1017" 
d="M73 641q55 98 122.5 141t133.5 43q61 0 109.5 -26.5t90.5 -59t80.5 -59.5t81.5 -27q46 0 84.5 30t73.5 95l94 -69q-55 -99 -122.5 -141t-133.5 -42q-61 0 -109 27t-90 59.5t-81 59t-82 26.5q-45 0 -84 -29.5t-74 -95.5z" />
    <glyph glyph-name="cent" unicode="&#xa2;" horiz-adv-x="1017" 
d="M536 977q-113 -27 -178.5 -117t-65.5 -225q0 -137 63.5 -227.5t180.5 -116.5v686zM929 272q-60 -53 -133.5 -87.5t-153.5 -41.5v-211h-106v213q-93 11 -168.5 48.5t-130 99t-84 147.5t-29.5 195q0 106 31.5 190t87 145.5t131.5 99.5t162 50v217h106v-211
q90 -4 155.5 -38.5t112.5 -79.5l-81 -107q-41 37 -87.5 59.5t-99.5 26.5v-704q66 4 119 31.5t94 64.5z" />
    <glyph glyph-name="sterling" unicode="&#xa3;" horiz-adv-x="1017" 
d="M927 145v-145h-817v102q104 58 160.5 155t56.5 214q0 29 -4 56.5t-10 56.5h-205v106l137 8h37q-20 66 -37.5 128.5t-17.5 127.5q0 86 27.5 156t77.5 119t120 75.5t156 26.5q110 0 187 -44t130 -109l-98 -97q-39 47 -88 78t-119 31q-111 0 -169 -66.5t-58 -173.5
q0 -65 15 -125.5t34 -126.5h325v-114h-299q5 -29 8 -56.5t3 -58.5q0 -109 -33 -180.5t-94 -134.5v-9h575z" />
    <glyph glyph-name="currency" unicode="&#xa4;" horiz-adv-x="1017" 
d="M53 303l131 133q-35 47 -54.5 106.5t-19.5 131.5q0 71 19.5 131.5t54.5 107.5l-131 136l90 92l139 -144q99 76 228 76q59 0 118.5 -19.5t106.5 -56.5l139 144l90 -92l-133 -136q35 -47 55.5 -107.5t20.5 -131.5q0 -72 -20.5 -131.5t-55.5 -106.5l133 -133l-90 -92
l-139 141q-47 -39 -106.5 -58.5t-118.5 -19.5q-131 0 -228 78l-139 -141zM266 674q0 -62 19.5 -112t52 -87t78 -56.5t94.5 -19.5t93 19.5t76.5 56.5t52 87t19.5 112q0 61 -19.5 111.5t-52 87t-76.5 56t-93 19.5t-94.5 -19.5t-78 -56t-52 -87t-19.5 -111.5z" />
    <glyph glyph-name="yen" unicode="&#xa5;" horiz-adv-x="1017" 
d="M223 1307l160 -351q31 -67 60.5 -135.5t62.5 -140.5h8q35 72 64.5 140.5t60.5 135.5l160 351h172l-336 -656h291v-96h-334v-133h334v-98h-334v-324h-168v324h-332v98h332v133h-332v96h289l-334 656h176z" />
    <glyph glyph-name="brokenbar" unicode="&#xa6;" horiz-adv-x="493" 
d="M188 1536h119v-940h-119v940zM307 438v-950h-119v950h119z" />
    <glyph glyph-name="copyright" unicode="&#xa9;" horiz-adv-x="1523" 
d="M100 662q0 155 53 280t143.5 213t211 135t254.5 47q133 0 252.5 -47t211 -135t144.5 -213t53 -280q0 -158 -53 -284t-144.5 -215t-211 -137.5t-252.5 -48.5q-134 0 -254.5 48.5t-211 137.5t-143.5 215t-53 284zM196 662q0 -136 45 -245.5t122 -188t179.5 -122
t219.5 -43.5q116 0 218.5 43.5t179.5 122t122 188t45 245.5q0 133 -45 242.5t-122 187t-179.5 119.5t-218.5 42q-117 0 -219.5 -42t-179.5 -119.5t-122 -187t-45 -242.5zM405 662q0 88 32 159.5t84 122.5t120.5 78t142.5 27q86 0 146.5 -34t109.5 -83l-72 -80
q-41 41 -83 62.5t-95 21.5q-112 0 -181 -77t-69 -197q0 -136 66.5 -214.5t177.5 -78.5q66 0 115 25.5t94 64.5l61 -86q-57 -49 -120.5 -83t-155.5 -34q-78 0 -145.5 27.5t-119 80t-80 127t-28.5 171.5z" />
    <glyph glyph-name="registered" unicode="&#xae;" horiz-adv-x="866" 
d="M432 653q-80 0 -149.5 30t-122 83t-83 127t-30.5 164t30.5 163.5t83 127t122 83t149.5 29.5t150.5 -29.5t123 -83t83 -127t30.5 -163.5t-30.5 -164t-83 -127t-123 -83t-150.5 -30zM432 729q64 0 120 23.5t97 66.5t64.5 103.5t23.5 134.5q0 71 -23.5 131.5t-64.5 104.5
t-97 68.5t-120 24.5q-66 0 -121 -24.5t-95 -68.5t-63.5 -104.5t-23.5 -131.5q0 -74 23.5 -134.5t63.5 -103.5t95 -66.5t121 -23.5zM285 1270h155q66 0 113 -30t47 -103q0 -37 -20.5 -69t-55.5 -44l94 -170h-94l-71 143h-84v-143h-84v416zM422 1063q88 0 88 70
q0 30 -18.5 48.5t-65.5 18.5h-57v-137h53z" />
    <glyph glyph-name="degree" unicode="&#xb0;" horiz-adv-x="677" 
d="M339 879q-51 0 -97 18t-82 52t-56.5 82t-20.5 108q0 61 20.5 109t56.5 83t82 53.5t97 18.5t97 -18.5t82 -53.5t56.5 -83t20.5 -109q0 -60 -20.5 -108t-56.5 -82t-82 -52t-97 -18zM339 973q68 0 111 47t43 119q0 75 -43 122.5t-111 47.5t-111 -47.5t-43 -122.5
q0 -72 43 -119t111 -47z" />
    <glyph glyph-name="plusminus" unicode="&#xb1;" horiz-adv-x="1017" 
d="M442 623h-373v127h373v389h133v-389h373v-127h-373v-363h-133v363zM69 127h879v-127h-879v127z" />
    <glyph glyph-name="paragraph" unicode="&#xb6;" horiz-adv-x="1146" 
d="M777 1343h172v-1507h-172v1507zM599 463q-110 0 -205.5 25.5t-164 80t-107.5 138.5t-39 200q0 121 37 204t103.5 135t156.5 74.5t197 22.5h90v-880h-68z" />
    <glyph glyph-name="onequarter" unicode="&#xbc;" horiz-adv-x="1599" 
d="M303 545v631h-174v86q68 12 112 31.5t85 49.5h108v-798h-131zM1225 1368l-742 -1393h-114l741 1393h115zM1296 307v144l11 223h-9l-102 -166l-127 -201h227zM1534 213h-119v-213h-119v213h-362v68l334 518h147v-492h119v-94z" />
    <glyph glyph-name="onehalf" unicode="&#xbd;" horiz-adv-x="1654" 
d="M303 1176h-174v86q68 12 112 31.5t85 49.5h108v-798h-131v631zM328 -25l741 1393h115l-742 -1393h-114zM1010 76q92 84 163.5 150.5t118.5 121.5t72 103.5t25 93.5q0 78 -41 123t-113 45q-51 0 -94 -34t-78 -83l-78 72q47 69 115.5 112t150.5 43q121 0 194 -65.5
t73 -192.5q0 -57 -23 -110.5t-62.5 -107.5t-94 -111.5t-117.5 -122.5h338v-113h-549v76z" />
    <glyph glyph-name="threequarters" unicode="&#xbe;" horiz-adv-x="1630" 
d="M102 1237q51 59 113.5 95t146.5 36q51 0 98 -14.5t82 -42t55.5 -67.5t20.5 -91q0 -72 -39 -119t-100 -76q67 -18 118.5 -68t51.5 -130q0 -55 -22.5 -99.5t-60.5 -76t-90.5 -48t-109.5 -16.5q-98 0 -174 45t-123 113l86 65q37 -55 89 -86.5t114 -31.5q65 0 112.5 37.5
t47.5 105.5q0 70 -65 105.5t-183 35.5v84q104 0 160.5 41t56.5 103q0 59 -39 93t-105 34q-45 0 -87 -27t-76 -70zM1300 1368l-742 -1393h-112l741 1393h113zM1326 307v144l11 223h-8l-103 -166l-127 -201h227zM1564 213h-119v-213h-119v213h-364v68l336 518h147v-492h119
v-94z" />
    <glyph glyph-name="tilde" unicode="&#x2dc;" horiz-adv-x="1110" 
d="M270 1186q8 92 49 154.5t117 62.5q39 0 71.5 -16.5t60.5 -36t52.5 -36t48.5 -16.5q58 0 76 105h94q-8 -92 -49 -154.5t-117 -62.5q-38 0 -70 16.5t-59.5 35.5t-52 35.5t-51.5 16.5q-59 0 -74 -104h-96z" />
    <glyph glyph-name="uni1000" unicode="&#x1000;" horiz-adv-x="2160" 
d="M2004 496q0 -208 -154 -367q-79 -78 -181 -117.5t-234 -36.5q-22 3 -36 4.5t-41 9.5q-41 18 -41 62q0 66 62 66l26 -6l42 -10q194 0 312 121q54 50 83 124t29 150q0 169 -113 279t-273 110q-80 0 -149 -27.5t-128 -89.5q-48 -44 -75.5 -119t-39.5 -155q0 -191 -61 -309
t-187 -193q-17 -11 -31 -11q-28 0 -46 21t-18 46q0 39 30 53q83 51 128.5 137.5t56.5 195.5q0 201 -110 326t-278 125q-159 0 -274.5 -120t-115.5 -283q0 -103 53.5 -209.5t150.5 -171.5q33 -17 33 -47q0 -26 -20.5 -49.5t-51.5 -23.5l-31 11q-127 86 -196.5 219t-69.5 271
q0 215 151.5 373t370.5 158q145 0 265.5 -75.5t184.5 -198.5q33 70 87 123q79 77 173.5 115.5t197.5 38.5q208 0 363.5 -155t155.5 -365z" />
    <glyph glyph-name="uni1001" unicode="&#x1001;" horiz-adv-x="1227" 
d="M81 340q136 140 305 140q176 0 326 -136q52 -54 84 -128q133 112 133 282q0 172 -117 282.5t-287 110.5q-124 0 -197 -53q-31 -22 -105 -115q-17 -41 -59 -41q-72 0 -72 60q6 33 33 68q68 89 130 131q116 77 270 77q217 0 374.5 -148.5t157.5 -363.5q0 -218 -146 -372
t-360 -154q-117 0 -223.5 48.5t-171.5 113.5l-50 68l-37 62zM214 280q13 -23 39 -49q118 -121 298 -121q67 0 135 32q-22 70 -76 117q-98 83 -224 83q-131 0 -172 -62z" />
    <glyph glyph-name="uni1002" unicode="&#x1002;" horiz-adv-x="1265" 
d="M1089 504q0 -283 -183 -494q-16 -16 -48 -20q-60 0 -70 73q0 16 16 41q155 152 155 400q0 183 -109.5 285.5t-280.5 102.5q-176 -3 -254 -76.5t-103 -162t-25 -149.5q0 -246 159 -400q16 -17 18 -41q0 -28 -23.5 -50.5t-48.5 -22.5q-18 0 -48 20q-187 203 -187 494
q0 103 47 226.5t148.5 205t316.5 86.5q181 0 308 -84t170 -188.5t42 -245.5z" />
    <glyph glyph-name="uni1003" unicode="&#x1003;" horiz-adv-x="2156" 
d="M1994 506q0 -211 -152.5 -363.5t-363.5 -152.5q-200 0 -364 158l-45 49l-39 69q-64 -122 -187 -197t-264 -75q-176 0 -332 123q-168 131 -168 305q0 64 19 133q20 47 84 78q121 49 156.5 72.5t48.5 90.5q4 34 -40 69q-28 18 -73 22q-72 -4 -84 -43q0 -27 -23.5 -47.5
t-48.5 -20.5q-57 0 -57 68q18 168 210 172q136 -4 210 -102q37 -50 37 -123q0 -109 -101 -185q-53 -38 -159 -75q-31 -13 -43 -41l-13 -54q0 -100 118 -208.5t259 -108.5q170 0 283 135q104 123 104 299q0 225 -184 346q-44 41 -22 87q26 43 87 22q109 -64 175.5 -182.5
t66.5 -247.5l4 -56q21 -186 115 -282q115 -121 270 -121q154 0 273 119q77 76 102 192q10 39 10 76q0 170 -112 272q-55 67 -152.5 98.5t-222.5 0.5q-62 0 -62 63q0 39 39 60q168 42 305 -11q109 -41 185 -116q151 -152 151 -367z" />
    <glyph glyph-name="uni1004" unicode="&#x1004;" horiz-adv-x="1218" 
d="M1008 206q-136 -226 -429 -216q-208 0 -361 153.5t-153 365.5q0 218 149 365t365 147q244 0 401 -181q11 -10 14 -35t-24 -51q-22 -15 -44.5 -15t-41.5 11q-118 141 -305 141q-162 0 -273 -108t-111 -274q0 -159 114 -274t270 -115q232 -8 326 168q40 66 99 30
q49 -39 4 -112z" />
    <glyph glyph-name="uni1005" unicode="&#x1005;" horiz-adv-x="1247" 
d="M1088 504q0 -208 -156.5 -361t-364.5 -153q-195 0 -360 151q-148 162 -148 368q0 220 147 366t365 146q219 0 368 -151t149 -366zM958 504q0 153 -112 273t-272 120q-71 1 -148 -26q187 -142 187 -367q0 -113 -49.5 -202.5t-137.5 -150.5q67 -31 141 -31q161 0 274 119
q117 99 117 265zM483 504q0 114 -38 174.5t-137 114.5q-119 -114 -119 -284q0 -161 119 -285q175 104 175 280z" />
    <glyph glyph-name="uni1006" unicode="&#x1006;" horiz-adv-x="2122" 
d="M1960 506q0 -213 -152.5 -364.5t-367.5 -151.5q-303 0 -442 270q-66 -123 -188.5 -196.5t-260.5 -73.5q-235 0 -397 182l-45 66q-33 35 -37 57l-8 25q0 32 20 55q142 135 299 127q105 -2 144 -23q188 -57 256 -268q158 105 158 279v39q0 153 -116 255.5t-274 102.5
q-194 0 -303 -141q-53 -51 -96 -51q-49 0 -49 49q0 53 82 125q61 57 125 90q114 57 241 57q301 0 449 -254q137 258 442 254q213 4 366.5 -147.5t153.5 -362.5zM1829 506q0 162 -114.5 273.5t-274.5 111.5q-145 0 -248.5 -88t-130.5 -227l-4 -59l4 -72q23 -138 127.5 -232
t251.5 -94q156 0 272.5 114.5t116.5 272.5zM668 144q-39 155 -184 213q-49 16 -109 16q-53 0 -85.5 -12.5t-82.5 -51.5l45 -49q123 -141 297 -141q64 0 119 25z" />
    <glyph glyph-name="uni1007" unicode="&#x1007;" horiz-adv-x="1268" 
d="M1108 303q0 -64 -69 -64q-27 0 -51 33l-71 103q-102 -66 -247 -66q-99 9 -169 70q-78 66 -78 161l9 55q51 138 222 138q57 0 102 -16q85 -36 171 -142l6 28q4 47 -19 97.5t-60 85.5q-122 109 -283 109q-237 0 -353 -236q-29 -68 -29 -146q0 -150 111 -278
q119 -115 284 -115q127 0 191 57q9 9 40 15q26 0 44.5 -18.5t24.5 -49.5q0 -29 -22 -46q-120 -88 -280 -88q-229 0 -376 155.5t-147 363.5q0 218 147 365t365 147q208 0 366 -138q112 -125 112 -267q-5 -93 -47 -143l94 -135zM863 473l-58 61q-63 51 -94 61q-16 8 -53 8
q-101 1 -108 -67q0 -34 35.5 -65.5t87.5 -41.5l66 -6q76 11 124 50z" />
    <glyph glyph-name="uni1008" unicode="&#x1008;" horiz-adv-x="1552" 
d="M1388 -469q0 -136 -104 -228q-101 -80 -240 -80q-137 0 -237 84q-113 93 -110 210v490q-63 -17 -132 -17q-195 0 -359 150q-147 161 -147 366q0 219 146.5 364.5t363.5 145.5t365.5 -150.5t148.5 -363.5q0 -207 -156 -360q-50 -49 -106 -83v-539q6 -61 76 -111
q76 -55 147 -55q82 0 150.5 48.5t68.5 128.5v1457q0 57 60 57q69 0 68 -57zM954 502q0 152 -111.5 271.5t-272.5 119.5q-81 3 -146 -26q186 -142 186 -365q0 -113 -49 -202t-137 -150q67 -31 141 -31q160 0 277 116q112 101 112 267zM481 502q0 113 -38 173t-136 114
q-119 -113 -119 -283q0 -160 119 -283q174 103 174 279z" />
    <glyph glyph-name="uni1009" unicode="&#x1009;" horiz-adv-x="1299" 
d="M1290 -595q0 -85 -54.5 -144t-137.5 -59h-700q-170 0 -256.5 83t-86.5 260v637q0 95 70 93l60 -5q18 -6 53 -32q92 -115 272 -115q151 0 269.5 118.5t118.5 269.5q0 167 -111 271t-277 104q-171 0 -304 -138q-23 -17 -55 -21q-57 0 -57 70q0 27 12 42q157 184 404 184
q220 0 369 -147t149 -365q0 -214 -152 -368t-366 -154q-122 0 -198 24q-53 21 -123 79v-654q2 -22 39 -65q39 -39 170 -39h700q54 0 54 102q0 74 64 74q53 0 66 -58z" />
    <glyph glyph-name="uni100A" unicode="&#x100a;" horiz-adv-x="2113" 
d="M1951 -596q0 -84 -54 -143t-136 -59h-1358q-146 -8 -239 64t-103 228v684q0 68 66 93q32 0 69 -17l19 -6q96 -133 299 -133q165 0 276 121t111 293q0 159 -112 257.5t-275 98.5q-201 0 -303 -135q-46 -66 -84 -66q-50 -2 -50 62q0 108 205 215q109 55 232 55
q211 0 352 -129q160 -143 160 -381q0 -113 67.5 -217t175.5 -145q72 -29 140 -29q159 0 274 117q76 77 100 196q11 37 11 78q0 264 -242 354q-92 37 -174 27l-43 -10l-29 -8q-61 10 -61 69q0 43 30 54l54 14l39 6l53 2q190 20 352 -141q154 -152 154 -367
q0 -213 -151.5 -366.5t-366.5 -153.5q-201 0 -367 154l-43 53l-35 63q-69 -119 -191 -192.5t-259 -73.5q-121 0 -188.5 24.5t-131.5 73.5l2 -651q1 -37 58 -76q49 -41 149 -28h1358q53 0 53 102q0 74 64 74q53 0 65 -58z" />
    <glyph glyph-name="uni100B" unicode="&#x100b;" horiz-adv-x="1352" 
d="M1262 -733q0 -61 -66 -65h-233q-61 0 -61 65v258q-142 -55 -314 -55q-235 0 -434 125q-29 16 -29 53v293q0 65 64 65q20 0 49 -16q123 -139 344 -139q148 0 279 94l41 29v112q-150 -112 -320 -112q-229 0 -381 174q-135 157 -135 354q0 221 148.5 367.5t367.5 146.5
q238 0 406 -186l-20 -57q-42 -42 -81 -27q-49 59 -139 99t-166 40q-164 0 -275.5 -108.5t-111.5 -274.5q0 -154 116.5 -270.5t270.5 -116.5q186 0 301 133l53 31l21 6q63 0 74 -80v-264q0 -25 -31 -53l-66 -48q-153 -114 -352 -114q-201 0 -328 71v-110q88 -55 238 -76
q41 -6 96 -6q187 0 273 55l63 41l39 13q68 0 68 -66v-315h165q60 0 66 -66z" />
    <glyph glyph-name="uni100C" unicode="&#x100c;" horiz-adv-x="1190" 
d="M1028 -456q0 -162 -81 -252t-259 -90l-420 2q-98 0 -156 88q-51 73 -51 178q0 196 143 274q74 45 158 45q135 0 240 -94q16 -16 18 -47q0 -68 -65 -68q-25 0 -45 23q-62 57 -148 57q-111 0 -158 -90q-14 -29 -14 -80q0 -157 78 -157h459q84 0 129 48t45 163v552
q-146 -110 -326 -110q-209 0 -358.5 153.5t-149.5 366.5q0 217 146.5 363.5t361.5 146.5q242 0 397 -184q9 -8 15 -43q0 -64 -60 -64q-20 0 -53 21q-117 139 -299 139q-162 0 -270.5 -106.5t-108.5 -272.5q0 -158 111.5 -274.5t267.5 -116.5q203 0 297 133l18 16q15 9 41 15
l23 -8q43 0 72 -95z" />
    <glyph glyph-name="uni100D" unicode="&#x100d;" horiz-adv-x="1282" 
d="M1117 -812l-332 3l-4 592l-117 -49q-68 -23 -139 -23q-133 0 -183 9q-108 20 -180 73l-90 70l-4 389q0 68 59 80q35 -6 54 -29l24 -51q111 -125 291 -125q168 0 279.5 116t111.5 284t-108.5 266t-282.5 98q-160 0 -285 -113l-43 -43q-18 -16 -34 -16q-27 0 -56 39
q-13 43 -4.5 56.5t45.5 49.5q147 152 377 152q219 -4 371.5 -139t152.5 -350t-154.5 -373t-369.5 -158q-168 0 -299 92v-153q113 -95 320 -95q55 0 102 11.5t166 79.5q43 26 71 26q62 0 62 -76v-563l199 -2v-128z" />
    <glyph glyph-name="uni100E" unicode="&#x100e;" horiz-adv-x="1251" 
d="M1090 522q0 -223 -153.5 -377.5t-372.5 -154.5q-164 0 -314 111q-159 116 -180 274q-9 68 1.5 118t43.5 85q6 14 37 41l16 14l144 66q51 32 63 98q0 24 -14.5 53t-77.5 33q-92 0 -92 -51q0 -64 -64 -64q-63 0 -63 64q10 76 71.5 129t138.5 55q112 0 193 -102
q37 -50 37 -123q0 -103 -102 -183q-57 -47 -109 -63l-49 -16l-41 -50l-12 -47v-16q20 -115 137 -206t236 -91q164 0 280.5 119t116.5 284q0 261 -195 375q-30 17 -30 49q0 60 61 70l31 -8q262 -160 262 -486z" />
    <glyph glyph-name="uni100F" unicode="&#x100f;" horiz-adv-x="2392" 
d="M2230 510q0 -266 -225 -418q-52 -32 -154 -73q-57 -21 -129 -21q-55 0 -76 6l-72 21q-36 8 -43 61q0 58 80 58q49 -17 111 -17q229 0 336 203q43 86 43 180q0 244 -203 344q-82 37 -180 37q-133 0 -219 -70l-76 -57l-45 -65q-49 -68 -49 -187q0 -69 4 -92l37 -78l8 -33
v-65q0 -100 -65.5 -170t-166.5 -70q-100 0 -166.5 69t-66.5 171v68l6 30q43 80 43 170q0 80 -55 187l-43 57l-68 59q-69 76 -229 76q-170 0 -271.5 -102.5t-101.5 -272.5q0 -186 156 -305l4 -6q113 -76 233 -76q49 0 86 15q74 0 86 -62q0 -39 -34 -55l-74 -17l-62 -10
q-149 0 -299 99q-118 75 -173.5 184.5t-55.5 232.5q0 305 270 447q111 55 234 55q92 0 150.5 -19.5t148.5 -74.5l67 -41q63 133 213 133q140 0 211 -133l66 41q157 92 299 92q260 0 416 -213q94 -131 94 -293zM1247 244v47q-29 41 -39 102l-12 123q0 95 51 199v78
q0 41 -30 71.5t-71 32.5q-84 4 -100 -104l-4 -82l29 -68q22 -57 22 -131q0 -114 -51 -213l4 -55q6 -115 100 -115q33 0 63 33t38 82z" />
    <glyph glyph-name="uni1010" unicode="&#x1010;" horiz-adv-x="2173" 
d="M2016 509q0 -206 -157 -362.5t-420 -156.5q-72 0 -72 63q0 67 79 67t153 25q126 41 204.5 137.5t78.5 226.5q0 166 -114.5 276t-281.5 110q-171 0 -271 -113q-50 -43 -83 -138q-20 -57 -41 -177q0 -200 -153 -338.5t-357 -138.5q-219 0 -372 153t-153 370q0 220 150 364
t375 144q306 0 455 -267q41 96 139 171q144 96 311 96q213 0 371.5 -148t158.5 -364zM967 534q0 151 -115 256t-271 105q-171 0 -283 -107t-112 -275q0 -163 117 -278t278 -115q158 0 272 125.5t114 288.5z" />
    <glyph glyph-name="uni1011" unicode="&#x1011;" horiz-adv-x="2146" 
d="M1989 509q0 -213 -153 -366t-365 -153q-214 0 -364 152q-52 53 -86 114q-34 -60 -88 -113q-152 -153 -365 -153q-214 0 -363 152t-149 367q0 218 148 365t364 147q213 0 365 -152q53 -51 87 -109q34 61 86 113q149 148 365 148q212 0 365 -151t153 -361zM1860 509
q0 156 -116 269t-273 113q-165 0 -274 -108t-109 -274q0 -161 111 -275t272 -114t275 115t114 274zM957 509q0 156 -116 269t-273 113q-164 0 -273 -108t-109 -274q0 -161 111 -275t271 -114q161 0 275 115t114 274z" />
    <glyph glyph-name="uni1012" unicode="&#x1012;" horiz-adv-x="1196" 
d="M992 703q0 -125 -113 -201q105 -71 105 -247q-52 -265 -443 -265q-335 0 -431 251l-6 24q0 58 72 58q39 0 55 -35q46 -102 124 -137q63 -32 186 -32q278 0 316 165q0 53 -48 101t-103 60l-94 -1q-60 -3 -60 60q0 66 60 66h98q153 26 153 133l-6 24q-36 167 -316 167
q-137 0 -192 -22q-86 -33 -118 -140q-8 -54 -59 -54q-62 0 -68 79q27 192 257 246q76 16 180 16q157 0 274 -57q144 -72 169 -205z" />
    <glyph glyph-name="uni1013" unicode="&#x1013;" horiz-adv-x="1251" 
d="M1091 509q0 -213 -153 -366t-366 -153q-214 0 -363 152t-149 367q0 218 148 365t364 147q213 0 366 -151t153 -361zM961 509q0 156 -116 269t-273 113q-164 0 -273 -108t-109 -274l10 -97q8 -37 37 -84q123 160 333 160q215 0 340 -160q51 80 51 181zM824 224
q-97 135 -254 135q-156 0 -245 -139q102 -100 247 -100q148 0 252 104z" />
    <glyph glyph-name="uni1014" unicode="&#x1014;" horiz-adv-x="1248" 
d="M1061 325q0 -168 -100 -254q-33 -24 -112 -48q-48 -11 -86 -19v-749q0 -67 -68 -67q-24 0 -43 19t-19 48l2 745l-113 -5q-140 2 -205 20q-107 30 -166 94q-65 89 -65 192q0 80 44 151q39 54 93.5 79t116.5 25t122.5 -21t116.5 -59q62 -44 107 -124q33 -59 53 -116
q24 -67 26 -118q34 2 69 19q47 29 72.5 68.5t28.5 108.5q-7 52 -45.5 110t-88.5 87q-41 24 -84.5 35.5t-122.5 32.5q-81 21 -139.5 48t-96.5 89q-24 38 -24 94q0 73 56 135q74 75 192 75q59 0 106.5 -13.5t92.5 -51.5q63 -58 74 -74q8 -34 -14 -63t-63 -24q-18 0 -79 60
q-39 32 -117 32q-67 0 -100 -32q-18 -30 -18 -50l3 -21q14 -33 59 -54.5t108.5 -36.5t124 -29.5t106.5 -44.5q81 -50 132.5 -127t63.5 -166zM648 107q-2 44 -5 60t-13 34q-16 40 -59 103q-35 42 -56 62q-89 59 -179 64q-70 -5 -96 -49q-14 -26 -19 -48t-5 -38q0 -56 38 -105
q21 -27 107 -54t168 -27z" />
    <glyph glyph-name="uni1015" unicode="&#x1015;" horiz-adv-x="1253" 
d="M1096 523q0 -219 -153 -376t-370 -157q-214 0 -365 159t-151 374q0 143 74 275t193 216l36 8q59 0 66 -69q0 -28 -33 -49q-92 -55 -149 -161t-57 -220q0 -163 114.5 -283t271.5 -120q168 0 280.5 119t112.5 284q0 114 -57 220t-150 161q-24 13 -28 47q-2 61 61 71l30 -8
q126 -72 200 -207t74 -284z" />
    <glyph glyph-name="uni1016" unicode="&#x1016;" horiz-adv-x="1253" 
d="M192 522q0 -161 111.5 -282t271.5 -121q203 0 319 176q-100 31 -167 94q-113 101 -121 303q-4 175 137 310q25 18 41 15q143 -64 226 -199.5t83 -295.5q0 -215 -151.5 -373.5t-366.5 -158.5q-209 0 -360.5 158.5t-151.5 373.5q-4 51 2 107q23 219 215 370q55 45 94 -4
q42 -49 -13 -93t-96 -109q-72 -113 -73 -236v-35zM964 522q0 203 -168 342q-54 -54 -61 -164q-7 -66 27 -160q63 -106 188 -124q14 59 14 106z" />
    <glyph glyph-name="uni1017" unicode="&#x1017;" horiz-adv-x="1253" 
d="M1094 525q0 -216 -152.5 -375.5t-368.5 -159.5q-210 0 -362.5 159.5t-152.5 375.5q0 326 251 489l34 8q53 0 63 -76q-32 -49 36 -145q65 -66 131 -66q63 0 112 58t49 120l-6 31q0 78 59 78l31 -8q134 -68 205 -203t71 -286zM964 525q0 186 -126 336q-16 -122 -92 -186.5
t-173 -64.5q-202 0 -281 233q-104 -147 -104 -318q0 -162 112 -283.5t273 -121.5q167 0 279 118.5t112 286.5z" />
    <glyph glyph-name="uni1018" unicode="&#x1018;" horiz-adv-x="2099" 
d="M1942 502q0 -199 -154 -358.5t-400 -153.5l-49 3l-45 13q-39 21 -39 58q0 14 6 25.5t17 22.5q29 16 67 8l43 -4q187 0 309 117q76 76 103 193q8 39 8 76q0 163 -114 278t-276 115q-147 0 -269 -117q-53 -53 -82.5 -114t-29.5 -139q0 -239 -140.5 -387t-376.5 -148
q-243 0 -404 187q-59 68 -59 111q0 54 53 54q67 0 106 -77q121 -145 304 -145q167 0 279 108t112 274q0 161 -116.5 275t-274.5 114q-192 0 -298 -125l-29 -37q-14 -44 -58 -44q-66 0 -66 81q6 35 23 53l18 17q132 185 410 185q138 0 261.5 -74t190.5 -193l46 80l37 37
q155 150 365 150q212 0 367 -154t155 -365z" />
    <glyph glyph-name="uni1019" unicode="&#x1019;" horiz-adv-x="1253" 
d="M1094 525q0 -216 -152.5 -375.5t-368.5 -159.5q-210 0 -362.5 159.5t-152.5 375.5q0 310 266 489l35 8q59 0 66 -68q0 -29 -33 -50q-91 -57 -147.5 -163t-56.5 -216l10 -79l25 -83q132 183 350 183q230 0 360 -175q31 75 31 154q0 241 -208 379q-24 13 -28 48
q-2 60 61 70l29 -8q128 -75 202 -208.5t74 -280.5zM858 256q-110 162 -285 162q-87 0 -151.5 -40t-122.5 -128q111 -130 274 -130q177 0 285 136z" />
    <glyph glyph-name="uni101A" unicode="&#x101a;" horiz-adv-x="2150" 
d="M1989 506q0 -207 -154.5 -362t-359.5 -155q-207 0 -367 155q-26 26 -43.5 50.5t-41.5 69.5q-64 -126 -180.5 -197.5t-265.5 -71.5q-216 0 -366.5 156t-150.5 369q0 138 68.5 269t193.5 216l36 9q26 0 46.5 -20.5t20.5 -47.5q0 -32 -32 -50q-94 -60 -147.5 -166.5
t-53.5 -209.5q0 -163 112 -281t273 -118q157 0 271 113.5t114 268.5v17q0 132 -53 225q-40 73 -134 151q-26 32 -26 50q0 27 17.5 47.5t43.5 20.5l32 -9q123 -74 184 -189t61 -296q0 -75 29 -152.5t86 -130.5q55 -58 128 -88.5t145 -30.5q155 0 272 116q52 50 81.5 123
t29.5 149q0 166 -111 270q-56 60 -136 89t-170 29l-47 -6q-41 0 -61.5 17.5t-20.5 43.5q0 47 27.5 56t52.5 13t34 4q254 0 408.5 -154.5t154.5 -361.5z" />
    <glyph glyph-name="uni101B" unicode="&#x101b;" horiz-adv-x="1341" 
d="M1058 -657h140q62 0 68 -63q0 -64 -68 -68h-206q-59 3 -63 68v1180q0 202 -109.5 315.5t-274.5 113.5q-129 0 -244.5 -91t-135.5 -221q239 0 341 -109q125 -137 125 -306q0 -172 -86 -174q-213 -4 -360 147t-147 370q0 220 149 367.5t358 147.5q212 0 365 -152
q78 -71 115 -186q33 -101 33 -222v-1117zM513 103q3 89 -19 153q-72 198 -327 198q0 -62 31 -121q60 -130 191 -188q39 -26 124 -42z" />
    <glyph glyph-name="uni101C" unicode="&#x101c;" horiz-adv-x="2146" 
d="M1990 501q0 -202 -157.5 -360.5t-361.5 -158.5q-206 0 -365 155q-150 146 -150 329q0 78 -25 153q-59 179 -222 245q-79 30 -140 30q-165 0 -272 -113t-107 -280q0 -175 119 -282q114 -103 293 -103l70 14q54 0 66 -64q0 -39 -41 -57l-36 -9l-42 -9l-55 -2
q-201 -7 -354.5 146.5t-153.5 365.5t152.5 366.5t360.5 154.5q212 0 366 -152q102 -100 139 -291q0 -228 126.5 -348.5t270.5 -120.5q234 0 356 241q29 80 29 150q0 161 -112 274t-299 117l-45 -6l-29 -8q-60 0 -60 63t118 81h-2q231 -4 392 -142q171 -149 171 -379z" />
    <glyph glyph-name="uni101D" unicode="&#x101d;" horiz-adv-x="1251" 
d="M1091 509q0 -213 -153 -366t-366 -153q-214 0 -363 152t-149 367q0 218 148 365t364 147q213 0 366 -151t153 -361zM961 509q0 156 -116 269t-273 113q-164 0 -273 -108t-109 -274q0 -161 111 -275t271 -114q161 0 275 115t114 274z" />
    <glyph glyph-name="uni101E" unicode="&#x101e;" horiz-adv-x="2056" 
d="M1899 509q0 -208 -154.5 -363.5t-364.5 -155.5q-202 0 -368 155l-44 53l-35 67q-158 -271 -452 -271q-274 0 -408 185q-10 13 -14 33q0 27 24 50q13 16 48 22q24 0 52 -29q108 -135 298 -135q150 0 268.5 117t118.5 297q0 157 -113 257t-274 100q-196 0 -302 -141
q-20 -17 -52 -23q-68 0 -68 66q0 12 18 47q159 181 404 181q197 0 339 -121.5t170 -314.5l4 -93q4 -142 114 -253q118 -121 272 -121q161 0 274 118t113 277q0 162 -112 273t-307 103l-51 -6q-70 0 -82 62q0 43 25 58l55 10l41 6h-4l55 2q215 0 361 -144q151 -150 151 -368z
" />
    <glyph glyph-name="uni101F" unicode="&#x101f;" horiz-adv-x="2158" 
d="M2001 502q0 -210 -153 -365t-413 -153q-57 6 -82 20q-37 11 -37 49q0 61 86 67l45 -8q186 0 310 119q75 76 100 193q10 39 10 78q0 165 -112 278t-276 113q-148 0 -272 -117q-86 -78 -105 -185q0 -59 -8 -171q-2 -18 -20 -80q-37 -126 -124 -212q-188 -146 -385 -146
q-296 0 -428 228q-80 138 -80 292q0 138 50 268.5t137 223.5q17 19 43 19q64 0 74 -71q-4 -10 -20 -41q-150 -153 -150 -399q0 -195 111 -286q107 -104 265 -104q155 0 278 102q66 56 99 159q24 74 24 129q0 226 -163 399q-10 15 -14 41q0 71 71 71q16 0 45 -19l76 -103
l54 -109l37 48l39 41q142 150 366 150q218 -4 370 -156.5t152 -362.5z" />
    <glyph glyph-name="uni1020" unicode="&#x1020;" horiz-adv-x="1251" 
d="M1070 -601q0 -79 -52 -138t-133 -59h-446q-174 0 -263 88q-76 91 -76 255v398q0 65 62 65q20 0 47 -16q163 -150 345 -150q198 0 343 105l42 29v164q-148 -152 -385 -152q-209 0 -361 152t-152 366q0 215 148 365t365 150q245 0 405 -184q25 -25 29 -56q0 -62 -65 -62
q-26 0 -94 54q-81 68 -100 76q-82 41 -175 41q-166 0 -275 -107t-109 -277q0 -155 117 -271.5t267 -116.5q210 0 300 129l39 20l52 19q57 0 90 -13.5t33 -64.5v-265q0 -25 -31 -53l-65 -48q-173 -127 -418 -127q-96 0 -168 23q-82 18 -156 68v-261l5 -107q0 -22 28 -57
q33 -32 66.5 -45t109.5 -13h446q56 10 56 97l-15 22q-32 10 -49 -14l-29 -8q-53 0 -70 75q0 72 134 72q119 0 152 -118z" />
    <glyph glyph-name="uni1021" unicode="&#x1021;" horiz-adv-x="1958" 
d="M1800 519q0 -278 -227 -424q-57 -35 -150.5 -70t-153.5 -35q-73 4 -114.5 9t-69.5 27q-36 26 -42 69q0 243 251 366q82 33 156.5 27t213.5 -56l7 87q6 72 -15.5 131.5t-50.5 95.5q-111 155 -311 155q-132 0 -243 -80l-77 -61l-24 -56q0 -125 -109 -202q101 -70 101 -247
q-47 -265 -447 -265q-331 0 -432 251l-6 26q0 44 68 57q46 0 62 -36q47 -102 123 -137q60 -31 185 -31q285 0 322 164q0 50 -60 106.5t-107 54.5l-79 -1q-49 -6 -61 65q0 62 61 62h89q163 24 163 133q-25 191 -328 191q-169 0 -232 -43q-45 -27 -74 -119q-8 -54 -60 -54
q-64 0 -70 79q43 263 436 263q301 0 404 -157l34 33q17 12 63 43q151 81 294 80q120 1 233 -51.5t182 -157.5q95 -136 95 -292zM1617 311q-103 48 -170 48t-98 -15q-143 -42 -188 -219q67 -20 121 -12q117 7 224 85q49 37 111 113z" />
    <glyph glyph-name="uni1022" unicode="&#x1022;" horiz-adv-x="2157" 
d="M1994 506q0 -215 -151 -367q-76 -75 -185 -116q-137 -53 -305 -11q-39 21 -39 60q0 63 62 63q125 -31 222.5 0.5t152.5 98.5q112 102 112 272q0 37 -10 76q-25 116 -102 192q-119 119 -273 119q-155 0 -270 -121q-94 -96 -115 -282l-4 -56q0 -129 -66.5 -247.5
t-175.5 -182.5q-61 -21 -87 22q-22 46 22 87q184 121 184 346q0 176 -104 299q-113 135 -283 135q-141 0 -259 -108.5t-118 -208.5l13 -54q12 -28 43 -41q106 -37 159 -75q101 -76 101 -185q0 -73 -37 -123q-74 -98 -210 -102q-192 4 -210 172q0 68 57 68q25 0 48.5 -20.5
t23.5 -47.5q12 -39 84 -43q45 4 73 22q44 35 40 69q-13 67 -48.5 90.5t-156.5 72.5q-64 31 -84 78q-19 69 -19 133q0 174 168 305q156 123 332 123q141 0 264 -75t187 -197l39 69l45 49q164 158 364 158q211 0 363.5 -152.5t152.5 -363.5z" />
    <glyph glyph-name="uni1023" unicode="&#x1023;" horiz-adv-x="2062" 
d="M1892 524q0 -184 -46 -287q-31 -70 -120 -157q-43 -40 -84 -40q-77 0 -83 68q0 24 13 32l59 47l62 60q75 76 75 277q0 130 -97 243t-267 122q-170 0 -272 -121q-44 -62 -70 -122q-37 -81 -28 -181q10 -125 -11 -166q-18 -25 -46 -27l-49 25q-10 16 -10 61v107
q0 175 -97 296q-97 129 -269 129q-155 0 -260.5 -114.5t-105.5 -269.5q0 -100 52.5 -200t139.5 -154q27 -14 29 -47q4 -63 -66 -69l-31 9q-250 171 -250 461q0 210 141.5 358t350.5 148q129 0 242.5 -71t182.5 -186q59 122 175.5 190.5t251.5 68.5q203 0 345.5 -144
t142.5 -346zM1507 -333q0 -51 -3 -107.5t-0.5 -108.5t13 -95.5t36.5 -67.5q15 -14 32 -27t36 -23l60 -24q48 -14 91 -12.5t75 -1.5q26 6 39.5 19.5t14 29.5t-12 30.5t-37.5 21.5q-24 2 -46 2t-43 1.5t-41.5 6.5t-41.5 17q-30 16 -43.5 57t-17.5 92t-2.5 103t3.5 91l3 55
q0 120 -101.5 197t-236.5 77q-124 0 -238 -76q-29 -21 -46 -51q-98 125 -283 125q-135 0 -234 -77q-106 -79 -106 -201q0 -78 49.5 -148t125.5 -109l24 -7q57 7 57 53q0 26 -29 38q-116 60 -116 173q0 80 69 130t160 50q104 0 168 -50t64 -125l-6 -149q11 -29 45 -34
q56 -8 64 39l1 139q12 51 25 79q24 35 42 47q80 52 162 52q103 0 170 -52q46 -35 56 -88v-14.5t-0.5 -31t-0.5 -31v-14.5z" />
    <glyph glyph-name="uni1024" unicode="&#x1024;" horiz-adv-x="2568" 
d="M2405 -733q0 -65 -68 -65q-63 0 -63 65v1495q0 170 -139 313l-394 406q-20 76 -20 129q0 129 90 229q109 95 248 95q223 0 321 -197l9 -29q0 -61 -72 -61q-43 0 -53 39q-48 112 -209 112q-123 0 -187 -112q-10 -27 -16 -76v-41l12 -49q264 -230 352 -334
q187 -221 187 -424zM1999 -551l-8 -84q-4 -39 -31 -84l-6 -6q-55 -73 -176 -72l-1501 1q-92 8 -145.5 82.5t-49.5 168.5l5 54q67 284 495 284q418 0 764 -108q47 -10 47 -60q0 -63 -88 -63q-199 59 -346 78q-162 20 -377 20q-338 0 -370 -170q0 -65 21.5 -110t43.5 -47
l1565 1q31 40 26 115v1059q0 158 -111.5 268.5t-271.5 110.5q-153 0 -269 -112.5t-116 -315.5q0 -315 -252 -465l-32 -10q-60 0 -60 63q0 41 27 56q90 57 138 158.5t48 222.5q0 168 -112.5 285.5t-274.5 117.5q-164 0 -275.5 -120t-111.5 -283q0 -232 203 -381
q29 -15 31 -50q0 -26 -18.5 -44.5t-51.5 -24.5l-33 10q-121 82 -192.5 214t-71.5 276q0 217 151.5 374.5t368.5 157.5q142 0 270 -79t187 -204q10 43 35 76l43 60q86 77 177 114t191 37q209 0 361.5 -152.5t152.5 -359.5v-1059z" />
    <glyph glyph-name="uni1025" unicode="&#x1025;" horiz-adv-x="1192" 
d="M63 176q29 95 72 95l23 8q26 -6 41 -15l18 -16q94 -133 297 -133q156 0 267.5 116.5t111.5 274.5q0 166 -108.5 272.5t-270.5 106.5q-182 0 -299 -139q-33 -21 -53 -21q-60 0 -60 64q6 35 15 43q155 184 397 184q215 0 361.5 -146.5t146.5 -363.5q0 -213 -149.5 -366.5
t-358.5 -153.5q-180 0 -326 110v-552q0 -115 45 -163t129 -48h459q78 0 78 157q0 51 -14 80q-47 90 -158 90q-86 0 -148 -57q-20 -23 -45 -23q-65 0 -65 68q2 31 18 47q105 94 240 94q84 0 158 -45q143 -78 143 -274q0 -105 -51 -178q-58 -88 -156 -87l-458 1
q-140 -4 -221 86t-81 252z" />
    <glyph glyph-name="uni1026" unicode="&#x1026;" horiz-adv-x="1192" 
d="M796 1538q0 104 -68 174.5t-164 70.5q-98 0 -166 -70.5t-68 -174.5v-166q44 44 104 69t130 25q67 0 127.5 -25t104.5 -69v166zM557 1136q103 8 145 35.5t84 88.5q-31 37 -87 69t-135 32q-80 0 -136 -32t-84 -64q61 -89 103 -106t110 -23zM567 1017q-74 0 -138 27.5
t-112.5 76t-76.5 112.5t-28 138v171q0 74 28 138.5t76.5 112.5t112.5 76t138 28q72 0 136 -28t112.5 -76t76.5 -112.5t28 -138.5v-171q0 -74 -28 -138t-76.5 -112.5t-112.5 -76t-136 -27.5zM63 176q29 95 72 95l23 8q26 -6 41 -15l18 -16q94 -133 297 -133
q156 0 267.5 116.5t111.5 274.5q0 166 -108.5 272.5t-270.5 106.5q-182 0 -299 -139q-33 -21 -53 -21q-60 0 -60 64q6 35 15 43q155 184 397 184q215 0 361.5 -146.5t146.5 -363.5q0 -213 -149.5 -366.5t-358.5 -153.5q-180 0 -326 110v-552q0 -115 45 -163t129 -48h459
q78 0 78 157q0 51 -14 80q-47 90 -158 90q-86 0 -148 -57q-20 -23 -45 -23q-65 0 -65 68q2 31 18 47q105 94 240 94q84 0 158 -45q143 -78 143 -274q0 -105 -51 -178q-58 -88 -156 -87l-459 1q-139 -4 -220 86t-81 252z" />
    <glyph glyph-name="uni1027" unicode="&#x1027;" horiz-adv-x="1212" 
d="M573 109q203 0 337 154q-49 68 -159 75q-66 7 -160 -27q-106 -63 -124 -188q59 -14 106 -14zM573 891q-47 0 -106 -14q18 -125 124 -188q94 -34 160 -27q110 7 164 74q-139 155 -342 155zM366 163q11 116 94 195q96 92 283 97q181 -3 291 -137q21 -39 0 -105
q-30 -67 -165.5 -150t-295.5 -83q-215 0 -373.5 151.5t-158.5 366.5q0 219 158.5 370.5t373.5 151.5q160 0 295.5 -83t167.5 -140q24 -66 0 -110q-96 -132 -293 -141q-189 6 -301 127q-55 79 -74 166q-198 -134 -198 -337q0 -207 196 -339z" />
    <glyph glyph-name="uni1028" unicode="&#x1028;" horiz-adv-x="1252" 
d="M942 602q-19 82 -107 170q-114 92 -260 92q-155 0 -269 -114.5t-114 -272.5v-780q0 -160 114 -272.5t269 -112.5q164 0 274.5 111.5t110.5 273.5q0 61 62 61q67 -14 67 -61q0 -219 -147.5 -367.5t-366.5 -148.5q-209 0 -360.5 151.5t-151.5 364.5v780q0 215 151.5 367.5
t360.5 152.5q213 0 363 -155q104 -107 127 -240q1 -68 1.5 -137.5t-8.5 -136t-32.5 -128.5t-71.5 -116q-35 -40 -78.5 -60t-90.5 -23t-93.5 10t-87 38.5t-71 62.5t-46.5 83q-8 20 -10 45q-10 26 0 57q2 16 29 59l38 31l76 47q39 27 35 94q-8 23 -23.5 35t-60.5 23l-31 -4
q-88 -31 -71 -78q20 -62 -39 -82q-62 -19 -82 41q-15 76 27 145.5t114 91.5l53 13q60 18 164 -45q49 -35 74 -105q33 -96 -59 -190q-21 -19 -64 -49l-41 -33l-16 -41q1 -28 17.5 -52.5t42 -42t57.5 -25.5t65 -2.5t63.5 25.5t53.5 58q24 40 34 88.5t12.5 99.5t0 103t-3.5 100
z" />
    <glyph glyph-name="uni1029" unicode="&#x1029;" horiz-adv-x="2355" 
d="M2197 509q0 -208 -155 -364q-121 -122 -276 -148v-359q0 -150 -104 -279q-129 -157 -338 -157h-827q-182 0 -311 133t-129 315v1806q0 93 31 170q61 156 219 230q82 37 188 37h992q223 0 342 -181q74 -106 74 -243v-31q0 -66 -70 -66q-63 0 -63 66v31q0 123 -43 168
q-31 49 -104 87t-136 38h-992q-141 0 -223 -84t-82 -222v-1806q0 -84 25 -135q16 -41 80.5 -111.5t201.5 -70.5h827q137 0 223 97t86 208v354q-176 15 -323 153l-44 53l-35 67q-158 -271 -452 -271q-274 0 -408 185q-10 13 -14 33q0 27 24 50q13 16 48 22q24 0 52 -29
q108 -135 298 -135q150 0 268.5 117t118.5 297q0 157 -113 257t-274 100q-196 0 -302 -141q-20 -17 -52 -23q-68 0 -68 66q0 12 18 47q159 181 404 181q197 0 339 -121.5t170 -314.5l4 -93q4 -142 114 -253q118 -121 272 -121q161 0 274 118t113 277q0 162 -112 273
t-307 103l-51 -6q-70 0 -82 62q0 43 25 58l55 10l41 6h-4l55 2q215 0 361 -144q151 -150 151 -368z" />
    <glyph glyph-name="uni102A" unicode="&#x102a;" horiz-adv-x="4338" 
d="M1024 279l-35 -61l-51 -68q-64 -64 -168.5 -112t-222.5 -48q-209 0 -353.5 152.5t-144.5 367.5q0 213 155.5 359.5t368.5 146.5q152 0 269 -75q59 -41 127 -130q26 -34 32 -67q0 -59 -69 -59q-41 0 -60 40q-73 93 -102 113q-72 53 -197 53q-166 0 -281.5 -110.5
t-115.5 -278.5t131 -278q78 182 279 239l127 21q165 0 301 -137zM883 287q-41 62 -170 62q-127 0 -222 -82q-53 -47 -75 -117q67 -31 131 -31q178 0 297 117q24 29 39 51zM4042 1630q0 -59 -70 -73q-55 0 -55 61.5t-78 104.5t-141 43q-170 0 -199 -160q0 -146 119 -252
q49 -45 154 -96l96 -49q29 -13 29 -52q0 -59 -68 -71l-33 12l-123 63q-174 93 -245 226q-54 96 -54 237q21 121 111 195t213 74q125 0 226.5 -72t117.5 -191zM3359 509q0 -208 -155 -364q-121 -122 -276 -148v-359q0 -150 -104 -279q-129 -157 -338 -157h-827
q-182 0 -311 133t-129 315v1806q0 93 31 170q61 156 219 230q82 37 188 37h992q223 0 342 -181q74 -106 74 -243v-31q0 -66 -70 -66q-63 0 -63 66v31q0 123 -43 168q-31 49 -104 87t-136 38h-992q-141 0 -223 -84t-82 -222v-1806q0 -84 25 -135q16 -41 80.5 -111.5
t201.5 -70.5h827q137 0 223 97t86 208v354q-176 15 -323 153l-44 53l-35 67q-158 -271 -452 -271q-274 0 -408 185q-10 13 -14 33q0 27 24 50q13 16 48 22q24 0 52 -29q108 -135 298 -135q150 0 268.5 117t118.5 297q0 157 -113 257t-274 100q-196 0 -302 -141
q-20 -17 -52 -23q-68 0 -68 66q0 12 18 47q159 181 404 181q197 0 339 -121.5t170 -314.5l4 -93q4 -142 114 -253q118 -121 272 -121q161 0 274 118t113 277q0 162 -112 273t-307 103l-51 -6q-70 0 -82 62q0 43 25 58l55 10l41 6h-4l55 2q215 0 361 -144q43 -43 74 -92
q60 80 164 151q122 84 282 84q259 0 410 -218q96 -142 96 -293q0 -277 -222 -422q-155 -100 -310 -100q-61 0 -118 16l-39 13l-37 20q-56 18 -56 67q0 18 20 39.5t42 21.5q21 0 27 -6l84 -33q24 -8 75 -8q163 0 282.5 114t119.5 278q0 128 -66 224q-47 69 -135.5 112
t-174.5 43q-115 0 -224 -66q-81 -61 -130 -140l-28 -44q15 -61 15 -129z" />
    <glyph glyph-name="uni102B" unicode="&#x102b;" horiz-adv-x="363" 
d="M202 -2q1 -57 -68 -57q-60 0 -60 57v1597q0 80 -68.5 128.5t-150.5 48.5q-71 0 -147 -54.5t-76 -122.5q0 -32 -23 -49l-38 -14q-66 0 -66 63q0 131 113 224q100 84 237 84q139 0 240 -80q104 -92 104 -228z" />
    <glyph glyph-name="uni102C" unicode="&#x102c;" horiz-adv-x="973" 
d="M-175 697l36 62q61 94 182.5 177.5t281.5 83.5q259 0 410 -218q96 -142 96 -293q0 -277 -222 -422q-155 -100 -310 -100q-61 0 -118 16l-39 13l-37 20q-56 18 -56 67q0 18 20 39.5t42 21.5q21 0 27 -6l84 -33q24 -8 75 -8q163 0 282.5 114t119.5 278q0 128 -66 224
q-47 69 -135.5 112t-174.5 43q-115 0 -224 -66q-81 -61 -130 -140l-35 -55z" />
    <glyph glyph-name="uni102D" unicode="&#x102d;" 
d="M-271 1499q0 -167 -116 -284t-283 -117q-164 0 -279.5 118t-115.5 283q0 168 112.5 286t282.5 118q165 0 282 -121t117 -283zM-400 1499q0 110 -78.5 194.5t-191.5 84.5q-117 0 -194 -81.5t-77 -197.5q0 -113 80 -194.5t191 -81.5q113 0 191.5 81.5t78.5 194.5z" />
    <glyph glyph-name="uni102E" unicode="&#x102e;" 
d="M-272 1499q0 -160 -120 -280.5t-279 -120.5q-162 0 -278.5 118t-116.5 283q0 168 113.5 286t281.5 118q165 0 282 -121t117 -283zM-399 1499q0 110 -79.5 194.5t-192.5 84.5q-117 0 -193 -81.5t-76 -197.5q0 -79 23 -113q106 107 233 107q76 0 139.5 -29.5t113.5 -87.5
q32 50 32 123zM-489 1294q-70 81 -188 89q-111 0 -181 -82q93 -78 187 -78q88 0 182 71z" />
    <glyph glyph-name="uni102F" unicode="&#x102f;" 
d="M-364 -723q0 -65 -64 -65h-240q-61 0 -61 65v570q0 61 61 61q64 0 64 -61v-509h176q64 0 64 -61z" />
    <glyph glyph-name="uni1030" unicode="&#x1030;" 
d="M-212 -723q0 -65 -65 -65h-244q-59 0 -59 65v567q1 63 59 66q70 0 70 -66v-506h174q65 -1 65 -61zM-740 -723q0 -31 -18.5 -48t-44.5 -17q-66 0 -66 65v567q1 64 66 66q63 0 63 -66v-567z" />
    <glyph glyph-name="uni1031" unicode="&#x1031;" horiz-adv-x="1157" 
d="M1023 280l-37 -62l-49 -67q-65 -65 -171 -113t-222 -48q-213 0 -358 153.5t-145 369.5q0 214 156.5 361t372.5 147q152 0 268 -76q61 -41 130 -130q26 -35 32 -67q0 -60 -71 -60q-42 0 -59 41q-73 92 -104 113q-73 54 -196 54q-169 0 -285 -110.5t-116 -280.5
q0 -169 131 -281q81 186 283 241l125 22q168 0 303 -139zM879 289q-41 61 -171 61q-125 0 -223 -83q-53 -47 -75 -116q67 -31 134 -31q178 0 296 119q26 26 39 50z" />
    <glyph glyph-name="uni1032" unicode="&#x1032;" 
d="M-324 1310q0 -24 -19.5 -45.5t-44.5 -21.5q-16 0 -43 14l-499 383q-23 14 -23 49q0 25 19.5 45.5t41.5 20.5q19 0 41 -13l498 -382q29 -23 29 -50z" />
    <glyph glyph-name="uni1033" unicode="&#x1033;" 
d="M-521 1495q0 -68 -43 -111t-111 -43q-61 0 -106 45t-45 109q0 65 43 107.5t108 42.5q64 0 109 -43t45 -107zM-617 1495q0 51 -58 55q-55 0 -55 -55q0 -49 55 -57q45 0 58 57zM-281 1499q0 -167 -116 -284t-283 -117q-164 0 -279.5 118t-115.5 283q0 168 112.5 286
t282.5 118q165 0 282 -121t117 -283zM-400 1499q0 110 -78.5 194.5t-191.5 84.5q-117 0 -194 -81.5t-77 -197.5q0 -113 80 -194.5t191 -81.5q113 0 191.5 81.5t78.5 194.5z" />
    <glyph glyph-name="uni1034" unicode="&#x1034;" 
d="M-953 1310q0 27 29 50l498 382q22 13 41 13q22 0 41.5 -20.5t19.5 -45.5q0 -35 -23 -49l-499 -383q-27 -14 -43 -14q-25 0 -44.5 21.5t-19.5 45.5z" />
    <glyph glyph-name="uni1035" unicode="&#x1035;" 
d="M-264 1602l-108 59q-227 101 -300 110q-65 7 -128 -12q-96 -30 -140 -126q-16 -104 17 -154q112 108 235 115q71 1 137 -21q130 -43 215 -166l-11 -83q-23 -41 -111 -93q-153 -78 -326 -21q-154 52 -234.5 184.5t-33.5 275.5q50 149 193 204t297 3l264 -115
q108 -72 123 -90q4 -43 -21.5 -66.5t-67.5 -3.5zM-873 1403q64 -50 129 -72q58 -22 143.5 -13.5t140.5 52.5q-26 61 -120 100q-51 15 -106 8q-108 -4 -187 -75z" />
    <glyph glyph-name="uni1036" unicode="&#x1036;" 
d="M-869 1396q0 42 16 78.5t43 63.5t63.5 43t78.5 16t78.5 -16t63.5 -43t43 -63.5t16 -78.5t-16 -78.5t-43 -63.5t-63.5 -43t-78.5 -16t-78.5 16t-63.5 43t-43 63.5t-16 78.5zM-767 1396q0 -42 28.5 -70.5t70.5 -28.5t70.5 28.5t28.5 70.5t-28.5 70.5t-70.5 28.5
t-70.5 -28.5t-28.5 -70.5z" />
    <glyph glyph-name="uni1037" unicode="&#x1037;" 
d="M-869 -334q0 42 16 78.5t43 63.5t63.5 43t78.5 16t78.5 -16t63.5 -43t43 -63.5t16 -78.5t-16 -78.5t-43 -63.5t-63.5 -43t-78.5 -16t-78.5 16t-63.5 43t-43 63.5t-16 78.5zM-767 -334q0 -42 28.5 -70.5t70.5 -28.5t70.5 28.5t28.5 70.5t-28.5 70.5t-70.5 28.5
t-70.5 -28.5t-28.5 -70.5z" />
    <glyph glyph-name="uni1038" unicode="&#x1038;" horiz-adv-x="587" 
d="M44 828q0 42 16 78.5t43 63.5t63.5 43t78.5 16t78.5 -16t63.5 -43t43 -63.5t16 -78.5t-16 -78.5t-43 -63.5t-63.5 -43t-78.5 -16t-78.5 16t-63.5 43t-43 63.5t-16 78.5zM146 828q0 -42 28.5 -70.5t70.5 -28.5t70.5 28.5t28.5 70.5t-28.5 70.5t-70.5 28.5t-70.5 -28.5
t-28.5 -70.5zM49 197q0 42 16 78.5t43 63.5t63.5 43t78.5 16t78.5 -16t63.5 -43t43 -63.5t16 -78.5t-16 -78.5t-43 -63.5t-63.5 -43t-78.5 -16t-78.5 16t-63.5 43t-43 63.5t-16 78.5zM151 197q0 -42 28.5 -70.5t70.5 -28.5t70.5 28.5t28.5 70.5t-28.5 70.5t-70.5 28.5
t-70.5 -28.5t-28.5 -70.5z" />
    <glyph glyph-name="uni1039" unicode="&#x1039;" 
d="M-342 -479q0 -64 -67 -70h-199v-166q0 -33 -18.5 -49t-44.5 -16q-66 0 -66 65v166h-197q-63 0 -63 70q0 49 63 59h197v195q6 64 66 63q56 -4 63 -63v-195h199q67 0 67 -59z" />
    <glyph glyph-name="uni103A" unicode="&#x103a;" 
d="M-307 1640q0 -59 -70 -73q-55 0 -55 61.5t-78 104.5t-141 43q-170 0 -199 -160q0 -146 119 -252q49 -45 151 -96l99 -49q28 -13 28 -52q0 -59 -67 -71l-33 12l-123 63q-174 93 -246 226q-53 96 -53 237q20 121 110.5 195t213.5 74q125 0 225 -72t119 -191z" />
    <glyph glyph-name="uni103B" unicode="&#x103b;" horiz-adv-x="305" 
d="M141 -732q-3 -65 -88 -55l-526 138q-36 12 -42.5 26t-6.5 41v683q13 63 65 68q55 -1 67 -68v-638l401 -104v1614q9 53 65 57q54 -5 65 -57v-1705z" />
    <glyph glyph-name="uni103C" unicode="&#x103c;" horiz-adv-x="376" 
d="M1409 -352q0 -100 -27.5 -170t-89 -137.5t-135.5 -102.5q-80 -36 -199 -36h-469q-180 0 -309 131t-129 325v1766q0 221 106 321q115 138 328 138h518q99 0 195 -50.5t149 -136.5l39 -76q19 -45 21 -88l2 -32q0 -64 -66 -64q-65 0 -65 64v32l-10 47q-7 27 -21 41
q-100 132 -244 132h-518q-141 0 -222 -85t-81 -243l-2 -1766q0 -149 96 -237q66 -60 99.5 -74t113.5 -14h469q160 0 238 96q82 82 82 219v554q0 62 65 62q66 0 66 -62v-554z" />
    <glyph glyph-name="uni103D" unicode="&#x103d;" 
d="M-270 -394q0 -169 -116 -287t-284 -118q-167 0 -285 119t-118 286q0 171 115.5 289.5t287.5 118.5q164 0 282 -119.5t118 -288.5zM-398 -394q0 118 -78.5 199t-193.5 81q-122 0 -198.5 -79t-76.5 -201q0 -114 79.5 -197.5t195.5 -83.5q115 0 193.5 81.5t78.5 199.5z" />
    <glyph glyph-name="uni103E" unicode="&#x103e;" 
d="M-602 -723q0 -65 -64 -65h-242q-59 0 -59 65q0 61 59 61h181v616q0 64 61 66q64 0 64 -66v-677z" />
    <glyph glyph-name="uni103F" unicode="&#x103f;" horiz-adv-x="2955" 
d="M2799 514q0 -214 -153 -367t-363 -153q-204 0 -369 157l-41 47l-30 67q-39 -71 -97 -124q-160 -151 -364 -151q-212 0 -370 155q-47 47 -82 120q-66 -124 -189.5 -197.5t-262.5 -73.5q-271 0 -408 185q-10 13 -14 33q0 27 25 45q12 21 47 27q24 0 51 -29
q109 -135 299 -135q166 0 278 122.5t112 290.5q0 158 -115 258t-275 100q-196 0 -303 -142q-19 -17 -51 -23q-68 0 -68 66q0 12 18 47q159 181 404 181q198 0 340.5 -120.5t171.5 -315.5l2 -92q6 -143 115 -253q84 -84 199 -113q39 -8 76 -8q150 0 268.5 111.5t118.5 282.5
q0 163 -115 274t-303 101l-53 -6q-70 0 -82 61q0 43 23 58l55 10l41 6h-2l57 2q199 10 361 -141q149 -151 149 -363q0 -173 106 -269q77 -84 201 -113q37 -8 76 -8q148 0 266 114.5t118 279.5q0 161 -114.5 273t-302.5 92l-53 -6q-71 0 -83 62q0 45 25 57l56 10l39 6v0l57 7
q202 9 360 -136q148 -151 148 -369z" />
    <glyph glyph-name="uni1040" unicode="&#x1040;" horiz-adv-x="1251" 
d="M650 127q111 21 197 108q115 116 115 275q0 157 -117 270q-87 85 -195 106v132q163 -22 288 -146q154 -151 154 -362q0 -213 -154 -367q-125 -125 -288 -147v131zM517 -7q-180 17 -310 149q-149 153 -149 368q0 219 148 366q130 129 312 145l1 -130q-130 -15 -222 -106
q-109 -108 -109 -275q0 -161 111 -276q92 -94 218 -111v-130z" />
    <glyph glyph-name="uni1041" unicode="&#x1041;" horiz-adv-x="1188" 
d="M1029 504q0 -212 -151.5 -365.5t-365.5 -153.5q-268 0 -406 187l-18 23l-21 39l-6 18l-2 21q0 38 61 50q46 0 65 -39l25 -36q88 -133 302 -133q156 0 271.5 117t115.5 272q0 167 -109.5 277t-277.5 110q-186 0 -307 -142q-8 -33 -52 -37q-67 0 -67 61q0 91 195 192
q108 55 231 55q214 0 365.5 -152t151.5 -364z" />
    <glyph glyph-name="uni1042" unicode="&#x1042;" horiz-adv-x="888" 
d="M742 -332q0 -184 -108 -317q-115 -139 -297 -139q-134 0 -261 77q-147 93 -147 232q8 59 68 59q51 0 61 -61q0 -66 109 -127q100 -54 170 -54q127 0 204 105q74 92 74 225v1295q-7 51 62 63q65 0 65 -63v-1295z" />
    <glyph glyph-name="uni1043" unicode="&#x1043;" horiz-adv-x="1177" 
d="M1016 502q0 -210 -151 -364t-363 -154h-49q-31 0 -66.5 2t-86.5 33l474 -719q8 -14 14 -39q0 -49 -72 -63q-30 0 -51 30l-604 911q0 120 68 120q32 0 69 -20l37 -23q6 -4 101 -67q70 -35 166 -35q157 0 271.5 116.5t114.5 271.5q0 170 -109.5 278t-276.5 108
q-186 0 -306 -142q-31 -25 -57 -29q-53 0 -66 61q0 23 27 58q67 83 181.5 134t220.5 51q214 0 364 -152t150 -367z" />
    <glyph glyph-name="uni1044" unicode="&#x1044;" horiz-adv-x="1177" 
d="M1017 143l-606 -915q-20 -30 -53 -30q-55 0 -68 65q7 31 13 37l478 724q-103 -40 -209 -40q-212 0 -362 154t-150 364q0 222 148 371t364 149q256 0 402 -185q19 -21 23 -51q0 -54 -66 -64q-22 0 -89 53q-78 62 -94 72q-84 41 -176 41q-167 0 -275 -107.5t-108 -278.5
q0 -156 112 -272t271 -116q205 0 306 129q43 16 80 16q59 0 59 -116z" />
    <glyph glyph-name="uni1045" unicode="&#x1045;" horiz-adv-x="1253" 
d="M1090 -280q0 -215 -152.5 -366.5t-363.5 -151.5q-213 0 -361.5 151.5t-148.5 366.5q0 22 12.5 39.5t53.5 17.5q63 0 63 -57q0 -162 110.5 -274.5t270.5 -112.5t273.5 114.5t113.5 272.5v780q0 156 -115.5 270.5t-271.5 114.5q-180 0 -299 -143h25q100 0 168.5 -71
t68.5 -169q0 -86 -73.5 -161t-163.5 -75q-86 0 -166 70q-72 78 -72 166l6 57q21 197 164 327t342 130q211 0 363.5 -151.5t152.5 -364.5v-780zM406 500q0 55 -33 82q-20 26 -75 26q-86 0 -107 -83l-4 -39q20 -76 113 -86l41 8l32 22q27 25 33 70z" />
    <glyph glyph-name="uni1046" unicode="&#x1046;" horiz-adv-x="1251" 
d="M1088 510q0 -211 -150.5 -365.5t-363.5 -154.5q-209 0 -360.5 152.5t-151.5 367.5v780q0 213 151.5 365t360.5 152q219 0 366.5 -148.5t147.5 -368.5q0 -47 -68 -61q-61 0 -61 61q0 162 -110.5 274t-274.5 112q-156 0 -269.5 -113t-113.5 -273v-780q0 -158 113.5 -272.5
t269.5 -114.5q145 0 251.5 98.5t131.5 241.5l-283 96q-65 9 -127 64q-67 76 -67 172q0 98 66.5 165.5t166.5 67.5q94 0 167 -70.5t73 -162.5q0 -88 -74 -172l164 -55q45 -9 45 -58zM822 795q0 41 -35 74l-27 22q-18 8 -47 8q-94 0 -104 -102q0 -53 27.5 -83t80.5 -30
q47 0 70 33q35 37 35 78z" />
    <glyph glyph-name="uni1047" unicode="&#x1047;" horiz-adv-x="1263" 
d="M1096 521q3 -22 -4 -51t-19 -59.5t-25.5 -59.5t-23.5 -50q-15 -29 -28.5 -59t-27.5 -61q-44 -104 -80.5 -210.5t-60.5 -217.5q-11 -52 -17.5 -105.5t-4 -105.5t15.5 -103t41 -98l3 -3h3q34 -10 47 -33t8 -45t-26 -37.5t-56 -11.5q-41 6 -67.5 34.5t-44.5 67t-29 79.5
t-19 71q-9 39 -7.5 78t3.5 78q6 80 22.5 159.5t40 157.5t52.5 154t61 148q13 32 29 62t31 61t29 62t23 65q16 168 -86 283q-104 116 -271 125q-155 9 -278 -100.5t-132 -264.5q-12 -215 116 -310l35 -27q38 -21 35 -67q-15 -60 -52 -58l-22 3l-18 7l-37 23l-22 20
q-179 148 -165 416q12 214 173.5 357t373.5 130q212 -12 356 -172q128 -141 125 -332z" />
    <glyph glyph-name="uni1048" unicode="&#x1048;" horiz-adv-x="1253" 
d="M1094 492q0 -308 -267 -490l-37 -12q-58 0 -62 72q0 28 28 50q87 59 147.5 168t60.5 212q0 163 -115 283t-276 120q-188 0 -318 -182q205 -44 273 -262l18 -115l4 -95q7 -100 -32 -173.5t-138 -73.5l-54 8q-267 161 -267 490q0 221 148 375t366 154q211 0 366 -158.5
t155 -370.5zM423 307q0 221 -220 294l-14 -67v-42q0 -245 198 -380q12 12 24 94q12 72 12 101z" />
    <glyph glyph-name="uni1049" unicode="&#x1049;" horiz-adv-x="1251" 
d="M1091 -277q0 -217 -151 -369t-366 -152q-210 0 -362 152t-152 369v783q0 214 152 366.5t362 152.5q211 0 364 -152.5t153 -366.5q0 -41 -45 -57l-161 -56q70 -79 70 -171t-75 -165t-166 -73q-100 0 -167 69.5t-67 168.5t67 171l57 37l82 31l273 93q-18 137 -131.5 238
t-253.5 101q-156 0 -270 -113t-114 -274v-783q0 -159 114 -274t270 -115q167 0 277 112t110 277q0 45 62 57q68 0 68 -57zM824 222q0 39 -35 76q-21 29 -71 29l-12 4q-96 -19 -96 -113q0 -43 28.5 -73t75.5 -32l41 8l34 24q35 36 35 77z" />
    <glyph glyph-name="uni104A" unicode="&#x104a;" horiz-adv-x="342" 
d="M180 60q0 -70 -60 -70q-59 0 -59 70v893q0 56 59 63q30 -2 45 -14.5t15 -48.5v-893z" />
    <glyph glyph-name="uni104B" unicode="&#x104b;" horiz-adv-x="694" 
d="M531 60q0 -33 -14 -51t-49 -19q-64 0 -64 70v893q0 61 64 63q26 0 44.5 -16.5t18.5 -46.5v-893zM193 60q0 -70 -68 -70q-63 0 -63 70v893q0 54 63 63q67 -2 68 -63v-893z" />
    <glyph glyph-name="uni104C" unicode="&#x104c;" horiz-adv-x="1249" 
d="M889 1634q0 -69 -71 -69q-56 0 -56 61.5t-77.5 103.5t-141.5 42q-170 0 -196 -158q0 -174 114 -256l78 -55l168 -91q35 -18 35 -55q0 -61 -68 -74l-32 13l-125 67q-201 105 -260 262q-39 99 -39 203q20 119 112 197t213 78q123 0 224.5 -74t121.5 -195zM1088 500
q0 -217 -152.5 -368.5t-363.5 -151.5q-242 0 -379 143v-156l39 -30q106 -80 242 -99q39 -6 98 -6q180 0 346 150q23 16 47 16q64 0 64 -63v-402q0 -170 -82 -252q-90 -90 -258 -90h-445q-80 0 -131 61.5t-51 139.5q-2 43 2 53q39 113 154 113q55 0 98 -25q29 -26 35 -55
q0 -31 -31 -59q-12 -9 -35 -15l-33 15q-16 4 -20 6l-33 -2l-8 -6q0 -95 53 -95h484q82 0 125 43q32 37 43 88l4 80v267q-144 -101 -328 -101q-246 0 -416 133l-65 49q-27 23 -27 54v264q0 78 43 82l37 5l41 -6q37 -5 88 -40q90 -133 299 -133q162 0 274.5 115.5t112.5 277.5
t-112.5 271.5t-274.5 109.5q-150 0 -299 -141q-21 -19 -61 -25q-68 0 -68 59q0 31 27 54q204 184 401 184q213 0 364.5 -148.5t151.5 -363.5z" />
    <glyph glyph-name="uni104D" unicode="&#x104d;" horiz-adv-x="1589" 
d="M1422 -598q-8 -123 -135 -184q-58 -27 -121 -27l-864 2q-105 0 -162 78q-49 74 -49 176v54q6 38 49 131q82 147 266 147q143 0 258 -94q16 -17 23 -47q0 -70 -68 -70q-16 0 -45 19q-27 28 -78 45q-28 10 -88 16q-110 0 -160 -80l-22 -55l-10 -60q0 -118 86 -131h864
q67 0 106 47q13 17 21 62l6 90v1211q0 199 -188 361q-271 231 -297 276q-64 107 -64 209q0 127 93 227.5t239 100.5q211 0 326 -193l12 -30q0 -64 -68 -64q-39 0 -57 31q-70 125 -215 125l-74 -8q-33 -11 -67 -54q-60 -73 -60 -135q0 -57 45 -141q242 -191 338 -299
q164 -199 164 -406zM1082 -369q0 -30 -29 -59q-10 -8 -35 -8q-65 0 -65 67v832q0 205 -112.5 318.5t-268.5 113.5q-148 0 -268 -117q-95 -86 -113 -200q190 0 291 -66q80 -53 143 -182q33 -76 33 -166q0 -172 -86 -174q-217 -4 -363.5 146.5t-146.5 373.5q0 215 149.5 364.5
t360.5 149.5q229 0 381 -170q129 -145 129 -391v-832zM525 121q0 92 -27 145q-53 193 -303 193q0 -117 109 -221q120 -117 221 -117z" />
    <glyph glyph-name="uni104E" unicode="&#x104e;" horiz-adv-x="1177" 
d="M1017 -732q0 -16 -19.5 -35.5t-37.5 -19.5q-51 0 -63 39q-3 10 -7 16v816q-123 -101 -318 -101q-212 0 -362 154t-150 364q0 222 148 371t364 149q256 0 402 -185q19 -21 23 -51q0 -54 -66 -64q-22 0 -89 53q-78 62 -94 72q-84 41 -176 41q-167 0 -275 -107.5
t-108 -278.5q0 -160 111 -273t272 -113q209 0 306 127q43 16 80 16q59 0 59 -116v-874z" />
    <glyph glyph-name="uni104F" unicode="&#x104f;" horiz-adv-x="1943" 
d="M366 163q11 116 94 195q96 92 283 97q181 -3 291 -137q21 -39 0 -105q-30 -67 -165.5 -150t-295.5 -83q-215 0 -373.5 151.5t-158.5 366.5q0 219 158.5 370.5t373.5 151.5q160 0 289 -76q102 84 229 84q154 0 244 -155q65 -117 65 -246l4 -617q0 -70 -69 -70
q-64 0 -64 70v617q0 74 -53 168q-57 104 -125 104l2 2q-68 0 -122 -37q46 -37 63 -67q24 -66 0 -110q-96 -132 -293 -141q-189 6 -301 127q-55 79 -74 166q-198 -134 -198 -337q0 -207 196 -339zM1781 10q0 -70 -67 -70q-64 0 -64 70v735q0 290 -192 409q-258 160 -326 299
q-27 72 -27 139q0 93 54.5 178t140.5 115l53 17l88 8q217 0 318 -191l8 -24q0 -53 -70 -70q-37 0 -57 39q-47 115 -203 115q-59 0 -84 -12q-123 -58 -116 -166l2 -54q10 -30 16 -47q20 -100 160 -178q182 -102 239 -168q127 -139 127 -409v-735zM573 891q-47 0 -106 -14
q18 -125 124 -188q94 -34 160 -27q110 7 164 74q-139 155 -342 155zM573 109q203 0 337 154q-49 68 -159 75q-66 7 -160 -27q-106 -63 -124 -188q59 -14 106 -14z" />
    <glyph glyph-name="uni1050" unicode="&#x1050;" horiz-adv-x="1248" 
d="M1090 504q0 -283 -183 -494q-15 -16 -48 -20q-60 0 -70 73q0 16 17 41q154 152 154 400q0 183 -107 272q-112 116 -283 116q-159 0 -260 -103q-62 -48 -93 -143q-29 -81 -29 -142q0 -246 159 -400q16 -17 18 -41q0 -28 -23.5 -50.5t-47.5 -22.5q-19 0 -48 20
q-188 203 -188 494q0 103 49 219q44 108 110 167q146 132 353 132q181 0 313 -92.5t183 -264.5q24 -82 24 -161zM385 438q0 -42 16 -78.5t43 -63.5t63.5 -43t78.5 -16t78.5 16t63.5 43t43 63.5t16 78.5t-16 78.5t-43 63.5t-63.5 43t-78.5 16t-78.5 -16t-63.5 -43t-43 -63.5
t-16 -78.5zM487 438q0 42 28.5 70.5t70.5 28.5t70.5 -28.5t28.5 -70.5t-28.5 -70.5t-70.5 -28.5t-70.5 28.5t-28.5 70.5z" />
    <glyph glyph-name="uni1051" unicode="&#x1051;" horiz-adv-x="1254" 
d="M1095 521q0 -218 -152.5 -374.5t-368.5 -156.5q-214 0 -364.5 158.5t-150.5 372.5q0 143 74.5 274.5t191.5 218.5l35 8q60 0 66 -68q0 -29 -33 -50q-91 -57 -147.5 -163t-56.5 -220q0 -162 114.5 -281.5t270.5 -119.5q167 0 279 118.5t112 282.5q0 114 -56 220t-152 163
q-24 13 -28 48q-2 60 61 70l29 -8q128 -75 202 -209.5t74 -283.5zM386 559q0 -42 16 -78.5t43 -63.5t63.5 -43t78.5 -16t78.5 16t63.5 43t43 63.5t16 78.5t-16 78.5t-43 63.5t-63.5 43t-78.5 16t-78.5 -16t-63.5 -43t-43 -63.5t-16 -78.5zM488 559q0 42 28.5 70.5t70.5 28.5
t70.5 -28.5t28.5 -70.5t-28.5 -70.5t-70.5 -28.5t-70.5 28.5t-28.5 70.5z" />
    <glyph glyph-name="uni1052" unicode="&#x1052;" horiz-adv-x="1252" 
d="M60 525q0 327 263 488l31 8q62 -10 62 -70q0 -32 -30 -50q-196 -114 -196 -376q0 -166 117.5 -285.5t281.5 -119.5q119 0 236.5 91.5t137.5 206.5v16l-12 47l-41 51l-49 16q-51 16 -110 63q-102 80 -102 184q0 73 37 124q78 92 142 94l53 4q76 2 138 -51.5t72 -129.5
q0 -64 -63 -64q-65 0 -65 64q0 51 -92 51l-31 -6q-39 -23 -50.5 -39.5t-11.5 -40.5q13 -66 64 -99l144 -66l17 -14q31 -27 37 -41q33 -35 39 -84.5t6 -119.5q-20 -159 -181 -275q-151 -112 -315 -112q-221 0 -375 155.5t-154 379.5z" />
    <glyph glyph-name="uni1053" unicode="&#x1053;" horiz-adv-x="1252" 
d="M541 -10q-174 27 -285 112q-161 117 -182 276q-6 71 3.5 120t41.5 85q6 14 38 41l17 14l144 67q51 32 63 98q0 25 -11 41.5t-50 39.5l-31 6q-93 0 -93 -51q0 -65 -63 -65q-65 0 -65 65q10 76 72 129.5t139 51.5l53 -4q65 -2 143 -95q36 -50 36 -124q0 -103 -102 -184
q-58 -47 -109 -64l-51 -16l-41 -50l-12 -47v-17q21 -116 138.5 -207.5t243.5 -91.5q120 0 237.5 91.5t138.5 207.5v17l-13 47l-41 50l-50 16q-51 17 -109 64q-104 81 -104 184q0 74 38 124q78 93 143 95l53 4q77 2 138.5 -51.5t72.5 -129.5q0 -65 -65 -65q-63 0 -63 65
q0 51 -93 51l-31 -6q-39 -23 -50.5 -39.5t-11.5 -41.5q13 -66 64 -98l144 -67l17 -14q31 -27 38 -41q32 -36 42.5 -86t2.5 -119q-21 -159 -183 -276q-150 -112 -315 -112h-37z" />
    <glyph glyph-name="uni1054" unicode="&#x1054;" horiz-adv-x="1170" 
d="M1036 663q-134 -138 -303 -138l-125 21q-202 55 -283 241q-131 -112 -131 -280q0 -171 116.5 -281t284.5 -110q123 0 196 53q31 21 104 113q17 42 59 42q72 0 72 -61q-7 -32 -33 -67q-69 -88 -130 -130q-116 -76 -268 -76q-216 0 -372.5 147t-156.5 362q0 216 145 369
t358 153q117 0 223 -48t170 -113l49 -67l37 -62zM904 723q-13 23 -39 49q-118 120 -296 120q-67 0 -134 -32q22 -69 76 -116q97 -83 222 -83q130 0 171 62z" />
    <glyph glyph-name="uni1055" unicode="&#x1055;" horiz-adv-x="1299" 
d="M888 723q-13 23 -39 50q-118 119 -297 119q-66 0 -134 -31q22 -69 77 -117q96 -82 222 -82q130 0 171 61zM578 -8v-2q-216 0 -372.5 147.5t-156.5 361.5q0 216 145.5 369.5t357.5 153.5q118 0 224 -48t169 -113l50 -67l37 -63l-12 -67q-134 -139 -303 -139l-126 21
q-202 56 -282 242q-132 -112 -132 -281q0 -171 116.5 -281t284.5 -110v-6q33 0 70.5 1.5t71 9t62 24.5t46.5 49q8 15 8.5 30.5t0.5 32.5t2 33.5t12 31.5q23 20 45 21t45 -17q12 -11 17.5 -26t15.5 -27q9 -9 21.5 -24t28.5 -30t35 -29.5t41 -24.5q24 -12 51 -18t51.5 -8.5
t44 -2.5h30.5l6 21q14 24 35 31.5t40 2t31.5 -23t11.5 -45.5q-17 -69 -56.5 -96t-88.5 -27.5t-102.5 17.5t-98.5 40q-29 14 -57.5 41t-56.5 46q-2 -2 -2 -3v-2q-26 -51 -65 -80.5t-86 -43.5t-99 -17.5t-104 -4.5h-7z" />
    <glyph glyph-name="uni1056" unicode="&#x1056;" horiz-adv-x="999" 
d="M-33 359q29 -66 82 -119q118 -120 282 -120q120 0 237.5 91.5t137.5 207.5v16l-12 47l-41 50l-49 16q-52 17 -110 64q-103 80 -103 184q0 73 38 124q77 92 141 94l54 4q76 2 138 -51t72 -130q0 -64 -63 -64q-65 0 -65 64q0 52 -92 52l-32 -7q-39 -23 -50 -39.5t-11 -40.5
q12 -66 63 -99l145 -66l16 -14q32 -27 38 -41q33 -36 39 -85t6 -120q-21 -159 -181 -275q-151 -112 -316 -112q-220 0 -374 155q-65 65 -102 142z" />
    <glyph glyph-name="uni1057" unicode="&#x1057;" horiz-adv-x="1552" 
d="M498 362q21 18 42.5 19.5t37.5 -10t23 -32.5t-1 -48q20 -27 47 -51q117 -120 282 -120q120 0 238 92t138 207v17l-12 47l-41 50l-50 16q-52 17 -109 64q-103 81 -103 184q0 74 37 124q78 93 142 95l53 4q77 2 139 -51.5t72 -129.5q0 -65 -64 -65t-64 65q0 51 -93 51
l-31 -6q-39 -23 -50 -39.5t-11 -41.5q12 -66 63 -98l145 -67l16 -14q32 -27 38 -41q33 -36 39 -85t6 -120q-21 -159 -181 -276q-151 -112 -317 -112q-220 0 -375 155q-17 16 -33 33q-20 -31 -42 -60.5t-46.5 -55t-51 -45.5t-56.5 -29q-23 -8 -46.5 -14.5t-48.5 -8.5
q-28 -1 -66.5 5.5t-79 19.5t-81.5 33t-75 45.5t-57.5 56.5t-30.5 68q-3 32 11.5 51.5t36 24t43 -8t31.5 -43.5q5 -15 18.5 -27.5t24.5 -23.5q33 -26 65.5 -40t76.5 -26q47 -13 84 -6.5t68 26t57 49t49 62.5t46 67.5t47 63.5z" />
    <glyph glyph-name="uni1058" unicode="&#x1058;" 
d="M-1070 -446q0 149 118.5 249.5t280.5 100.5q183 0 303 -123l39 -51l10 -21q27 -24 27 -51l-16 -82q-119 -90 -256 -90q-70 0 -137 25q-115 45 -187 182q-22 -23 -43 -66l-10 -73q0 -107 81 -165.5t189 -58.5q131 0 215 84l29 19l29 6q24 0 44.5 -17.5t24.5 -44.5
q0 -28 -35 -53q-141 -123 -307 -123q-162 0 -280.5 97.5t-118.5 255.5zM-785 -242q45 -94 124 -123q52 -20 97 -18l80 2q20 6 61 39q-29 51 -107.5 86t-140.5 33l-55 -4q-35 -2 -59 -15z" />
    <glyph glyph-name="uni1059" unicode="&#x1059;" 
d="M-1060 -446q0 149 118.5 249.5t280.5 100.5q183 0 303 -123l39 -51l10 -21q27 -24 27 -51l-16 -82q-119 -90 -256 -90q-70 0 -137 25q-115 45 -187 182q-22 -23 -43 -66l-10 -73q0 -107 81 -165.5t189 -58.5q113 0 191 62q-3 29 8 48t29 26t39 0t38 -29l4 -8l9 -7
q14 -12 22 -30q29 -25 72 -39.5t85.5 -15.5t77 14.5t46.5 50.5q14 24 34.5 31.5t39.5 2t31.5 -23t11.5 -45.5q-7 -18 -11.5 -36.5t-13.5 -35.5q-17 -29 -49 -46.5t-72.5 -25t-86 -6t-90 10.5t-85 24t-70.5 35q-121 -86 -260 -86q-162 0 -280.5 97.5t-118.5 255.5zM-651 -365
q52 -20 97 -18l80 2q20 6 61 39q-29 51 -107.5 86t-140.5 33l-55 -4q-35 -2 -59 -15z" />
    <glyph glyph-name="uni105A" unicode="&#x105a;" horiz-adv-x="1211" 
d="M1027 249l-19 -41l-20 -29q-130 -187 -407 -187q-208 0 -361 153t-153 365q0 218 149 365t365 147q242 0 401 -181q10 -10 16 -37q0 -23 -27 -49q-22 -15 -47 -21q-20 6 -39 17q-117 141 -304 141q-163 0 -274 -107.5t-111 -274.5q0 -158 114.5 -273t270.5 -115
q221 0 300 129l25 39q26 46 65 46q56 0 64 -60zM475 -337q16 -13 21 -28.5t0 -28.5t-20 -21t-39 -5q-25 8 -42 23.5t-35 34.5q-48 53 -54.5 102t13.5 90.5t61 73.5t89 49.5t96.5 18.5t84.5 -19q58 -33 98.5 -67t58 -74t9.5 -90t-46 -116q-11 -18 -29 -43t-36 -52.5t-33 -57
t-20.5 -57.5t2.5 -54t36 -45q32 0 56 -14t29 -43q-2 -19 -14 -31t-27.5 -15.5t-45.5 5.5t-57 26t-45.5 42.5t-28.5 56t-12 57.5q-2 33 14 68.5t38 70t45 67t37 59.5q8 14 18.5 35t17 42.5t5.5 42.5t-15 37q-22 15 -42.5 30.5t-43 26.5t-48.5 14.5t-57 -5.5
q-38 -12 -64.5 -30t-37.5 -40t-6 -48.5t31 -54.5q9 -8 16.5 -18t21.5 -15z" />
    <glyph glyph-name="uni105B" unicode="&#x105b;" horiz-adv-x="1336" 
d="M1110 301q0 -63 -70 -63q-27 0 -51 33l-70 102q-102 -66 -246 -66q-98 9 -168 70q-77 66 -77 160l8 55q51 137 221 137q57 0 102 -16q84 -35 170 -141l7 28q0 35 -30 101.5t-54 76.5q-117 113 -277 113q-235 0 -352 -235q-29 -68 -29 -146q0 -149 111 -276
q119 -115 282 -115q127 0 191 57q8 9 39 15q26 0 44.5 -18.5t24.5 -49.5q0 -29 -22 -45q-119 -88 -279 -88q-227 0 -373.5 154.5t-146.5 361.5q0 217 146.5 363.5t363.5 146.5q207 0 365 -137q110 -125 110 -266l-10 -60q-4 -41 -37 -82l94 -135zM837 475l-69 80
q-23 27 -54 37l2 10v-10q-18 8 -55 8q-90 0 -102 -55l-4 -12q0 -33 45 -65t78 -32l104 3q22 4 55 36zM1367 -755q0 -62 -84 -62l-533 148q-33 8 -41 22l-6 39v360l-242 -372l-10 8l14 -6q-63 -100 -166 -127q-53 0 -92 27q-45 16 -94 65l-166 197l-10 41q0 61 70 67
q26 0 47 -20l149 -191q2 -12 35 -28l49 -29l33 25q23 18 33 32l338 509q30 29 73 29q60 0 70 -59v-485l401 -104v1651q0 31 27 49l39 17q66 0 66 -66v-1737z" />
    <glyph glyph-name="uni105C" unicode="&#x105c;" horiz-adv-x="1252" 
d="M1093 510q0 -213 -153.5 -366.5t-366.5 -153.5q-215 0 -364.5 152.5t-149.5 367.5q0 219 148.5 366.5t365.5 147.5q213 0 366.5 -151.5t153.5 -362.5zM963 510q0 157 -116.5 270.5t-273.5 113.5q-165 0 -274.5 -108.5t-109.5 -275.5q0 -161 111.5 -275.5t272.5 -114.5
t275.5 115.5t114.5 274.5zM366 500q0 -42 16 -78.5t43 -63.5t63.5 -43t78.5 -16t78.5 16t63.5 43t43 63.5t16 78.5t-16 78.5t-43 63.5t-63.5 43t-78.5 16t-78.5 -16t-63.5 -43t-43 -63.5t-16 -78.5zM468 500q0 42 28.5 70.5t70.5 28.5t70.5 -28.5t28.5 -70.5t-28.5 -70.5
t-70.5 -28.5t-70.5 28.5t-28.5 70.5z" />
    <glyph glyph-name="uni105D" unicode="&#x105d;" horiz-adv-x="1254" 
d="M1050 -455q0 -162 -82 -253q-66 -74 -216 -93q-48 2 -99 8t-99.5 21t-90.5 41t-72 68q-26 37 -34 79t-2.5 85t24.5 84.5t47.5 75.5t64.5 58t78 33q37 8 71 -9.5t59 -50t38.5 -73t8 -78.5t-33.5 -67.5t-85 -39.5q-28 3 -44 19t-18.5 35.5t10 38.5t38.5 28l1 1q1 0 1.5 0.5
t7 8.5t0.5 27t-30 37q-32 -16 -57.5 -41t-44.5 -56q-24 -39 -21.5 -69t22.5 -51.5t53 -36.5t69.5 -24.5t72.5 -14t63 -5.5q82 2 127.5 50.5t45.5 163.5v587q-148 -140 -350 -140q-209 0 -361 159t-152 375q0 309 265 487l35 8q60 0 66 -68q0 -28 -33 -49q-90 -57 -147 -163
t-57 -215l10 -79l25 -83q132 183 349 183q231 0 361 -175q30 75 30 154q0 241 -208 378q-24 13 -28 47q-2 60 61 70l29 -8q128 -74 201.5 -207.5t73.5 -279.5q0 -116 -45 -218zM767 355q-84 65 -194 65q-86 0 -150.5 -40.5t-121.5 -128.5q110 -129 272 -129q177 0 284 135z
" />
    <glyph glyph-name="uni105E" unicode="&#x105e;" 
d="M-701 -101q5 28 22 42.5t36.5 15t37.5 -13t27 -40.5q0 -6 0.5 -8t2 -9.5t2.5 -25t3 -53.5q58 -9 115.5 -25t110 -40.5t98 -59.5t80.5 -83q11 -14 15.5 -36t8.5 -37q5 -33 -9 -54t-35.5 -26t-43.5 7t-33 44q-2 9 -3.5 18.5t-6.5 17.5q-15 30 -47 53t-73.5 40.5t-88 30
t-91.5 21.5q2 -55 1.5 -114.5t-4.5 -112t-11.5 -93t-19.5 -57.5q-22 -31 -62 -46.5t-88.5 -17.5t-99.5 8t-94.5 30t-75.5 48.5t-41 63.5q-6 26 -13 51t-7 51q6 63 44.5 121t94.5 103.5t122 74.5t126 35v76zM-701 -303q-15 4 -33 -1.5t-37 -15t-36.5 -21t-30.5 -20.5
q-19 -12 -40.5 -28.5t-39.5 -36t-31 -42.5t-14 -49q-1 -28 13 -50t36 -38t50 -25t57 -11.5t55.5 2t45.5 16.5q2 30 3 61t1.5 67.5t0.5 83v108.5z" />
    <glyph glyph-name="uni105F" unicode="&#x105f;" 
d="M-456 1q1 34 18.5 52.5t39.5 20t41.5 -14t24.5 -49.5q2 -32 4.5 -64.5t3.5 -65.5q1 -15 1 -36t-2 -38q-5 -53 -25 -75.5t-50 -28.5t-68.5 -2t-81.5 4t-86 -0.5t-87 -4.5q-10 -1 -33 -3.5t-49 -7.5t-51.5 -11.5t-40.5 -14.5q-20 -11 -31.5 -24.5t-17 -30t-6 -36t0.5 -42.5
q5 -20 8 -33.5t8.5 -25t14.5 -21.5t25 -23q48 -37 110.5 -52t121.5 -15q41 0 86 4t83 20q33 14 65 31.5t59 38.5q36 28 68.5 55t65 51.5t67 44t73.5 32.5q13 4 27 -1.5t23 -18t8.5 -30t-16.5 -37.5q-62 -35 -121.5 -83t-115.5 -92q-13 -11 -35 -26.5t-46 -31.5t-47.5 -29
t-39.5 -18q-49 -14 -97 -23t-99 -10q-58 -1 -115 8t-112 32q-86 35 -134 95.5t-55 153.5q-3 34 2 68.5t22 67.5q14 29 31.5 55t43.5 46q29 23 75.5 36t98 19.5t101 8.5t84.5 2q30 0 60 -3.5t54 -3t38 11t12 39.5q-1 32 -3 64.5t-4 64.5z" />
    <glyph glyph-name="uni1060" unicode="&#x1060;" 
d="M-267 -684q0 -64 -52 -65h-452q-62 8 -88.5 32.5t-26.5 74.5q0 36 20 72l301 543q26 38 58 38q15 0 38.5 -8t30.5 -45q0 -42 -15 -52l-286 -521l406 -2q66 0 66 -67z" />
    <glyph glyph-name="uni1061" unicode="&#x1061;" horiz-adv-x="1241" 
d="M1051 -325q0 -67 -66 -67q-60 0 -60 67v782q0 106 -22 175t-88 136q-55 54 -122.5 81.5t-142.5 27.5q-71 0 -139 -27.5t-124 -81.5q-93 -92 -111 -196q121 0 202 -24.5t136.5 -88t87.5 -138t32 -155.5q0 -61 -18.5 -117t-65.5 -56q-121 0 -202 34.5t-155.5 113.5
t-107.5 168t-33 194q0 204 145 358q155 146 353 146q202 0 358 -146q80 -85 111.5 -184t31.5 -220v-782zM606 -715q0 -67 -61 -67h-236q-29 0 -45 19t-16 48q0 60 61 60h173v444q0 61 63 61q26 0 43.5 -15t17.5 -46v-504zM504 123q0 87 -21.5 145.5t-61.5 101.5
q-73 81 -243 81q0 -53 32 -111.5t77 -101.5q69 -69 108.5 -92t108.5 -23z" />
    <glyph glyph-name="uni1062" unicode="&#x1062;" horiz-adv-x="490" 
d="M324 62q0 -22 -11 -37q-20 -25 -51 -25q-25 0 -42 14t-17 48v803h-173q-59 0 -59 59q0 65 59 65h232q62 0 62 -65v-862z" />
    <glyph glyph-name="uni1063" unicode="&#x1063;" horiz-adv-x="1178" 
d="M54 -800v978q0 95 70 93l59 -5q18 -6 53 -32q92 -115 271 -115q151 0 269 118t118 269q0 166 -111 269.5t-276 103.5q-170 0 -303 -137q-23 -17 -54 -21q-57 0 -57 70q0 26 12 41q156 184 402 184q219 0 367.5 -146.5t148.5 -363.5q0 -213 -151.5 -366.5t-364.5 -153.5
q-121 0 -197 24q-53 21 -123 78v-888h-133z" />
    <glyph glyph-name="uni1064" unicode="&#x1064;" horiz-adv-x="662" 
d="M569 71q0 -65 -64 -65h-239q-62 0 -62 65v2v791h-176q-63 0 -63 61q0 66 63 66h240q61 0 61 -66v-792h176q64 0 64 -62z" />
    <glyph glyph-name="uni1065" unicode="&#x1065;" horiz-adv-x="1206" 
d="M61 274q8 60 64 60q40 0 66 -45l25 -40q78 -129 300 -129q156 0 270.5 115t114.5 274q0 167 -111 275t-274 108q-188 0 -304 -142q-19 -11 -39 -17q-26 6 -48 21q-27 26 -27 49q6 27 16 37q159 181 402 181q216 0 365.5 -147t149.5 -365q0 -212 -153.5 -365.5
t-361.5 -153.5q-278 0 -408 187l-20 29l-19 41z" />
    <glyph glyph-name="uni1066" unicode="&#x1066;" horiz-adv-x="1257" 
d="M901 -733q0 -65 -64 -65h-447q-60 0 -60 65q0 61 60 61h386v703q-92 -39 -200 -39q-213 0 -363 158t-150 372q0 142 74 273.5t191 217.5l35 8q60 0 66 -68q0 -28 -33 -49q-90 -57 -147 -163t-57 -219q0 -162 114.5 -281t269.5 -119q167 0 278.5 118t111.5 282
q0 113 -56 219t-151 163q-24 13 -28 47q-2 60 61 70l29 -8q127 -74 201 -208.5t74 -282.5q0 -218 -152 -373q-21 -23 -43 -42v-840z" />
    <glyph glyph-name="uni1067" unicode="&#x1067;" horiz-adv-x="537" 
d="M322 1023q20 0 29 -5q29 -18 29 -59v-766q0 -70 -38 -123q-53 -70 -152 -70q-82 0 -136 57t-54 139q0 79 54 136t139 57q44 0 70 -15v585q0 35 23.5 49.5t35.5 14.5zM116 192q0 -32 22.5 -54.5t54.5 -22.5t54.5 22.5t22.5 54.5t-22.5 54.5t-54.5 22.5t-54.5 -22.5
t-22.5 -54.5z" />
    <glyph glyph-name="uni1068" unicode="&#x1068;" horiz-adv-x="679" 
d="M500 293q-2 -136 -106 -228q-101 -80 -240 -80q-91 -4 -146.5 11.5t-112.5 67.5q-53 34 -18 90l32 24q27 11 54 -6q54 -42 99.5 -54t91.5 -12q82 10 150.5 58.5t68.5 128.5v647q0 67 60 67q69 0 68 -67zM230 1314q0 37 14 69.5t38 56.5t56.5 38t69.5 14t69.5 -14
t56.5 -38t38 -56.5t14 -69.5t-14 -69.5t-38 -56.5t-56.5 -38t-69.5 -14t-69.5 14t-56.5 38t-38 56.5t-14 69.5zM333 1314q0 -32 21.5 -53.5t53.5 -21.5t53.5 21.5t21.5 53.5t-21.5 53.5t-53.5 21.5t-53.5 -21.5t-21.5 -53.5z" />
    <glyph glyph-name="uni1069" unicode="&#x1069;" horiz-adv-x="531" 
d="M364 728q0 -92 -75 -193q-162 -219 -162 -263q0 -75 50.5 -109.5t125.5 -34.5q29 0 45 -17.5t16 -43.5t-17.5 -46t-43.5 -20q-98 0 -185 52q-118 72 -118 214q0 121 120 258t120 200q0 75 -50.5 110t-126.5 35q-28 0 -44 17t-16 43t17.5 46.5t42.5 20.5q107 0 185 -46
q116 -70 116 -223z" />
    <glyph glyph-name="uni106A" unicode="&#x106a;" horiz-adv-x="689" 
d="M532 293q-2 -136 -106 -228q-101 -80 -240 -80q-91 -4 -146.5 11.5t-112.5 67.5q-53 34 -18 90l32 24q27 11 54 -6q54 -42 99.5 -54t91.5 -12q82 10 150.5 58.5t68.5 128.5v647q0 67 60 67q69 0 68 -67z" />
    <glyph glyph-name="uni106B" unicode="&#x106b;" horiz-adv-x="705" 
d="M554 48q1 -67 -68 -67q-60 0 -60 67v647q0 80 -68.5 128.5t-150.5 58.5q-46 0 -91.5 -12t-99.5 -54q-27 -17 -54 -6l-32 24q-35 56 18 90q57 52 112.5 67.5t146.5 11.5q139 0 240 -80q104 -92 106 -228z" />
    <glyph glyph-name="uni106C" unicode="&#x106c;" horiz-adv-x="641" 
d="M-20 940q-1 67 68 67q60 0 60 -67v-647q0 -80 68.5 -128.5t150.5 -58.5q46 0 91.5 12t99.5 54q27 17 54 6l32 -24q35 -56 -18 -90q-57 -52 -112.5 -67.5t-146.5 -11.5q-139 0 -240 80q-104 92 -106 228z" />
    <glyph glyph-name="uni106D" unicode="&#x106d;" horiz-adv-x="610" 
d="M489 823q0 -79 -54 -136t-139 -57q-44 0 -70 15v-468q0 -85 -47 -131.5t-128 -46.5h-65q-35 0 -49.5 23.5t-14.5 34.5q0 21 6 30q17 29 58 29h65q23 0 40.5 17.5t17.5 40.5v652q0 70 38 123q53 70 152 70q82 0 136 -57t54 -139zM222 829q0 -32 22.5 -54.5t54.5 -22.5
t54.5 22.5t22.5 54.5t-22.5 54.5t-54.5 22.5t-54.5 -22.5t-22.5 -54.5z" />
    <glyph glyph-name="uni106E" unicode="&#x106e;" horiz-adv-x="2491" 
d="M1091 498q0 -347 -246 -502l-33 -10q-63 0 -63 67q0 35 30 54q150 89 186 334q0 184 -102 310q-103 137 -286 137q-162 0 -275.5 -119.5t-113.5 -282.5q0 -110 58 -214.5t146 -164.5q27 -17 31 -47q0 -70 -70 -74l-33 10q-265 183 -265 490q0 218 152 374t370 156
q142 0 266 -79q43 -26 77 -59q125 99 270 45q156 -58 167 -180q30 71 84 122q86 78 176.5 115.5t192.5 37.5q212 0 365 -153t153 -363q0 -214 -153 -369t-418 -155v2q-23 2 -31 6l-41 8q-35 19 -41 62q0 63 62 63l26 -4l41 -8q190 0 311 120q75 75 103 197q10 37 10 78
q0 160 -112 273t-275 113q-158 0 -275 -117q-84 -82 -115 -273q0 -347 -247 -502l-33 -10q-61 0 -61 67q0 35 29 54q149 89 178 323q45 144 -64 345q-106 86 -230 23q18 -27 35 -55q23 -33 43.5 -101t20.5 -144z" />
    <glyph glyph-name="uni106F" unicode="&#x106f;" horiz-adv-x="2154" 
d="M1854 -733q0 -65 -63 -65h-242q-59 0 -59 65q0 61 59 61h180v725q-127 -71 -305 -71v4l-35 4q-18 0 -43 14q-36 11 -36 49q0 60 86 66l45 -8q184 0 307 119q76 75 100 192q10 39 10 78q0 164 -111.5 276.5t-275.5 112.5q-147 0 -270 -117q-86 -77 -104 -184
q0 -59 -9 -170q-2 -18 -20 -80q-37 -125 -123 -211q-186 -145 -383 -145q-295 0 -426 227q-80 137 -80 291q0 137 50.5 267t136.5 222q16 19 43 19q63 0 73 -70q-4 -10 -20 -41q-150 -153 -150 -397q0 -195 111 -285q106 -104 264 -104q154 0 277 102q65 56 98 158
q24 74 24 129q0 225 -161 397q-11 15 -15 41q0 70 70 70q16 0 45 -19l76 -102l53 -109l37 48l39 41q139 151 364 151q215 0 368 -154.5t153 -363.5q0 -199 -138 -348v-885z" />
    <glyph glyph-name="uni1070" unicode="&#x1070;" horiz-adv-x="2157" 
d="M1860 -733q0 -65 -63 -65h-242q-59 0 -59 65q0 61 59 61h180v730q-114 -68 -256 -68q-200 0 -364 158l-45 49l-39 69q-64 -122 -186.5 -197t-264.5 -75q-176 0 -331 123q-168 131 -168 305q0 64 18 133q20 47 84 78l90 39q31 10 49 29q53 28 70 96q0 33 -64 76
q-8 10 -47 10q-78 0 -90 -39q0 -27 -23.5 -47.5t-48.5 -20.5q-57 0 -57 68q19 168 209 168q137 0 211 -98q37 -50 37 -123q0 -109 -100 -185q-54 -38 -109 -59l-51 -16q-31 -13 -43 -41l-13 -54q0 -100 118 -208.5t259 -108.5q170 0 283 135q104 123 104 299q0 225 -184 346
q-27 19 -29 49q0 58 62 68l33 -8q108 -64 174.5 -182.5t66.5 -247.5l6 -31l-2 -25q21 -186 115 -282q115 -121 270 -121q154 0 273 119q78 76 102 192q10 39 10 76q0 170 -112 272q-49 58 -138.5 90.5t-166.5 28.5l-39 -4l-31 -8q-61 0 -61 63q0 39 38 60l39 8l37 8
q135 0 230 -35q108 -41 184 -116q151 -152 151 -367q0 -199 -135 -346v-893z" />
    <glyph glyph-name="uni1071" unicode="&#x1071;" 
d="M-1114 1395q0 42 16 78.5t43 63.5t63.5 43t78.5 16t78.5 -16t63.5 -43t43 -63.5t16 -78.5t-16 -78.5t-43 -63.5t-63.5 -43t-78.5 -16t-78.5 16t-63.5 43t-43 63.5t-16 78.5zM-1012 1395q0 -42 28.5 -70.5t70.5 -28.5t70.5 28.5t28.5 70.5t-28.5 70.5t-70.5 28.5
t-70.5 -28.5t-28.5 -70.5zM-640 1394q0 42 16 78.5t43 63.5t63.5 43t78.5 16t78.5 -16t63.5 -43t43 -63.5t16 -78.5t-16 -78.5t-43 -63.5t-63.5 -43t-78.5 -16t-78.5 16t-63.5 43t-43 63.5t-16 78.5zM-538 1394q0 -42 28.5 -70.5t70.5 -28.5t70.5 28.5t28.5 70.5t-28.5 70.5
t-70.5 28.5t-70.5 -28.5t-28.5 -70.5z" />
    <glyph glyph-name="uni1072" unicode="&#x1072;" 
d="M-657 1094q-169 0 -276 121t-107 280q0 164 106 282t277 118q219 0 351 -209l12 -33q0 -51 -75 -64q-28 0 -50 35q-93 142 -238 142q-113 0 -180.5 -82t-67.5 -189q0 -112 64 -192t184 -80q147 0 236 141q13 35 52 35q68 0 79 -61l-11 -29q-120 -215 -356 -215z" />
    <glyph glyph-name="uni1073" unicode="&#x1073;" 
d="M-720 1674q45 45 90 0l344 -342q44 -43 -2 -88q-45 -45 -88 -2l-299 297l-303 -301q-43 -43 -86 0q-47 47 -2 90z" />
    <glyph glyph-name="uni1074" unicode="&#x1074;" 
d="M-1056 1586q-45 43 2 90q43 43 86 0l303 -301l299 297q43 43 88 -2q46 -45 2 -88l-344 -342q-45 -45 -90 0z" />
    <glyph glyph-name="uni1075" unicode="&#x1075;" horiz-adv-x="1252" 
d="M1091 486q0 -327 -263 -488l-31 -8q-62 10 -62 70q0 32 31 50q195 114 195 376q0 166 -117 285.5t-282 119.5q-119 0 -236 -91.5t-138 -206.5v-16l12 -47l41 -51l50 -16q51 -16 109 -63q102 -80 102 -184q0 -73 -36 -124q-78 -92 -143 -94l-53 -4q-76 -2 -138 52t-72 129
q0 64 64 64t64 -64q0 -51 92 -51l31 6q39 23 50.5 39.5t11.5 40.5q-13 66 -64 99l-143 66l-18 14q-31 27 -37 41q-32 35 -38.5 84.5t-6.5 119.5q21 159 182 275q150 112 314 112q221 0 375 -155.5t154 -379.5z" />
    <glyph glyph-name="uni1076" unicode="&#x1076;" horiz-adv-x="1230" 
d="M607 1018q17 0 36 0.5t33 -4.5q157 -25 269 -140q149 -149 149 -369q0 -210 -151.5 -362.5t-365.5 -152.5q-239 0 -394 183l-47 68q-21 34 -52 116q0 45 17 74q152 144 329 144q83 0 163 -33q177 -74 268 -289q103 110 103 252q0 171 -109 278q-105 103 -264 109
q-53 -23 -107.5 -54t-109 -56.5t-110.5 -37t-113 5.5q-39 11 -64.5 40.5t-36.5 66.5t-8 78.5t20.5 77.5t50 62.5t79.5 34.5q32 2 50 -14t20.5 -38t-11.5 -42.5t-45 -26.5q-11 -2 -21.5 -9.5t-13.5 -18.5q1 -13 1.5 -26.5t2 -26.5t6 -23.5t15.5 -15.5q14 -6 41 0.5t62.5 20.5
t75.5 33t80 40q16 7 26 12l18 9t18 8.5t27 11.5zM760 179q-48 159 -208 241q-68 22 -128 22q-119 0 -210 -88q6 -16 31 -47l35 -45q111 -142 297 -142q91 0 183 59z" />
    <glyph glyph-name="uni1077" unicode="&#x1077;" horiz-adv-x="1249" 
d="M1088 486q0 -327 -263 -488l-31 -8q-14 2 -27 6q-11 -2 -23 -1t-26 9q-40 24 -61 59.5t-27 76.5t1.5 84.5t25.5 84.5t45 75.5t59 56.5q22 14 47 16.5t50 -3t50 -16t46 -22.5q4 33 4 70q0 166 -117 285.5t-282 119.5q-119 0 -236 -91.5t-138 -206.5v-16l12 -47l41 -51
l50 -16q51 -16 109 -63q102 -80 102 -184q0 -73 -36 -124q-78 -92 -143 -94l-53 -4q-76 -2 -138 52t-72 129q0 64 64 64t64 -64q0 -51 92 -51l31 6q39 23 50.5 39.5t11.5 40.5q-13 66 -64 99l-143 66l-18 14q-31 27 -37 41q-32 35 -38.5 84.5t-6.5 119.5q21 159 182 275
q150 112 314 112q221 0 375 -155.5t154 -379.5zM923 292q-12 8 -24.5 16t-25.5 14t-27 8t-29 -2q-23 -8 -39.5 -36.5t-23 -62t-3 -65.5t21.5 -48z" />
    <glyph glyph-name="uni1078" unicode="&#x1078;" horiz-adv-x="2173" 
d="M61 506q0 215 155.5 364.5t370.5 149.5q170 0 310 -100q98 -74 139 -170q147 266 453 266q223 0 372.5 -143.5t149.5 -362.5q0 -215 -152.5 -367.5t-369.5 -152.5q-203 0 -355.5 138t-152.5 337q-21 119 -41 176q-33 94 -82 137q-101 113 -271 113q-165 0 -279 -109.5
t-114 -275.5q0 -129 78 -225t203 -137q74 -25 152.5 -25t78.5 -66q0 -63 -71 -63q-263 0 -418.5 155.5t-155.5 360.5zM1104 531q0 -162 113.5 -287t271.5 -125q159 0 276 114.5t117 276.5q0 168 -111.5 274.5t-281.5 106.5q-156 0 -270.5 -104.5t-114.5 -255.5z" />
    <glyph glyph-name="uni1079" unicode="&#x1079;" horiz-adv-x="2173" 
d="M676 -10q-20 -3 -35 0h-6q-263 0 -418.5 155.5t-155.5 360.5q0 215 155.5 364.5t370.5 149.5q170 0 310 -100q98 -74 139 -170q147 266 453 266q223 0 372.5 -143.5t149.5 -362.5q0 -215 -152.5 -367.5t-369.5 -152.5q-203 0 -355.5 138t-152.5 337q-21 119 -41 176
q-33 94 -82 137q-101 113 -271 113q-165 0 -279 -109.5t-114 -275.5q0 -98 45 -178l13 12q48 41 108.5 54t120.5 1.5t113 -46t86 -89.5q8 -13 18.5 -36.5t19.5 -51t14 -56.5t2 -54.5t-16.5 -45t-41.5 -26.5zM1104 531q0 -162 113.5 -287t271.5 -125q159 0 276 114.5
t117 276.5q0 168 -111.5 274.5t-281.5 106.5q-156 0 -270.5 -104.5t-114.5 -255.5zM604 119q-12 46 -41.5 85t-68.5 59.5t-83.5 17t-87.5 -40.5l-10 -6q68 -60 162 -90z" />
    <glyph glyph-name="uni107A" unicode="&#x107a;" horiz-adv-x="2105" 
d="M1272 -721q0 -64 -68 -68h-205q-65 0 -65 68v1182v10q-4 199 -109 307q-108 111 -268 111q-139 0 -243.5 -88t-135.5 -230q234 0 336 -110q129 -139 129 -299q0 -62 -24 -129q-9 -47 -62 -47q-211 0 -360.5 152.5t-149.5 365.5q0 211 150.5 363.5t359.5 152.5
q205 0 356.5 -149.5t151.5 -409.5v-19q27 -127 111 -206q127 -119 270 -119q233 0 354 239q29 80 29 150q0 160 -111.5 272.5t-300.5 112.5l-45 -6l-28 -8q-60 0 -60 63q0 61 115 80q233 0 393 -137q170 -148 170 -377q0 -201 -156.5 -358.5t-359.5 -157.5q-205 0 -363 153
l-18 19v-820h139q62 0 68 -63zM508 117q0 92 -20.5 147t-65.5 109q-64 76 -246 76q27 -123 113 -216q106 -116 219 -116z" />
    <glyph glyph-name="uni107B" unicode="&#x107b;" horiz-adv-x="2176" 
d="M1399 -10q-28 7 -41.5 26.5t-16.5 45t2 54.5t14 56.5t19.5 51t18.5 36.5q33 55 86 89.5t113 46t120.5 -1.5t108.5 -54l13 -12q45 80 45 178q0 166 -114 275.5t-279 109.5q-170 0 -271 -113q-49 -43 -82 -137q-20 -57 -41 -176q0 -199 -152.5 -337t-355.5 -138
q-217 0 -369.5 152.5t-152.5 367.5q0 219 149.5 362.5t372.5 143.5q306 0 453 -266q41 96 139 170q140 100 310 100q215 0 370.5 -149.5t155.5 -364.5q0 -205 -155.5 -360.5t-418.5 -155.5h-6q-15 -3 -35 0zM971 531q0 151 -114.5 255.5t-270.5 104.5q-170 0 -281.5 -106.5
t-111.5 -274.5q0 -162 117 -276.5t276 -114.5q158 0 271.5 125t113.5 287zM1600 144q94 30 162 90l-10 6q-43 37 -87.5 40.5t-83.5 -17t-68.5 -59.5t-41.5 -85z" />
    <glyph glyph-name="uni107C" unicode="&#x107c;" horiz-adv-x="2036" 
d="M896 488q8 43 2 75q-17 127 -105 218q-108 110 -276 110q-185 0 -305 -141q-9 -33 -52 -37q-67 0 -67 61q0 90 194 191q107 55 230 55q213 0 362 -151q51 -52 84 -107q33 55 82 107q152 151 365 151q123 0 229 -55q195 -101 195 -191q0 -61 -68 -61q-43 4 -51 37
q-121 141 -305 141q-168 0 -277 -110q-90 -91 -106 -218q-2 -32 -6 -79q48 0 119.5 -0.5t152.5 -5t164.5 -13.5t157 -25t129 -40t81.5 -58q13 -29 19 -48.5t5 -37.5t-10 -36.5t-26 -43.5q-137 -186 -403 -186q-213 0 -365 152q-49 51 -82 106q-33 -55 -84 -106
q-149 -152 -362 -152q-267 0 -404 182q-26 35 -32 78t20 92q30 36 87 61.5t129.5 42t153.5 25t159 13t147.5 4.5h118.5zM1723 269q-28 23 -81 40t-119.5 28.5t-140.5 19t-143.5 12t-128.5 6t-96 2.5v-2l125 -139q115 -117 271 -117q213 0 301 133zM842 305l33 64
q-36 -1 -92.5 -2t-121.5 -4.5t-134.5 -10t-132 -17.5t-113 -27t-78.5 -39l13 -17q88 -133 301 -133q155 0 270 117z" />
    <glyph glyph-name="uni107D" unicode="&#x107d;" horiz-adv-x="1887" 
d="M484 144q50 5 82 9.5t58.5 10t52.5 14t63 21.5q24 8 51.5 19.5t56.5 23.5q-72 119 -72 264q0 217 148.5 363.5t363.5 146.5q242 0 400 -180q10 -10 16 -37q0 -23 -26 -49q-23 -15 -48 -21q-20 6 -38 17q-117 141 -304 141q-161 0 -272 -107.5t-111 -273.5q0 -119 64 -213
q51 22 103 42t103 35.5t99.5 26t91.5 13.5q42 3 76 1.5t65.5 -8.5t63.5 -19.5t70 -31.5l51 -34q35 -41 29 -64q0 -33 -27 -78q-129 -186 -406 -186q-206 0 -358 152q-37 -16 -73.5 -30.5t-71.5 -27.5q-41 -14 -70.5 -23.5t-55 -16t-49.5 -11t-53 -8.5q-161 -35 -311 76
q-160 116 -180 274q0 70 6 119t39 84q6 14 37 41l16 14l143 66q52 32 64 98q0 24 -11.5 40.5t-49.5 39.5l-31 6q-92 0 -92 -51q0 -64 -64 -64q-63 0 -63 64q10 76 71.5 129t137.5 51l53 -4q63 -2 141 -94q37 -50 37 -123q0 -103 -102 -183q-58 -47 -109 -63l-49 -16l-41 -50
l-12 -47v-16q20 -115 137 -207q80 -61 160 -65zM1526 176l55 64q-38 17 -60.5 28t-43.5 16t-46.5 5t-70.5 -4q-78 -8 -152.5 -32.5t-148.5 -55.5q100 -78 229 -78l146 14z" />
    <glyph glyph-name="uni107E" unicode="&#x107e;" horiz-adv-x="1879" 
d="M480 144q50 5 82 9.5t58.5 10t52.5 14t63 21.5q24 8 51.5 19.5t56.5 23.5q-72 119 -72 264q0 217 148.5 363.5t363.5 146.5q242 0 400 -180q10 -10 16 -37q0 -23 -26 -49q-23 -15 -48 -21q-20 6 -38 17q-117 141 -304 141q-161 0 -272 -107.5t-111 -273.5q0 -119 64 -213
q51 22 103 42t103 35.5t99.5 26t91.5 13.5q42 3 76 1.5t65.5 -8.5t63.5 -19.5t70 -31.5l51 -34q35 -41 29 -64q0 -33 -27 -78q-129 -186 -406 -186q-206 0 -358 152q-37 -16 -73.5 -30.5t-71.5 -27.5q-41 -14 -70.5 -23.5t-55 -16t-49.5 -11t-53 -8.5q-161 -35 -311 76
q-160 116 -180 274q0 70 6 119t39 84q6 14 37 41l16 14l143 66q52 32 64 98q0 24 -11.5 40.5t-49.5 39.5l-31 6q-92 0 -92 -51q0 -64 -64 -64q-63 0 -63 64q10 76 71.5 129t137.5 51l53 -4q63 -2 141 -94q37 -50 37 -123q0 -103 -102 -183q-58 -47 -109 -63l-49 -16l-41 -50
l-12 -47v-16q20 -115 137 -207q80 -61 160 -65zM1522 176l55 64q-38 17 -60.5 28t-43.5 16t-46.5 5t-70.5 -4q-78 -8 -152.5 -32.5t-148.5 -55.5q100 -78 229 -78l146 14zM947 -687q-18 -63 -79 -46l-233 65q-57 16 -40 79q17 59 74 42l174 -48l157 564q10 34 37 41l40 6
q62 -17 44 -80z" />
    <glyph glyph-name="uni107F" unicode="&#x107f;" horiz-adv-x="1254" 
d="M62 522q0 160 83 295.5t226 202.5q17 0 41 -18q142 -135 138 -310l-5 -71l-12 -62q-26 -96 -104 -170q-68 -63 -168 -94q117 -176 319 -176q160 0 271.5 121t111.5 282q0 109 -56 212.5t-144 164.5q-33 21 -33 49q6 68 65 68l35 -8q262 -184 262 -486
q0 -215 -151.5 -373.5t-360.5 -158.5q-215 0 -366.5 158.5t-151.5 373.5zM191 522q0 -47 15 -106q159 43 204 184q6 31 6 92q0 91 -57 172q-168 -139 -168 -342z" />
    <glyph glyph-name="uni1080" unicode="&#x1080;" horiz-adv-x="1946" 
d="M38 273q-8 21 6 45.5t37.5 46t50 37t41.5 18.5q68 17 138 21t139 2q63 -1 115 -10t97.5 -24t86.5 -36t82 -45q43 80 43 178q0 166 -110.5 273.5t-272.5 107.5q-187 0 -303 -141q-19 -11 -39 -17q-25 6 -47 21q-27 26 -27 49q6 27 16 37q158 180 400 180
q215 0 363.5 -146.5t148.5 -363.5q0 -137 -64 -250q26 -17 55 -34t60 -35q113 -76 246 -76q159 0 272 117.5t113 275.5q0 162 -111.5 272.5t-304.5 110.5l-51 -6q-70 0 -82 61q0 43 24 58l56 10l37 4v2l55 2q194 10 358 -151q150 -150 150 -367q0 -207 -153.5 -361.5
t-362.5 -154.5q-142 0 -267 76q-4 0 -6 2q-49 24 -88.5 48t-75.5 46l-14 -14q-151 -152 -358 -152q-277 0 -406 186l-20 29l-19 41zM491 119q151 0 264 109q-49 30 -96.5 52t-105.5 33.5t-132.5 11t-177.5 -15.5q-23 -3 -38.5 -12.5t-31.5 -21.5l19 -27q78 -129 299 -129z
" />
    <glyph glyph-name="uni1081" unicode="&#x1081;" horiz-adv-x="1249" 
d="M1094 418q0 -65 -68 -65q-61 0 -61 65v41q0 201 -110 315t-275 114q-129 0 -244.5 -91.5t-135.5 -220.5q239 0 341 -109q126 -138 126 -306q0 -173 -87 -175q-213 -4 -360 147t-147 371q0 219 149 367t358 148q212 0 366 -152q78 -71 115 -187q33 -100 33 -221v-41z
M537 118q0 92 -27 145q-53 190 -308 190q0 -63 37 -120q62 -113 185 -189q39 -26 113 -26zM394 -619q-20 -62 -81 -43l-231 72q-56 18 -37 80q18 58 75 40l172 -53l175 559q19 61 78 45q61 -19 41 -82z" />
    <glyph glyph-name="uni1082" unicode="&#x1082;" 
d="M-541 -751q-217 -42 -334 46.5t-145 225.5q-29 139 46 255t231 142q196 32 302 -71q34 -44 -10 -71q-41 -26 -81 2q-60 50 -190 29q-102 -15 -149 -96t-28 -170q20 -97 91.5 -156t242.5 -26q175 67 259 163q33 43 90 25q39 -26 15 -71q-85 -145 -340 -227z" />
    <glyph glyph-name="uni1083" unicode="&#x1083;" horiz-adv-x="636" 
d="M239 901h-180q-59 0 -59 61q0 66 59 66h242q63 0 63 -66v-1481h180q60 0 60 -61q0 -66 -60 -66h-241q-64 0 -64 66v1481z" />
    <glyph glyph-name="uni1084" unicode="&#x1084;" horiz-adv-x="1106" 
d="M66 758q25 133 169 206q117 57 274 57q105 0 181 -16q230 -54 257 -247q-6 -79 -68 -79q-51 0 -59 54q-31 107 -118 140q-55 22 -193 22q-280 0 -315 -166l-6 -25q0 -107 152 -133h99q60 0 60 -67q0 -63 -60 -63h-81l-14 4q-55 -11 -102.5 -59t-47.5 -102
q37 -164 315 -164q124 0 187 31q78 35 124 137q16 36 55 36q72 0 72 -59l-6 -24q-96 -251 -432 -251q-391 0 -443 265q0 177 106 247q-114 77 -114 202z" />
    <glyph glyph-name="uni1085" unicode="&#x1085;" 
d="M-663 1094q-160 0 -260.5 121t83.5 276q-184 168 -84.5 286t261.5 118q206 0 331 -152l11 -33q0 -51 -70 -63q-27 0 -47 35q-88 84 -225 84q-107 0 -153 -59.5t-9 -104.5q47 -56 192 -123q-264 -96 -203.5 -176t173.5 -80q139 0 217 78q12 35 49 35q63 0 74 -62l-11 -29
q-106 -151 -329 -151z" />
    <glyph glyph-name="uni1086" unicode="&#x1086;" 
d="M-493 1564q-8 -38 -26 -120q-20 -56 -49 -146q-27 -34 -46 -57.5t-43.5 -43.5t-63 -38.5t-106.5 -39.5q50 27 81 52.5t51 57t32.5 71t23.5 93.5q-13 42 -37 47q-63 13 -97.5 69.5t-22.5 115.5q14 64 67 97t115 19q64 -13 99.5 -63t21.5 -114zM-578 1591q0 26 -19 45
t-46 19q-26 0 -44.5 -19t-18.5 -45t18.5 -45t44.5 -19q27 0 46 19t19 45z" />
    <glyph glyph-name="uni1087" unicode="&#x1087;" horiz-adv-x="498" 
d="M328 163q-11 -49 -34 -153q-26 -72 -63 -187q-34 -43 -58 -73t-55.5 -55.5t-80.5 -48.5t-135 -51q63 35 102.5 67.5t65.5 72.5t41.5 90t29.5 119q-17 54 -48 61q-80 16 -123.5 88t-27.5 148q17 81 84.5 123t146.5 25q82 -18 127 -81.5t28 -144.5zM236 197
q0 42 -28.5 70.5t-70.5 28.5t-70.5 -28.5t-28.5 -70.5t28.5 -70.5t70.5 -28.5t70.5 28.5t28.5 70.5z" />
    <glyph glyph-name="uni1088" unicode="&#x1088;" horiz-adv-x="571" 
d="M44 828q0 42 16 78.5t43 63.5t63.5 43t78.5 16t78.5 -16t63.5 -43t43 -63.5t16 -78.5t-16 -78.5t-43 -63.5t-63.5 -43t-78.5 -16t-78.5 16t-63.5 43t-43 63.5t-16 78.5zM146 828q0 -42 28.5 -70.5t70.5 -28.5t70.5 28.5t28.5 70.5t-28.5 70.5t-70.5 28.5t-70.5 -28.5
t-28.5 -70.5zM151 197q0 -42 28.5 -70.5t70.5 -28.5t70.5 28.5t28.5 70.5t-28.5 70.5t-70.5 28.5t-70.5 -28.5t-28.5 -70.5zM448 163q-11 -49 -34 -153q-26 -72 -63 -187q-34 -43 -58 -73t-55.5 -55.5t-80.5 -48.5t-135 -51q63 35 102.5 67.5t65.5 72.5t41.5 90t29.5 119
q-17 54 -48 61q-80 16 -123.5 88t-27.5 148q17 81 84.5 123t146.5 25q82 -18 127 -81.5t28 -144.5z" />
    <glyph glyph-name="uni1089" unicode="&#x1089;" horiz-adv-x="405" 
d="M-72 186q0 36 13.5 68t37.5 56t56 37.5t68 13.5t68 -13.5t56 -37.5t37.5 -56t13.5 -68t-13.5 -68t-37.5 -56t-56 -37.5t-68 -13.5t-68 13.5t-56 37.5t-37.5 56t-13.5 68zM17 186q0 -36 25 -61t61 -25t61 25t25 61t-25 61t-61 25t-61 -25t-25 -61z" />
    <glyph glyph-name="uni108A" unicode="&#x108a;" horiz-adv-x="994" 
d="M251 880q-20 3 -39 -2.5t-34 -17t-24.5 -28.5t-12.5 -38q-2 -20 3.5 -39t17 -34t28 -25t37.5 -12q20 -3 39 2.5t34 17t25 28.5t12 38q3 20 -2.5 39t-17 34t-28.5 24.5t-38 12.5zM248 581q-82 -7 -139 45.5t-65 136.5q-8 80 42 141.5t133 68.5q77 7 143 -45.5t73 -132.5
q2 -32 54 -56q70 6 121.5 15t94.5 30t80 56.5t80 93.5q-38 -82 -67 -128t-58.5 -74t-62 -48t-79.5 -48q-118 -24 -193 -40q-107 -11 -157 -15zM251 320q-20 3 -39 -2.5t-34 -17t-24.5 -28.5t-12.5 -38q-2 -20 3.5 -39t17 -34t28 -25t37.5 -12q20 -3 39 2.5t34 17t25 28.5
t12 38q3 20 -2.5 39t-17 34t-28.5 24.5t-38 12.5zM248 21q-82 -7 -139 45.5t-65 136.5q-8 80 42 141.5t133 68.5q77 7 143 -45.5t73 -132.5q2 -32 54 -56q70 6 121.5 15t94.5 30t80 56.5t80 93.5q-38 -82 -67 -128t-58.5 -74t-62 -48t-79.5 -48q-118 -24 -193 -40
q-107 -11 -157 -15z" />
    <glyph glyph-name="uni108B" unicode="&#x108b;" horiz-adv-x="458" 
d="M-32 476q0 36 13.5 68t37.5 56t56 37.5t68 13.5t68 -13.5t56 -37.5t37.5 -56t13.5 -68t-13.5 -68t-37.5 -56t-56 -37.5t-68 -13.5t-68 13.5t-56 37.5t-37.5 56t-13.5 68zM57 476q0 -36 25 -61t61 -25t61 25t25 61t-25 61t-61 25t-61 -25t-25 -61z" />
    <glyph glyph-name="uni108C" unicode="&#x108c;" horiz-adv-x="910" 
d="M8 170q0 36 14 68t38 56t56 38t68 14t68 -14t56 -38t38 -56t14 -68t-14 -68t-38 -56t-56 -38t-68 -14t-68 14t-56 38t-38 56t-14 68zM97 170q0 -36 25.5 -61.5t61.5 -25.5t61 25.5t25 61.5t-25 61t-61 25t-61.5 -25t-25.5 -61zM422 169q0 36 14 68t38 56t56 38t68 14
t68 -14t56 -38t38 -56t14 -68t-14 -68t-38 -56t-56 -38t-68 -14t-68 14t-56 38t-38 56t-14 68zM512 169q0 -36 25 -61.5t61 -25.5t61.5 25.5t25.5 61.5t-25.5 61.5t-61.5 25.5t-61 -25.5t-25 -61.5z" />
    <glyph glyph-name="uni108D" unicode="&#x108d;" 
d="M-1120 -339h879v-127h-879v127z" />
    <glyph glyph-name="uni108E" unicode="&#x108e;" horiz-adv-x="1251" 
d="M1090 501q0 -209 -153 -360t-365 -151q-215 0 -363 147t-148 364q0 214 149 366t362 152q212 0 365 -153t153 -365zM961 501q0 101 -52 181q-125 -160 -339 -160q-209 0 -332 160q-30 -47 -38 -84l-10 -97q0 -166 109 -274t273 -108q157 0 273 113t116 269zM823 785
q-103 105 -251 105q-145 0 -246 -101q88 -138 244 -138q157 0 253 134z" />
    <glyph glyph-name="uni108F" unicode="&#x108f;" horiz-adv-x="594" 
d="M59 163q-17 81 28 144.5t127 81.5q79 17 146.5 -25t84.5 -123q16 -76 -27.5 -148t-123.5 -88q-31 -7 -48 -61q14 -69 29.5 -119t41.5 -90t65.5 -72.5t102.5 -67.5q-86 28 -135 51t-80.5 48.5t-55.5 55.5t-58 73q-37 115 -63 187q-23 104 -34 153zM151 197
q0 -42 28.5 -70.5t70.5 -28.5t70.5 28.5t28.5 70.5t-28.5 70.5t-70.5 28.5t-70.5 -28.5t-28.5 -70.5zM44 828q0 42 16 78.5t43 63.5t63.5 43t78.5 16t78.5 -16t63.5 -43t43 -63.5t16 -78.5t-16 -78.5t-43 -63.5t-63.5 -43t-78.5 -16t-78.5 16t-63.5 43t-43 63.5t-16 78.5z
M146 828q0 -42 28.5 -70.5t70.5 -28.5t70.5 28.5t28.5 70.5t-28.5 70.5t-70.5 28.5t-70.5 -28.5t-28.5 -70.5z" />
    <glyph glyph-name="uni1090" unicode="&#x1090;" horiz-adv-x="855" 
d="M729 315q-1 -68 -27.5 -128t-71.5 -104.5t-105.5 -70.5t-129.5 -26q-68 0 -128.5 26t-105.5 70.5t-72 104.5t-28 128l1 702q1 68 28 127.5t72 104t105 70t128 25.5t128.5 -26t105.5 -70.5t72 -104t28 -127.5v-701zM198 315q1 -40 17 -75t42.5 -61t62 -41t75.5 -15
t75.5 15t62.5 41t42.5 61t16.5 75v702q-1 39 -17 74t-42.5 60.5t-62 40.5t-75.5 15t-75.5 -15t-62 -41t-42.5 -60.5t-17 -74.5v-701z" />
    <glyph glyph-name="uni1091" unicode="&#x1091;" horiz-adv-x="857" 
d="M281 -1v1103h-331v92q184 33 250.5 56.5t119.5 56.5h129v-1168l316 77l29 -134l-342 -82z" />
    <glyph glyph-name="uni1092" unicode="&#x1092;" horiz-adv-x="941" 
d="M182 1398l-1 -153q25 17 50 32q92 54 221 54q183 0 287 -105.5t104 -279.5q0 -92 -39.5 -185t-110.5 -192.5t-168 -207t-214 -228.5l-1 -133h-166l1 137q92 121 194.5 234.5t180.5 215t119 186.5t41 165q0 113 -61.5 184.5t-186.5 71.5q-82 0 -152 -46q-53 -35 -99 -82
v-33l-128 1v364h129z" />
    <glyph glyph-name="uni1093" unicode="&#x1093;" horiz-adv-x="839" 
d="M418 1416l165 -1l-195 -560q71 24 151 19q157 -10 208 -113.5t9 -295.5l-104 -466h-168l99 454q31 142 0 207t-130 72q-59 4 -112 -15l-270 -720l-163 6z" />
    <glyph glyph-name="uni1094" unicode="&#x1094;" horiz-adv-x="1081" 
d="M416 1307h249v-1168l326 77l29 -134l-342 -82l-171 -1v1086l-405 -1088l-163 6z" />
    <glyph glyph-name="uni1095" unicode="&#x1095;" horiz-adv-x="1249" 
d="M35 419q0 91 35 172t95 141t140.5 95t172.5 35h291v460h149v-466h273v-146h-271l1 -291q0 -92 -35 -172.5t-95 -140.5t-141 -95t-172 -35q-92 0 -172.5 35t-140.5 95t-95 140.5t-35 172.5zM186 419q0 -60 23 -113.5t62.5 -93t93 -62.5t113.5 -23t113.5 23t93 62.5
t62.5 93t23 113.5v290l-292 2q-60 0 -113.5 -23t-93 -62.5t-62.5 -93t-23 -113.5z" />
    <glyph glyph-name="uni1096" unicode="&#x1096;" horiz-adv-x="1266" 
d="M38 879q0 91 35 172t95 141t140.5 95t172.5 35q91 0 172 -35t141 -95t95 -141t35 -172l-1 -291h271v-146h-273v-466h-149v460h-291q-92 0 -172.5 35t-140.5 95t-95 140.5t-35 172.5zM189 879q0 -60 23 -113.5t62.5 -93t93 -62.5t113.5 -23l292 2v290q0 60 -23 113.5
t-62.5 93t-93 62.5t-113.5 23t-113.5 -23t-93 -62.5t-62.5 -93t-23 -113.5z" />
    <glyph glyph-name="uni1097" unicode="&#x1097;" horiz-adv-x="1026" 
d="M13 99l687 1067h-626v139h833v-97l-689 -1067h666v-141h-871v99z" />
    <glyph glyph-name="uni1098" unicode="&#x1098;" horiz-adv-x="806" 
d="M709 1307v-100q-1 -80 -36.5 -147.5t-94.5 -112.5q59 -45 94 -112.5t37 -146.5v-381q-1 -68 -27.5 -128t-71.5 -104.5t-105.5 -70.5t-129.5 -26q-68 0 -128.5 26t-105.5 70.5t-72 104.5t-28 128l1 382q2 79 37 146t93 112q-59 45 -94.5 112.5t-36.5 147.5v100h137v-100
q1 -38 15.5 -72t39 -59.5t57 -41.5t70.5 -19h30q37 3 70 19t57.5 41.5t39 59.5t15.5 72v100h137zM178 307q1 -40 17 -75t42.5 -61t62 -41t75.5 -15t75.5 15t62.5 41t42.5 61t16.5 75v382q-1 37 -15.5 70.5t-39 59t-57.5 41t-70 18.5h-30q-38 -3 -70.5 -18.5t-57 -41t-39 -59
t-15.5 -71.5v-381z" />
    <glyph glyph-name="uni1099" unicode="&#x1099;" horiz-adv-x="816" 
d="M682 167q-4 0 0 0t11 -1q-4 1 -11 1zM575 -312v100q-1 38 -15.5 72t-39 59.5t-57.5 41.5t-70 19h-30q-38 -3 -70.5 -19t-57 -41.5t-39 -59.5t-15.5 -72v-100h-137v100q1 80 36.5 147.5t94.5 112.5q-58 45 -93 112t-37 146l-1 382q1 68 28 128t72 104.5t105.5 70.5
t128.5 26q69 0 129.5 -26t105.5 -70.5t71.5 -104.5t27.5 -128v-381q-2 -79 -37 -146.5t-94 -112.5q59 -45 94.5 -112.5t36.5 -147.5v-100h-137zM181 307q1 -38 15.5 -71.5t39 -59t57 -41t70.5 -18.5h30q37 3 70 18.5t57.5 41t39 58.5t15.5 71v382q-1 40 -16.5 75t-42.5 61
t-62.5 41t-75.5 15t-75.5 -15t-62 -41t-42.5 -61t-17 -75v-381z" />
    <glyph glyph-name="uni109A" unicode="&#x109a;" horiz-adv-x="397" 
d="M-51 1135q0 36 13.5 67t37 54.5t54.5 37t67 13.5t67 -13.5t54.5 -37t37 -54.5t13.5 -67t-13.5 -67t-37 -54.5t-54.5 -37t-67 -13.5t-67 13.5t-54.5 37t-37 54.5t-13.5 67zM36 1135q0 -35 25 -60t60 -25t60 25t25 60t-25 60t-60 25t-60 -25t-25 -60z" />
    <glyph glyph-name="uni109B" unicode="&#x109b;" horiz-adv-x="389" 
d="M235 1118q-8 -38 -26 -120q-20 -56 -49 -146q-27 -34 -46 -57.5t-43.5 -43.5t-63 -38.5t-106.5 -39.5q50 27 81 52.5t51 57t32.5 71t23.5 93.5q-13 42 -37 47q-63 13 -97.5 69.5t-22.5 115.5q14 64 67 97t115 19q64 -13 99.5 -63t21.5 -114zM150 1145q0 26 -19 45t-46 19
q-26 0 -44.5 -19t-18.5 -45t18.5 -45t44.5 -19q27 0 46 19t19 45z" />
    <glyph glyph-name="uni109C" unicode="&#x109c;" horiz-adv-x="1003" 
d="M251 114q21 3 38 12.5t28.5 24.5t17 34t2.5 39q-2 21 -12 38t-25 28.5t-34 17t-39 2.5q-21 -2 -37.5 -12t-28 -25t-17 -34t-3.5 -39q3 -21 12.5 -38t24.5 -28.5t34 -17t39 -2.5zM248 413q50 -4 157 -15q75 -16 193 -40q47 -28 79.5 -48t62 -48t58.5 -74t67 -128
q-43 58 -80 93.5t-80 56.5t-94.5 30t-121.5 15q-52 -24 -54 -56q-7 -80 -73 -132.5t-143 -45.5q-83 7 -133 68.5t-42 141.5q8 84 65 136.5t139 45.5zM251 674q21 3 38 12.5t28.5 24.5t17 34t2.5 39q-2 21 -12 38t-25 28.5t-34 17t-39 2.5q-21 -2 -37.5 -12t-28 -25t-17 -34
t-3.5 -39q3 -21 12.5 -38t24.5 -28.5t34 -17t39 -2.5zM248 973q50 -4 157 -15q75 -16 193 -40q47 -28 79.5 -48t62 -48t58.5 -74t67 -128q-43 58 -80 93.5t-80 56.5t-94.5 30t-121.5 15q-52 -24 -54 -56q-7 -80 -73 -132.5t-143 -45.5q-83 7 -133 68.5t-42 141.5
q8 84 65 136.5t139 45.5z" />
    <glyph glyph-name="uni109D" unicode="&#x109d;" horiz-adv-x="10" 
d="M-207 1098q0 -67 -69 -67q-60 0 -60 67v387q0 80 -68.5 128.5t-150.5 48.5q-71 0 -147 -54.5t-76 -122.5q0 -32 -23 -49l-38 -14q-66 0 -66 63q0 131 113 224q100 84 237 84q139 0 240 -80q104 -92 105 -228z" />
    <glyph glyph-name="uni109E" unicode="&#x109e;" horiz-adv-x="601" 
d="M25 1276q0 36 13.5 68t37.5 56t56 37.5t68 13.5t68 -13.5t56 -37.5t37.5 -56t13.5 -68t-13.5 -68t-37.5 -56t-56 -37.5t-68 -13.5t-68 13.5t-56 37.5t-37.5 56t-13.5 68zM114 1276q0 -36 25 -61t61 -25t61 25t25 61t-25 61t-61 25t-61 -25t-25 -61zM239 901h-180
q-59 0 -59 61q0 66 59 66h242q63 0 63 -66v-1481h180q60 0 60 -61q0 -66 -60 -66h-241q-64 0 -64 66v1481z" />
    <glyph glyph-name="uni109F" unicode="&#x109f;" horiz-adv-x="1689" 
d="M512 121q0 92 -27 145q-53 193 -303 193q0 -117 109 -221q120 -117 221 -117zM1069 463v-926q2 -68 7 -82t16 -18q19 -18 40 -22t48 -7q52 2 68 11t27 29q8 18 10.5 42t0.5 49v1233q0 199 -188 361q-271 231 -297 276q-64 107 -64 209q0 127 93 227.5t239 100.5
q211 0 326 -193l12 -30q0 -64 -68 -64q-39 0 -57 31q-70 125 -215 125l-74 -8q-33 -11 -67 -54q-60 -73 -60 -135q0 -57 45 -141q242 -191 338 -299q164 -199 164 -406v-1234q2 -43 1.5 -74t-8.5 -64t-28 -48q-50 -54 -141.5 -60.5t-181.5 20.5q-29 14 -52.5 34t-35.5 49
q-19 26 -24 65.5t-3 76.5v926q0 205 -112.5 318.5t-268.5 113.5q-148 0 -268 -117q-95 -86 -113 -200q190 0 291 -66q80 -53 143 -182q33 -76 33 -166q0 -172 -86 -174q-217 -4 -363.5 146.5t-146.5 373.5q0 215 149.5 364.5t360.5 149.5q229 0 381 -170q129 -145 129 -391z
" />
    <glyph glyph-name="uni1700" unicode="&#x1700;" horiz-adv-x="1944" 
d="M1792 516q0 -276 -226 -422q-57 -34 -150 -69t-153 -35l-51 4q-22 0 -74 21q-16 2 -39 16q-61 0 -61 63q0 242 250 365l72 20l75 11q119 0 221 -60l7 86q6 72 -33 172q-4 19 -33 54q-110 155 -309 155q-131 0 -238 -71l-4 -9l-76 -61l-24 -55q0 -125 -109 -201
q101 -70 101 -246q-47 -264 -445 -264q-330 0 -430 250l-6 26q0 43 68 56q45 0 61 -35q47 -102 123 -137q59 -31 184 -31q283 0 320 164q0 49 -59.5 105.5t-106.5 54.5l-78 -4q-49 -3 -61 67q0 62 61 62h88q162 24 162 133q-25 190 -326 190q-168 0 -231 -43
q-45 -27 -74 -119q-8 -53 -59 -53q-64 0 -70 78q43 262 434 262q299 0 402 -156l34 33q17 12 54 33q143 98 301 98q119 0 231.5 -56t181.5 -161q95 -135 95 -291zM1609 309q-102 48 -182 48q-53 0 -84 -15l-4 13l6 -13q-133 -57 -172 -205q43 -18 94 -18q125 0 232 78
q49 37 110 112zM120 1373q1 34 20.5 52t43 19.5t45 -14t27.5 -49.5v-346q-6 -30 -24 -45.5t-39.5 -16.5t-42 12t-30.5 41v347z" />
    <glyph glyph-name="uni200B" unicode="&#x200b;" horiz-adv-x="0" 
 />
    <glyph glyph-name="uni200C" unicode="&#x200c;" horiz-adv-x="768" 
d="M129 1548l261 -185l261 185l58 -82l-232 -165l232 -164l-58 -82l-211 149v-1628h-100v1628l-211 -149l-58 82l232 164l-232 165z" />
    <glyph glyph-name="uni200D" unicode="&#x200d;" horiz-adv-x="717" 
d="M418 -424h-97v1947h97v-1947z" />
    <glyph glyph-name="figuredash" unicode="&#x2012;" horiz-adv-x="1017" 
d="M83 573h852v-116h-852v116z" />
    <glyph glyph-name="endash" unicode="&#x2013;" horiz-adv-x="983" 
d="M83 573h815v-116h-815v116z" />
    <glyph glyph-name="emdash" unicode="&#x2014;" horiz-adv-x="1638" 
d="M83 573h1470v-116h-1470v116z" />
    <glyph glyph-name="quoteleft" unicode="&#x2018;" horiz-adv-x="509" 
d="M382 1346q-78 -52 -116.5 -109t-38.5 -145q6 2 18 2q41 0 75 -27t34 -78q0 -53 -31 -82.5t-78 -29.5q-61 0 -95 47t-34 137q0 123 55.5 213t161.5 151z" />
    <glyph glyph-name="quoteright" unicode="&#x2019;" horiz-adv-x="509" 
d="M129 961q78 51 116 108t38 148q-7 -3 -17 -3q-43 0 -75.5 27t-32.5 76q0 53 30.5 84t77.5 31q60 0 94.5 -48.5t34.5 -138.5q0 -123 -56 -212t-163 -150z" />
    <glyph glyph-name="quotesinglbase" unicode="&#x201a;" horiz-adv-x="509" 
d="M129 -219q78 53 116 109.5t38 146.5q-7 -2 -17 -2q-43 0 -75.5 26.5t-32.5 75.5q0 53 30.5 84t77.5 31q60 0 94.5 -48t34.5 -138q0 -123 -56 -212.5t-163 -150.5z" />
    <glyph glyph-name="quotedblleft" unicode="&#x201c;" horiz-adv-x="872" 
d="M382 1346q-78 -52 -116.5 -109t-38.5 -145q6 2 18 2q41 0 75 -27t34 -78q0 -53 -31 -82.5t-78 -29.5q-61 0 -95 47t-34 137q0 123 55.5 213t161.5 151zM743 1346q-78 -52 -117 -109t-39 -145q6 2 18 2q43 0 76 -27t33 -78q0 -53 -30.5 -82.5t-78.5 -29.5q-61 0 -95 47
t-34 137q0 123 55.5 213t164.5 151z" />
    <glyph glyph-name="quotedblright" unicode="&#x201d;" horiz-adv-x="872" 
d="M129 961q78 51 116 108t38 148q-7 -3 -17 -3q-43 0 -75.5 27t-32.5 76q0 53 30.5 84t77.5 31q60 0 94.5 -48.5t34.5 -138.5q0 -123 -56 -212t-163 -150zM489 961q78 51 117 108t39 148q-6 -3 -18 -3q-43 0 -76 27t-33 76q0 53 31 84t78 31q61 0 95 -48.5t34 -138.5
q0 -123 -55.5 -212t-161.5 -150z" />
    <glyph glyph-name="quotedblbase" unicode="&#x201e;" horiz-adv-x="872" 
d="M129 -219q78 53 116 109.5t38 146.5q-7 -2 -17 -2q-43 0 -75.5 26.5t-32.5 75.5q0 53 30.5 84t77.5 31q60 0 94.5 -48t34.5 -138q0 -123 -56 -212.5t-163 -150.5zM489 -219q78 53 117 109.5t39 146.5q-6 -2 -18 -2q-43 0 -76 26.5t-33 75.5q0 53 31 84t78 31q61 0 95 -48
t34 -138q0 -238 -217 -363z" />
    <glyph glyph-name="bullet" unicode="&#x2022;" horiz-adv-x="622" 
d="M310 293q-47 0 -88 17.5t-72.5 50t-50 77.5t-18.5 101q0 55 18.5 101t50 78t72.5 50t88 18q45 0 87 -18t74 -50t50.5 -78t18.5 -101q0 -56 -18.5 -101t-50.5 -77.5t-74 -50t-87 -17.5z" />
    <glyph glyph-name="ellipsis" unicode="&#x2026;" horiz-adv-x="1941" 
d="M192 102q0 60 36 95.5t87 35.5q49 0 85 -35.5t36 -95.5q0 -55 -36 -91t-85 -36q-51 0 -87 36t-36 91zM878 102q0 60 36 95.5t87 35.5q49 0 85 -35.5t36 -95.5q0 -55 -36 -91t-85 -36q-51 0 -87 36t-36 91zM1564 102q0 60 36 95.5t87 35.5q49 0 85 -35.5t36 -95.5
q0 -55 -36 -91t-85 -36q-51 0 -87 36t-36 91z" />
    <glyph glyph-name="perthousand" unicode="&#x2030;" horiz-adv-x="2445" 
d="M409 -25l741 1393h115l-741 -1393h-115zM376 520q-139 0 -222 110.5t-83 315.5t83 313.5t222 108.5q137 0 221 -108.5t84 -313.5t-84 -315.5t-221 -110.5zM376 625q78 0 127 80.5t49 240.5q0 162 -49 240t-127 78q-80 0 -129 -78t-49 -240q0 -160 49 -240.5t129 -80.5z
M1306 -25q-137 0 -221 111t-84 315q0 203 84 312.5t221 109.5q139 0 222 -109.5t83 -312.5q0 -204 -83 -315t-222 -111zM1306 80q80 0 129 81t49 240q0 160 -49 239t-129 79q-78 0 -127 -79t-49 -239q0 -159 49 -240t127 -81zM2068 -25q-137 0 -221 111t-84 315
q0 203 84 312.5t221 109.5q139 0 223 -109.5t84 -312.5q0 -204 -84 -315t-223 -111zM2068 80q80 0 129 81t49 240q0 160 -49 239t-129 79q-78 0 -127 -79t-49 -239q0 -159 49 -240t127 -81z" />
    <glyph glyph-name="fraction" unicode="&#x2044;" horiz-adv-x="176" 
d="M-342 -25l741 1393h115l-741 -1393h-115z" />
    <glyph glyph-name="Euro" unicode="&#x20ac;" horiz-adv-x="1017" 
d="M1005 166q-67 -90 -153 -140.5t-199 -50.5q-92 0 -171 34t-140.5 99.5t-103 158.5t-60.5 214h-131v88l121 9q-2 18 -2 36.5v36.5v33t2 33h-121v90l131 10q19 121 62 216t107.5 162t149.5 101.5t185 34.5q92 0 172 -46t133 -114l-100 -96q-43 53 -94.5 87t-116.5 34
q-135 0 -218 -100.5t-108 -278.5h520v-100h-528q-2 -15 -2 -29v-31v-39.5t2 -37.5h446v-99h-436q27 -174 105.5 -272t205.5 -98q76 0 132.5 36.5t109.5 108.5z" />
    <glyph glyph-name="trademark" unicode="&#x2122;" horiz-adv-x="1304" 
d="M635 1384h153l95 -229l55 -162h8l55 162l92 229h152v-634h-117v280l13 215h-9l-145 -397h-92l-148 397h-8l15 -215v-280h-119v634zM209 1274h-203v110h530v-110h-204v-524h-123v524z" />
    <glyph glyph-name="onethird" unicode="&#x2153;" horiz-adv-x="1646" 
d="M303 1176h-174v86q68 12 112 31.5t85 49.5h108v-798h-131v631zM315 -25l742 1393h114l-741 -1393h-115zM1055 199q37 -56 89 -87.5t113 -31.5q66 0 113 37t47 106q0 70 -65.5 106t-182.5 36v84q105 0 161 40.5t56 102.5q0 57 -39.5 92t-105.5 35q-45 0 -86 -27.5
t-76 -68.5l-78 69q52 60 114.5 95.5t146.5 35.5q51 0 97 -14t82 -42t56.5 -68t20.5 -91q0 -71 -40 -119.5t-102 -76.5q68 -17 120 -67t52 -130q0 -55 -22.5 -99t-61.5 -76t-90 -48.5t-108 -16.5q-99 0 -175.5 44t-121.5 112z" />
    <glyph glyph-name="twothirds" unicode="&#x2154;" horiz-adv-x="1681" 
d="M108 621q92 84 163.5 150.5t118.5 122.5t72 103t25 95q0 77 -42 121t-112 44q-51 0 -94 -32.5t-78 -81.5l-80 71q47 68 116.5 111t151.5 43q121 0 194 -64.5t73 -193.5q0 -57 -23 -110.5t-62.5 -107.5t-94 -111.5t-117.5 -123.5h337v-112h-548v76zM417 -25l741 1393h115
l-741 -1393h-115zM1087 199q36 -56 88.5 -87.5t113.5 -31.5q66 0 113 37t47 106q0 70 -64.5 106t-183.5 36v84q105 0 161 40.5t56 102.5q0 57 -38.5 92t-104.5 35q-45 0 -87 -27.5t-77 -68.5l-78 69q52 60 114 95.5t146 35.5q52 0 99 -14t81.5 -42t55 -68t20.5 -91
q0 -71 -38.5 -119.5t-102.5 -76.5q70 -17 121 -67t51 -130q0 -55 -22.5 -99t-60.5 -76t-90 -48.5t-109 -16.5q-99 0 -174.5 44t-122.5 112z" />
    <glyph glyph-name="oneeighth" unicode="&#x215b;" horiz-adv-x="1646" 
d="M303 1176h-174v86q68 12 112 31.5t85 49.5h108v-798h-131v631zM336 -25l741 1393h115l-741 -1393h-115zM1110 211q0 -53 44 -96t116 -43q65 0 111 40t46 97q0 37 -17 61.5t-46 43t-65.5 32.5t-77.5 31q-111 -66 -111 -166zM1315 457q45 35 65.5 72.5t20.5 78.5
q0 54 -39 84.5t-94 30.5q-54 0 -90.5 -32t-36.5 -81q0 -61 51 -96t123 -57zM987 199q0 75 46 131.5t106 91.5v8q-54 35 -86.5 77t-32.5 105q0 47 19.5 86t53 67t78.5 43t99 15q106 0 180 -56t74 -155q0 -69 -40 -116t-81 -76v-8q67 -35 107 -85.5t40 -121.5q0 -49 -21.5 -91
t-59 -73t-89 -48.5t-110.5 -17.5q-64 0 -116 17.5t-89 48.5t-57.5 72t-20.5 86z" />
    <glyph glyph-name="threeeighths" unicode="&#x215c;" horiz-adv-x="1681" 
d="M159 743q37 -55 88 -86.5t115 -31.5q65 0 112.5 37.5t47.5 105.5q0 70 -66 105.5t-182 35.5v84q104 0 160.5 41t56.5 103q0 59 -40 93t-106 34q-45 0 -86 -27t-75 -70l-80 70q53 59 115.5 95t146.5 36q51 0 97 -14.5t81 -42t55.5 -67.5t20.5 -91q0 -72 -39 -119t-100 -76
q67 -18 119.5 -68t52.5 -130q0 -55 -22.5 -99.5t-61.5 -76t-91.5 -48t-109.5 -16.5q-98 0 -174 45t-123 113zM409 -25l741 1393h115l-741 -1393h-115zM1142 211q0 -53 44 -96t116 -43q65 0 111.5 40t46.5 97q0 37 -17.5 61.5t-46.5 43t-65.5 32.5t-77.5 31
q-111 -66 -111 -166zM1349 457q86 67 86 151q0 54 -39 84.5t-94 30.5q-53 0 -90 -32t-37 -81q0 -61 50 -96t124 -57zM1019 199q0 75 46 131.5t106 91.5v8q-53 35 -86 77t-33 105q0 47 19.5 86t53 67t79 43t98.5 15q108 0 181 -56t73 -155q0 -69 -40 -116t-81 -76v-8
q68 -35 107.5 -85.5t39.5 -121.5q0 -49 -21.5 -91t-59 -73t-89 -48.5t-110.5 -17.5q-64 0 -116 17.5t-89 48.5t-57.5 72t-20.5 86z" />
    <glyph glyph-name="fiveeighths" unicode="&#x215d;" horiz-adv-x="1681" 
d="M159 743q39 -55 88 -86.5t119 -31.5q72 0 118 50t46 126q0 84 -47 130t-121 46q-47 0 -83 -18.5t-69 -45.5l-63 45l37 385h436v-114h-328l-22 -195q28 15 61 23t68 8q53 0 101 -17.5t84 -52t56.5 -85t20.5 -113.5q0 -62 -22.5 -113t-60.5 -87t-90 -56.5t-114 -20.5
q-106 0 -181 45t-122 113zM409 -25l741 1393h115l-741 -1393h-115zM1142 211q0 -53 44 -96t116 -43q65 0 111.5 40t46.5 97q0 37 -17.5 61.5t-46.5 43t-65.5 32.5t-77.5 31q-111 -66 -111 -166zM1349 457q86 67 86 151q0 54 -39 84.5t-94 30.5q-53 0 -90 -32t-37 -81
q0 -61 50 -96t124 -57zM1019 199q0 75 46 131.5t106 91.5v8q-53 35 -86 77t-33 105q0 47 19.5 86t53 67t79 43t98.5 15q108 0 181 -56t73 -155q0 -69 -40 -116t-81 -76v-8q68 -35 107.5 -85.5t39.5 -121.5q0 -49 -21.5 -91t-59 -73t-89 -48.5t-110.5 -17.5q-64 0 -116 17.5
t-89 48.5t-57.5 72t-20.5 86z" />
    <glyph glyph-name="seveneighths" unicode="&#x215e;" horiz-adv-x="1640" 
d="M227 545q6 104 22.5 193t45 171t72.5 161t106 163h-412v110h559v-71q-74 -94 -120 -180t-74.5 -172t-42 -178.5t-19.5 -196.5h-137zM307 -25l741 1393h115l-742 -1393h-114zM1101 211q0 -53 44 -96t116 -43q66 0 112 40t46 97q0 37 -17.5 61.5t-46 43t-65.5 32.5t-78 31
q-111 -66 -111 -166zM1308 457q86 67 86 151q0 54 -39 84.5t-94 30.5q-53 0 -90 -32t-37 -81q0 -61 50.5 -96t123.5 -57zM979 199q0 75 46 131.5t105 91.5v8q-53 35 -86 77t-33 105q0 47 19.5 86t53.5 67t79 43t98 15q109 0 181.5 -56t72.5 -155q0 -69 -40 -116t-81 -76v-8
q68 -35 108 -85.5t40 -121.5q0 -49 -21.5 -91t-59.5 -73t-89 -48.5t-111 -17.5q-63 0 -115.5 17.5t-89.5 48.5t-57 72t-20 86z" />
    <glyph glyph-name="minus" unicode="&#x2212;" horiz-adv-x="1017" 
d="M69 739h879v-127h-879v127z" />
    <glyph glyph-name="uni25CC" unicode="&#x25cc;" horiz-adv-x="1252" 
d="M825 177q23 16 45 33.5t39 39.5l65 -63q-38 -42 -80 -76zM935 296q31 46 47 98l88 -35q-20 -51 -51 -99zM906 758q-18 21 -38.5 38.5t-42.5 35.5l69 68q44 -33 80 -73zM978 620q-18 54 -48 98l89 38q31 -48 48 -99zM680 106q26 7 52 17t50 23l37 -88q-46 -26 -101 -43z
M784 866q-48 25 -103 39l38 92q26 -9 51.5 -18.5t49.5 -22.5zM992 509l-4 57h99l5 -57l-5 -55h-99zM579 94l55 4v-101l-55 -3q-42 1 -55 2v102zM63 514l2 52h101l-3 -52l3 -60h-101zM578 917q-14 0 -28 -1t-27 -3v101q26 4 55 4q27 0 55 -4v-101q-15 2 -28 3t-27 1zM468 906
q-26 -8 -52 -17t-51 -21l-38 91q24 13 50 21.5t52 17.5zM217 713q-14 -23 -25.5 -47.5t-19.5 -54.5l-92 40q8 28 19 53.5t25 48.5zM328 841q-22 -16 -43 -34t-39 -40l-71 72q38 40 82 71zM373 144q26 -13 52.5 -21.5t51.5 -13.5l-39 -95q-25 6 -51.5 15t-51.5 21zM174 405
q15 -58 44 -101l-96 -39q-25 45 -40 102zM247 264q14 -26 33 -46.5t39 -36.5l-81 -62q-39 34 -73 83z" />
    <glyph glyph-name="uniA9E0" unicode="&#xa9e0;" horiz-adv-x="1227" 
d="M1065 506q0 -210 -151.5 -362t-365.5 -152q-237 0 -392 183l-47 68q-20 33 -47 80q0 45 16 73q140 74 307 64q75 -2 161 -29q131 -38 259 -204q130 137 130 279q0 170 -109 278t-278 108q-54 0 -103 -13q7 -5 38.5 -36.5t31.5 -115.5t-55 -141t-141 -57q-78 0 -136 60
t-58 138q0 59 25 110q149 184 398 184q221 0 369 -148t148 -367zM711 167q-51 60 -88 91t-105 53q-90 24 -149 29q-109 12 -177 -17l41 -56q131 -146 315 -146q92 0 163 46zM390 728q0 66 -69 66q-66 -1 -66 -66q0 -71 66 -71q47 1 60.5 19t8.5 52z" />
    <glyph glyph-name="uniA9E1" unicode="&#xa9e1;" horiz-adv-x="2056" 
d="M1898 509q0 -208 -154.5 -363.5t-364.5 -155.5q-202 0 -368 155l-44 53l-35 67q-158 -271 -452 -271q-274 0 -408 185q-10 13 -14 33q0 27 24 50q13 16 48 22q24 0 52 -29q108 -135 298 -135q150 0 268.5 117t118.5 297q0 110 -55 192q-120 -112 -262 -139
q-273 -50 -455 141q-3 3 -12.5 14.5t-24.5 50.5q0 12 18 47q159 181 404 181q197 0 339 -121.5t170 -314.5l4 -93q4 -142 114 -253q118 -121 272 -121q161 0 274 118t113 277q0 162 -112 273t-307 103l-51 -6q-70 0 -82 62q0 43 25 58l55 10l41 6h-4l55 2q215 0 361 -144
q151 -150 151 -368zM480 891q-163 0 -264 -98q7 -4 14 -9q134 -98 296 -67q119 22 199 97q-104 77 -245 77z" />
    <glyph glyph-name="uniA9E2" unicode="&#xa9e2;" horiz-adv-x="2056" 
d="M1898 509q0 -208 -154.5 -363.5t-364.5 -155.5q-202 0 -368 155l-44 53l-35 67q-158 -271 -452 -271q-274 0 -408 185q-10 13 -14 33q0 27 24 50q13 16 48 22q24 0 52 -29q108 -135 298 -135q150 0 268.5 117t118.5 297q0 157 -113 257t-274 100q-196 0 -302 -141
q-20 -17 -52 -23q-68 0 -68 66q0 12 18 47q159 181 404 181q197 0 339 -121.5t170 -314.5l4 -93q4 -142 114 -253q118 -121 272 -121q161 0 274 117q84 89 106 200q-141 -9 -283 78q-146 90 -207 228q-42 93 -49 184q-4 9 -6 20q0 43 25 58l55 10l41 6h-4l55 2
q215 0 361 -144q151 -150 151 -368zM1654 786q-109 107 -295 103q8 -48 29 -95q53 -117 152 -178q72 -43 170 -47q27 -1 52 1q-16 125 -108 216z" />
    <glyph glyph-name="uniA9E3" unicode="&#xa9e3;" horiz-adv-x="1946" 
d="M440 733q0 -88 -54 -145.5t-142 -57.5q-80 0 -137.5 61.5t-57.5 139.5q0 22 4 43q47 116 194 191q107 55 230 55q213 0 362 -151q51 -52 84 -107q33 55 82 107q152 151 365 151q123 0 229 -55q195 -101 195 -191q0 -61 -68 -61q-43 4 -51 37q-121 141 -305 141
q-168 0 -277 -110q-90 -91 -106 -218q-2 -32 -6 -79q48 0 119.5 -0.5t152.5 -5t164.5 -13.5t157 -25t129 -40t81.5 -58q13 -29 19 -48.5t5 -37.5t-10 -36.5t-26 -43.5q-137 -186 -403 -186q-213 0 -365 152q-49 51 -82 106q-33 -55 -84 -106q-149 -152 -362 -152
q-267 0 -404 182q-26 35 -32 78t20 92q30 36 87 61.5t129.5 42t153.5 25t159 13t147.5 4.5h118.5q8 43 2 75q-17 127 -105 218q-108 110 -276 110q-56 0 -105 -13q5 -4 10 -9q58 -54 58 -136zM1683 269q-28 23 -81 40t-119.5 28.5t-140.5 19t-143.5 12t-128.5 6t-96 2.5v-2
l125 -139q115 -117 271 -117q213 0 301 133zM802 305l33 64q-36 -1 -92.5 -2t-121.5 -4.5t-134.5 -10t-132 -17.5t-113 -27t-78.5 -39l13 -17q88 -133 301 -133q155 0 270 117zM313 727q-1 64 -70 67q-22 0 -34.5 -9t-22 -22.5t-9.5 -36.5q-1 -63 67 -69q66 5 69 70z" />
    <glyph glyph-name="uniA9E4" unicode="&#xa9e4;" horiz-adv-x="1972" 
d="M1827 246l-19 -41l-20 -29q-129 -186 -407 -186q-207 0 -358 152l-14 14q-36 -22 -76 -46t-89 -48q-2 -2 -6 -2q-125 -76 -267 -76q-209 0 -363 155t-154 362q0 217 150 367q165 162 359 152l55 -2v-2l37 -4l56 -10q24 -15 24 -58q-12 -61 -82 -61l-51 6
q-193 0 -305 -111t-112 -273q0 -158 113.5 -276t272.5 -118q133 0 246 76q31 18 60 35t55 34q-64 114 -64 251q0 217 149 364t364 147q243 0 401 -181q10 -10 16 -37q0 -23 -27 -49q-22 -15 -47 -21q-20 6 -39 17q-116 142 -304 142q-162 0 -272.5 -108t-110.5 -274
q0 -98 43 -178q41 24 82 45t86.5 36t97.5 24t115 10q69 2 139.5 -2t138.5 -21q15 -3 41.5 -18.5t50 -37t37.5 -46t6 -46.5zM1381 119q222 0 300 129l19 27q-16 13 -31.5 22.5t-38.5 12.5q-104 15 -178.5 15.5t-132.5 -11t-105.5 -34t-96.5 -52.5q113 -109 264 -109z" />
    <glyph glyph-name="uniA9E5" unicode="&#xa9e5;" 
d="M-353 1081q-25 59 -73 99q-84 72 -199.5 67t-188.5 -91q-34 -40 -50 -78h-129q20 85 83 159q71 82 165 114q-13 20 -26 41q-54 95 -57 236q18 121 107 197t212 78q125 2 226.5 -68t122.5 -189q1 -58 -69 -74q-55 -1 -56 60.5t-80 103t-142 40.5q-170 -3 -196 -164
q3 -138 111 -238q142 -4 249 -95q96 -83 127 -198h-137z" />
    <glyph glyph-name="uniA9E6" unicode="&#xa9e6;" 
d="M-964 1221q6 27 40 42l573 257q24 7 43 3q21 -5 35.5 -29.5t8.5 -49.5q-8 -34 -34 -42l-574 -257q-30 -7 -45 -4q-24 6 -38 31.5t-9 48.5zM-1054 1418q6 26 40 42l573 256q24 7 43 3q21 -5 35.5 -29.5t8.5 -48.5q-8 -34 -34 -43l-574 -257q-30 -7 -45 -3q-24 5 -38 30.5
t-9 49.5z" />
    <glyph glyph-name="uniA9E7" unicode="&#xa9e7;" horiz-adv-x="2157" 
d="M2011 507q0 -276 -221 -420q-154 -100 -309 -100q-60 0 -117 16l-39 13l-37 20q-55 18 -55 66q0 18 19.5 39.5t41.5 21.5q21 0 27 -6l84 -33q24 -8 74 -8q163 0 282 113.5t119 277.5q0 127 -66 223q-47 68 -135 111t-174 43q-114 0 -223 -66q-80 -61 -129 -139l-94 -147
v-1l2 -38v-1132h142q62 0 68 -63q0 -64 -68 -68h-205q-59 3 -65 68l-1 1180q0 165 -116.5 284t-280.5 119q-119 0 -235.5 -91t-137.5 -206v-16l12 -47l41 -50l50 -16q51 -16 108 -63q102 -80 102 -183q0 -73 -36 -123q-78 -92 -142 -94l-53 -4q-76 -2 -137.5 51.5
t-71.5 128.5q0 64 64 64q63 0 63 -64q0 -51 92 -51l31 6q39 23 50 39.5t11 40.5q-12 66 -63 98l-143 66l-17 14q-31 27 -37 41q-32 35 -38.5 84t-6.5 119q21 158 181 274q149 111 313 111q219 0 372 -155q69 -70 107 -154l32 54q60 94 181 177t280 83q258 0 408 -217
q96 -141 96 -291z" />
    <glyph glyph-name="uniA9E8" unicode="&#xa9e8;" horiz-adv-x="2173" 
d="M1684 1723q-412 75 -477 -28q-39 -33 -41 -55v-735q141 111 323 111q217 0 369.5 -152.5t152.5 -367.5q0 -219 -149.5 -362.5t-372.5 -143.5q-200 0 -332 114v-840q0 -65 -64 -65h-242q-59 0 -59 65q0 61 59 61h181v922q-42 -91 -135 -161q-143 -96 -309 -96
q-212 0 -369.5 147.5t-157.5 362.5q0 205 156 360.5t418 155.5q71 0 71 -63q0 -66 -78.5 -66t-152.5 -25q-125 -41 -203 -137t-78 -225q0 -166 114 -275.5t280 -109.5q170 0 270 113q49 43 82 137q20 57 41 176q0 116 52 211v781q0 177 110 284t543 37zM1104 475
q0 -151 114.5 -255.5t270.5 -104.5q170 0 281.5 106.5t111.5 274.5q0 162 -116.5 276.5t-276.5 114.5q-158 0 -271.5 -125t-113.5 -287z" />
    <glyph glyph-name="uniA9E9" unicode="&#xa9e9;" horiz-adv-x="2160" 
d="M2002 502q0 -214 -153 -369t-418 -155v12l4 -10q-24 0 -35 6l-42 8q-34 19 -41 62q0 64 62 64l27 -4l41 -8q189 0 311 119q75 75 102 197q10 37 10 78q0 161 -111.5 274t-274.5 113q-158 0 -275 -118q-85 -82 -116 -273q0 -347 -247 -502l-32 -10q-62 0 -62 67
q0 35 29 55q150 88 187 333q0 185 -103 310q-103 138 -286 138q-163 0 -275.5 -119.5t-112.5 -283.5q0 -109 57.5 -214t145.5 -164q26 -18 32 -48q0 -70 -71 -74l-33 10q-265 183 -265 490q0 218 152 374t370 156q143 0 266 -77t185 -196q30 71 84 123q87 78 177 115t193 37
q212 0 365 -153t153 -363zM1285 492q0 -42 16 -78.5t43 -63.5t63.5 -43t78.5 -16t78.5 16t63.5 43t43 63.5t16 78.5t-16 78.5t-43 63.5t-63.5 43t-78.5 16t-78.5 -16t-63.5 -43t-43 -63.5t-16 -78.5zM1387 492q0 42 28.5 70.5t70.5 28.5t70.5 -28.5t28.5 -70.5t-28.5 -70.5
t-70.5 -28.5t-70.5 28.5t-28.5 70.5z" />
    <glyph glyph-name="uniA9EA" unicode="&#xa9ea;" horiz-adv-x="2146" 
d="M57 500q0 230 171 379q160 137 391 141h-2q118 -18 118 -80q0 -63 -60 -63l-29 8l-45 6q-187 -4 -298.5 -117t-111.5 -274q0 -70 29 -149q121 -241 355 -241q144 0 270.5 120.5t126.5 347.5q37 191 138 291q154 151 366 151q208 0 360 -154t152 -366t-153 -365t-354 -146
l-55 2l-43 9l-35 9q-41 18 -41 57q12 64 66 64l70 -14q178 0 292 103q119 106 119 281q0 167 -106.5 280t-271.5 113q-61 0 -140 -30q-162 -67 -222 -245q-25 -75 -25 -153q0 -183 -149 -328q-159 -155 -365 -155q-204 0 -361 158t-157 360zM1285 492q0 -42 16 -78.5
t43 -63.5t63.5 -43t78.5 -16t78.5 16t63.5 43t43 63.5t16 78.5t-16 78.5t-43 63.5t-63.5 43t-78.5 16t-78.5 -16t-63.5 -43t-43 -63.5t-16 -78.5zM1387 492q0 42 28.5 70.5t70.5 28.5t70.5 -28.5t28.5 -70.5t-28.5 -70.5t-70.5 -28.5t-70.5 28.5t-28.5 70.5z" />
    <glyph glyph-name="uniA9EB" unicode="&#xa9eb;" horiz-adv-x="2173" 
d="M57 508q0 216 158 364t371 148q167 0 310 -96q99 -74 140 -171q149 267 455 267q224 0 374 -144t150 -364q0 -216 -153 -369t-371 -153q-204 0 -357 138.5t-153 338.5q-21 119 -41 177q-34 94 -83 137q-100 114 -271 114q-167 0 -281 -110t-114 -277q0 -129 78 -225.5
t204 -137.5q74 -25 153 -25t79 -67q0 -63 -72 -63q-263 0 -419.5 156t-156.5 362zM1104 533q0 -162 114 -287.5t273 -125.5q161 0 277.5 114.5t116.5 277.5q0 169 -111.5 276t-282.5 107q-157 0 -272 -105t-115 -257zM1285 492q0 -42 16 -78.5t43 -63.5t63.5 -43t78.5 -16
t78.5 16t63.5 43t43 63.5t16 78.5t-16 78.5t-43 63.5t-63.5 43t-78.5 16t-78.5 -16t-63.5 -43t-43 -63.5t-16 -78.5zM1387 492q0 42 28.5 70.5t70.5 28.5t70.5 -28.5t28.5 -70.5t-28.5 -70.5t-70.5 -28.5t-70.5 28.5t-28.5 70.5z" />
    <glyph glyph-name="uniA9EC" unicode="&#xa9ec;" horiz-adv-x="2392" 
d="M1276 238l-28 63q-51 104 -51 203l12 120q10 61 39 103v47q-8 49 -38.5 82t-63.5 33q-94 0 -100 -115l-4 -55q51 -100 51 -215q0 -74 -22 -131l-29 -68l-46 -86q-29 -58 -133 -129q-91 -55 -149.5 -74.5t-151.5 -19.5q-123 0 -235 55q-271 143 -271 449q0 124 56 234
t174 186q140 94 267 94l96 -5l74 -17q34 -16 34 -55q-12 -63 -86 -63q-37 15 -86 15q-121 0 -235 -76q-160 -126 -160 -313q0 -170 102 -273t272 -103q161 0 231 76l68 59l43 58q55 107 55 187q0 91 -43 171l-6 30v69q0 102 67 171.5t167 69.5q102 0 167.5 -70.5
t65.5 -170.5v-66l-8 -33l-37 -78q-4 -23 -4 -93q0 -119 49 -187l46 -66l76 -57q86 -70 220 -70q99 0 181 37q204 100 204 346q0 94 -43 180q-108 204 -338 204q-62 0 -111 -17q-81 0 -81 59q7 53 43 61l73 21q21 6 76 6q72 0 130 -21q102 -41 154 -73q227 -153 227 -420
q0 -163 -95 -295q-159 -222 -420 -222q-142 0 -298 100l-105 81zM1522 489q0 -42 16 -78.5t43 -63.5t63.5 -43t78.5 -16t78.5 16t63.5 43t43 63.5t16 78.5t-16 78.5t-43 63.5t-63.5 43t-78.5 16t-78.5 -16t-63.5 -43t-43 -63.5t-16 -78.5zM1624 489q0 42 28.5 70.5
t70.5 28.5t70.5 -28.5t28.5 -70.5t-28.5 -70.5t-70.5 -28.5t-70.5 28.5t-28.5 70.5z" />
    <glyph glyph-name="uniA9ED" unicode="&#xa9ed;" horiz-adv-x="2173" 
d="M2016 509q0 -206 -157 -362.5t-420 -156.5q-72 0 -72 63q0 67 79 67t153 25q126 41 204.5 137.5t78.5 226.5q0 166 -114.5 276t-281.5 110q-171 0 -271 -113q-50 -43 -83 -138q-20 -57 -41 -177q0 -200 -153 -338.5t-357 -138.5q-219 0 -372 153t-153 370q0 220 150 364
t375 144q306 0 455 -267q41 96 139 171q144 96 311 96q213 0 371.5 -148t158.5 -364zM967 534q0 151 -115 256t-271 105q-171 0 -283 -107t-112 -275q0 -163 117 -278t278 -115q158 0 272 125.5t114 288.5zM1285 492q0 -42 16 -78.5t43 -63.5t63.5 -43t78.5 -16t78.5 16
t63.5 43t43 63.5t16 78.5t-16 78.5t-43 63.5t-63.5 43t-78.5 16t-78.5 -16t-63.5 -43t-43 -63.5t-16 -78.5zM1387 492q0 42 28.5 70.5t70.5 28.5t70.5 -28.5t28.5 -70.5t-28.5 -70.5t-70.5 -28.5t-70.5 28.5t-28.5 70.5zM365 492q0 -42 16 -78.5t43 -63.5t63.5 -43t78.5 -16
t78.5 16t63.5 43t43 63.5t16 78.5t-16 78.5t-43 63.5t-63.5 43t-78.5 16t-78.5 -16t-63.5 -43t-43 -63.5t-16 -78.5zM467 492q0 42 28.5 70.5t70.5 28.5t70.5 -28.5t28.5 -70.5t-28.5 -70.5t-70.5 -28.5t-70.5 28.5t-28.5 70.5z" />
    <glyph glyph-name="uniA9EE" unicode="&#xa9ee;" horiz-adv-x="2146" 
d="M1989 509q0 -213 -153 -366t-365 -153q-214 0 -364 152q-52 53 -86 114q-34 -60 -88 -113q-152 -153 -365 -153q-214 0 -363 152t-149 367q0 218 148 365t364 147q213 0 365 -152q53 -51 87 -109q34 61 86 113q149 148 365 148q212 0 365 -151t153 -361zM1860 509
q0 156 -116 269t-273 113q-165 0 -274 -108t-109 -274q0 -161 111 -275t272 -114t275 115t114 274zM957 509q0 156 -116 269t-273 113q-164 0 -273 -108t-109 -274q0 -161 111 -275t271 -114q161 0 275 115t114 274zM1285 492q0 -42 16 -78.5t43 -63.5t63.5 -43t78.5 -16
t78.5 16t63.5 43t43 63.5t16 78.5t-16 78.5t-43 63.5t-63.5 43t-78.5 16t-78.5 -16t-63.5 -43t-43 -63.5t-16 -78.5zM1387 492q0 42 28.5 70.5t70.5 28.5t70.5 -28.5t28.5 -70.5t-28.5 -70.5t-70.5 -28.5t-70.5 28.5t-28.5 70.5zM375 492q0 -42 16 -78.5t43 -63.5t63.5 -43
t78.5 -16t78.5 16t63.5 43t43 63.5t16 78.5t-16 78.5t-43 63.5t-63.5 43t-78.5 16t-78.5 -16t-63.5 -43t-43 -63.5t-16 -78.5zM477 492q0 42 28.5 70.5t70.5 28.5t70.5 -28.5t28.5 -70.5t-28.5 -70.5t-70.5 -28.5t-70.5 28.5t-28.5 70.5z" />
    <glyph glyph-name="uniA9EF" unicode="&#xa9ef;" horiz-adv-x="1360" 
d="M-106 1113q1 35 19 54t40.5 20.5t43 -14.5t25.5 -51q2 -32 2.5 -64t3.5 -64q4 -47 12.5 -71t24 -37t40 -21t62.5 -22q27 -10 49.5 -22.5t43.5 -27.5q25 36 57 69q148 154 365 154q209 0 363.5 -157.5t154.5 -368.5q0 -307 -266 -488l-37 -12q-57 0 -61 72q0 28 28 49
q86 59 146.5 167.5t60.5 211.5q0 162 -114.5 281.5t-274.5 119.5q-210 -1 -335 -203q161 -97 212 -237q62 -205 50 -309t-60 -147l-113 7q-266 160 -266 488q0 101 31 188q-11 10 -23 17q-38 25 -78.5 37t-77 28t-64.5 43.5t-41 83.5q-5 23 -10 44.5t-7 44.5q-4 35 -4 69
t-2 68zM487 356q-53 155 -174 242l-14 -67v-41q0 -244 197 -379q12 12 15.5 70.5t-24.5 174.5zM595 523q0 -29 11 -54t29.5 -43.5t43.5 -29.5t54 -11q28 0 53.5 11t44 29.5t29.5 43.5t11 54q0 28 -11 53.5t-29.5 44t-44 29.5t-53.5 11q-29 0 -54 -11t-43.5 -29.5t-29.5 -44
t-11 -53.5zM678 523q0 23 16 39t39 16t39 -16t16 -39t-16 -39t-39 -16t-39 16t-16 39z" />
    <glyph glyph-name="uniA9F0" unicode="&#xa9f0;" horiz-adv-x="1036" 
d="M474 -175q-226 1 -312.5 143t-97.5 539q-9 372 87.5 528.5t322.5 145.5q221 6 317.5 -114t90.5 -560q1 -397 -88 -532t-320 -150zM474 -39q57 0 120 21.5t91.5 91t35.5 180t7 245.5q0 152 -7 256.5t-31 167t-91.5 93t-124.5 30.5q-58 0 -125.5 -28t-91.5 -93
t-31.5 -169.5t-11.5 -251.5q4 -283 50 -418t210 -125z" />
    <glyph glyph-name="uniA9F1" unicode="&#xa9f1;" horiz-adv-x="1087" 
d="M531 -84q0 -89 -59.5 -151t-152.5 -62q-73 4 -112 33.5t-53 52.5q-90 114 -90 268q0 180 121.5 308t305.5 128q178 0 304.5 -130.5t126.5 -305.5q0 -181 -127 -307q-52 -55 -113 -85v-303h190q69 0 69 -65q0 -72 -69 -72h-259q-66 0 -66 72v410q0 54 45 64l-1 5
q59 21 107 69q84 90 84 212q0 118 -84.5 209.5t-206.5 91.5q-127 0 -211 -89q-69 -75 -80 -178q51 37 119 37q90 0 151 -60.5t61 -151.5zM934 592q-117 -44 -124 -26q-46 176 -190 263q-97 54 -233 31q27 -37 40 -85q29 -82 -11 -167q-37 -82 -110.5 -110.5t-145.5 16.5
q-67 40 -90 127.5t13 164.5q17 40 35 70q88 100 241 129q179 33 320 -50q186 -110 251 -340zM394 -84q0 72 -75 72q-71 0 -71 -72q0 -18 7 -32t19 -28q14 -16 45 -16q46 2 60.5 19t14.5 57zM306 675q31 65 -29 99q-57 34 -88 -32q-30 -71 29 -103q21 -13 50 0.5t38 35.5z
" />
    <glyph glyph-name="uniA9F2" unicode="&#xa9f2;" horiz-adv-x="1099" 
d="M951 696q-2 -39 -21.5 -59.5t-44 -23t-47.5 13t-31 50.5h-1q-12 20 -28 35q-95 103 -232 103q-143 0 -236 -98.5t-93 -239.5q0 -138 97 -236t232 -98q122 0 209 75l118 -104q-137 -124 -327 -124q-200 0 -340 143t-140 344q0 203 137.5 346t342.5 143q146 0 261 -78
l-2 243q-115 -84 -270 -84q-205 0 -347 135q-140 134 -144 334l153 1q2 -136 97 -228q99 -93 241 -93q137 0 235 98q24 24 46 38q1 38 1 75.5v75.5q7 34 26 51.5t41.5 18.5t43 -15t26.5 -49z" />
    <glyph glyph-name="uniA9F3" unicode="&#xa9f3;" horiz-adv-x="1229" 
d="M63 616l-3 517q2 34 24.5 52t50 20t53.5 -12t35 -44h2q13 -17 31 -30q109 -91 264 -91q163 0 269 86.5t106 210.5q0 121 -111 206t-264 85q-138 0 -237 -65l-134 90q155 110 371 110q228 0 387 -125.5t159 -300.5q0 -178 -156.5 -303.5t-389.5 -125.5q-166 0 -297 69
l1 -207q134 95 299 95q233 0 389.5 -125.5t156.5 -302.5q0 -176 -159 -301t-387 -125q-215 0 -371 109l134 91q99 -66 237 -66q155 0 265 85.5t110 206.5q0 123 -106 209.5t-269 86.5q-155 0 -262 -91q-19 -13 -32 -30h-1q-10 -30 -36 -44t-54 -12t-50 20.5t-25 51.5z" />
    <glyph glyph-name="uniA9F4" unicode="&#xa9f4;" horiz-adv-x="1205" 
d="M1055 616q-3 -33 -25 -51.5t-50 -20.5t-54 12t-36 44h-1q-13 17 -32 30q-107 91 -262 91q-163 0 -269 -86.5t-106 -209.5q0 -121 110 -206.5t265 -85.5q138 0 237 66l134 -91q-156 -109 -371 -109q-228 0 -387 125t-159 301q0 177 156.5 302.5t389.5 125.5
q165 0 305 -101l-3 213q-133 -69 -299 -69q-233 0 -389.5 125.5t-156.5 303.5q0 175 159 300.5t387 125.5q216 0 371 -110l-134 -90q-99 65 -237 65q-153 0 -264 -85t-111 -206q0 -124 106 -210.5t269 -86.5q155 0 264 91q18 13 31 30h2q9 30 34.5 44t53.5 12t50.5 -20
t24.5 -52z" />
    <glyph glyph-name="uniA9F5" unicode="&#xa9f5;" horiz-adv-x="1236" 
d="M1069 502q0 -281 -182 -490q-15 -16 -47 -20q-60 0 -70 72q0 16 16 41q154 151 154 397q0 182 -107 270q-110 115 -280 115q-158 0 -258 -102q-62 -48 -92 -142q-29 -80 -29 -141q0 -244 158 -397q16 -17 18 -41q0 -27 -23.5 -49.5t-48.5 -22.5q-18 0 -47 20
q-186 201 -186 490q0 102 49 217q7 18 15 35v532q0 213 151.5 365t360.5 152q219 0 366.5 -148.5t147.5 -368.5q0 -47 -68 -61q-61 0 -61 61q0 162 -110.5 274t-274.5 112q-156 0 -269.5 -113t-113.5 -273v-372q134 102 315 102q180 0 311 -92t180 -262q25 -82 25 -160z" />
    <glyph glyph-name="uniA9F6" unicode="&#xa9f6;" horiz-adv-x="1247" 
d="M57 503q0 281 182 490q15 16 47 20q60 0 70 -72q0 -16 -16 -41q-154 -151 -154 -397q0 -182 107 -270q110 -115 280 -115q158 0 258 102q62 48 92 142q29 80 29 141q0 244 -158 397q-16 17 -18 41q0 27 23.5 49.5t48.5 22.5q18 0 47 -20q186 -201 186 -490
q0 -102 -49 -217q-7 -18 -15 -35v-532q0 -213 -151.5 -365t-360.5 -152q-219 0 -366.5 148.5t-147.5 368.5q0 47 68 61q61 0 61 -61q0 -162 110.5 -274t274.5 -112q156 0 269.5 113t113.5 273v372q-134 -102 -315 -102q-180 0 -311 92t-180 262q-25 82 -25 160z" />
    <glyph glyph-name="uniA9F7" unicode="&#xa9f7;" horiz-adv-x="1307" 
d="M1072 -372h139q62 0 68 -63q0 -64 -68 -68h-205q-59 3 -63 68v1192q0 201 -109.5 314.5t-273.5 113.5q-129 0 -244 -91t-135 -220q238 0 340 -109q125 -137 125 -305q0 -172 -86 -174q-213 -4 -359.5 146.5t-146.5 369.5t148.5 366.5t357.5 147.5q211 0 364 -152
q78 -71 115 -186q33 -100 33 -221v-1129zM517 417q0 92 -27 145q-53 189 -307 189q0 -62 37 -119q61 -113 184 -189q39 -26 113 -26z" />
    <glyph glyph-name="uniA9F8" unicode="&#xa9f8;" horiz-adv-x="1215" 
d="M1055 432q-11 -217 -110.5 -300t-391.5 -82q-324 -6 -412 84.5t-84 297.5q-8 211 107 301q31 25 73 42q-79 60 -138 171q-38 117 8 224.5t155 165.5q111 57 233 40t317 -66q27 -52 -28 -97q-50 -26 -139.5 4.5t-179 32.5t-144.5 -27q-150 -79 -102 -234q68 -130 222 -168
q11 -3 24 -6q41 1 88 0q292 -10 396.5 -91t105.5 -292zM927 432q7 153 -85.5 196t-286.5 47q-101 -4 -173 -11t-116 -29.5t-63.5 -85.5t-19.5 -117t21 -117t63.5 -85.5t114.5 -29t176 -6.5q93 0 169 6.5t123.5 33t62 85.5t14.5 113z" />
    <glyph glyph-name="uniA9F9" unicode="&#xa9f9;" horiz-adv-x="1547" 
d="M996 1034q217 -7 302 -104.5t90 -389.5q12 -324 -76.5 -414t-295.5 -90q-211 -12 -303 101q-26 30 -44 72q-58 -80 -168 -141q-116 -41 -224.5 3t-168.5 152q-59 110 -44.5 232t59.5 318q51 28 97 -26q27 -49 -1.5 -139.5t-29 -180t30.5 -143.5q82 -148 236 -97
q128 70 163 225q3 11 6 24q-2 41 -2 88q4 292 83 398.5t290 111.5zM998 906q-153 4 -194 -89.5t-41 -287.5q6 -101 14.5 -173t31.5 -115.5t86.5 -61.5t117.5 -17t116.5 23.5t84.5 65t27 115t3 176.5q-2 93 -10 168.5t-35.5 122.5t-87 60.5t-113.5 12.5z" />
    <glyph glyph-name="uniA9FA" unicode="&#xa9fa;" horiz-adv-x="2146" 
d="M1989 500q0 -201 -157 -359.5t-361 -158.5q-206 0 -365 155q-150 145 -150 328q0 79 -25 153q-59 179 -222 245q-78 30 -140 30q-164 0 -271 -113t-107 -280q0 -174 119 -281q114 -103 293 -103l69 14q54 0 66 -64q0 -39 -41 -57l-35 -9l-42 -9l-56 -2q-201 -7 -354 146
t-153 365q0 213 152 367t360 154q212 0 366 -152q102 -99 139 -290q0 -228 126.5 -348.5t270.5 -120.5q234 0 356 241q29 79 29 149q0 161 -112 274t-299 117l-46 -6l-28 -8q-60 0 -60 64q0 62 118 80h-2q231 -4 391 -142q171 -148 171 -379zM375 492q0 -42 16 -78.5
t43 -63.5t63.5 -43t78.5 -16t78.5 16t63.5 43t43 63.5t16 78.5t-16 78.5t-43 63.5t-63.5 43t-78.5 16t-78.5 -16t-63.5 -43t-43 -63.5t-16 -78.5zM477 492q0 42 28.5 70.5t70.5 28.5t70.5 -28.5t28.5 -70.5t-28.5 -70.5t-70.5 -28.5t-70.5 28.5t-28.5 70.5z" />
    <glyph glyph-name="uniA9FB" unicode="&#xa9fb;" horiz-adv-x="2173" 
d="M2016 509q0 -206 -157 -362.5t-420 -156.5q-72 0 -72 63q0 67 79 67t153 25q126 41 204.5 137.5t78.5 226.5q0 166 -114.5 276t-281.5 110q-171 0 -271 -113q-50 -43 -83 -138q-20 -57 -41 -177q0 -200 -153 -338.5t-357 -138.5q-219 0 -372 153t-153 370q0 220 150 364
t375 144q306 0 455 -267q41 96 139 171q144 96 311 96q213 0 371.5 -148t158.5 -364zM967 534q0 151 -115 256t-271 105q-171 0 -283 -107t-112 -275q0 -163 117 -278t278 -115q158 0 272 125.5t114 288.5zM1285 492q0 -42 16 -78.5t43 -63.5t63.5 -43t78.5 -16t78.5 16
t63.5 43t43 63.5t16 78.5t-16 78.5t-43 63.5t-63.5 43t-78.5 16t-78.5 -16t-63.5 -43t-43 -63.5t-16 -78.5zM1387 492q0 42 28.5 70.5t70.5 28.5t70.5 -28.5t28.5 -70.5t-28.5 -70.5t-70.5 -28.5t-70.5 28.5t-28.5 70.5z" />
    <glyph glyph-name="uniA9FC" unicode="&#xa9fc;" horiz-adv-x="2146" 
d="M1990 509q0 -212 -153.5 -365.5t-365.5 -153.5q-214 0 -364 152q-52 53 -87 115q-34 -61 -87 -114q-153 -153 -365 -153q-214 0 -363.5 152.5t-149.5 366.5q0 218 148.5 365.5t364.5 147.5q212 0 365 -152q52 -51 86 -110q35 62 87 114q149 148 365 148
q212 0 365.5 -151.5t153.5 -361.5zM1860 509q0 157 -116 270t-273 113q-165 0 -274 -108t-109 -275q0 -161 111 -275t272 -114t275 115t114 274zM957 509q0 157 -116 270t-273 113q-165 0 -274 -108t-109 -275q0 -161 111 -275t272 -114t275 115t114 274zM1285 492
q0 -42 16 -78.5t43 -63.5t63.5 -43t78.5 -16t78.5 16t63.5 43t43 63.5t16 78.5t-16 78.5t-43 63.5t-63.5 43t-78.5 16t-78.5 -16t-63.5 -43t-43 -63.5t-16 -78.5zM1387 492q0 42 28.5 70.5t70.5 28.5t70.5 -28.5t28.5 -70.5t-28.5 -70.5t-70.5 -28.5t-70.5 28.5t-28.5 70.5z
" />
    <glyph glyph-name="uniA9FD" unicode="&#xa9fd;" horiz-adv-x="1239" 
d="M1081 508q0 -79 -25 -161q-50 -172 -182 -264.5t-313 -92.5q-207 0 -353 132q-66 59 -110 167q-49 116 -49 219q0 291 187 494q30 20 48 20q25 0 48.5 -22.5t23.5 -50.5q-2 -24 -18 -41q-159 -154 -159 -400q0 -61 29 -142q30 -95 93 -143q101 -103 260 -103
q171 0 282 116q108 89 108 272q0 248 -155 400q-16 25 -16 41q10 73 70 73q32 -4 48 -20q183 -211 183 -494zM367 546q0 -42 16 -78.5t43 -63.5t63.5 -43t78.5 -16t78.5 16t63.5 43t43 63.5t16 78.5t-16 78.5t-43 63.5t-63.5 43t-78.5 16t-78.5 -16t-63.5 -43t-43 -63.5
t-16 -78.5zM469 546q0 42 28.5 70.5t70.5 28.5t70.5 -28.5t28.5 -70.5t-28.5 -70.5t-70.5 -28.5t-70.5 28.5t-28.5 70.5z" />
    <glyph glyph-name="uniA9FE" unicode="&#xa9fe;" horiz-adv-x="2165" 
d="M53 500q0 205 156 360.5t418 155.5q71 0 71 -63q0 -66 -78.5 -66t-152.5 -25q-125 -41 -203 -137t-78 -225q0 -166 114 -275.5t280 -109.5q170 0 270 113q49 43 82 137q20 57 41 176q0 116 52 211v781q0 177 110 284t543 37l-2 -131q-412 75 -477 -28q-39 -33 -41 -55
v-735q141 111 323 111q217 0 369.5 -152.5t152.5 -367.5q0 -219 -149.5 -362.5t-372.5 -143.5q-305 0 -453 266q-41 -96 -139 -170q-143 -96 -309 -96q-212 0 -369.5 147.5t-157.5 362.5zM1096 475q0 -151 114.5 -255.5t270.5 -104.5q170 0 281.5 106.5t111.5 274.5
q0 162 -116.5 276.5t-276.5 114.5q-158 0 -271.5 -125t-113.5 -287zM1678 1723h-2h2zM377 492q0 -42 16 -78.5t43 -63.5t63.5 -43t78.5 -16t78.5 16t63.5 43t43 63.5t16 78.5t-16 78.5t-43 63.5t-63.5 43t-78.5 16t-78.5 -16t-63.5 -43t-43 -63.5t-16 -78.5zM479 492
q0 42 28.5 70.5t70.5 28.5t70.5 -28.5t28.5 -70.5t-28.5 -70.5t-70.5 -28.5t-70.5 28.5t-28.5 70.5z" />
    <glyph glyph-name="uniAA60" unicode="&#xaa60;" horiz-adv-x="2160" 
d="M2004 503q0 -214 -153.5 -369.5t-418.5 -155.5q-20 2 -31 8l-24 4q-24 1 -43 21t-18 55l5 15l3 9q36 105 79 185t103.5 135t144.5 84.5t205 34.5l15 -3q-8 146 -111 251q-112 113 -275 113q-158 0 -275 -118q-85 -82 -116 -273q0 -348 -248 -503l-32 -10q-62 0 -62 67
q0 36 29 55q150 88 187 334q0 185 -102 310q-104 138 -287 138q-163 0 -276 -119.5t-113 -283.5q0 -110 57.5 -215t146.5 -164q26 -17 31 -48q0 -70 -70 -74l-34 10q-265 183 -265 491q0 218 152.5 374.5t370.5 156.5q143 0 266 -77.5t185 -196.5q31 72 85 123
q86 78 176.5 115.5t193.5 37.5q212 0 365.5 -153.5t153.5 -363.5zM1760 227q67 68 96 173h-2q-87 -4 -149 -24t-106.5 -56.5t-75 -89.5t-56.5 -122q177 6 293 119z" />
    <glyph glyph-name="uniAA61" unicode="&#xaa61;" horiz-adv-x="2167" 
d="M1996 509q0 -213 -153 -366t-366 -153q-214 0 -363 152q-41 41 -70 86q-65 -141 -211 -230l-31 -8q-61 10 -61 70q0 32 30 49q192 112 195 368l-1 32q-11 152 -116 259q-116 119 -280 119q-119 0 -236 -91t-137 -206l12 -63l41 -50l49 -16q52 -16 109 -63
q102 -80 102 -183q0 -73 -37 -123q-81 -102 -193 -102q-77 2 -138.5 55t-71.5 129q0 64 63 64q64 0 64 -64q0 -51 92 -51q63 4 77.5 33t14.5 53q-12 66 -63 98l-160 80q-31 27 -37 41q-33 35 -43.5 85t-1.5 118q21 158 180 274q150 111 314 111q219 0 372 -155
q49 -49 83 -105q34 64 89 118q148 147 364 147q213 0 366 -151t153 -361zM1866 509q0 156 -116 269t-273 113q-164 0 -273 -108t-109 -274q0 -161 111 -275t271 -114q161 0 275 115t114 274z" />
    <glyph glyph-name="uniAA62" unicode="&#xaa62;" horiz-adv-x="1819" 
d="M783 110q1 2 -4 7t-11 10l-12 10t-8 7q-20 25 -39.5 54.5t-36 61t-30 62.5t-20.5 59q-5 11 -11 22l-12 22q-6 12 -15.5 28t-20 32t-22 30.5t-22.5 24.5q-5 4 -10.5 7t-11.5 6q-5 -3 -9.5 -7.5t-7.5 -9.5q-18 -31 -29.5 -70t-20.5 -72q-11 -43 -19.5 -86.5t-20 -86
t-27.5 -83.5t-43 -78q-6 -9 -17 -15q-2 -5 -4 -9t-4 -9q-5 -11 -14 -18t-19 -15q-28 -24 -63 -26.5t-66.5 11.5t-54 41.5t-23.5 63.5q-1 30 5 59t14 58t15.5 57.5t10.5 58.5q11 95 10 190.5t-3 190.5q0 48 -1 95t-2 95q0 18 -1 37t0.5 37t7.5 35t20 31q23 15 44.5 15
t36.5 -11t21 -30.5t-1 -43.5q1 -15 1 -30.5v-31.5l3 -190q2 -100 2.5 -200.5t-10.5 -200.5q-5 -45 -18.5 -87.5t-21.5 -87.5q5 5 13 10q32 14 43 41.5t20 61.5q6 23 11 45t10 45l21 94q5 19 12 44.5t17 53t22.5 54.5t28.5 49t36 36.5t45 17.5q21 3 43.5 3t41.5 -12
q11 -6 31.5 -20t31.5 -27q31 -35 56.5 -72t46.5 -79q17 -35 33.5 -69.5t30.5 -69.5q17 -24 30.5 -45.5t27.5 -47.5q7 -7 15.5 -16.5t16.5 -14.5q51 -46 105 -68q68 -27 143 -27q152 0 273 117q75 73 102 196q10 39 10 76q0 170 -112 272q-105 119 -308 119l-47 -6
q-69 0 -82 62q0 38 27 55l53 12l31 3v1q236 0 402.5 -143t166.5 -375q0 -207 -153.5 -361.5t-362.5 -154.5q-206 0 -337 120z" />
    <glyph glyph-name="uniAA63" unicode="&#xaa63;" horiz-adv-x="2167" 
d="M1996 509q0 -213 -153 -366t-366 -153q-214 0 -363 152l-72 85q-66 -140 -211 -229l-52 -14q-11 -2 -26 5t-29 15q-40 24 -61 59.5t-27 76.5t1.5 84.5t25.5 84.5t45 75.5t59 56.5q21 14 46.5 16.5t50.5 -3t50 -16t46 -22.5q4 33 4 70q0 105 -47 191q-26 49 -68 91
q-116 119 -280 119q-119 0 -236 -91t-137 -206l12 -63l41 -50l49 -16q52 -16 109 -63q102 -80 102 -183q0 -73 -37 -123q-81 -102 -193 -102q-77 2 -138.5 55t-71.5 129q0 64 63 64q64 0 64 -64q0 -51 92 -51q63 4 77.5 33t14.5 53q-12 66 -63 98l-160 80q-31 27 -37 41
q-33 35 -43.5 85t-1.5 118q21 158 180 274q150 111 314 111q219 0 372 -155q34 -33 83 -105q34 64 89 118q148 147 364 147q213 0 366 -151t153 -361zM1866 509q0 156 -116 269t-273 113q-164 0 -273 -108t-109 -274q0 -161 111 -275t271 -114q161 0 275 115t114 274z
M929 293q-12 7 -24.5 15t-25.5 14t-27 8t-29 -2q-23 -8 -39.5 -36.5t-23 -62t-3 -65.5t21.5 -48z" />
    <glyph glyph-name="uniAA64" unicode="&#xaa64;" horiz-adv-x="2165" 
d="M2000 511q0 -212 -153 -365t-365 -153q-213 0 -363 151q-53 55 -87 117q-34 -61 -87 -116q-152 -155 -368 -155q-213 0 -363 158t-150 372q0 142 73.5 273.5t191.5 217.5l35 8q59 0 66 -68q0 -28 -33 -49q-90 -58 -147 -163.5t-57 -218.5q0 -162 114 -281.5t270 -119.5
q167 0 279 118.5t112 282.5q0 113 -57 218.5t-151 163.5q-24 13 -28 47q-2 60 61 70l29 -8q128 -74 201 -209q8 -15 15 -30q33 55 80 103q148 147 364 147q212 0 365 -151t153 -360zM1870 511q0 156 -115.5 269t-272.5 113q-164 0 -273 -108t-109 -274q0 -161 111 -275
t271 -114q161 0 274.5 115t113.5 274z" />
    <glyph glyph-name="uniAA65" unicode="&#xaa65;" horiz-adv-x="2131" 
d="M1104 518q0 -172 -95 -305v-824q0 -65 -64 -65h-242q-59 0 -59 65q0 61 59 61h181v635q-130 -95 -298 -95q-213 0 -362.5 157.5t-149.5 370.5q0 142 73.5 273t191.5 214l35 8q59 0 66 -68q0 -28 -33 -49q-91 -54 -147.5 -159.5t-56.5 -218.5q0 -161 113.5 -280
t269.5 -119q166 0 277.5 118t111.5 281q0 113 -56.5 218.5t-148.5 159.5q-24 13 -28 47q-2 60 61 70l29 -8q123 -70 196 -201q25 38 55 68q153 151 364 151q207 0 358.5 -153.5t151.5 -364.5t-152.5 -363.5t-349.5 -152.5l-55 6h-2l-43 12l-35 9q-41 18 -41 57q12 63 66 63
l69 -14q178 0 291 103q119 106 119 280q0 166 -106.5 278.5t-270.5 112.5q-61 0 -139 -30q-156 -64 -217 -231q13 -57 13 -117z" />
    <glyph glyph-name="uniAA66" unicode="&#xaa66;" horiz-adv-x="2173" 
d="M2011 506q0 -205 -156 -360.5t-418 -155.5q-71 0 -71 63q0 66 78.5 66t152.5 25q125 41 203 137t78 225q0 166 -114 275.5t-280 109.5q-170 0 -270 -113q-49 -43 -82 -137q-20 -57 -41 -176q0 -199 -152.5 -337t-355.5 -138q-217 0 -369.5 152.5t-152.5 367.5
q0 219 149.5 362.5t372.5 143.5q305 0 453 -266q41 96 139 170q139 100 309 100q215 0 371 -149.5t156 -364.5zM968 531q0 151 -114.5 255.5t-270.5 104.5q-170 0 -281.5 -106.5t-111.5 -274.5q0 -162 116.5 -276.5t276.5 -114.5q158 0 271.5 125t113.5 287zM377 505
q0 -42 16 -78.5t43 -63.5t63.5 -43t78.5 -16t78.5 16t63.5 43t43 63.5t16 78.5t-16 78.5t-43 63.5t-63.5 43t-78.5 16t-78.5 -16t-63.5 -43t-43 -63.5t-16 -78.5zM479 505q0 42 28.5 70.5t70.5 28.5t70.5 -28.5t28.5 -70.5t-28.5 -70.5t-70.5 -28.5t-70.5 28.5t-28.5 70.5z
" />
    <glyph glyph-name="uniAA67" unicode="&#xaa67;" horiz-adv-x="2146" 
d="M1989 509q0 -213 -153 -366t-369 -153q-297 0 -442 265q-149 -265 -454 -265q-214 0 -364 152t-150 367q0 218 149 365t365 147q295 0 454 -259q135 259 442 259q212 0 367 -151t155 -361zM1856 509q0 162 -112 272t-277 110q-159 0 -265 -98q-122 -114 -110 -247l2 -37
l-2 -32q0 -145 114 -251t261 -106q161 0 275 115t114 274zM962 471v79q-18 145 -131.5 243t-259.5 98q-162 0 -271 -108t-109 -274q0 -161 110 -275t270 -114q151 0 262 102t129 249zM377 505q0 -42 16 -78.5t43 -63.5t63.5 -43t78.5 -16t78.5 16t63.5 43t43 63.5t16 78.5
t-16 78.5t-43 63.5t-63.5 43t-78.5 16t-78.5 -16t-63.5 -43t-43 -63.5t-16 -78.5zM479 505q0 42 28.5 70.5t70.5 28.5t70.5 -28.5t28.5 -70.5t-28.5 -70.5t-70.5 -28.5t-70.5 28.5t-28.5 70.5z" />
    <glyph glyph-name="uniAA68" unicode="&#xaa68;" horiz-adv-x="2173" 
d="M1396 -10q-28 7 -41.5 26.5t-16.5 45t2 54.5t14 56.5t19.5 51t18.5 36.5q33 55 86 89.5t113 46t120.5 -1.5t108.5 -54l13 -12q45 80 45 178q0 166 -114 275.5t-279 109.5q-170 0 -271 -113q-49 -43 -82 -137q-20 -57 -41 -176q0 -199 -152.5 -337t-355.5 -138
q-217 0 -369.5 152.5t-152.5 367.5q0 219 149.5 362.5t372.5 143.5q306 0 453 -266q41 96 139 170q140 100 310 100q215 0 370.5 -149.5t155.5 -364.5q0 -205 -155.5 -360.5t-418.5 -155.5h-6q-15 -3 -35 0zM968 531q0 151 -114.5 255.5t-270.5 104.5q-170 0 -281.5 -106.5
t-111.5 -274.5q0 -162 117 -276.5t276 -114.5q158 0 271.5 125t113.5 287zM1597 144q94 30 162 90l-10 6q-43 37 -87.5 40.5t-83.5 -17t-68.5 -59.5t-41.5 -85zM377 505q0 -42 16 -78.5t43 -63.5t63.5 -43t78.5 -16t78.5 16t63.5 43t43 63.5t16 78.5t-16 78.5t-43 63.5
t-63.5 43t-78.5 16t-78.5 -16t-63.5 -43t-43 -63.5t-16 -78.5zM479 505q0 42 28.5 70.5t70.5 28.5t70.5 -28.5t28.5 -70.5t-28.5 -70.5t-70.5 -28.5t-70.5 28.5t-28.5 70.5z" />
    <glyph glyph-name="uniAA69" unicode="&#xaa69;" horiz-adv-x="2151" 
d="M967 471v79q-18 145 -131.5 243t-259.5 98q-162 0 -271 -108t-109 -274q0 -161 110 -275t270 -114q151 0 262 102t129 249zM1994 509q0 -213 -153 -366t-369 -153q-297 0 -442 265q-149 -265 -454 -265q-214 0 -364 152t-150 367q0 218 149 365t365 147q295 0 454 -259
q135 259 442 259q212 0 367 -151t155 -361zM1861 509q0 162 -112 272t-277 110q-159 0 -265 -98q-122 -114 -110 -255q35 -3 66.5 -8t70.5 -15q49 -15 99.5 -35t97.5 -46.5t88 -60.5t73 -77q6 -8 14.5 -20.5t16.5 -26t14 -26.5t9 -22q2 -9 3.5 -18.5t3.5 -18.5q50 27 93 70
q115 116 115 275zM1211 225q114 -105 261 -105q29 0 57 4q-1 9 -3 17.5t-5 17.5q-20 57 -65 100t-103.5 72.5t-123.5 47t-125 26.5q22 -100 107 -180zM382 505q0 -42 16 -78.5t43 -63.5t63.5 -43t78.5 -16t78.5 16t63.5 43t43 63.5t16 78.5t-16 78.5t-43 63.5t-63.5 43
t-78.5 16t-78.5 -16t-63.5 -43t-43 -63.5t-16 -78.5zM484 505q0 42 28.5 70.5t70.5 28.5t70.5 -28.5t28.5 -70.5t-28.5 -70.5t-70.5 -28.5t-70.5 28.5t-28.5 70.5z" />
    <glyph glyph-name="uniAA6A" unicode="&#xaa6a;" horiz-adv-x="2149" 
d="M965 471v79q-18 145 -131.5 243t-259.5 98q-162 0 -271 -108t-109 -274q0 -161 110 -275t270 -114q151 0 262 102t129 249zM1992 509q0 -213 -153 -366t-369 -153q-297 0 -442 265q-149 -265 -454 -265q-214 0 -364 152t-150 367q0 218 149 365t365 147q295 0 454 -259
q135 259 442 259q212 0 367 -151t155 -361zM1859 509q0 162 -112 272t-277 110q-159 0 -265 -98q-122 -114 -110 -255q35 -3 66.5 -8t70.5 -15q49 -15 99.5 -35t97.5 -46.5t88 -60.5t73 -77q6 -8 14.5 -20.5t16.5 -26t14 -26.5t9 -22q2 -9 3.5 -18.5t3.5 -18.5q50 27 93 70
q115 116 115 275zM1209 225q114 -105 261 -105q29 0 57 4q-1 9 -3 17.5t-5 17.5q-20 57 -65 100t-103.5 72.5t-123.5 47t-125 26.5q22 -100 107 -180z" />
    <glyph glyph-name="uniAA6B" unicode="&#xaa6b;" horiz-adv-x="1263" 
d="M-100 1113q10 63 59.5 67t62.5 -62q-2 -171 6.5 -195t24 -37t40 -21t62.5 -22q27 -10 49.5 -22.5t43.5 -27.5q25 36 57 69q148 154 365 154q209 0 363.5 -157.5t154.5 -368.5q0 -307 -266 -488l-37 -12q-57 0 -61 72q0 28 28 49q86 59 146.5 167.5t60.5 211.5
q0 162 -114.5 281.5t-274.5 119.5q-188 0 -317 -182q204 -43 272 -260l18 -115l4 -94q7 -100 -32 -173t-138 -73l-53 8q-266 160 -266 488q0 101 31 188q-11 10 -23 17q-38 25 -78.5 37t-77 28t-64.5 43.5t-41 83.5q-5 23 -5 226zM520 305q0 220 -219 293l-14 -67v-41
q0 -244 197 -379q12 12 33 89q3 77 3 105z" />
    <glyph glyph-name="uniAA6C" unicode="&#xaa6c;" horiz-adv-x="2395" 
d="M1278 237l-28 62q-51 104 -51 203l12 119q10 61 39 102v47q-8 49 -38 82t-63 33q-94 0 -100 -115l-4 -55q51 -99 51 -213q0 -74 -22 -131l-29 -68l-46 -85q-28 -58 -132 -128q-90 -55 -148.5 -74.5t-150.5 -19.5q-123 0 -234 55q-270 142 -270 447q0 123 55.5 232.5
t173.5 184.5q139 94 266 94l95 -5l74 -17q34 -16 34 -55q-12 -62 -86 -62q-37 15 -86 15q-120 0 -233 -76q-160 -125 -160 -311q0 -170 101.5 -272.5t271.5 -102.5q160 0 229 76l68 59l43 57q55 107 55 187q0 90 -43 170l-6 30v68q0 102 66.5 171t166.5 69q101 0 166.5 -70
t65.5 -170v-65l-8 -33l-37 -78q-4 -23 -4 -92q0 -119 49 -187l45 -65l76 -57q86 -70 219 -70q98 0 180 37q203 100 203 344q0 94 -43 180q-107 203 -336 203q-62 0 -111 -17q-80 0 -80 58q7 53 43 61l72 21q21 6 76 6q72 0 129 -21q102 -41 154 -73q225 -152 225 -418
q0 -162 -94 -293q-158 -221 -418 -221q-141 0 -297 100l-104 80z" />
    <glyph glyph-name="uniAA6D" unicode="&#xaa6d;" horiz-adv-x="1852" 
d="M1699 504q0 -276 -221 -420q-154 -100 -309 -100q-60 0 -117 16l-39 13l-37 20q-55 18 -55 66q0 18 19.5 39.5t41.5 21.5q21 0 27 -6l84 -33q24 -8 74 -8q163 0 282 113.5t119 277.5q0 127 -66 223q-47 68 -135 111t-174 43q-114 0 -206 -66q-95 -49 -164 -120l-128 -126
q-28 -28 -67 -54q-20 -14 -36.5 -24t-38.5 -21v-812q0 -184 -108 -317q-115 -139 -297 -139q-134 0 -261 77q-147 93 -147 232q8 59 68 59q51 0 61 -61q0 -66 109 -127q100 -54 170 -54q127 0 204 105q74 92 74 225v773q-25 -3 -46.5 -3t-43 2t-45 6t-51.5 9
q-31 6 -60.5 23.5t-52.5 39.5q-36 34 -53 82t-14 96t28.5 90t75.5 63q26 11 57.5 16t57.5 -3q29 -8 59 -17t56 -25q60 -36 97 -88t52 -114q29 18 54 40t51 45l87 94q84 85 195 151t265 74q258 0 408 -217q96 -141 96 -291zM215 718q-27 -9 -30 -31t9 -45.5t33 -43.5t42 -27
q37 -12 74.5 -13.5t75.5 3.5q-8 34 -24 69t-41.5 59.5t-60 34t-78.5 -5.5z" />
    <glyph glyph-name="uniAA6E" unicode="&#xaa6e;" horiz-adv-x="2149" 
d="M1987 506q0 -201 -156.5 -358.5t-359.5 -157.5q-205 0 -363 154q-149 145 -149 327q0 78 -25 152q-59 178 -221 244q-78 30 -139 30q-164 0 -271 -113q-50 -53 -77 -118q21 -2 42 -6q87 -19 159.5 -62.5t128.5 -104.5t96.5 -136t63.5 -158q11 -40 13 -86q8 -15 11 -49
q2 -29 -39 -47l-35 -9l-45 -12h2l-57 -6q-197 0 -349.5 152.5t-152.5 363.5t151.5 364.5t358.5 153.5q211 0 364 -151q101 -99 138 -289q0 -227 126 -347t269 -120q233 0 354 240q29 79 29 149q0 160 -111.5 272.5t-300.5 112.5l-45 -6l-28 -8q-60 0 -60 63q0 61 115 79v1
q233 0 393 -137q170 -148 170 -377zM197 506q0 -174 119 -280q109 -100 280 -103q-1 22 -6 47q-12 65 -44.5 124.5t-79.5 108.5t-105.5 83t-123.5 48q-10 2 -19.5 3t-19.5 3q-1 -17 -1 -34z" />
    <glyph glyph-name="uniAA6F" unicode="&#xaa6f;" horiz-adv-x="1647" 
d="M1467 504q0 -211 -152.5 -363.5t-363.5 -152.5q-213 0 -361.5 151.5t-148.5 364.5q0 126 49 228l-2 2l-294 128v-867q-15 -66 -74 -65q-30 0 -54 65v1010q40 52 108 14l385 -183q14 16 29 31q148 147 363 147q211 0 363.5 -150.5t152.5 -359.5zM1338 504
q0 156 -115.5 268.5t-271.5 112.5q-164 0 -272.5 -107.5t-108.5 -273.5q0 -160 110.5 -273.5t270.5 -113.5t273.5 114.5t113.5 272.5z" />
    <glyph glyph-name="uniAA70" unicode="&#xaa70;" horiz-adv-x="1087" 
d="M935 1530q-36 40 -81 71q-56 38 -135.5 58t-175.5 19q-97 0 -175.5 -20.5t-135.5 -58.5q-46 -29 -75 -69l-79 40q31 57 80 104q67 64 164 102t222 38q123 1 220.5 -36.5t164.5 -101.5q45 -43 80 -97zM935 1200q-36 40 -81 71q-56 38 -135.5 58t-175.5 19
q-97 0 -175.5 -20.5t-135.5 -58.5q-46 -29 -75 -69l-79 40q31 57 80 104q67 64 164 102t222 38q123 1 220.5 -36.5t164.5 -101.5q45 -43 80 -97z" />
    <glyph glyph-name="uniAA71" unicode="&#xaa71;" horiz-adv-x="2157" 
d="M1995 500q0 -213 -152.5 -367.5t-416.5 -154.5v2q-21 1 -31 6l-41 8q-34 19 -41 62q0 63 62 63l26 -4l41 -8q189 0 310 119q75 75 102 196q10 37 10 78q0 160 -111.5 272.5t-273.5 112.5q-157 0 -274 -117q-84 -82 -115 -272q0 -346 -246 -500l-32 -10q-62 0 -62 67
q0 35 29 54q149 88 186 332q0 184 -102 309q-103 137 -285 137q-162 0 -275 -119q-19 -20 -34 -41q49 -39 88.5 -95t66.5 -119.5t41 -131t13 -129.5q0 -35 -7.5 -61t-17.5 -60l-21 -72q-12 -62 -60 -74l-50 13q-264 182 -264 488q0 217 151.5 372.5t368.5 155.5
q142 0 264.5 -77t184.5 -195q30 71 84 122q86 78 176 115t192 37q211 0 363.5 -152.5t152.5 -361.5zM191 484q0 -109 57 -214q31 -55 70 -98q6 9 12.5 18t12.5 19q3 27 1.5 62t-8.5 73.5t-18.5 78t-27.5 75t-36.5 64.5t-44.5 47q-18 -59 -18 -125z" />
    <glyph glyph-name="uniAA72" unicode="&#xaa72;" horiz-adv-x="2310" 
d="M340 813q41 49 99 102q150 101 314 101q219 0 372 -155q52 -51 86 -111q34 65 89 119q148 147 363 147q211 0 363.5 -150.5t152.5 -359.5q0 -211 -152.5 -363.5t-363.5 -152.5q-213 0 -362 151q-42 43 -72 91q-64 -144 -212 -234l-31 -8q-61 10 -61 70q0 32 31 49
q194 114 194 375q0 165 -116.5 284t-280.5 119q-119 0 -236 -91q-29 -23 -52 -47l-99 -105l-25 -72l-10 -93l17 -49q18 -51 15 -124q-3 -130 -85 -192q-59 -44 -120 -45q-121 7 -161 57l-35 40q-47 60 -41 141.5t60 134.5q51 38 89 -13t-13 -89q-41 -31 14 -104l24 -21
q42 -18 61.5 -17t38.5 16q46 49 41 109l-21 114l-11 62q3 41 11 54q8 47 25.5 109.5t95.5 146.5q-20 16 4 4zM2050 506q0 156 -115.5 268.5t-271.5 112.5q-164 0 -272.5 -107.5t-108.5 -273.5q0 -160 110.5 -273.5t270.5 -113.5t273.5 114.5t113.5 272.5z" />
    <glyph glyph-name="uniAA73" unicode="&#xaa73;" horiz-adv-x="1633" 
d="M38 977q1 31 16.5 49t36 22t41 -6t31.5 -35q0 -2 0.5 -2.5t0.5 -2.5q19 -14 37 -33t34.5 -40t31.5 -42.5t28 -40.5q16 -25 42 -62.5t52.5 -75t49.5 -70t34 -47.5q21 -30 41 -60t38 -61q18 -32 34.5 -65.5t30.5 -68.5q17 -24 41 -62t49 -62q51 -46 105 -68q68 -27 143 -27
q152 0 273 117q75 73 102 196q10 39 10 76q0 170 -112 272q-105 119 -308 119l-47 -6q-69 0 -82 62q0 38 27 55l53 12l31 3v1q236 0 402.5 -143t166.5 -375q0 -207 -153.5 -361.5t-362.5 -154.5q-206 0 -337 120q1 2 -16 17t-73 109t-65 121q-20 46 -47 90t-57 86.5
t-61.5 83.5t-58.5 80l-43 63q2 -52 3 -103t3 -101q5 -133 6 -264t2 -264q-6 -30 -23 -46t-37 -17.5t-39 12t-29 42.5q-1 134 -2.5 265t-6.5 263q-2 53 -2 107.5t-3 109.5t-10 108.5t-21 104.5z" />
    <glyph glyph-name="uniAA74" unicode="&#xaa74;" horiz-adv-x="1581" 
d="M1280 772q0 199 -188 361q-216 193 -297 276q-64 107 -64 209q0 127 93 227.5t239 100.5q211 0 326 -193l12 -30q0 -64 -68 -64q-39 0 -57 31q-70 125 -215 125l-74 -8q-33 -11 -67 -54q-60 -73 -60 -135q0 -57 45 -141q215 -193 338 -299q164 -199 164 -406v-1274
l-3 -88q-4 -26 -12.5 -45.5t-22.5 -30.5q-30 -22 -64.5 -35.5t-72.5 -16.5q-26 -2 -55 -1t-55 6q-31 6 -118 41q-21 7 -140 71l-30 19q-17 -43 -49 -84q-18 -23 -57.5 -44t-90.5 -37q-59 -20 -108.5 -2.5t-86.5 57t-59.5 92.5t-28.5 104q-3 47 18 99q32 54 70 78t81.5 25.5
t90.5 -16t97 -48.5l28 -17v391q-77 -26 -164 -26q-213 0 -362.5 157.5t-149.5 370.5q0 142 73.5 273t190.5 217l35 8q59 0 66 -68q0 -28 -33 -49q-90 -57 -146.5 -162.5t-56.5 -218.5q0 -161 113.5 -280t269.5 -119q90 0 164 34v762q-8 12 -10 31q-2 60 61 70l29 -8
q127 -74 200.5 -208t73.5 -282q0 -217 -152 -373q-36 -37 -80 -77l2 -520l65 -40q48 -27 103.5 -54t109.5 -39q37 -8 60.5 -7.5t47 3t31.5 32.5q5 11 0 56v1273zM964 518q0 113 -57 218q-18 35 -41 64v-548q98 113 98 266zM504 -437q-20 -17 -22 -45.5t6.5 -60.5t28.5 -52.5
t44 -27.5q23 -5 47.5 3t42.5 16q30 15 47.5 40t26.5 55q-33 21 -66 40t-76 36t-79 -4z" />
    <glyph glyph-name="uniAA75" unicode="&#xaa75;" horiz-adv-x="2492" 
d="M1400 -443q-20 -17 -22 -45.5t6.5 -60.5t28.5 -52.5t44 -27.5q23 -5 47.5 3t42.5 16q30 15 47.5 40t26.5 55q-33 21 -66 40t-76 36t-79 -4zM1991 526q0 -215 -151 -367q-38 -37 -83 -66l2 -551l65 -40q48 -27 103.5 -54t109.5 -39q37 -8 60.5 -7.5t47 3t31.5 32.5
q5 11 0 56v1273q0 199 -188 361q-213 201 -297 276q-64 107 -64 209q0 127 93 227.5t239 100.5q211 0 326 -193l12 -30q0 -64 -68 -64q-39 0 -57 31q-70 125 -215 125l-74 -8q-33 -11 -67 -54q-60 -73 -60 -135q0 -57 45 -141q213 -190 338 -299q164 -199 164 -406v-1274
l-3 -88q-4 -26 -12.5 -45.5t-22.5 -30.5q-30 -22 -64.5 -35.5t-72.5 -16.5q-26 -2 -55 -1t-55 6q-31 6 -118 41q-21 7 -140 71l-30 19q-17 -43 -49 -84q-18 -23 -57.5 -44t-90.5 -37q-59 -20 -108.5 -2.5t-86.5 57t-59.5 92.5t-28.5 104q-3 47 18 99q32 54 70 78t81.5 25.5
t90.5 -16t97 -48.5l28 -17v417q-129 -43 -285 -4q-39 21 -39 60q0 63 62 63q125 -31 222.5 0.5t152.5 98.5q112 102 112 272q0 37 -10 76q-25 116 -102 192q-119 119 -273 119q-155 0 -270 -121q-94 -96 -115 -282l-4 -56q0 -129 -66.5 -247.5t-175.5 -182.5q-61 -21 -87 22
q-22 46 22 87q184 121 184 346q0 176 -104 299q-113 135 -283 135q-141 0 -259 -108.5t-118 -208.5l13 -54q12 -28 43 -41q106 -37 159 -75q101 -76 101 -185q0 -73 -37 -123q-74 -98 -210 -102q-192 4 -210 172q0 68 57 68q25 0 48.5 -20.5t23.5 -47.5q12 -39 84 -43
q45 4 73 22q44 35 40 69q-13 67 -48.5 90.5t-156.5 72.5q-64 31 -84 78q-19 69 -19 133q0 174 168 305q156 123 332 123q141 0 264 -75t187 -197l39 69l45 49q164 158 364 158q211 0 363.5 -152.5t152.5 -363.5z" />
    <glyph glyph-name="uniAA76" unicode="&#xaa76;" horiz-adv-x="2240" 
d="M1156 -443q-20 -17 -22 -45.5t6.5 -60.5t28.5 -52.5t44 -27.5q23 -5 47.5 3t42.5 16q30 15 47.5 40t26.5 55q-33 21 -66 40t-76 36t-79 -4zM1376 140q69 30 124 84q75 75 102 196q10 37 10 78q0 160 -111.5 272.5t-273.5 112.5q-157 0 -274 -117q-84 -82 -115 -272
q0 -25 -1 -46l4 -836q0 -162 -81 -252t-259 -90l-420 2q-98 0 -156 88q-51 73 -51 178q0 196 143 274q74 45 158 45q135 0 240 -94q16 -16 18 -47q0 -68 -65 -68q-25 0 -45 23q-62 57 -148 57q-111 0 -158 -90q-14 -29 -14 -80q0 -157 78 -157h459q84 0 129 48t45 163v752
q-10 168 -9 169q-20 122 -94 213q-103 137 -285 137q-143 0 -247 -93l-85 99q141 121 332 121q142 0 264.5 -77t184.5 -195q30 71 84 122q86 78 176 115t192 37q211 0 363.5 -152.5t152.5 -361.5q0 -213 -153 -368q-33 -34 -79 -68l4 -520l65 -40q48 -27 103.5 -54
t109.5 -39q37 -8 60.5 -7.5t47 3t31.5 32.5q5 11 0 56v1273q0 199 -188 361q-210 196 -297 276q-64 107 -64 209q0 127 93 227.5t239 100.5q211 0 326 -193l12 -30q0 -64 -68 -64q-39 0 -57 31q-70 125 -215 125l-74 -8q-33 -11 -67 -54q-60 -73 -60 -135q0 -57 45 -141
q192 -174 338 -299q164 -199 164 -406v-1274l-3 -88q-4 -26 -12.5 -45.5t-22.5 -30.5q-30 -22 -64.5 -35.5t-72.5 -16.5q-26 -2 -55 -1t-55 6q-31 6 -118 41q-21 7 -140 71l-30 19q-17 -43 -49 -84q-18 -23 -57.5 -44t-90.5 -37q-59 -20 -108.5 -2.5t-86.5 57t-59.5 92.5
t-28.5 104q-3 47 18 99q32 54 70 78t81.5 25.5t90.5 -16t97 -48.5l28 -17v388l-8 -2z" />
    <glyph glyph-name="uniAA77" unicode="&#xaa77;" horiz-adv-x="1659" 
d="M960 456q-1 -42 -4.5 -79.5t-16.5 -79.5q-19 -60 -48 -115.5t-58 -110.5q-14 -26 -31.5 -56.5t-23.5 -60.5v-681q-4 -31 3.5 -44t28.5 -23h245q35 1 53 20.5t18.5 42t-17 42.5t-52.5 23h-153l1 592v1l371 -376q23 -11 39.5 -11t38.5 13l212 231q22 26 21 51.5t-17 41.5
t-42 17.5t-53 -21.5l-167 -184l-341 360l8 15q25 48 45.5 93t35 90.5t22.5 93t10 100.5l-4 98q-20 187 -153 322q-153 155 -372 155q-164 0 -314 -111q-159 -116 -180 -274q-6 -76 3 -122t42 -81l53 -55l144 -66q51 -32 63 -98q0 -24 -11 -40.5t-50 -39.5l-31 -6
q-92 0 -92 51q0 64 -64 64q-63 0 -63 -64q10 -76 71.5 -129t137.5 -51l53 4q64 2 141 94q37 50 37 123q0 103 -102 183q-57 47 -109 63l-49 16l-41 50l-12 63q20 115 137 206t236 91q164 0 280 -119q96 -99 115 -229zM572 1094q-169 0 -276 121t-107 280q0 164 106 282
t277 118q219 0 351 -209l12 -33q0 -51 -75 -64q-28 0 -50 35q-93 142 -238 142q-113 0 -180.5 -82t-67.5 -189q0 -112 64 -192t184 -80q147 0 236 141q13 35 52 35q68 0 79 -61l-11 -29q-120 -215 -356 -215z" />
    <glyph glyph-name="uniAA78" unicode="&#xaa78;" horiz-adv-x="1769" 
d="M34 202q106 54 155 164q47 103 29 205q-13 73 -71 140q-46 53 -101 83l47 109q190 -95 232 -312q26 -151 -27 -272q-71 -157 -206 -223zM395 948q39 -94 117 -150q59 -48 144.5 -65.5t155.5 7.5q100 32 168 121q42 57 58 118l115 -31q-23 -81 -81 -159
q-82 -104 -224 -154q-225 -71 -405 68q-108 82 -151 197zM1665 1183q-67 22 -135 5q-73 -18 -100 -83l-359 -889q-19 -48 -54 -27q-32 21 -63 54q-40 49 -102 83q-99 53 -203 41q-74 -7 -144.5 -58.5t-104.5 -119.5q-47 -83 -44 -185h-113q-9 123 55 242q106 202 340 231
q150 14 268 -47q57 -31 100 -70l322 787q44 111 160 154q105 31 217 -11z" />
    <glyph glyph-name="uniAA79" unicode="&#xaa79;" horiz-adv-x="1251" 
d="M936 539q-19 130 -115 229q-116 119 -280 119q-119 0 -236 -91t-137 -206l12 -63l41 -50l49 -16q52 -16 109 -63q102 -80 102 -183q0 -73 -37 -123q-77 -92 -141 -94l-53 -4q-76 -2 -137.5 51t-71.5 129q0 64 63 64q64 0 64 -64q0 -51 92 -51l31 6q39 23 50 39.5t11 40.5
q-12 66 -63 98l-144 66l-53 55q-33 35 -42 81t-3 122q21 158 180 274q150 111 314 111q219 0 372 -155q133 -135 153 -322l4 -98q-2 -53 -10 -100.5t-22.5 -93t-35 -90.5t-45.5 -93l-8 -15q-27 -50 -39.5 -71t-22.5 -51v-1l-1 -592h153q35 -3 52.5 -23t17 -42.5t-18.5 -42
t-53 -20.5h-245q-21 10 -28.5 23t-3.5 44v681q6 30 23.5 60.5t31.5 56.5q29 55 58 110.5t48 115.5q13 42 16.5 79.5t4.5 79.5z" />
    <glyph glyph-name="uniAA7A" unicode="&#xaa7a;" horiz-adv-x="2421" 
d="M1403 1457q-3 -22 -13.5 -37t-24 -22t-28.5 -6t-29 10h-809q-141 0 -222 -85t-81 -243l-2 -1416q0 -149 96 -237q66 -60 99.5 -74t113.5 -14h469q160 0 238 96q82 82 82 219v764v61q-5 72 -29 150q-59 178 -221 244q-78 30 -139 30q-164 0 -270.5 -112.5t-106.5 -278.5
q0 -174 119 -280q113 -103 291 -103l69 14q54 0 66 -63q0 -39 -41 -57l-35 -9l-43 -12h-2l-55 -6q-197 0 -349.5 152.5t-152.5 363.5t151.5 364.5t358.5 153.5q211 0 364 -151q101 -99 138 -289q5 -49 5 -90q2 -21 13 -68q30 -115 108 -189q126 -120 269 -120q233 0 354 240
q29 79 29 149q0 160 -111.5 272.5t-300.5 112.5l-45 -6l-28 -8q-60 0 -60 63q0 61 115 79v1q233 0 393 -137q170 -148 170 -377q0 -201 -156.5 -358.5t-359.5 -157.5q-205 0 -363 154l-14 14v-510q0 -100 -27.5 -170t-89 -137.5t-135.5 -102.5q-80 -36 -199 -36h-469
q-180 0 -309 131t-129 325v1416q0 221 106 321q115 138 328 138h774l-2 276q0 35 17.5 54.5t40 21.5t43.5 -14t27 -51q2 -91 2.5 -181.5t1.5 -181.5z" />
    <glyph glyph-name="uniAA7B" unicode="&#xaa7b;" horiz-adv-x="600" 
d="M59 163q-17 81 28 144.5t127 81.5q79 17 146.5 -25t84.5 -123q16 -76 -27.5 -148t-123.5 -88q-31 -7 -48 -61q14 -69 29.5 -119t41.5 -90t65.5 -72.5t102.5 -67.5q-86 28 -135 51t-80.5 48.5t-55.5 55.5t-58 73q-37 115 -63 187q-23 104 -34 153zM151 197
q0 -42 28.5 -70.5t70.5 -28.5t70.5 28.5t28.5 70.5t-28.5 70.5t-70.5 28.5t-70.5 -28.5t-28.5 -70.5z" />
    <glyph glyph-name="uniAA7C" unicode="&#xaa7c;" horiz-adv-x="10" 
d="M-1058 1241h852v-116h-852v116z" />
    <glyph glyph-name="uniAA7D" unicode="&#xaa7d;" horiz-adv-x="1008" 
d="M33 573h892v-116h-892v116z" />
    <glyph glyph-name="uniAA7E" unicode="&#xaa7e;" horiz-adv-x="1455" 
d="M1043 502q0 -209 -151 -360.5t-364 -151.5q-237 0 -391 182l-47 68q-20 33 -51 115q0 45 16 73q152 144 328 144q82 0 162 -33q172 -49 266 -287q102 109 102 250q0 170 -108.5 277.5t-276.5 107.5q-180 0 -301 -141q-24 -51 -77 -51q-60 0 -60 61q0 35 41 76
q148 184 397 184q220 0 367.5 -147.5t147.5 -366.5zM711 178q-17 82 -73 143.5t-134 96.5q-68 21 -127 21q-119 0 -209 -87q6 -16 31 -47l35 -45q110 -141 294 -141q91 0 183 59zM591 -742q0 -65 -64 -65h-242q-59 0 -59 65q0 61 59 61h181v586q0 64 61 66q64 0 64 -66v-647
zM1331 -745q0 -62 -80 -62l-610 176q-37 22 -21 77q31 52 65 39l519 -144v1611q2 59 63 66q63 -4 64 -66v-1697z" />
    <glyph glyph-name="uniAA7F" unicode="&#xaa7f;" horiz-adv-x="2351" 
d="M1955 506q0 -213 -152.5 -364.5t-367.5 -151.5q-303 0 -442 270q-66 -123 -188.5 -196.5t-260.5 -73.5q-235 0 -397 182l-45 66q-33 35 -37 57l-8 25q0 32 20 55q142 135 299 127l72 -2q33 0 72 -21q188 -57 256 -268q158 105 158 279v39q0 153 -116 255.5t-274 102.5
q-194 0 -303 -141q-53 -51 -96 -51q-49 0 -49 49q0 53 82 125q61 57 125 90q114 57 241 57q301 0 449 -254q137 258 442 254q213 4 366.5 -147.5t153.5 -362.5zM1824 506q0 162 -114.5 273.5t-274.5 111.5q-145 0 -248.5 -88t-130.5 -227l5 -70l-5 -47v-14
q23 -138 127.5 -232t251.5 -94q156 0 272.5 114.5t116.5 272.5zM663 144q-39 155 -184 213q-49 16 -109 16q-53 0 -85.5 -12.5t-82.5 -51.5l45 -49q123 -141 297 -141q64 0 119 25zM1499 -742q0 -65 -64 -65h-242q-59 0 -59 65q0 61 59 61h181v586q0 64 61 66q64 0 64 -66
v-647zM2249 -745q0 -62 -80 -62l-610 176q-37 22 -21 77q31 52 65 39l519 -144v1611q2 59 63 66q63 -4 64 -66v-1697z" />
    <glyph glyph-name="ka.sub" unicode="&#xe000;" 
d="M-400 -438q0 -166 -140 -271q-127 -86 -299 -86q-14 0 -57 11.5t-43 58.5q0 63 82 63l26 -4q144 0 230 74q69 51 69 154q0 96 -69 155q-80 68 -201 68q-98 0 -192 -68q-21 -16 -50 -61q-16 -35 -30 -102q0 -238 -193 -334l-33 -13q-61 0 -61 68q0 39 35 59
q129 70 129 226q0 98 -76 162.5t-199 64.5q-108 0 -190 -64.5t-82 -168.5q0 -146 139 -224q33 -16 33 -49q0 -59 -67 -69l-29 10q-90 51 -148.5 141t-58.5 191q0 157 125 260q117 100 278 100q220 0 336 -162q19 39 54 66q135 98 282 98q160 0 280 -99.5t120 -254.5z" />
    <glyph glyph-name="kha.sub" unicode="&#xe001;" 
d="M-282 -449q0 -149 -118.5 -249.5t-280.5 -100.5q-182 0 -303 123l-39 67q-8 21 -12 53l21 68q83 90 234 83q80 -1 128 -26q118 -52 176 -171q34 37 55 80l10 73q0 107 -81 165.5t-189 58.5q-131 0 -215 -84l-29 -19l-29 -6q-24 0 -44.5 17.5t-24.5 44.5q0 28 35 53
q141 123 307 123q162 0 280.5 -97.5t118.5 -255.5zM-566 -653q-45 94 -125 123q-52 20 -97 18l-79 -2q-21 -6 -62 -39q29 -51 107.5 -86t140.5 -33l55 4q35 2 60 15z" />
    <glyph glyph-name="ga.sub" unicode="&#xe002;" 
d="M-277 -459q0 -188 -153 -311l-31 -14q-43 0 -59 69q0 21 8 29q110 90 110 231q0 27 -15 76l-50 62q-72 71 -207 71q-111 0 -180 -67q-74 -45 -74 -146q0 -141 100 -225l11 -14l4 -15q0 -18 -19.5 -43.5t-38.5 -27.5q-24 0 -39 14q-147 133 -147 315q0 68 43 142
q53 123 201 172q61 20 139 20q152 0 281 -94q116 -117 116 -244z" />
    <glyph glyph-name="gha.sub" unicode="&#xe003;" 
d="M-415 -447q0 -147 -119.5 -247.5t-269.5 -100.5q-225 0 -334 185q-105 -183 -336 -183q-124 0 -244 81q-131 87 -131 211q0 47 12.5 84.5t64.5 56.5l107 47q38 22 48 63q0 8 -45 32l-35 4q-59 0 -67 -20q0 -32 -54 -32q-45 0 -45 46q16 114 158 114q43 0 61 -6l27 -8
q98 -35 110 -135q0 -79 -96 -139q-26 -19 -96 -45q-36 -25 -40 -62q0 -77 98 -134q83 -48 167 -48q114 0 193 73t79 186q0 154 -140 231l-5 44q-2 43 47 49l28 -6q85 -49 131.5 -124t46.5 -168l4 -37q0 -53 27 -91q14 -40 56 -74q82 -81 201 -81h70q31 8 61 20q18 8 59 39
q89 77 89 177q0 93 -84 171.5t-216 78.5l-33 -12q-52 0 -65 58q0 26 18 41l41 8l28 2q169 0 289 -87q134 -98 134 -262z" />
    <glyph glyph-name="ca.sub" unicode="&#xe005;" 
d="M-300 -453q0 -145 -112 -235q-125 -105 -281 -105t-272.5 99.5t-116.5 259.5q0 153 111 252q122 104 299 104q153 0 270 -115q8 -10 32.5 -44.5t41.5 -79.5q28 -62 28 -136zM-431 -453q0 154 -147 226q-53 20 -98 20l-82 -8q61 -41 87.5 -95.5t26.5 -123.5
q0 -148 -110 -223l61 -5q109 -4 193 70q69 51 69 139zM-773 -434q0 86 -108 151q-60 -47 -70 -151q0 -45 21 -98q18 -33 53 -66q41 27 76 76q24 41 28 88z" />
    <glyph glyph-name="cha.sub" unicode="&#xe006;" 
d="M-419 -449q0 -155 -125 -251.5t-282 -96.5q-215 0 -330 152q-113 -154 -338 -154q-178 0 -305 119l-37 47l-25 33q-16 18 -16 39q0 12 25 49q106 86 233 86q92 0 179 -50t128 -136q58 30 88 114l2 49l-2 54q-20 80 -100 123t-170 43q-133 0 -219 -84q-35 -35 -70 -35
q-53 -4 -53 51q0 35 35 78q129 121 307 121q217 0 338 -152q108 154 330 154q163 0 280 -90q127 -105 127 -263zM-550 -449q0 107 -88 168q-78 56 -188 56q-213 0 -267 -166l7 -58l-9 -49q23 -82 107 -129q72 -45 162 -45q108 0 192 60.5t84 162.5zM-1424 -662
q-33 62 -123 97l-78 12l-59 -2l-41 -20q38 -37 106 -64q55 -33 125 -33z" />
    <glyph glyph-name="ja.sub" unicode="&#xe007;" 
d="M-287 -586q-2 -10 -21 -28q-10 -11 -33 -15q-26 0 -45 17l-51 63q-53 -33 -168 -33q-61 0 -118.5 45t-57.5 105l4 37q19 41 57.5 59.5t101.5 21.5q109 -8 184 -84l5 25q3 40 -45 81q-75 67 -198 67q-99 0 -176 -60q-29 -28 -55 -75q-23 -43 -21 -97q0 -55 14 -86
q29 -82 146 -130q48 -21 98 -23q80 -8 139 8l39 7q32 -9 40 -22.5t8 -31.5q0 -21 -46 -40q-63 -16 -180 -16q-70 0 -137 23q-78 27 -132 80q-106 106 -106 235q0 140 105.5 236t263.5 96q145 0 262 -90q78 -61 78 -172l-7 -43l-26 -49l65 -84zM-487 -466q-22 17 -44 36
l-43 20l-39 4q-53 3 -63 -15l-3 -15v-2q23 -43 82 -51l66 4q22 4 44 19z" />
    <glyph glyph-name="jha.sub" unicode="&#xe008;" horiz-adv-x="274" 
d="M110 -723q0 -61 -84 -51l-397 102q-94 -86 -213 -112q-41 -9 -82 -9q-141 0 -244.5 103.5t-103.5 255.5q0 145 104.5 249.5t251.5 104.5q146 0 254.5 -106.5t108.5 -251.5q0 -64 -24 -117l302 -79v1597q1 63 62 63q65 0 65 -63v-1686zM-410 -440q0 100 -70.5 168.5
t-171.5 68.5h-43q-22 0 -47 -12q117 -84 117 -223q0 -140 -117 -224q45 -16 84 -16q105 0 174 70q74 61 74 168zM-738 -432q0 92 -90 168q-63 -66 -63 -168q0 -55 12 -88q12 -41 53 -78q48 33 76 86z" />
    <glyph glyph-name="nya.short" unicode="&#xe009;" horiz-adv-x="1205" 
d="M1950 -595q0 -85 -54 -144t-136 -59h-1362q-171 0 -257 82.5t-86 260.5v636q0 95 70 93l59 -5q18 -6 54 -32q92 -115 271 -115q152 0 270 118t118 270q0 166 -111 270t-277 104q-170 0 -304 -138q-23 -17 -54 -21q-57 0 -57 70q0 26 12 41q157 185 403 185
q220 0 369 -147t149 -364q0 -214 -152 -368t-366 -154q-121 0 -197 24q-53 21 -124 78v-652q2 -22 41 -56q38 -49 169 -49h1362q53 0 53 103q0 74 64 74q53 0 65 -58z" />
    <glyph glyph-name="nnya.sub" unicode="&#xe00a;" 
d="M-575 -319q0 -128 -102 -212t-234 -84q-122 0 -237 83q-26 20 -39 51q-97 -134 -285 -134q-84 0 -150 26v-74q1 -18 34 -46q31 -42 141 -42h704q47 -1 39 43q0 63 53 63q45 0 55 -49l-3 -39q-5 -48 -29 -81t-115 -46h-704q-142 0 -214.5 69t-72.5 217v59l-1 1q-7 17 0 41
q0 47 44 47l44 -19q70 -62 175 -62q85 0 157 49t72 129q0 93 -68.5 144.5t-160.5 51.5q-43 0 -100.5 -22.5t-75.5 -36.5q-26 -17 -52 -17q-46 0 -46 40q-1 15 13 39q120 102 261 102q136 0 236 -83.5t100 -217.5q12 -85 63 -118q86 -57 162 -57q96 0 164 57q61 51 61 128
q0 91 -79 142q-72 46 -169 46q-40 -6 -67 -1q-21 11 -15 43q0 28 21 55q27 10 55 11q166 0 265.5 -84.5t99.5 -211.5z" />
    <glyph glyph-name="tta.sub" unicode="&#xe00b;" 
d="M-347 -209q0 -57 -55 -57q-20 0 -45 14q-47 45 -152 68q-28 6 -65 6q-92 0 -162 -35q-94 -39 -94 -119q0 -78 88 -131q80 -43 162 -43q139 0 207 57q22 19 51 21q57 0 57 -47q0 -17 -20 -49q-90 -97 -289 -97q-143 0 -252 72q-127 82 -127 217q0 133 129 211
q109 66 250 66q164 0 287 -99q26 -14 30 -55zM-179 -852q6 -48 -57 -55h-164q-60 0 -60 48v97l-94 -29l-107 -7q-62 -7 -155 17q-68 19 -140 72l-20 17q-17 81 36 104q20 0 63 -30q67 -52 210 -62l120 20l85 30l38 29l24 8q50 0 50 -46v-159h114q57 -11 57 -54z" />
    <glyph glyph-name="ttha.sub" unicode="&#xe00c;" 
d="M-407 -477q0 -121 -47 -197q-27 -45 -103 -102l-41 47q-12 4 -41 41q109 76 109 211q0 86 -94 151q-84 60 -176 60q-97 0 -172 -53q-84 -62 -84 -152q0 -115 90 -184l14 -41q0 -29 -20.5 -54.5t-42.5 -25.5h-564q-86 0 -116 8q-45 2 -76 23q-64 16 -80 137v325l8 66
q8 67 107 80l71 4h31l2 -107q-88 0 -88 -61v-254q0 -78 68 -96l524 4q-33 45 -43 82l-12 88q0 147 123 246q116 92 266 92q155 0 266 -90q121 -97 121 -248z" />
    <glyph glyph-name="dda.sub" unicode="&#xe00d;" horiz-adv-x="4" 
d="M-990 -172q7 41 33 55q123 97 287 97q139 0 248 -64q129 -80 129 -213t-125 -215q-109 -74 -252 -74q-199 0 -291 97q-20 32 -20 51q0 47 59 47q29 -4 51 -21q66 -57 207 -57q80 0 160 43q88 51 88 129q0 82 -92 121q-70 33 -162 33q-39 0 -68 -7q-102 -20 -149 -65
q-27 -16 -47 -16q-56 0 -56 59zM-179 -852q6 -48 -57 -55h-164q-60 0 -60 48v97l-94 -29l-107 -7q-62 -7 -155 17q-68 19 -140 72l-20 17q-17 81 36 104q20 0 63 -30q67 -52 210 -62l120 20l85 30l38 29l24 8q50 0 50 -46v-159h114q57 -11 57 -54z" />
    <glyph glyph-name="ddha.sub" unicode="&#xe00e;" 
d="M-1072 -421q2 35 18 61t41 52l92 57q11 9 18.5 23t9.5 30q-2 9 -9 16t-27 17l-14 2q-40 -4 -38 -23q6 -58 -56 -66q-60 -6 -67 56q2 60 44 105q20 23 46 35t55 14q86 5 151 -57q31 -34 39 -92q5 -38 -11.5 -74t-49.5 -69q-18 -20 -41 -35t-61 -32l-12 -20q1 -60 28 -106
q19 -39 54 -61q82 -64 188 -64q113 0 193 60.5t80 173.5q0 139 -142 223q-34 12 -34 49q0 64 61 74l29 -10q215 -113 215 -336q0 -160 -121 -260.5t-281 -100.5q-163 0 -281 100q-44 37 -72 84q-29 41 -41 90q-9 57 -5 84h1z" />
    <glyph glyph-name="nna.sub" unicode="&#xe00f;" 
d="M-440 -450q0 -159 -178 -280l-104 -45q-43 -20 -105 -20l-63 10l-56 12q-27 0 -27 43q0 65 60 71l52 -6q92 0 170 45q99 61 112 168l-2 39l-37 85q-69 91 -211 91q-82 -6 -141 -33q-125 -56 -122 -175q0 -48 10 -83q2 -8 20 -31l7 -26v-41q0 -67 -69.5 -114t-140.5 -47
q-73 0 -136 42q-71 50 -71 119v45q4 18 6 22l22 52q8 21 8 62q0 91 -108 162q-68 48 -162 48q-101 0 -173 -57.5t-72 -152.5q0 -118 97 -171q36 -17 105 -32l132 -11q26 -4 45.5 -26.5t19.5 -46.5q0 -33 -39 -41q-55 -20 -94 -20q-124 0 -238 69q-162 98 -162 281
q0 104 64 192q109 145 317 145q117 0 230 -63l47 -25q44 94 162 94q100 0 160 -94l56 31q97 59 220 59q192 0 322 -147q67 -97 67 -199zM-1192 -614v16q-37 62 -37 155l9 69l28 63v35q0 47 -73 47q-66 0 -71 -47l-2 -37l27 -65l9 -67q0 -78 -36 -142l2 -27q0 -55 71 -55
q73 0 73 55z" />
    <glyph glyph-name="ta.sub" unicode="&#xe010;" 
d="M-401 -449q0 -253 -287 -327q-90 -23 -164 -23q-86 0 -86 62q0 49 95 63q153 0 233 74t80 151q0 101 -94 168q-82 60 -189 60q-100 0 -177 -57.5t-97 -153.5q0 -166 -117 -266.5t-283 -100.5q-163 0 -283 96.5t-120 258.5q0 157 125 258q117 90 278 90q228 0 340 -160
q19 37 54 63q135 101 282 101q154 0 282 -103.5t128 -253.5zM-1214 -420q-12 84 -86 139.5t-187 55.5q-110 0 -186 -51q-86 -64 -86 -168q0 -105 88 -170q80 -60 184 -60q238 0 273 254z" />
    <glyph glyph-name="tha.sub" unicode="&#xe011;" 
d="M-411 -444q0 -160 -122.5 -257.5t-284.5 -97.5q-213 0 -328 158q-117 -158 -336 -158q-161 0 -276 94q-123 101 -123 261q0 153 121 250.5t278 97.5q219 0 336 -156q107 156 328 156q164 0 283 -90q124 -101 124 -258zM-542 -444q0 102 -88 168q-80 55 -188 55
q-105 0 -181.5 -60.5t-76.5 -162.5q0 -105 76.5 -167.5t181.5 -62.5q115 0 195.5 59.5t80.5 170.5zM-1207 -444q0 104 -88 168q-76 55 -187 55q-102 0 -184 -61.5t-82 -161.5q0 -105 81 -167.5t185 -62.5q105 0 190 62.5t85 167.5z" />
    <glyph glyph-name="da.sub" unicode="&#xe012;" 
d="M-327 -279q0 -52 -16.5 -94t-40.5 -65q53 -47 53 -171q-53 -189 -343 -189q-300 0 -341 189q6 80 68 80q43 0 57 -49.5t49 -67.5q54 -30 167 -30q200 0 224 103q-4 29 -42 49t-69 20h-56q-65 0 -65 64q0 63 65 63h70q93 18 93 77q0 80 -220 80q-100 0 -146 -21
q-33 -17 -68 -65q-36 -62 -102 -36q-42 32 -19 82q68 162 335 162q298 0 347 -181z" />
    <glyph glyph-name="dha.sub" unicode="&#xe013;" 
d="M-268 -444q0 -156 -123 -255.5t-279 -99.5q-161 0 -276 94q-123 101 -123 261q0 153 120 250.5t279 97.5q156 0 279 -97.5t123 -250.5zM-397 -444q6 100 -88 163q-82 60 -185 60q-104 0 -182 -60q-88 -63 -88 -163q0 -60 18 -93q115 101 248 101q74 0 135 -27
q52 -20 117 -67q15 16 21 34zM-514 -629l-78 49q-35 19 -82 19q-100 0 -157 -64q67 -49 161 -49q86 0 156 45z" />
    <glyph glyph-name="na.sub" unicode="&#xe014;" 
d="M-259 -807q-21 -33 -83 -15l-89 59q-42 -23 -99 -33t-135 -10q-70 2 -127 11.5t-91 21.5q-55 20 -91 58q-50 66 -50 138q0 55 31 103q31 43 71 63q31 14 60.5 16.5t60 -0.5t58.5 -14t74 -45l227 -167l5 32q3 42 -7.5 71t-71.5 71q-55 31 -136 50q-127 34 -166.5 74.5
t-37.5 72.5q0 60 42 99q57 57 146 57q21 0 40.5 -3.5t42 -13t48.5 -27t59 -44.5q16 -19 16 -34q0 -60 -59 -50l-45 32q-47 34 -102 39q-45 8 -68 -21q-24 -29 1 -48t39.5 -23.5t32.5 -9.5t38 -9q40 -7 77.5 -16t81.5 -34q57 -36 95.5 -89t47.5 -115q0 -42 -5 -67t-19 -54
l73 -45q43 -35 15 -81zM-789 -514q-67 9 -93 -20q-26 -48 -4.5 -81t72.5 -50q29 -9 63 -14t68 -5.5t67 2t60 7.5z" />
    <glyph glyph-name="pa.sub" unicode="&#xe015;" 
d="M-277 -449q0 -151 -114.5 -251t-276.5 -100q-160 0 -274.5 100t-114.5 251q0 94 53 181t150 145l31 8q23 0 43 -20t20 -46q0 -31 -34 -48q-66 -40 -101.5 -100t-35.5 -120q0 -97 73 -161.5t190 -64.5t191 63t74 163q0 63 -35.5 121.5t-101.5 95.5q-34 14 -34 51
q0 26 18.5 47.5t41.5 21.5l28 -9q100 -51 154.5 -138t54.5 -190z" />
    <glyph glyph-name="pha.sub" unicode="&#xe016;" 
d="M-264 -436q0 -162 -120 -262.5t-284 -100.5q-159 0 -279 101.5t-120 261.5q0 207 205 330l35 10q61 0 61 -64q0 -33 -35 -53q-59 -33 -99 -101.5t-40 -121.5q0 -109 86 -172q76 -64 186 -64q121 0 201 74q-141 53 -180 162q-17 61 -17 106q17 131 86 217q25 29 54 29
q16 0 41 -18q219 -113 219 -334zM-393 -436q0 110 -105 196q-26 -41 -30 -86l4 -53q24 -65 125 -102z" />
    <glyph glyph-name="ba.sub" unicode="&#xe017;" 
d="M-272 -428q0 -160 -121 -260t-281 -100q-163 0 -281 98t-118 262q0 231 201 332l32 10q60 0 60 -72q0 -112 106 -112q33 0 64 34q24 33 31 78q0 70 55 70q20 0 31 -8q221 -99 221 -332zM-401 -428q0 92 -70 170q-61 -137 -203 -137q-143 0 -206 129q-52 -64 -64 -162
q0 -107 81 -170.5t189 -63.5q113 0 193 60.5t80 173.5z" />
    <glyph glyph-name="bha.sub" unicode="&#xe018;" 
d="M-441 -440q0 -152 -119 -252.5t-309 -100.5q-39 0 -74 13q-36 15 -43 66q3 36 17.5 47t40.5 15l59 -12q115 0 201 54q94 61 94 170q0 92 -72 153q-82 68 -196 68q-91 0 -193 -68q-61 -39 -76 -141q0 -160 -119.5 -260t-281.5 -100q-168 0 -311 122q-24 28 -28 53.5
t13 44.5q44 38 109 -7q28 -33 97 -60t120 -27q110 0 192 61.5t82 172.5q0 96 -86 154.5t-188 58.5q-125 0 -209 -74q-69 -51 -114 -13q-27 42 9 95q111 121 314 121q225 0 340 -160q16 37 47 60q137 100 283 100q157 0 279 -100.5t122 -253.5z" />
    <glyph glyph-name="ma.sub" unicode="&#xe019;" 
d="M-272 -426q0 -162 -119 -262t-283 -100q-182 0 -315 139l-10 12q-74 96 -74 211q0 211 209 330l33 10q51 0 63 -70q0 -26 -35 -47q-63 -43 -102 -105.5t-39 -117.5l10 -66q119 103 260 103q154 0 263 -105l10 68q0 131 -142 219q-34 14 -34 51q0 64 61 72l29 -8
q106 -55 160.5 -140t54.5 -194zM-489 -598q-66 82 -185 82q-114 0 -180 -82q74 -64 180 -64q107 0 185 64z" />
    <glyph glyph-name="la.sub" unicode="&#xe01c;" 
d="M-439 -443q0 -129 -114 -246q-129 -104 -270 -104q-158 0 -281 108q-47 41 -68.5 83t-36.5 98t-27 120q-19 42 -51 88q-78 74 -194 74q-115 0 -173 -57q-76 -53 -76 -164q0 -84 76 -146q94 -77 198 -77q19 0 49 11q46 -28 46 -76q0 -29 -83 -52l-45 -6q-153 0 -262.5 103
t-109.5 243q0 155 118 256q108 93 249 102q181 0 274 -99q52 -46 78 -110l29 -78q36 -174 111 -228q63 -53 179 -53q127 0 194 69q59 66 59 141q0 87 -72 149q-98 86 -218 81q-68 3 -75 62q1 41 17 54l24 10l38 2q192 -11 304.5 -111t112.5 -247z" />
    <glyph glyph-name="sa.sub" unicode="&#xe01e;" 
d="M-431 -439q0 -153 -122 -253.5t-279 -100.5q-146 0 -283 100q-31 23 -47 60q-115 -160 -340 -160q-203 0 -314 121q-18 41 -18 63q0 56 53 56l49 -21l21 -16q84 -74 209 -74q102 0 188 58.5t86 154.5q0 111 -82 172.5t-192 61.5q-51 0 -120 -27t-97 -60q-31 -20 -62 -20
q-55 0 -55 47q6 35 23 64q143 122 311 122q162 0 281.5 -100t119.5 -260q15 -102 76 -141q102 -68 193 -68q114 0 196 68q72 61 72 153q0 109 -94 170q-86 54 -201 54l-21 -2q-14 -17 -34 -17q-43 0 -43 70q0 33 24 65q35 13 66 13q198 0 317 -100.5t119 -252.5z" />
    <glyph glyph-name="ta1.sub" unicode="&#xe01f;" 
d="M11 -438q0 -256 -287 -330q-88 -23 -164 -23q-86 0 -86 62q0 49 92 63q156 0 236 74t80 154q0 98 -94 166q-82 57 -189 57q-100 0 -177 -57.5t-99 -153.5q0 -164 -117 -264.5t-281 -100.5q-163 0 -283 96.5t-120 258.5q0 157 125 258q117 90 278 90q228 0 340 -158
q19 33 54 62q135 98 282 98q154 0 282 -102.5t128 -249.5zM-802 -410q-12 80 -86 136.5t-187 56.5q-110 0 -186 -53q-86 -62 -86 -166q0 -103 88 -170q80 -60 184 -60q238 0 273 256z" />
    <glyph glyph-name="tha1.sub" unicode="&#xe020;" 
d="M7 -444q0 -160 -123.5 -257.5t-285.5 -97.5q-213 0 -326 158q-119 -158 -338 -158q-159 0 -274 94q-123 101 -123 261q0 153 120 250.5t277 97.5q219 0 338 -156q103 156 326 156q164 0 282 -90q127 -101 127 -258zM-126 -444q0 102 -88 168q-78 55 -188 55
q-105 0 -180.5 -60.5t-75.5 -162.5q0 -105 75.5 -167.5t180.5 -62.5q115 0 195.5 59.5t80.5 170.5zM-791 -444q0 104 -88 168q-76 55 -187 55q-102 0 -184 -61.5t-82 -161.5q0 -105 80 -167.5t186 -62.5q105 0 190 62.5t85 167.5z" />
    <glyph glyph-name="a.sub" unicode="&#xe021;" 
d="M-560 -445q0 -69 -18.5 -121.5t-52.5 -92.5t-80.5 -69.5t-102.5 -52.5q-51 -19 -96 -18.5t-95 11.5q-16 5 -30 8.5t-25 10.5t-17.5 18.5t-6.5 32.5q0 169 171 253q41 10 76.5 13t65 0.5t51.5 -8t37 -12.5q7 68 -18 131q-13 30 -35 53t-49 38.5t-58 23.5t-62 8
q-19 0 -38.5 -3.5t-42 -13t-49 -26t-58.5 -41.5q-8 -20 -13 -41.5t-12 -41.5t-17.5 -38.5t-29.5 -32.5q54 -54 54 -161q-33 -188 -307 -188q-227 0 -297 174l-4 22q0 23 15 37.5t46 19.5q45 0 59 -33q14 -30 33 -49t42 -29.5t49.5 -14.5t56.5 -4q166 0 189 86
q-3 15 -11.5 29.5t-21 26.5t-27 20t-28.5 9l-51 -3q-50 -2 -59 59q0 63 58 63h55q41 6 63.5 22.5t23.5 40.5q-8 51 -55.5 79t-135.5 28q-33 0 -61 -2t-50.5 -11t-39.5 -27t-27 -49q-6 -50 -57 -50q-59 0 -65 70q30 188 300 188q186 0 263 -91q52 45 116.5 71t132.5 26
q39 0 79 -10.5t77 -30t69.5 -47t56.5 -62.5q31 -46 47.5 -96.5t16.5 -101.5zM-727 -585q-37 14 -72.5 15.5t-66 -10.5t-54 -37t-36.5 -62q34 -6 66.5 -1t62 18t55 33t45.5 44z" />
    <glyph glyph-name="aa.alt.atha" unicode="&#xe02d;" horiz-adv-x="614" 
d="M785 1595q0 -65 -70 -65q-47 0 -59 59q-14 82 -72 127q-73 56 -151 56q-76 0 -147.5 -57.5t-71.5 -119.5v-131l10 -1456q-4 -69 -67 -67q-77 0 -77 67v1587q0 76 -71.5 126.5t-151.5 50.5q-71 0 -147 -54.5t-76 -122.5q0 -32 -23 -49l-40 -14q-66 0 -66 63
q0 131 108.5 219.5t243.5 88.5q180 0 289 -140q53 62 124 101t163 39q135 0 243.5 -88.5t108.5 -219.5z" />
    <glyph glyph-name="aukmyit.alt1" unicode="&#xe037;" 
d="M-429 -340q0 37 14 69t38 56t56 38t69 14t69 -14t56 -38t38 -56t14 -69t-14 -69t-38 -56t-56 -38t-69 -14t-69 14t-56 38t-38 56t-14 69zM-339 -340q0 -36 25.5 -61.5t61.5 -25.5t61.5 25.5t25.5 61.5t-25.5 61.5t-61.5 25.5t-61.5 -25.5t-25.5 -61.5z" />
    <glyph glyph-name="asat.asat.lig" unicode="&#xe03a;" 
d="M-360 1514q0 -52 -62 -64q-48 0 -48 54.5t-69 92.5t-125 38q-150 0 -175 -142q0 -129 105 -222q43 -40 133 -85l88 -44q24 -11 24 -46q0 -52 -59 -62l-29 10l-109 56q-153 82 -217 200q-47 85 -47 209q18 107 98 172.5t188 65.5q111 0 199 -63.5t105 -169.5zM-1046 1610
q-2 39 5.5 74.5t26.5 72.5q17 23 42.5 49t54.5 45t59.5 30.5t62.5 18.5q29 7 58 8.5t61 0.5q48 -1 100 -10t103.5 -29t99.5 -53.5t87 -82.5q25 -32 50 -69.5t44 -85.5q8 -43 4 -64.5t-22 -33.5t-38.5 -8.5t-41.5 29.5q-15 31 -28 64t-33 59q-33 45 -82.5 79t-106.5 58.5
t-122 32.5t-124.5 -3t-101.5 -38t-71 -69q-13 -29 -15.5 -44t-15.5 -44z" />
    <glyph glyph-name="pa.ssa.sub" unicode="&#xe051;" 
d="M-272 -438q0 -160 -121 -260.5t-281 -100.5q-163 0 -281 99.5t-118 261.5q0 207 209 332l33 10q51 0 63 -70q0 -27 -35 -47q-141 -88 -141 -225q0 -107 82 -170.5t188 -63.5q113 0 193 60.5t80 173.5q0 139 -142 223q-34 12 -34 49q0 64 61 74l29 -10q215 -113 215 -336z
M-527 -423q0 -71 -44 -116t-113 -45q-64 0 -110.5 48.5t-46.5 110.5q0 66 44.5 110.5t112.5 44.5q63 0 110 -43.5t47 -109.5zM-629 -428q0 51 -55 54q-53 0 -53 -51q0 -49 53 -58q42 0 55 55z" />
    <glyph glyph-name="ga.sha.sub" unicode="&#xe052;" 
d="M-277 -459q0 -188 -153 -311l-31 -14q-43 0 -59 69q0 21 8 29q110 90 110 231q0 27 -20 62l-45 76q-72 71 -207 71q-111 0 -180 -67q-74 -45 -74 -146q0 -141 100 -225l11 -14l4 -15q0 -18 -19.5 -43.5t-38.5 -27.5q-24 0 -39 14q-147 133 -147 315q0 68 43 142
q53 123 201 172q61 20 139 20q152 0 281 -94q116 -117 116 -244zM-527 -463q0 -71 -44 -116t-113 -45q-64 0 -110.5 48.5t-46.5 110.5q0 66 44.5 110.5t112.5 44.5q63 0 110 -43.5t47 -109.5zM-629 -468q0 51 -55 54q-53 0 -53 -51q0 -49 53 -58q42 0 55 55z" />
    <glyph glyph-name="mon.nga.sub" unicode="&#xe05a;" 
d="M-800 -357q16 -13 21 -28.5t0 -28.5t-20 -21t-39 -5q-25 8 -42 23.5t-35 34.5q-48 52 -54.5 101t13.5 90.5t61 73.5t89 49.5t96 18.5t84 -19q58 -33 98.5 -67t58 -74t9.5 -89.5t-46 -115.5q-11 -18 -29 -43t-36 -52.5t-33 -57t-20.5 -57.5t2.5 -53.5t36 -44.5
q32 0 56 -14t29 -43q-30 -39 -68.5 -39.5t-73.5 24t-59.5 67t-27.5 88.5q-2 33 13.5 68.5t37.5 70t45 67t37 59.5q8 14 18.5 34.5t17 42t5.5 42.5t-15 37q-22 15 -42.5 30.5t-43 26.5t-48 14.5t-56.5 -5.5q-38 -12 -64.5 -30t-37.5 -40t-6 -48.5t31 -54.5q9 -8 16.5 -17.5
t21.5 -14.5z" />
    <glyph glyph-name="mon.jha.sub" unicode="&#xe05b;" horiz-adv-x="300" 
d="M-595 -582q-61 0 -118.5 45t-57.5 105l4 37q19 41 70 64.5t92 23.5q100 0 182 -82q4 47 -18 74q-98 90 -221 90q-99 0 -172 -66q-33 -22 -58 -76q-16 -39 -22 -90q0 -55 14 -86q29 -82 145 -123q62 -18 107 -18q86 0 127 31l29 12q20 0 36.5 -19.5t16.5 -37.5
q0 -21 -21 -31q-79 -62 -196 -62q-70 0 -137 23q-51 18 -92 47q-43 -42 -110 -60q-35 -5 -67 11q-34 16 -74 54l-75 83l-8 34q2 39 41 49q34 0 46 -14l68 -76q8 -11 67 -46q35 27 41 33q-75 92 -75 200q0 140 105.5 236t263.5 96q145 0 262 -90q78 -61 78 -172l-20 -68
l345 -173v1587q0 34 23 49l39 14q65 0 65 -63v-1686q0 -61 -84 -66l-477 238q-53 -31 -164 -31zM-480 -471q-19 22 -41 41l-43 20l-39 4q-53 3 -66 -30q23 -45 80 -47l68 -2q27 0 41 14z" />
    <glyph glyph-name="bba.sub" unicode="&#xe05c;" 
d="M-264 -391q0 -170 -117 -289t-286 -119q-168 0 -287 120t-119 288q0 172 116.5 291.5t289.5 119.5q165 0 284 -120.5t119 -290.5zM-393 -391q0 119 -79 200.5t-195 81.5q-123 0 -200 -79.5t-77 -202.5q0 -115 80 -199t197 -84q116 0 195 82t79 201zM-509 -385
q0 -72 -46 -118t-118 -46q-65 0 -113 48t-48 116q0 70 46 115t115 45q68 0 116 -46t48 -114zM-615 -385q0 51 -58 55q-55 0 -55 -55q0 -49 55 -57q45 0 58 57z" />
    <glyph glyph-name="sg.eu.asat" unicode="&#xe062;" horiz-adv-x="537" 
d="M509 1640q0 -59 -70 -73q-55 0 -55 61.5t-78 104.5t-141 43q-170 0 -199 -160q0 -146 119 -252q49 -45 151 -96l99 -49q28 -13 28 -52q0 -59 -67 -71l-33 12l-123 63q-174 93 -246 226q-53 96 -53 237q20 121 110.5 195t213.5 74q125 0 225 -72t119 -191zM-60 935
q0 66 63 66h300q61 0 61 -66v-882q0 -61 -61 -61q-64 0 -64 61v821h-236q-63 0 -63 61z" />
    <glyph glyph-name="shan.ka.sub" unicode="&#xe075;" 
d="M-1063 -397q-2 8 -1 17q0 15 2 31t4 36q12 49 41 90q28 47 72 84q118 100 281 100q160 0 281 -100.5t121 -260.5q0 -223 -215 -336l-29 -10q-61 10 -61 74q0 37 34 49q142 84 142 223q0 113 -80 173.5t-193 60.5q-106 0 -188 -64q-15 -9 -29 -27q-7 -9 -10 -13.5
t-4.5 -6.5t-3.5 -5t-7 -9q-27 -46 -28 -106l12 -20q38 -17 61 -32t41 -35q33 -33 49.5 -69t11.5 -74q-8 -58 -39 -92q-65 -62 -115 -59l-36 2q-29 2 -55 14t-46 35q-42 45 -44 105q7 62 67 56q62 -8 56 -66q-2 -19 38 -23l14 2q20 10 27 17t9 16q-2 16 -9.5 30t-18.5 23
l-92 57q-25 26 -41 52t-18 61h-1z" />
    <glyph glyph-name="shan.kha.sub" unicode="&#xe076;" horiz-adv-x="5" 
d="M-668 -47q71 0 132.5 -25t116.5 -78q52 -54 80 -121.5t28 -145.5q0 -151 -110 -261q-110 -111 -263 -111q-172 0 -284 130l-35 51q-8 12 -17.5 33.5t-21.5 53.5q0 41 18 68q110 104 239 104q59 0 117 -23h-2q118 -33 185 -181q22 29 34.5 65t12.5 71q0 110 -70 177
q-65 66 -164 69q-14 -6 -31.5 -16t-39.5 -21q-45 -25 -91.5 -45.5t-96.5 -20.5q-12 0 -25 1.5t-27 5.5q-21 7 -37.5 20.5t-27.5 31.5t-16.5 39t-5.5 43q0 25 7 50t21.5 45.5t37 35t52.5 19.5q35 4 53.5 -15.5t18.5 -43.5q0 -20 -13 -38.5t-42 -23.5h-2l-6 -3v-14
q1 -9 1.5 -17.5t2.5 -10.5q7 -2 24 3t39.5 14t48.5 21.5t52 24.5q12 6 19.5 10t14 7t13.5 6t16 7zM-684 -662q46 0 98 29q-76 119 -124 141q-20 6 -41 9.5t-39 3.5q-68 0 -120 -45q1 -2 3 -4.5l6 -7.5t11 -13.5t18 -21.5q70 -91 188 -91z" />
    <glyph glyph-name="shan.ca.sub" unicode="&#xe078;" 
d="M-1890 -449q0 150 128 253.5t282 103.5q147 0 282 -101q35 -26 54 -63q112 160 340 160q161 0 278 -90q125 -101 125 -258q0 -162 -120 -258.5t-283 -96.5q-166 0 -283 100.5t-117 266.5q-20 96 -97 153.5t-177 57.5q-107 0 -189 -60q-94 -67 -94 -168q0 -77 80 -151
t233 -74q95 -14 95 -63q0 -62 -86 -62q-74 0 -164 23q-287 74 -287 327zM-1077 -420q35 -254 273 -254q104 0 184 60q88 65 88 170q0 104 -86 168q-76 51 -186 51q-113 0 -187 -55.5t-86 -139.5z" />
    </font>
</defs>
</svg>
