<?xml version="1.0" encoding="UTF-8"?>
<svg xmlns="http://www.w3.org/2000/svg" xmlns:xlink="http://www.w3.org/1999/xlink" version="1.2" >
<font id="Myanmar3">
<font-face  font-family="Myanmar3" units-per-em="900" ascent="800" descent="-200" font-style="normal" font-weight="400" font-stretch="normal" cap-height="662" x-height="450" underline-position="-125" underline-thickness="50" />
<missing-glyph  horiz-adv-x="450" d="M44 0 L44 630 L406 630 L406 0 L44 0 Z M66 22 L384 22 L384 608 L66 608 L66 22 Z M143 504 Q156 517 168 523 Q192 537 218 537 Q258 537 282.5 516 Q307 495 307 460 Q307 438 297 416.5 Q287 395 259 359 Q231 324 215.5 301.5 Q200 279 200 258 Q200 241 210 200 L196 200 Q181 242 181 265 Q181 298 216.5 360.5 Q252 423 252 456 Q252 481 237.5 495.5 Q223 510 198 510 Q181 510 167 502 Q156 496 143 485 L143 504 Z M171 147 L196 172 Q201 177 205 177 Q209 177 214 172 L239 145 Q243 141 243 137 Q243 132 239 127 L214 100 Q208 94 205 94 Q200 94 196 98 L169 129 Q166 133 166 137 Q166 142 171 147 Z " />
<glyph glyph-name="&amp;#x0;" d="" />
<glyph glyph-name="&amp;#x1d;" unicode="&#x1d;" d="" />
<glyph glyph-name="&amp;#x20;" unicode="&#x20;" horiz-adv-x="223" d="" />
<glyph glyph-name="&amp;#xa0;" unicode="&#xa0;" horiz-adv-x="223" d="" />
<glyph glyph-name="exclam" unicode="&#x21;" horiz-adv-x="333" d="M189 176 L176 176 L167 284 Q164 316 147 441.5 Q130 567 130 599 Q130 634 144 655 Q158 676 183 676 Q236 676 236 596 Q236 583 234 559 L189 176 Z M145.5 82 Q161 98 183 98 Q205 98 221 82 Q237 66 237 43 Q237 20 221.5 5.5 Q206 -9 182 -9 Q160 -9 145 5.5 Q130 20 130 43 Q130 66 145.5 82 Z " />
<glyph glyph-name="quotedbl" unicode="&#x22;" horiz-adv-x="408" d="M299 431 L278 431 Q246 600 246 635 Q246 652 258.5 664 Q271 676 289 676 Q306 676 318.5 664 Q331 652 331 636 Q331 590 306 471 L299 431 Z M130 431 L109 431 Q77 600 77 635 Q77 652 89.5 664 Q102 676 120 676 Q137 676 149.5 664 Q162 652 162 636 Q162 590 137 471 L130 431 Z " />
<glyph glyph-name="numbersign" unicode="&#x23;" horiz-adv-x="500" d="M471 271 L471 216 L362 216 L331 0 L273 0 L304 216 L170 216 L137 0 L79 0 L112 216 L5 216 L5 271 L121 271 L142 405 L32 405 L32 460 L150 460 L181 662 L239 662 L208 460 L341 460 L371 662 L429 662 L399 460 L496 460 L496 405 L391 405 L371 271 L471 271 Z M333 405 L200 405 L179 271 L313 271 L333 405 Z " />
<glyph glyph-name="dollar" unicode="&#x24;" horiz-adv-x="500" d="M52 512 Q52 576 97 615 Q142 654 230 664 L230 727 L264 727 L264 664 Q377 651 425 611 L425 500 L410 500 Q397 564 362 596.5 Q327 629 264 637 L264 391 Q274 385 302.5 369 Q331 353 340.5 347 Q350 341 372 326.5 Q394 312 402 303 Q410 294 424 278 Q438 262 443 247.5 Q448 233 452.5 213 Q457 193 457 170 Q457 95 408.5 55.5 Q360 16 264 0 L264 -87 L230 -87 L230 0 Q167 2 128 12.5 Q89 23 44 51 L44 181 L59 181 Q77 102 118 65.5 Q159 29 230 28 L230 310 Q131 365 91.5 408.5 Q52 452 52 512 Z M229 407 L229 637 Q126 616 126 534 Q126 499 146.5 474 Q167 449 229 407 Z M264 293 L264 28 Q378 50 378 146 Q378 192 356 220.5 Q334 249 264 293 Z " />
<glyph glyph-name="percent" unicode="&#x25;" horiz-adv-x="833" d="M669 371 Q718 371 745 343 Q772 315 772 264 Q772 206 749 149 Q726 92 686 51 Q635 0 569 0 Q515 0 482 35.5 Q449 71 449 129 Q449 223 516.5 297 Q584 371 669 371 Z M586 30 Q629 30 667 68 Q705 106 725.5 158.5 Q746 211 746 259 Q746 292 725.5 315.5 Q705 339 676 339 Q630 339 593 287 Q556 235 540.5 180.5 Q525 126 525 94 Q525 66 542 48 Q559 30 586 30 Z M282 662 Q313 662 332 648.5 Q351 635 374.5 621.5 Q398 608 439 608 Q486 608 520.5 623 Q555 638 595 676 L634 676 L249 -13 L201 -13 L552 613 Q500 583 442 583 Q403 583 377 593 Q384 568 384 549 Q384 456 324.5 372.5 Q265 289 179 289 Q130 289 95.5 326.5 Q61 364 61 416 Q61 511 128.5 586.5 Q196 662 282 662 Z M282 632 Q234 632 185.5 544.5 Q137 457 137 384 Q137 357 153.5 340 Q170 323 196 323 Q257 323 308 394.5 Q359 466 359 551 Q359 570 350 600 Q330 605 316.5 611.5 Q303 618 298.5 622 Q294 626 290 629 Q286 632 282 632 Z " />
<glyph glyph-name="ampersand" unicode="&#x26;" horiz-adv-x="778" d="M453 642 Q491 608 491 555 Q491 502 456 463 Q421 424 336 384 Q396 267 468 178 Q559 299 559 360 Q559 383 545.5 392 Q532 401 495 405 L495 426 L711 426 L711 405 Q673 400 654 388.5 Q635 377 617 346 L591 300 Q551 231 491 150 Q560 58 645 58 Q672 58 691.5 69.5 Q711 81 735 111 L750 100 Q728 47 687.5 17 Q647 -13 599 -13 Q517 -13 429 78 Q373 29 323.5 8 Q274 -13 213 -13 Q133 -13 87.5 27.5 Q42 68 42 139 Q42 265 199 355 L237 377 Q202 474 202 522 Q202 586 247 631 Q292 676 356 676 Q415 676 453 642 Z M321 416 Q382 449 410 483 Q438 517 438 559 Q438 596 415.5 620 Q393 644 358 644 Q324 644 302.5 621 Q281 598 281 562 Q281 500 321 416 Z M252 343 Q187 301 160.5 264.5 Q134 228 134 180 Q134 122 172 80.5 Q210 39 263 39 Q322 39 404 104 Q330 195 252 343 Z " />
<glyph glyph-name="quotesingle" unicode="&#x27;" horiz-adv-x="180" d="M101 431 L80 431 Q48 600 48 635 Q48 652 60.5 664 Q73 676 91 676 Q108 676 120.5 664 Q133 652 133 636 Q133 590 108 471 L101 431 Z " />
<glyph glyph-name="parenleft" unicode="&#x28;" horiz-adv-x="333" d="M292 -177 Q266 -161 238 -138.5 Q210 -116 174.5 -76 Q139 -36 112 9.5 Q85 55 66.5 119 Q48 183 48 252 Q48 324 66.5 388.5 Q85 453 110 495.5 Q135 538 173.5 577.5 Q212 617 237 636 Q262 655 295 676 L304 660 Q260 624 233 595 Q206 566 181 519.5 Q156 473 145 408.5 Q134 344 134 255 Q134 162 145 95 Q156 28 181 -19.5 Q206 -67 233 -97 Q260 -127 304 -161 L292 -177 Z " />
<glyph glyph-name="parenright" unicode="&#x29;" horiz-adv-x="333" d="M41 676 Q67 660 95 637.5 Q123 615 158.5 575 Q194 535 221 489.5 Q248 444 266.5 380 Q285 316 285 247 Q285 175 266.5 110.5 Q248 46 223 3.5 Q198 -39 159.5 -78.5 Q121 -118 96 -137 Q71 -156 38 -177 L29 -161 Q73 -126 100 -96 Q127 -66 152 -19.5 Q177 27 188 91.5 Q199 156 199 244 Q199 365 177 446 Q155 527 122 570 Q89 613 29 660 L41 676 Z " />
<glyph glyph-name="asterisk" unicode="&#x2a;" horiz-adv-x="500" d="M214 302 Q214 316 228 357 Q242 398 242 424 L242 432 L241 449 L241 456 Q203 432 178.5 409.5 Q154 387 148 375.5 Q142 364 132 357.5 Q122 351 105 351 Q69 351 69 386 Q69 410 87.5 417.5 Q106 425 150.5 436 Q195 447 234 471 L223 478 Q201 493 160 502 Q119 511 94 521 Q69 531 69 555 Q69 570 79 580.5 Q89 591 103 591 Q123 591 134.5 578 Q146 565 171.5 537.5 Q197 510 241 486 L241 499 Q241 533 228.5 581 Q216 629 216 641 Q216 656 226 666 Q236 676 251 676 Q266 676 276.5 665.5 Q287 655 287 639 Q287 626 273.5 582.5 Q260 539 260 510 L260 484 Q288 500 316 528 Q344 556 363 574.5 Q382 593 395 593 Q411 593 421 582 Q431 571 431 554 Q431 536 419.5 527 Q408 518 389.5 515 Q371 512 336.5 500.5 Q302 489 268 470 Q298 451 332 441 Q366 431 385.5 428.5 Q405 426 418.5 416.5 Q432 407 432 387 Q432 370 422.5 360 Q413 350 397 350 Q377 350 358.5 369.5 Q340 389 315 416.5 Q290 444 260 456 L260 449 Q260 399 274 355 Q288 311 288 305 Q288 289 276.5 277 Q265 265 249 265 Q235 265 224.5 276 Q214 287 214 302 Z " />
<glyph glyph-name="plus" unicode="&#x2b;" horiz-adv-x="564" d="M249 286 L249 506 L315 506 L315 286 L534 286 L534 220 L315 220 L315 0 L249 0 L249 220 L30 220 L30 286 L249 286 Z " />
<glyph glyph-name="comma" unicode="&#x2c;" horiz-adv-x="250" d="M142 -2 Q142 -2 134 -4 Q125 -6 115 -6 Q88 -6 72 7.5 Q56 21 56 45 Q56 70 72.5 86 Q89 102 115 102 Q149 102 172 76.5 Q195 51 195 13 Q195 -32 164 -74 Q133 -116 83 -141 L74 -122 Q156 -66 156 -16 Q156 -2 142 -2 Z " />
<glyph glyph-name="hyphen" unicode="&#x2d;" horiz-adv-x="333" d="M39 257 L285 257 L285 194 L39 194 L39 257 Z " />
<glyph glyph-name="period" unicode="&#x2e;" horiz-adv-x="250" d="M125 100 Q148 100 164.5 83 Q181 66 181 43 Q181 21 164 5 Q147 -11 124 -11 Q102 -11 86 5 Q70 21 70 43 Q70 66 86.5 83 Q103 100 125 100 Z " />
<glyph glyph-name="slash" unicode="&#x2f;" horiz-adv-x="278" d="M287 676 L59 -14 L-9 -14 L220 676 L287 676 Z " />
<glyph glyph-name="zero" unicode="0" horiz-adv-x="500" d="M250 -14 Q198 -14 157 10 Q116 34 92 71 Q68 108 52 156.5 Q36 205 30 249 Q24 293 24 336 Q24 424 50.5 503 Q77 582 120 624 Q175 676 254 676 Q352 676 414 580 Q476 484 476 330 Q476 178 414 82 Q352 -14 250 -14 Z M251 650 Q120 650 120 327 Q120 12 250 12 Q380 12 380 328 Q380 485 347 567.5 Q314 650 251 650 Z " />
<glyph glyph-name="one" unicode="1" horiz-adv-x="500" d="M183 593 Q165 593 111 571 L111 585 L291 676 L299 674 L299 74 Q299 38 317 27 Q335 16 394 15 L394 0 L118 0 L118 15 Q174 17 193.5 31.5 Q213 46 213 93 L213 546 Q213 593 183 593 Z " />
<glyph glyph-name="two" unicode="2" horiz-adv-x="500" d="M31 477 Q36 500 41 517 Q46 534 62.5 566.5 Q79 599 99.5 620.5 Q120 642 156.5 659 Q193 676 239 676 Q317 676 370.5 625 Q424 574 424 499 Q424 386 296 252 L128 76 L367 76 Q401 76 417.5 87.5 Q434 99 462 142 L475 137 L420 0 L30 0 L30 12 L208 201 Q338 339 338 461 Q338 524 299 563 Q260 602 197 602 Q145 602 113.5 573.5 Q82 545 52 472 L31 477 Z " />
<glyph glyph-name="three" unicode="3" horiz-adv-x="500" d="M81 78 Q104 78 149.5 50 Q195 22 229 22 Q284 22 322 65 Q360 108 360 171 Q360 223 333 262.5 Q306 302 259 319 Q230 330 153 330 L153 343 Q187 355 211.5 366.5 Q236 378 263 397.5 Q290 417 304.5 445 Q319 473 319 509 Q319 556 288.5 586 Q258 616 209 616 Q162 616 126.5 590.5 Q91 565 60 510 L45 514 Q71 585 115.5 630.5 Q160 676 242 676 Q311 676 354.5 638 Q398 600 398 539 Q398 498 377 467 Q356 436 304 401 Q364 375 398 334.5 Q432 294 432 219 Q432 113 353.5 49.5 Q275 -14 156 -14 Q104 -14 73.5 1.5 Q43 17 43 43 Q43 59 53.5 68.5 Q64 78 81 78 Z " />
<glyph glyph-name="four" unicode="4" horiz-adv-x="500" d="M472 231 L472 167 L370 167 L370 0 L293 0 L293 167 L12 167 L12 231 L326 676 L370 676 L370 231 L472 231 Z M292 231 L292 574 L52 231 L292 231 Z " />
<glyph glyph-name="five" unicode="5" horiz-adv-x="500" d="M357 194 Q357 247 333.5 288 Q310 329 276.5 351.5 Q243 374 201.5 388.5 Q160 403 129.5 407.5 Q99 412 76 412 Q64 412 64 420 Q64 423 65 425 L174 662 L383 662 Q399 662 408.5 667 Q418 672 429 688 L438 681 L400 592 Q396 583 377 583 L181 583 L139 498 Q285 472 356 413.5 Q427 355 427 242 Q427 183 408.5 137 Q390 91 361.5 63 Q333 35 295.5 17 Q258 -1 223.5 -7.5 Q189 -14 154 -14 Q98 -14 65 2.5 Q32 19 32 48 Q32 85 75 85 Q103 85 147.5 54 Q192 23 218 23 Q277 23 317 72.5 Q357 122 357 194 Z " />
<glyph glyph-name="six" unicode="6" horiz-adv-x="500" d="M258 -14 Q157 -14 95.5 66.5 Q34 147 34 279 Q34 485 201 604 Q256 642 308.5 659.5 Q361 677 446 684 L448 668 Q330 649 251 572.5 Q172 496 152 383 Q199 411 223 419.5 Q247 428 280 428 Q366 428 417 371.5 Q468 315 468 219 Q468 116 409.5 51 Q351 -14 258 -14 Z M242 382 Q174 382 150.5 352 Q127 322 127 263 Q127 147 165 80.5 Q203 14 269 14 Q322 14 350 58.5 Q378 103 378 185 Q378 279 342.5 330.5 Q307 382 242 382 Z " />
<glyph glyph-name="seven" unicode="7" horiz-adv-x="500" d="M449 662 L449 646 L237 -8 L172 -8 L370 588 L153 588 Q112 588 90.5 573 Q69 558 37 507 L20 515 L79 662 L449 662 Z " />
<glyph glyph-name="eight" unicode="8" horiz-adv-x="500" d="M290 371 Q380 304 412.5 258.5 Q445 213 445 155 Q445 78 391.5 32 Q338 -14 248 -14 Q163 -14 109.5 32 Q56 78 56 151 Q56 202 80.5 236.5 Q105 271 186 332 Q107 401 84.5 435 Q62 469 62 518 Q62 586 116 631 Q170 676 252 676 Q327 676 375.5 636 Q424 596 424 534 Q424 483 394 447 Q364 411 290 371 Z M272 268 L212 312 Q168 277 150 242 Q132 207 132 159 Q132 94 167 54 Q202 14 259 14 Q308 14 338.5 44.5 Q369 75 369 124 Q369 166 348 197.5 Q327 229 272 268 Z M261 389 Q262 390 274.5 398.5 Q287 407 292.5 412 Q298 417 309.5 427.5 Q321 438 327 447.5 Q333 457 340.5 470.5 Q348 484 351.5 500.5 Q355 517 355 535 Q355 587 325 617.5 Q295 648 244 648 Q197 648 166.5 620 Q136 592 136 549 Q136 507 165 470 Q194 433 261 389 Z " />
<glyph glyph-name="nine" unicode="9" horiz-adv-x="500" d="M59 -22 L56 -2 Q170 18 249.5 95 Q329 172 360 294 Q286 237 210 237 Q129 237 79.5 293 Q30 349 30 440 Q30 541 89.5 608.5 Q149 676 238 676 Q335 676 397 597 Q459 518 459 394 Q459 293 415.5 204.5 Q372 116 294 59 Q243 22 193 5 Q143 -12 59 -22 Z M246 280 Q265 280 289 285.5 Q313 291 337.5 309.5 Q362 328 362 355 L362 394 Q362 648 230 648 Q199 648 177 631.5 Q155 615 143.5 588 Q132 561 127 533 Q122 505 122 474 Q122 385 155.5 332.5 Q189 280 246 280 Z " />
<glyph glyph-name="colon" unicode="&#x3a;" horiz-adv-x="278" d="M136 459 Q159 459 175.5 442 Q192 425 192 402 Q192 380 175 364 Q158 348 135 348 Q113 348 97 364 Q81 380 81 402 Q81 425 97.5 442 Q114 459 136 459 Z M136 100 Q159 100 175.5 83 Q192 66 192 43 Q192 21 175 5 Q158 -11 135 -11 Q113 -11 97 5 Q81 21 81 43 Q81 66 97.5 83 Q114 100 136 100 Z " />
<glyph glyph-name="semicolon" unicode="&#x3b;" horiz-adv-x="278" d="M166 -2 Q166 -2 158 -4 Q149 -6 139 -6 Q111 -6 95.5 7.5 Q80 21 80 46 Q80 71 96.5 86.5 Q113 102 139 102 Q173 102 196 76.5 Q219 51 219 13 Q219 -32 189 -74 Q159 -116 107 -141 L98 -122 Q180 -66 180 -16 Q180 -2 166 -2 Z M136 459 Q159 459 175.5 442 Q192 425 192 402 Q192 380 175 364 Q158 348 135 348 Q113 348 97 364 Q81 380 81 402 Q81 425 97.5 442 Q114 459 136 459 Z " />
<glyph glyph-name="less" unicode="&#x3c;" horiz-adv-x="564" d="M536 -10 L28 220 L28 286 L536 516 L536 444 L116 253 L536 62 L536 -10 Z " />
<glyph glyph-name="equal" unicode="&#x3d;" horiz-adv-x="564" d="M534 386 L534 320 L30 320 L30 386 L534 386 Z M534 186 L534 120 L30 120 L30 186 L534 186 Z " />
<glyph glyph-name="greater" unicode="&#x3e;" horiz-adv-x="564" d="M28 -10 L28 62 L448 253 L28 444 L28 516 L536 286 L536 220 L28 -10 Z " />
<glyph glyph-name="question" unicode="&#x3f;" horiz-adv-x="444" d="M230 676 Q306 676 360 633.5 Q414 591 414 521 Q414 485 397 447.5 Q380 410 363 386.5 Q346 363 309 318 Q259 254 244 164 L227 164 Q229 241 257 306 L285 370 Q322 455 322 526 Q322 576 290.5 611 Q259 646 214 646 Q177 646 148 627 Q119 608 119 584 Q119 575 138 551 Q157 527 157 510 Q157 492 145.5 480.5 Q134 469 116 469 Q68 469 68 531 Q68 593 114.5 634.5 Q161 676 230 676 Z M237 99 Q259 99 275 82.5 Q291 66 291 44 Q291 21 275.5 6.5 Q260 -8 236 -8 Q214 -8 199 6.5 Q184 21 184 43 Q184 67 199 83 Q214 99 237 99 Z " />
<glyph glyph-name="at" unicode="&#x40;" horiz-adv-x="921" d="M482 645 Q356 645 278 551.5 Q200 458 200 323 Q200 193 282 109 Q364 25 492 25 Q581 25 688 73 L700 43 Q627 10 581.5 -2 Q536 -14 483 -14 Q328 -14 222 84 Q116 182 116 326 Q116 472 222.5 574 Q329 676 481 676 Q620 676 714.5 591.5 Q809 507 809 383 Q809 286 754 214.5 Q699 143 625 143 Q589 143 563.5 163 Q538 183 534 216 Q480 144 409 144 Q372 144 346.5 176.5 Q321 209 321 256 Q321 346 377.5 427 Q434 508 517 508 Q543 508 557.5 497.5 Q572 487 589 456 L599 494 L668 494 L603 240 Q601 228 601 222 Q601 176 640 176 Q689 176 729 237 Q769 298 769 373 Q769 485 684.5 565 Q600 645 482 645 Z M572 406 Q572 437 559 450.5 Q546 464 528 464 Q487 464 439.5 408.5 Q392 353 392 272 Q392 233 408 210 Q424 187 452 187 Q500 187 536 262 Q572 337 572 406 Z " />
<glyph glyph-name="A" unicode="A" horiz-adv-x="722" d="M706 19 L706 0 L451 0 L451 19 Q491 20 506 27 Q521 34 521 53 Q521 77 502 120 L461 216 L199 216 L153 99 Q145 78 145 60 Q145 19 213 19 L213 0 L15 0 L15 19 Q52 21 72.5 47.5 Q93 74 139 183 L347 674 L367 674 L616 106 Q642 50 657 35.5 Q672 21 706 19 Z M216 257 L447 257 L331 532 L216 257 Z " />
<glyph glyph-name="B" unicode="B" horiz-adv-x="666" d="M593 180 Q593 150 582 121 Q571 92 545.5 63.5 Q520 35 470 17.5 Q420 0 351 0 L17 0 L17 19 Q79 21 96 37 Q113 53 113 109 L113 553 Q113 608 96.5 623.5 Q80 639 17 643 L17 662 L297 662 Q559 662 559 492 Q559 459 547 433.5 Q535 408 522.5 394.5 Q510 381 484 369 Q458 357 451 355.5 Q444 354 422 348 Q445 342 456.5 339 Q468 336 498.5 322 Q529 308 546 292 Q563 276 578 246.5 Q593 217 593 180 Z M278 37 Q323 37 356 43 Q389 49 418 63.5 Q447 78 462.5 107 Q478 136 478 179 Q478 271 394 306 Q346 326 215 326 L215 78 Q215 54 228 45.5 Q241 37 278 37 Z M215 366 L310 366 Q380 366 418.5 397.5 Q457 429 457 488 Q457 555 412 590 Q367 625 281 625 L237 625 Q215 625 215 595 L215 366 Z " />
<glyph glyph-name="C" unicode="C" horiz-adv-x="666" d="M28 325 Q28 481 124 578.5 Q220 676 363 676 Q427 676 483 659.5 Q539 643 548 643 Q581 643 590 676 L611 676 L620 450 L597 450 Q542 636 382 636 Q273 636 208.5 555 Q144 474 144 338 Q144 251 166.5 187.5 Q189 124 227 91.5 Q265 59 305.5 44.5 Q346 30 392 30 Q510 30 615 131 L633 113 Q587 52 516 19 Q445 -14 360 -14 Q212 -14 120 79 Q28 172 28 325 Z " />
<glyph glyph-name="D" unicode="D" horiz-adv-x="722" d="M685 334 Q685 289 675 246 Q665 203 638 157 Q611 111 569 77.5 Q527 44 457.5 22 Q388 0 300 0 L16 0 L16 19 Q73 23 88.5 39 Q104 55 104 109 L104 553 Q104 608 89.5 623 Q75 638 16 643 L16 662 L286 662 Q377 662 448.5 641.5 Q520 621 563.5 588.5 Q607 556 635.5 511.5 Q664 467 674.5 424 Q685 381 685 334 Z M576 327 Q576 370 567.5 409.5 Q559 449 537 489.5 Q515 530 480 559 Q445 588 388 606.5 Q331 625 258 625 Q227 625 216.5 617 Q206 609 206 586 L206 78 Q206 54 217 45.5 Q228 37 258 37 Q576 37 576 327 Z " />
<glyph glyph-name="E" unicode="E" horiz-adv-x="612" d="M201 80 Q201 51 217.5 44 Q234 37 306 37 L333 37 Q440 37 486 62.5 Q532 88 569 169 L597 169 L552 0 L12 0 L12 19 Q67 23 83 39.5 Q99 56 99 109 L99 553 Q99 606 83 622.5 Q67 639 12 643 L12 662 L543 662 L546 519 L521 519 Q508 586 481 605 Q454 624 369 624 L234 624 Q214 624 207.5 617.5 Q201 611 201 590 L201 368 L355 368 Q419 368 437.5 387.5 Q456 407 465 463 L488 463 L488 231 L465 231 Q455 293 436 310 Q417 327 355 327 L201 327 L201 80 Z " />
<glyph glyph-name="F" unicode="F" horiz-adv-x="556" d="M479 231 L456 231 Q447 292 427 309.5 Q407 327 346 327 L201 327 L201 109 Q201 55 217.5 38.5 Q234 22 292 19 L292 0 L12 0 L12 19 Q69 23 84 40.5 Q99 58 99 120 L99 553 Q99 606 83 622.5 Q67 639 12 643 L12 662 L543 662 L546 519 L521 519 Q508 586 481 605 Q454 624 369 624 L233 624 Q213 624 207 617.5 Q201 611 201 590 L201 368 L346 368 Q406 368 426.5 385.5 Q447 403 456 463 L479 463 L479 231 Z " />
<glyph glyph-name="G" unicode="G" horiz-adv-x="722" d="M392 636 Q335 636 291 615.5 Q247 595 220 563 Q193 531 176 488 Q159 445 152.5 405.5 Q146 366 146 326 Q146 187 216.5 106.5 Q287 26 409 26 Q463 26 502.5 43.5 Q542 61 542 85 L542 247 Q542 303 526.5 317.5 Q511 332 454 336 L454 354 L709 354 L709 336 Q665 332 652 317.5 Q639 303 639 259 L639 56 Q609 30 530.5 8 Q452 -14 388 -14 Q343 -14 298 -5 Q253 4 204 28 Q155 52 118 88.5 Q81 125 56.5 186 Q32 247 32 325 Q32 478 128.5 577 Q225 676 375 676 Q433 676 489.5 659.5 Q546 643 555 643 Q571 643 583 652.5 Q595 662 600 676 L622 676 L630 465 L607 465 Q575 543 527 589.5 Q479 636 392 636 Z " />
<glyph glyph-name="H" unicode="H" horiz-adv-x="722" d="M209 359 L512 359 L512 553 Q512 607 497 622.5 Q482 638 424 643 L424 662 L702 662 L702 643 Q644 638 629 622.5 Q614 607 614 553 L614 109 Q614 56 630 40 Q646 24 702 19 L702 0 L424 0 L424 19 Q482 23 497 40 Q512 57 512 120 L512 315 L209 315 L209 109 Q209 56 225 40 Q241 24 297 19 L297 0 L19 0 L19 19 Q77 23 92 40 Q107 57 107 120 L107 553 Q107 607 92 622.5 Q77 638 19 643 L19 662 L297 662 L297 643 Q239 638 224 622.5 Q209 607 209 553 L209 359 Z " />
<glyph glyph-name="I" unicode="I" horiz-adv-x="333" d="M115 109 L115 553 Q115 608 98.5 623.5 Q82 639 18 643 L18 662 L315 662 L315 643 Q252 640 234.5 624 Q217 608 217 553 L217 109 Q217 54 235 37.5 Q253 21 315 19 L315 0 L18 0 L18 19 Q81 21 98 37 Q115 53 115 109 Z " />
<glyph glyph-name="J" unicode="J" horiz-adv-x="389" d="M59 108 Q80 108 92 95 Q104 82 108 66 Q112 50 119 37 Q126 24 138 24 Q176 24 176 90 L176 553 Q176 608 160 623.5 Q144 639 83 643 L83 662 L370 662 L370 643 Q309 639 293.5 623.5 Q278 608 278 553 L278 183 Q278 89 234 37.5 Q190 -14 109 -14 Q66 -14 38 6 Q10 26 10 58 Q10 78 24.5 93 Q39 108 59 108 Z " />
<glyph glyph-name="K" unicode="K" horiz-adv-x="722" d="M413 643 L413 662 L675 662 L675 643 Q623 639 597.5 626.5 Q572 614 523 565 L333 377 L566 127 Q634 54 659 37 Q684 20 723 19 L723 0 L418 0 L418 19 Q430 20 446 20 Q488 22 488 42 Q488 60 451.5 108 Q415 156 358 212 L252 317 L226 296 L226 109 Q226 54 242 38.5 Q258 23 316 19 L316 0 L34 0 L34 19 Q93 23 108.5 40.5 Q124 58 124 120 L124 553 Q124 606 108 622.5 Q92 639 34 643 L34 662 L318 662 L318 643 Q257 639 241.5 623.5 Q226 608 226 553 L226 348 L403 509 Q481 581 481 612 Q481 627 471.5 633.5 Q462 640 439 642 Q425 642 413 643 Z " />
<glyph glyph-name="L" unicode="L" horiz-adv-x="612" d="M354 39 Q380 39 402.5 42 Q425 45 442 48.5 Q459 52 475 60 Q491 68 501 73 Q511 78 521.5 89.5 Q532 101 537.5 106 Q543 111 550 124.5 Q557 138 559 142 Q561 146 567 159.5 Q573 173 573 174 L598 174 L550 0 L12 0 L12 19 Q67 23 83 39.5 Q99 56 99 109 L99 553 Q99 606 83 622.5 Q67 639 12 643 L12 662 L294 662 L294 643 Q235 639 218 622.5 Q201 606 201 553 L201 80 Q201 54 216.5 46.5 Q232 39 287 39 L354 39 Z " />
<glyph glyph-name="M" unicode="M" horiz-adv-x="889" d="M674 573 L418 0 L404 0 L153 550 L153 147 Q153 71 171 46.5 Q189 22 247 19 L247 0 L12 0 L12 19 Q74 23 91.5 46.5 Q109 70 109 147 L109 553 Q109 608 92.5 623.5 Q76 639 14 643 L14 662 L212 662 L443 157 L664 662 L863 662 L863 643 Q807 638 791.5 622 Q776 606 776 553 L776 109 Q776 56 792 39.5 Q808 23 863 19 L863 0 L583 0 L583 19 Q642 23 658 40.5 Q674 58 674 120 L674 573 Z " />
<glyph glyph-name="N" unicode="N" horiz-adv-x="722" d="M707 643 Q679 640 665.5 636.5 Q652 633 637.5 621 Q623 609 617.5 583.5 Q612 558 612 515 L612 -11 L595 -11 L153 539 L153 147 Q153 71 171 46.5 Q189 22 247 19 L247 0 L12 0 L12 19 Q74 23 91.5 46.5 Q109 70 109 147 L109 588 Q79 623 61.5 633 Q44 643 12 643 L12 662 L183 662 L568 178 L568 515 Q568 591 549.5 614.5 Q531 638 472 643 L472 662 L707 662 L707 643 Z " />
<glyph glyph-name="O" unicode="O" horiz-adv-x="722" d="M355 -14 Q220 -14 127 81.5 Q34 177 34 331 Q34 482 126 579 Q218 676 361 676 Q505 676 596.5 579.5 Q688 483 688 327 Q688 176 595.5 81 Q503 -14 355 -14 Z M574 328 Q574 400 560 456 Q546 512 524.5 546 Q503 580 474 602 Q445 624 417.5 632 Q390 640 361 640 Q312 640 273 619 Q234 598 211.5 566.5 Q189 535 174 492 Q159 449 153.5 409.5 Q148 370 148 329 Q148 278 158 229 Q168 180 190 131 Q212 82 255.5 52 Q299 22 359 22 Q420 22 464.5 52 Q509 82 531.5 131 Q554 180 564 229 Q574 278 574 328 Z " />
<glyph glyph-name="P" unicode="P" horiz-adv-x="556" d="M542 481 Q542 455 536 431 Q530 407 512.5 380 Q495 353 466 333.5 Q437 314 387 301 Q337 288 271 288 Q241 288 202 291 L202 109 Q202 54 219.5 37.5 Q237 21 296 19 L296 0 L16 0 L16 19 Q73 24 86.5 40.5 Q100 57 100 120 L100 553 Q100 607 86 622 Q72 637 16 643 L16 662 L280 662 Q325 662 367 653.5 Q409 645 450.5 626 Q492 607 517 570 Q542 533 542 481 Z M202 591 L202 331 Q236 328 259 328 Q433 328 433 475 Q433 552 385 588.5 Q337 625 236 625 Q216 625 209 618 Q202 611 202 591 Z " />
<glyph glyph-name="Q" unicode="Q" horiz-adv-x="722" d="M688 331 Q688 276 676 228 Q664 180 645.5 147.5 Q627 115 601.5 88 Q576 61 552 45 Q528 29 501 17 Q474 5 457.5 0.5 Q441 -4 426 -7 Q487 -86 551 -121.5 Q615 -157 701 -159 L701 -177 L695 -177 Q684 -178 660 -178 Q417 -178 312 -56 L265 -1 Q165 33 99.5 113 Q34 193 34 329 Q34 481 126 578.5 Q218 676 361 676 Q504 676 596 579 Q688 482 688 331 Z M574 333 Q574 473 516.5 556.5 Q459 640 364 640 Q314 640 275 619.5 Q236 599 213 567.5 Q190 536 174.5 494 Q159 452 153.5 413.5 Q148 375 148 335 Q148 247 168 182.5 Q188 118 221 85 Q254 52 288.5 37 Q323 22 361 22 Q410 22 448.5 42.5 Q487 63 510 95 Q533 127 548 169.5 Q563 212 568.5 252 Q574 292 574 333 Z " />
<glyph glyph-name="R" unicode="R" horiz-adv-x="667" d="M293 662 Q336 662 375 655 Q414 648 455.5 630.5 Q497 613 522 576 Q547 539 547 486 Q547 353 371 320 Q368 319 366 319 L572 66 Q593 41 611.5 31 Q630 21 659 19 L659 0 L498 0 L260 308 L204 306 L204 109 Q204 55 220 39 Q236 23 294 19 L294 0 L17 0 L17 19 Q73 23 87.5 40.5 Q102 58 102 120 L102 553 Q102 606 87.5 621.5 Q73 637 17 643 L17 662 L293 662 Z M204 343 Q325 345 381.5 375 Q438 405 438 488 Q438 558 393.5 591.5 Q349 625 255 625 Q225 625 214.5 617.5 Q204 610 204 589 L204 343 Z " />
<glyph glyph-name="S" unicode="S" horiz-adv-x="556" d="M390 135 Q390 182 357 218.5 Q324 255 277 281 Q230 307 183.5 334.5 Q137 362 104 405 Q71 448 71 505 Q71 581 122.5 628.5 Q174 676 244 676 Q286 676 335 659 Q384 642 394 642 Q420 642 426 676 L447 676 L469 463 L444 463 Q420 551 370.5 593 Q321 635 261 635 Q215 635 186 609 Q157 583 157 542 Q157 502 191 466 Q225 430 304 386 Q403 333 447 281.5 Q491 230 491 168 Q491 91 432 38.5 Q373 -14 287 -14 Q237 -14 185.5 3 Q134 20 122 20 Q111 20 103 10.5 Q95 1 94 -13 L72 -13 L42 199 L65 199 Q102 108 151 65 Q200 22 267 22 Q322 22 356 53.5 Q390 85 390 135 Z " />
<glyph glyph-name="T" unicode="T" horiz-adv-x="611" d="M254 620 L200 620 Q116 620 87.5 597 Q59 574 41 492 L17 492 L23 662 L587 662 L593 492 L569 492 Q552 575 523.5 597.5 Q495 620 410 620 L356 620 L356 109 Q356 54 373 38 Q390 22 452 19 L452 0 L160 0 L160 19 Q222 23 238 39.5 Q254 56 254 120 L254 620 Z " />
<glyph glyph-name="U" unicode="U" horiz-adv-x="722" d="M206 233 Q206 133 243.5 81.5 Q281 30 378 30 Q434 30 479 51.5 Q524 73 544 109 Q567 152 567 245 L567 515 Q567 590 549 614.5 Q531 639 473 643 L473 662 L705 662 L705 643 Q643 635 627 613 Q611 591 611 515 L611 254 Q611 195 600.5 151 Q590 107 563.5 67.5 Q537 28 484.5 7 Q432 -14 355 -14 Q227 -14 165.5 48.5 Q104 111 104 241 L104 553 Q104 608 88.5 623 Q73 638 14 643 L14 662 L297 662 L297 643 Q237 638 221.5 622.5 Q206 607 206 553 L206 233 Z " />
<glyph glyph-name="V" unicode="V" horiz-adv-x="722" d="M697 662 L697 643 Q660 641 644.5 625 Q629 609 605 550 L383 -11 L368 -11 L122 538 Q93 604 73.5 622.5 Q54 641 16 643 L16 662 L282 662 L282 643 Q254 641 253 641 Q207 638 207 610 Q207 590 248 499 L399 161 L546 528 Q565 576 565 601 Q565 622 549 631.5 Q533 641 492 643 L492 662 L697 662 Z " />
<glyph glyph-name="W" unicode="W" horiz-adv-x="944" d="M932 662 L932 643 Q892 635 877.5 623 Q863 611 849 572 Q766 349 737 266 Q708 183 645 -11 L630 -11 L470 412 L316 -11 L301 -11 L108 526 Q83 596 63.5 617.5 Q44 639 5 643 L5 662 L250 662 L250 643 Q212 641 198.5 634.5 Q185 628 185 611 Q185 593 196 565 L340 189 L447 471 L414 553 Q390 613 373 627.5 Q356 642 313 643 L313 662 L580 662 L580 643 Q503 642 503 608 Q503 597 530 527 L662 186 L787 525 Q803 570 803 600 Q803 620 787.5 629.5 Q772 639 734 643 L734 662 L932 662 Z " />
<glyph glyph-name="X" unicode="X" horiz-adv-x="722" d="M696 662 L696 643 Q647 640 620.5 623.5 Q594 607 547 549 L401 367 L593 93 Q623 50 643 37 Q663 24 704 19 L704 0 L407 0 L407 19 Q431 21 434 21 Q484 22 484 50 Q484 72 433 148 L338 288 L219 140 Q167 75 167 54 Q167 37 183 29.5 Q199 22 243 19 L243 0 L10 0 L10 19 Q49 22 70 38 Q91 54 155 133 L312 326 L203 486 Q133 589 102.5 615 Q72 641 22 643 L22 662 L324 662 L324 643 L296 642 Q248 641 248 613 Q248 581 333 463 L375 404 L488 542 Q528 592 528 611 Q528 628 513.5 634.5 Q499 641 458 643 L458 662 L696 662 Z " />
<glyph glyph-name="Y" unicode="Y" horiz-adv-x="722" d="M703 662 L703 643 Q664 640 636 617.5 Q608 595 565 529 L417 303 L417 109 Q417 52 435 36.5 Q453 21 520 19 L520 0 L214 0 L214 19 Q282 22 298.5 38.5 Q315 55 315 120 L315 294 L184 486 Q134 559 108 590.5 Q82 622 65 632 Q48 642 22 643 L22 662 L302 662 L302 643 Q291 642 277 642 Q231 639 231 613 Q231 594 248 569 L396 347 L539 573 Q553 596 553 610 Q553 628 538 635 Q523 642 484 643 L484 662 L703 662 Z " />
<glyph glyph-name="Z" unicode="Z" horiz-adv-x="612" d="M402 38 Q430 38 453 43 Q476 48 491.5 53 Q507 58 520.5 72 Q534 86 540.5 93 Q547 100 555 120.5 Q563 141 565 147 Q567 153 574 176 L597 176 L573 0 L9 0 L9 15 L446 624 L225 624 Q174 624 141 614 Q108 604 91.5 582 Q75 560 69 542 Q63 524 57 491 L31 491 L51 662 L577 662 L577 647 L145 38 L402 38 Z " />
<glyph glyph-name="bracketleft" unicode="&#x5b;" horiz-adv-x="333" d="M299 -131 L299 -156 L88 -156 L88 662 L299 662 L299 637 L209 637 Q185 637 174.5 626.5 Q164 616 164 593 L164 -79 Q164 -131 213 -131 L299 -131 Z " />
<glyph glyph-name="backslash" unicode="&#x5c;" horiz-adv-x="278" d="M-9 676 L58 676 L287 -14 L219 -14 L-9 676 Z " />
<glyph glyph-name="bracketright" unicode="&#x5d;" horiz-adv-x="333" d="M34 -131 L124 -131 Q169 -131 169 -87 L169 585 Q169 637 120 637 L34 637 L34 662 L245 662 L245 -156 L34 -156 L34 -131 Z " />
<glyph glyph-name="asciicircum" unicode="&#x5e;" horiz-adv-x="469" d="M92 297 L24 297 L205 662 L265 662 L446 297 L378 297 L235 586 L92 297 Z " />
<glyph glyph-name="underscore" unicode="&#x5f;" horiz-adv-x="500" d="M500 -125 L0 -125 L0 -75 L500 -75 L500 -125 Z " />
<glyph glyph-name="grave" unicode="&#x60;" horiz-adv-x="333" d="M242 507 L202 507 L48 604 Q19 623 19 647 Q19 678 53 678 Q72 678 95 655 L242 507 Z " />
<glyph glyph-name="a" unicode="a" horiz-adv-x="444" d="M37 97 Q37 115 41 130.5 Q45 146 55 159.5 Q65 173 74 184 Q83 195 101 206.5 Q119 218 131 225.5 Q143 233 167.5 243.5 Q192 254 205 259.5 Q218 265 246 276 Q274 287 287 292 L287 353 Q287 436 211 436 Q181 436 160 421.5 Q139 407 139 387 Q139 379 141.5 365 Q144 351 144 347 Q144 330 130.5 317.5 Q117 305 99 305 Q82 305 69 318 Q56 331 56 348 Q56 395 104.5 427.5 Q153 460 224 460 Q306 460 337 420.5 Q368 381 368 300 L368 105 Q368 72 374.5 59.5 Q381 47 398 47 Q419 47 442 66 L442 40 Q416 11 396.5 0.5 Q377 -10 352 -10 Q321 -10 306.5 7 Q292 24 288 63 Q202 -10 142 -10 Q96 -10 66.5 20 Q37 50 37 97 Z M287 123 L287 268 Q197 235 161 204 Q125 173 125 129 L125 125 Q125 93 143.5 70.5 Q162 48 188 48 Q222 48 261 71 Q277 80 282 90 Q287 100 287 123 Z " />
<glyph glyph-name="b" unicode="b" horiz-adv-x="500" d="M153 681 L153 375 Q168 412 207 436 Q246 460 292 460 Q367 460 417.5 397.5 Q468 335 468 243 Q468 136 400.5 63 Q333 -10 234 -10 Q174 -10 121.5 10.5 Q69 31 69 54 L69 573 Q69 604 59.5 614 Q50 624 20 624 Q9 624 3 623 L3 639 L32 647 Q99 666 148 683 L153 681 Z M153 322 L153 70 Q153 51 182 36.5 Q211 22 250 22 Q312 22 346 68 Q380 114 380 197 Q380 288 345.5 342.5 Q311 397 252 397 Q213 397 183 374 Q153 351 153 322 Z " />
<glyph glyph-name="c" unicode="c" horiz-adv-x="444" d="M25 213 Q25 324 90.5 392 Q156 460 244 460 Q307 460 352.5 429.5 Q398 399 398 357 Q398 340 384 327.5 Q370 315 350 315 Q316 315 303 361 L297 383 Q289 411 277 421 Q265 431 238 431 Q177 431 139.5 382.5 Q102 334 102 257 Q102 171 145.5 116.5 Q189 62 257 62 Q300 62 331 83 Q362 104 398 156 L412 147 Q402 127 394.5 114 Q387 101 367.5 75 Q348 49 329 33 Q310 17 279 3.5 Q248 -10 215 -10 Q132 -10 78.5 52.5 Q25 115 25 213 Z " />
<glyph glyph-name="d" unicode="d" horiz-adv-x="500" d="M344 -10 L340 -7 L340 57 Q292 -10 212 -10 Q129 -10 78 49.5 Q27 109 27 205 Q27 311 88 385.5 Q149 460 235 460 Q289 460 340 417 L340 573 Q340 604 331 614 Q322 624 294 624 Q280 624 272 623 L272 639 Q363 663 419 683 L424 681 L424 114 Q424 79 432.5 68 Q441 57 468 57 Q473 57 491 58 L491 42 L344 -10 Z M251 42 Q289 42 314.5 63.5 Q340 85 340 102 L340 332 Q340 372 309 402 Q278 432 238 432 Q181 432 147 381 Q113 330 113 245 Q113 153 151 97.5 Q189 42 251 42 Z " />
<glyph glyph-name="e" unicode="e" horiz-adv-x="444" d="M97 277 Q99 214 114 168.5 Q129 123 153 100.5 Q177 78 201.5 68.5 Q226 59 253 59 Q301 59 336.5 83 Q372 107 408 164 L424 157 Q393 76 338 33 Q283 -10 212 -10 Q126 -10 75.5 50.5 Q25 111 25 214 Q25 325 83.5 392.5 Q142 460 234 460 Q310 460 352 414.5 Q394 369 405 277 L97 277 Z M99 309 L303 309 Q293 374 272 399 Q251 424 205 424 Q115 424 99 309 Z " />
<glyph glyph-name="f" unicode="f" horiz-adv-x="333" d="M341 580 Q325 580 313.5 591.5 Q302 603 295.5 617.5 Q289 632 275.5 643.5 Q262 655 243 655 Q186 655 186 566 L186 450 L309 450 L309 418 L187 418 L187 104 Q187 48 203 32.5 Q219 17 280 15 L280 0 L20 0 L20 15 Q74 18 88.5 33.5 Q103 49 103 104 L103 418 L21 418 L21 450 L103 450 Q105 562 145 622.5 Q185 683 279 683 Q324 683 353.5 665.5 Q383 648 383 621 Q383 604 370.5 592 Q358 580 341 580 Z " />
<glyph glyph-name="g" unicode="g" horiz-adv-x="500" d="M73 54 Q73 73 86.5 89 Q100 105 162 163 Q112 188 90.5 219 Q69 250 69 297 Q69 365 117.5 412.5 Q166 460 236 460 Q276 460 316 445 L338 437 Q367 427 393 427 L470 427 L470 388 L387 388 Q406 345 406 304 Q406 235 359.5 192 Q313 149 250 149 Q240 149 212 152 Q211 152 193 154 Q173 148 153 127 Q133 106 133 91 Q133 67 211 64 L340 58 Q395 56 428 27 Q461 -2 461 -49 Q461 -105 406 -150 Q322 -218 201 -218 Q130 -218 79 -189.5 Q28 -161 28 -121 Q28 -93 50.5 -65.5 Q73 -38 126 1 Q95 16 84 27 Q73 38 73 54 Z M147 -2 Q116 -39 107 -55 Q98 -71 98 -88 Q98 -121 138 -141 Q178 -161 244 -161 Q329 -161 381 -134 Q433 -107 433 -64 Q433 -37 405 -26 Q377 -15 309 -15 Q208 -15 147 -2 Z M329 265 Q329 282 325 306 Q321 330 311 360.5 Q301 391 279 411.5 Q257 432 226 432 Q191 432 171.5 407 Q152 382 152 338 L152 335 Q152 263 180.5 218.5 Q209 174 254 174 Q289 174 309 198.5 Q329 223 329 265 Z " />
<glyph glyph-name="h" unicode="h" horiz-adv-x="500" d="M157 343 L157 102 Q157 50 169 35 Q181 20 225 15 L225 0 L9 0 L9 15 Q52 21 62.5 35 Q73 49 73 102 L73 573 Q73 605 63.5 614.5 Q54 624 22 624 Q14 624 10 623 L10 639 L37 647 Q105 666 152 683 L157 680 L157 376 Q192 421 226 440.5 Q260 460 304 460 Q427 460 427 301 L427 102 Q427 50 436.5 36.5 Q446 23 487 15 L487 0 L275 0 L275 15 Q318 19 330.5 35 Q343 51 343 102 L343 300 Q343 406 268 406 Q239 406 213.5 391.5 Q188 377 157 343 Z " />
<glyph glyph-name="i" unicode="i" horiz-adv-x="278" d="M62 394 Q50 394 20 390 L20 405 L175 460 L179 457 L179 102 Q179 48 191.5 33.5 Q204 19 253 15 L253 0 L16 0 L16 15 Q68 18 81.5 33 Q95 48 95 102 L95 334 Q95 367 87.5 380.5 Q80 394 62 394 Z M128 683 Q150 683 165 668 Q180 653 180 632 Q180 610 165 595.5 Q150 581 128 581 Q107 581 92.5 596 Q78 611 78 632 Q78 653 93 668 Q108 683 128 683 Z " />
<glyph glyph-name="j" unicode="j" horiz-adv-x="277" d="M77 394 Q77 394 32 390 L32 406 Q112 431 188 460 L193 457 L193 0 Q193 -106 150 -162 Q107 -218 24 -218 Q-17 -218 -43.5 -202.5 Q-70 -187 -70 -163 Q-70 -147 -58 -135.5 Q-46 -124 -29 -124 Q-8 -124 17 -154 Q42 -184 61 -184 Q91 -184 100 -153 Q109 -122 109 -45 L109 334 Q109 394 77 394 Z M142 683 Q164 683 179 668 Q194 653 194 632 Q194 610 179 595.5 Q164 581 142 581 Q121 581 106.5 596 Q92 611 92 632 Q92 653 107 668 Q122 683 142 683 Z " />
<glyph glyph-name="k" unicode="k" horiz-adv-x="500" d="M7 623 L7 639 L37 647 Q124 671 162 683 L166 681 L166 261 L303 383 Q326 403 326 417 Q326 427 315.5 431 Q305 435 276 436 L276 450 L480 450 L480 435 L472 435 Q446 435 427.5 429.5 Q409 424 367.5 395.5 Q326 367 264 309 L235 282 L388 88 Q419 50 445.5 33.5 Q472 17 505 15 L505 0 L287 0 L287 15 L306 15 Q327 15 327 30 Q327 34 324 39.5 Q321 45 314.5 52.5 Q308 60 306 64 L166 251 L166 67 Q166 41 178.5 29 Q191 17 221 16 L241 15 L241 0 L7 0 L7 15 Q61 24 71.5 33.5 Q82 43 82 82 L82 564 Q82 600 73 612.5 Q64 625 39 625 Q33 625 7 623 Z " />
<glyph glyph-name="l" unicode="l" horiz-adv-x="278" d="M19 623 L19 639 Q118 663 178 683 L182 681 L182 84 Q182 43 195.5 30.5 Q209 18 257 15 L257 0 L21 0 L21 15 Q68 19 83 33 Q98 47 98 87 L98 564 Q98 599 89 612 Q80 625 56 625 Q47 625 25 623 L19 623 Z " />
<glyph glyph-name="m" unicode="m" horiz-adv-x="779" d="M19 398 L19 415 Q91 435 159 460 L166 458 L166 383 Q228 430 258 445 Q288 460 321 460 Q400 460 427 376 Q505 460 590 460 Q706 460 706 282 L706 76 Q706 20 749 17 L775 15 L775 0 L556 0 L556 15 Q600 20 611 32 Q622 44 622 87 L622 298 Q622 360 606 384 Q590 408 547 408 Q481 408 438 347 L438 95 Q438 48 452.5 32 Q467 16 510 15 L510 0 L286 0 L286 15 Q329 18 341.5 31 Q354 44 354 86 L354 303 Q354 408 288 408 Q262 408 233 396.5 Q204 385 185 368 Q170 353 170 349 L170 67 Q170 38 184 27.5 Q198 17 238 15 L238 0 L16 0 L16 15 Q58 16 72 30 Q86 44 86 85 L86 338 Q86 374 78.5 388 Q71 402 51 402 Q36 402 19 398 Z " />
<glyph glyph-name="n" unicode="n" horiz-adv-x="500" d="M16 398 L16 415 Q90 437 154 460 L161 458 L161 379 Q212 427 241.5 443.5 Q271 460 306 460 Q361 460 392.5 420.5 Q424 381 424 310 L424 81 Q424 44 436 31.5 Q448 19 485 15 L485 0 L277 0 L277 15 Q315 18 327.5 35 Q340 52 340 99 L340 308 Q340 405 267 405 Q242 405 221 393.5 Q200 382 164 348 L164 67 Q164 40 178 29 Q192 18 230 15 L230 0 L18 0 L18 15 Q56 18 68 32.5 Q80 47 80 90 L80 338 Q80 375 72 388.5 Q64 402 43 402 Q24 402 16 398 Z " />
<glyph glyph-name="o" unicode="o" horiz-adv-x="500" d="M250 460 Q346 460 408 396 Q470 332 470 234 Q470 130 406 60 Q342 -10 248 -10 Q154 -10 91.5 57.5 Q29 125 29 226 Q29 329 90.5 394.5 Q152 460 250 460 Z M119 275 Q119 168 158 93 Q197 18 260 18 Q316 18 348 66 Q380 114 380 199 Q380 302 340 367 Q300 432 237 432 Q184 432 151.5 389 Q119 346 119 275 Z " />
<glyph glyph-name="p" unicode="p" horiz-adv-x="500" d="M9 393 L9 409 Q72 428 153 460 L159 458 L159 381 Q223 460 303 460 Q376 460 423 400 Q470 340 470 247 Q470 138 409.5 64 Q349 -10 260 -10 Q228 -10 206.5 -1 Q185 8 159 33 L159 -124 Q159 -171 175 -184.5 Q191 -198 247 -199 L247 -217 L5 -217 L5 -200 Q49 -196 62 -183 Q75 -170 75 -131 L75 337 Q75 372 67 383 Q59 394 34 394 Q18 394 9 393 Z M159 334 L159 88 Q159 66 193.5 44 Q228 22 263 22 Q317 22 350.5 73.5 Q384 125 384 208 Q384 295 350.5 347.5 Q317 400 261 400 Q226 400 192.5 378 Q159 356 159 334 Z " />
<glyph glyph-name="q" unicode="q" horiz-adv-x="499" d="M360 425 L414 457 L425 457 L425 -141 Q425 -173 436 -183.5 Q447 -194 488 -203 L488 -217 L252 -217 L252 -200 Q305 -196 323 -181 Q341 -166 341 -124 L341 64 Q273 -10 184 -10 Q114 -10 69 50 Q24 110 24 205 Q24 313 87.5 387 Q151 461 245 461 Q299 461 360 425 Z M110 241 Q110 198 120 158 Q130 118 161 84.5 Q192 51 241 51 Q291 51 327 82 Q341 93 341 127 L341 333 Q341 433 248 433 Q184 433 147 381.5 Q110 330 110 241 Z " />
<glyph glyph-name="r" unicode="r" horiz-adv-x="333" d="M296 362 Q281 362 259 379.5 Q237 397 230 397 Q210 397 185 368 Q160 339 160 315 L160 90 Q160 47 177 32 Q194 17 245 15 L245 0 L5 0 L5 15 Q53 24 64.5 35 Q76 46 76 84 L76 334 Q76 367 68.5 380.5 Q61 394 42 394 Q26 394 7 390 L7 406 Q87 432 155 460 L160 458 L160 366 Q197 419 223 439.5 Q249 460 280 460 Q306 460 320.5 446 Q335 432 335 407 Q335 386 324.5 374 Q314 362 296 362 Z " />
<glyph glyph-name="s" unicode="s" horiz-adv-x="389" d="M284 440 Q285 440 300 450 L311 450 L315 314 L300 314 Q283 381 258 409 Q233 437 190 437 Q156 437 134.5 418 Q113 399 113 369 Q113 326 156 301 L264 237 Q309 210 328.5 182.5 Q348 155 348 118 Q348 66 306.5 28 Q265 -10 207 -10 Q182 -10 140 -1 Q98 8 88 8 Q73 8 65 -4 L52 -4 L52 152 L68 152 Q84 82 106 53 Q138 12 195 12 Q233 12 255.5 31.5 Q278 51 278 84 Q278 129 226 159 L168 192 Q104 228 77.5 261 Q51 294 51 336 Q51 390 89.5 424.5 Q128 459 187 459 Q220 459 249 449.5 Q278 440 284 440 Z " />
<glyph glyph-name="t" unicode="t" horiz-adv-x="278" d="M255 450 L255 418 L154 418 L154 132 Q154 85 166 63.5 Q178 42 206 42 Q237 42 266 77 L279 66 Q231 -10 159 -10 Q70 -10 70 117 L70 418 L17 418 Q13 421 13 425 Q13 430 16 433 Q19 436 27.5 441.5 Q36 447 48 456.5 Q60 466 81 491 Q102 516 127 551 Q143 574 147 579 Q154 579 154 566 L154 450 L255 450 Z " />
<glyph glyph-name="u" unicode="u" horiz-adv-x="500" d="M479 50 L479 36 Q401 15 342 -9 L338 -7 L338 76 L295 33 Q252 -10 192 -10 Q137 -10 104 25.5 Q71 61 71 120 L71 372 Q71 407 58 420.5 Q45 434 9 436 L9 450 L155 450 L155 124 Q155 93 176 70.5 Q197 48 226 48 Q272 48 314 82 Q333 97 333 135 L333 370 Q333 407 319.5 419 Q306 431 259 433 L259 450 L417 450 L417 107 Q417 72 428.5 61 Q440 50 474 50 L479 50 Z " />
<glyph glyph-name="v" unicode="v" horiz-adv-x="500" d="M477 450 L477 435 Q454 433 443 420 Q432 407 412 357 L284 36 Q264 -14 256 -14 Q245 -14 230 33 L110 320 Q75 398 61 416 Q47 434 19 435 L19 450 L215 450 L215 435 Q189 433 179 427 Q169 421 169 407 Q169 391 178 370 L280 114 L379 373 Q385 388 385 403 Q385 431 338 435 L338 450 L477 450 Z " />
<glyph glyph-name="w" unicode="w" horiz-adv-x="722" d="M351 310 Q324 390 309.5 410.5 Q295 431 262 435 L262 450 L465 450 L465 435 Q430 430 418.5 423 Q407 416 407 399 Q407 386 424 340 L508 116 L598 338 Q615 380 615 404 Q615 417 606 423.5 Q597 430 571 435 L571 450 L694 450 L694 435 Q679 430 672.5 421 Q666 412 653 381 L515 35 Q495 -14 487 -14 Q479 -14 463 29 L372 265 L260 25 Q242 -14 235 -14 Q227 -14 209 30 L74 372 Q57 410 47.5 422 Q38 434 21 435 L21 450 L201 450 L201 435 Q175 432 165 425 Q155 418 155 402 Q155 387 161 372 L260 111 L351 310 Z " />
<glyph glyph-name="x" unicode="x" horiz-adv-x="500" d="M248 304 Q259 321 274 341.5 Q289 362 296.5 372.5 Q304 383 309.5 394 Q315 405 315 413 Q315 432 275 435 L275 450 L433 450 L433 435 Q382 433 352 391 L269 271 L397 75 Q421 41 438.5 28 Q456 15 479 15 L479 0 L278 0 L278 15 Q303 17 310.5 21.5 Q318 26 318 39 Q318 48 312 57 L221 197 L142 74 Q122 43 122 33 Q122 15 162 15 L162 0 L17 0 L17 15 Q42 17 55.5 26 Q69 35 90 66 L204 231 L110 375 Q87 410 71 422.5 Q55 435 33 435 L24 435 L24 450 L231 450 L231 435 Q188 434 188 413 Q188 393 234 324 L248 304 Z " />
<glyph glyph-name="y" unicode="y" horiz-adv-x="500" d="M151 -134 Q179 -134 210 -72 Q241 -10 241 19 Q241 41 197 120 L182 150 L65 404 Q53 430 14 436 L14 450 L220 450 L220 435 Q188 434 175 428 Q162 422 162 408 Q162 393 172 370 L287 117 L384 393 Q388 402 388 410 Q388 435 340 435 L340 450 L475 450 L475 435 Q457 433 446.5 423.5 Q436 414 427 390 L273 -18 Q233 -126 193.5 -172 Q154 -218 104 -218 Q72 -218 51 -201.5 Q30 -185 30 -160 Q30 -142 43 -129 Q56 -116 73 -116 Q95 -116 120 -125 Q145 -134 151 -134 Z " />
<glyph glyph-name="z" unicode="z" horiz-adv-x="444" d="M272 30 Q311 30 334 35 Q357 40 370 57 Q383 74 388 89 Q393 104 400 139 L418 135 L404 0 L27 0 L27 15 L293 420 L155 420 Q110 420 94 403.5 Q78 387 71 332 L53 332 L56 450 L403 450 L403 435 L134 30 L272 30 Z " />
<glyph glyph-name="braceleft" unicode="&#x7b;" horiz-adv-x="480" d="M350 -181 Q262 -179 223.5 -152 Q185 -125 185 -41 L185 136 Q185 188 167.5 211 Q150 234 100 250 Q150 265 167.5 288 Q185 311 185 363 L185 541 Q185 585 195 612.5 Q205 640 228 654.5 Q251 669 278.5 674 Q306 679 350 680 L350 669 Q298 656 278.5 629 Q259 602 259 546 L259 378 Q259 316 240 290 Q221 264 165 249 Q221 235 240 209 Q259 183 259 121 L259 -47 Q259 -103 278.5 -130 Q298 -157 350 -170 L350 -181 Z " />
<glyph glyph-name="bar" unicode="&#x7c;" horiz-adv-x="200" d="M67 -14 L67 676 L133 676 L133 -14 L67 -14 Z " />
<glyph glyph-name="braceright" unicode="&#x7d;" horiz-adv-x="480" d="M130 680 Q163 680 184 677.5 Q205 675 228 667 Q251 659 264.5 644.5 Q278 630 286.5 603.5 Q295 577 295 540 L295 363 Q295 311 312.5 288 Q330 265 380 250 Q330 234 312.5 211 Q295 188 295 136 L295 -42 Q295 -86 285 -113.5 Q275 -141 252 -155.5 Q229 -170 201.5 -175 Q174 -180 130 -181 L130 -170 Q182 -157 201.5 -130 Q221 -103 221 -47 L221 121 Q221 183 240 209 Q259 235 315 250 Q259 264 240 289.5 Q221 315 221 378 L221 546 Q221 602 201.5 629 Q182 656 130 669 L130 680 Z " />
<glyph glyph-name="asciitilde" unicode="&#x7e;" horiz-adv-x="541" d="M163 320 Q213 320 276 286 Q339 252 374 252 Q397 252 412.5 263 Q428 274 448 303 L502 271 Q468 223 441 204.5 Q414 186 379 186 Q329 186 266 220 Q203 254 168 254 Q145 254 129.5 243 Q114 232 94 203 L40 235 Q74 283 101 301.5 Q128 320 163 320 Z " />
<glyph glyph-name="multiply" unicode="&#xd7;" horiz-adv-x="580" d="M90 438 L241 295 L380 442 L427 399 L287 251 L436 110 L391 63 L242 204 L101 55 L54 99 L195 248 L47 390 L90 438 Z " />
<glyph glyph-name="quoteleft" unicode="&#x2018;" horiz-adv-x="560" d="M19 296 L540 296 L540 215 L19 215 L19 296 Z " />
<glyph glyph-name="quoteright" unicode="&#x2019;" horiz-adv-x="655" d="M0 296 L650 296 L650 215 L0 215 L0 296 Z " />
<glyph glyph-name="quotedblleft" unicode="&#x201c;" horiz-adv-x="561" d="M332 630 Q381 626 404 590 Q427 554 398 519 Q371 485 322 486 Q272 489 250 525 Q240 539 239 559 Q237 641 279 705 Q331 781 402 764 L402 720 Q367 725 342 685 Q324 658 320 630 L332 630 L332 630 Z " />
<glyph glyph-name="quotedblright" unicode="&#x201d;" horiz-adv-x="560" d="M227 625 Q177 629 154 665 Q131 701 160 736 Q189 771 236 768 Q285 767 309 729 Q319 716 320 696 Q321 618 279 550 Q227 474 156 491 L156 535 Q191 530 216 570 Q235 595 238 625 L227 625 L227 625 Z " />
<glyph glyph-name="endash" unicode="&#x2013;" horiz-adv-x="559" d="M195 630 Q244 626 267 590 Q290 554 261 519 Q234 485 185 486 Q135 489 113 525 Q103 539 102 559 Q100 641 142 705 Q194 781 265 764 L265 720 Q230 725 205 685 Q187 658 183 630 L195 630 Z M439 630 Q488 626 511 590 Q534 552 506 519 Q478 485 429 486 Q379 489 357 525 Q347 539 346 559 Q344 641 386 705 Q438 781 509 764 L509 720 Q476 724 450 685 Q431 658 427 630 L439 630 Z " />
<glyph glyph-name="emdash" unicode="&#x2014;" horiz-adv-x="560" d="M364 621 Q314 625 291 661 Q268 697 297 732 Q326 767 373 764 Q423 762 446 726 Q456 712 457 692 Q459 610 417 546 Q365 470 294 487 L294 531 Q327 527 353 566 Q372 593 376 621 L364 621 Z M120 621 Q70 625 47 661 Q24 697 53 732 Q82 767 129 764 Q179 762 202 726 Q212 712 213 692 Q214 614 172 546 Q120 470 49 487 L49 531 Q84 526 109 566 Q128 591 131 621 L120 621 Z " />
<glyph glyph-name="uni1000" unicode="&#x1000;" horiz-adv-x="937" d="M771 61 Q699 -8 610 -8 Q591 -8 568 -4 Q564 -3 560.5 -2.5 Q557 -2 552 -1 Q526 7 526 33 Q526 70 561 70 Q568 70 585 65.5 Q602 61 611 61 Q671 61 721 111 Q767 157 767 224 Q767 292 721 338 Q674 385 610 385 Q542 385 496 336 Q457 298 451 231 L451 217 Q451 69 341 1 Q332 -3 322 -3 Q307 -3 297 8 Q287 19 287 33 Q287 50 304 61 Q374 106 380 206 Q379 216 380 228 Q375 292 330 337 Q283 384 221 384 Q156 384 109 334 Q62 284 62 217 Q62 196 68 174 Q74 152 85 131 Q96 110 111.5 92 Q127 74 147 61 Q162 50 162 33 Q162 18 152 7 Q142 -4 127 -4 Q119 -4 107 1 Q53 39 22 99 Q-9 158 -9 217 Q-9 314 58 384 Q125 454 221 454 Q347 454 414 345 Q429 367 446 386 Q516 455 608 455 Q702 455 769 388 Q837 320 837 224 Q837 127 771 61 Z " />
<glyph glyph-name="uni1001" unicode="&#x1001;" horiz-adv-x="549" d="M441 219 Q441 125 373 57 Q305 -11 211 -11 Q82 -11 12 101 Q-4 132 -4 169 Q-4 185 1 190 Q68 255 147 255 Q183 255 222 241 Q298 213 337 125 Q370 167 370 219 Q370 285 324 330 Q278 376 211 376 Q137 376 87 317 L73 301 L72 303 Q71 303 73 305 Q76 308 76 304 Q65 283 46 283 Q31 283 19 294 Q7 305 7 320 Q7 328 12 336 Q11 337 11 339 L12 340 Q14 342 19 348.5 Q24 355 32 365 Q102 447 211 447 Q309 447 375 381 Q441 315 441 219 Z M278 75 Q258 151 197 174 Q162 185 142 185 Q103 185 66 149 Q66 149 76 135 Q79 131 90 118 Q139 60 211 60 Q240 60 278 75 Z " />
<glyph glyph-name="uni1002" unicode="&#x1002;" horiz-adv-x="549" d="M448 217 Q448 90 367 0 Q356 -11 341 -11 Q327 -11 315.5 0 Q304 11 304 25 Q304 39 315 50 Q377 117 377 217 Q377 290 335 329 Q285 375 218 375 Q155 375 111 334 Q62 289 62 217 Q62 114 126 50 Q136 40 136 25 Q136 10 124.5 -0.5 Q113 -11 99 -11 Q86 -11 73 0 Q-9 89 -9 217 Q-9 239 -3.5 262.5 Q2 286 11 308.5 Q20 331 33 351 Q46 371 61 386 Q125 446 217 446 Q312 446 385 381 Q448 322 448 217 Z " />
<glyph glyph-name="uni1003" unicode="&#x1003;" horiz-adv-x="930" d="M601 -11 Q508 -11 438 59 Q430 69 422 79 Q414 89 407 100 Q339 -11 213 -11 Q138 -11 74 40 Q10 92 -5 159 Q-13 175 -9 205 Q-1 251 21 264 Q35 281 65 291 Q123 315 124 345 Q124 359 102 371 Q87 378 72 377 Q54 375 54 365 Q54 329 19 329 Q-17 329 -17 365 Q-17 398 16 421 Q50 444 89 444 Q117 444 134 434 Q197 401 194 342 Q193 289 142 251 Q137 248 124 242 Q111 236 89 228 Q84 226 79 222.5 Q74 219 70 214 Q58 194 60 183 Q62 172 59 164 Q69 125 116 92 Q163 60 213 60 Q277 60 322 106 Q367 151 372 216 Q370 228 372 237 Q368 336 296 382 Q279 394 279 411 Q279 425 289 436 Q299 447 315 447 Q321 447 333 442 Q443 374 443 226 L443 212 Q449 146 488 109 Q537 60 601 60 Q664 60 711 107 Q758 154 758 220 Q758 286 710 334 Q663 382 603 382 Q594 384 581 380 Q568 376 553 374 Q519 374 519 411 Q519 434 542.5 443.5 Q566 453 601 453 Q691 453 762 382 Q828 316 828 220 Q828 124 760 56 Q693 -11 601 -11 Z " />
<glyph glyph-name="uni1004" unicode="&#x1004;" horiz-adv-x="549" d="M421 339 Q421 337 418 337 L417 337 L417 339 L417 340 Q423 329 423 321 Q423 306 411.5 295 Q400 284 385 284 Q364 284 354 305 Q352 306 354 308 L345 319 Q297 376 221 376 Q153 376 107 330 Q62 285 62 220 Q62 156 109 107 Q158 60 221 60 Q305 60 342 112 Q347 117 352 126 Q361 152 386 152 Q422 152 422 118 Q422 102 401 71 Q343 -11 221 -11 Q127 -11 59 57 Q-9 127 -9 220 Q-9 315 57 381 Q123 447 221 447 Q273 447 327 421 Q372 397 400 366 L411 353 L417 344 L418 342 L421 339 L421 339 Z " />
<glyph glyph-name="uni1005" unicode="&#x1005;" horiz-adv-x="550" d="M448 217 Q448 123 379 56 Q312 -11 218 -11 Q126 -11 59 56 Q-8 123 -8 221 Q-8 318 58 383 Q123 447 220 447 Q317 447 382 379 Q448 311 448 217 Z M331 109 Q377 152 377 217 Q377 282 332 329 Q289 375 223 375 Q199 375 177 369 Q246 310 246 219 Q246 128 175 66 Q194 60 216 60 Q282 60 331 109 Z M175 219 Q175 290 107 331 Q107 329 106 328 L102 321 Q88 296 79 272 Q70 248 68 224 Q60 152 110 105 Q175 149 175 219 Z " />
<glyph glyph-name="uni1006" unicode="&#x1006;" horiz-adv-x="921" d="M820 220 Q820 126 752 58 Q685 -9 590 -9 Q467 -9 398 95 Q328 -11 206 -11 Q99 -11 29 70 Q25 75 20 82.5 Q15 90 9 98 Q-13 133 1 167 Q62 225 132 225 Q164 225 198 215 Q280 193 313 103 Q352 139 363 190 Q362 198 361.5 205 Q361 212 361 220 Q361 228 361.5 235.5 Q362 243 363 251 Q353 305 308 340 Q264 376 206 376 Q130 376 82 319 L70 308 Q72 299 61 291.5 Q50 284 41 284 Q26 284 14 295 Q2 306 2 321 Q2 330 6 337 Q4 339 6 339 L6 340 Q7 341 12 347 Q17 353 27 366 Q53 397 99 421 Q153 447 206 447 Q330 447 398 348 Q466 449 590 449 Q684 449 752 381 Q820 313 820 220 Z M749 220 Q749 283 702 330 Q655 377 590 377 Q530 377 487.5 341.5 Q445 306 434 251 Q437 234 437 220 Q437 205 434 190 Q444 136 489 97 Q532 60 590 60 Q655 60 702 107 Q749 156 749 220 Z M251 66 Q231 129 175 147 Q153 155 134 155 Q101 155 70 134 Q73 130 76.5 126 Q80 122 85 118 Q133 60 206 60 Q228 60 251 66 Z " />
<glyph glyph-name="uni1007" unicode="&#x1007;" horiz-adv-x="531" d="M458 131 Q458 116 447 105.5 Q436 95 421 95 Q406 95 389 115 Q381 129 368 149 Q327 123 261 126 Q217 129 182 162 Q148 195 148 234 Q148 274 182 299 Q217 325 258 325 Q312 325 362 271 Q360 311 335 333 Q285 379 221 379 Q155 379 108 332 Q62 286 62 221 Q62 157 109 107 Q155 59 226 59 Q275 59 304 83 Q317 91 327 91 Q361 91 361 55 Q361 22 304 4 Q264 -9 223 -9 Q123 -9 57 58 Q-9 125 -9 220 Q-9 314 58 381 Q126 449 220 449 Q308 449 382 386 Q396 374 412 337 Q432 294 432 260 Q432 235 417 204 Q458 145 458 131 Z M326 208 Q287 255 255 255 Q226 255 220 235 Q215 220 229.5 208.5 Q244 197 264 196 Q302 194 326 208 Z " />
<glyph glyph-name="uni1008" unicode="&#x1008;" horiz-adv-x="700" d="M601 -213 Q601 -276 560 -320 Q520 -363 458 -363 Q396 -363 353 -322 Q311 -282 311 -218 L311 16 Q278 2 228 2 Q130 2 66 69 Q3 135 1 234 Q0 329 66 394 Q132 459 229 460 Q325 461 390 393 Q454 325 456 228 Q458 126 384 55 L384 -213 Q384 -245 405 -266 Q426 -287 458 -287 Q489 -287 509.5 -266 Q530 -245 530 -213 L530 425 Q530 459 566 461 Q601 463 601 425 L601 -213 Z M386 230 Q387 294 341 341 Q295 387 228 389 Q205 389 186 381 Q253 322 255 231 Q257 144 184 79 Q202 72 225 72 Q289 70 337 118 Q384 164 386 230 Z M184 231 Q186 303 116 344 Q99 329 83 290 Q67 252 67 228 Q66 170 119 118 Q183 161 184 231 Z " />
<glyph glyph-name="uni1009" unicode="&#x1009;" horiz-adv-x="549" d="M434 234 Q435 140 367 70 Q300 3 204 1 Q145 -1 74 40 L74 -208 Q74 -257 90.5 -274.5 Q107 -292 156 -292 L470 -292 Q484 -292 484 -272 Q484 -239 485 -236 Q491 -216 521 -216 Q550 -216 555 -246 Q555 -254 555 -259.5 Q555 -265 556 -269 Q556 -311 533 -337 Q510 -363 470 -363 L156 -363 Q2 -363 2 -208 L2 91 Q2 109 26 121 Q45 130 65 130 Q77 130 84 125 Q125 72 204 72 Q270 72 315 119 Q360 166 362 234 Q364 299 317 344 Q270 389 204 389 Q129 389 81 331 L69 316 Q65 314 64 314 Q64 315 66 317 L67 316 Q68 313 65 309.5 Q62 306 57 302.5 Q52 299 46 297 Q40 295 36 295 Q0 295 0 330 Q0 342 7 353 L7 351 L7 353 L9 351 L6 351 L5 353 L6 354 Q8 358 13 364 Q18 370 26 379 Q95 459 204 460 Q300 461 366 395 Q432 330 434 234 Z " />
<glyph glyph-name="uni100A" unicode="&#x100a;" horiz-adv-x="907" d="M815 -246 Q816 -252 816 -258 Q816 -264 816 -270 Q816 -363 729 -363 L144 -363 Q65 -363 28 -324.5 Q-9 -286 -9 -208 L-9 80 Q-9 96 10.5 107.5 Q30 119 51 119 Q64 119 71 114 Q110 60 192 60 Q253 60 300 105 Q347 152 351 214 Q350 224 351 234 Q347 294 301 335 Q255 376 192 376 Q116 376 68 319 L57 308 Q58 299 47 291.5 Q36 284 27 284 Q12 284 0 295 Q-12 306 -12 321 Q-12 329 -6 337 Q-8 339 -8 340 L-6 340 L-6 339 Q-8 339 -8 340 L-6 341 Q-5 342 13 366 Q82 447 192 447 Q289 447 355 381 Q422 317 422 221 L422 210 Q428 145 466 109 Q514 60 578 60 Q642 60 689 107 Q736 154 736 221 Q736 287 689 334 Q642 381 583 381 Q571 383 558 379 Q545 375 530 373 Q497 373 497 410 Q497 433 520 442 Q543 451 581 451 Q670 451 741 382 Q806 315 806 221 Q806 125 738 57 Q670 -11 578 -11 Q486 -11 416 59 Q407 67 399.5 77.5 Q392 88 385 99 Q316 -11 192 -11 Q118 -11 62 26 L62 -208 Q62 -257 79 -274 Q96 -291 144 -291 L729 -291 Q748 -291 743 -253 Q738 -215 780 -215 Q811 -215 815 -246 Z " />
<glyph glyph-name="uni100B" unicode="&#x100b;" horiz-adv-x="549" d="M386 -343 Q351 -343 351 -307 L351 -214 Q294 -237 222 -234 Q119 -233 31 -178 Q16 -168 16 -148 L16 -22 Q16 18 46 18 Q62 18 77 2 Q132 -57 221 -58 Q278 -60 336 -15 L351 -4 L351 25 Q295 -11 221 -11 Q127 -11 59 57 Q-9 127 -9 220 Q-9 315 57 381 Q123 447 221 447 Q273 447 327 421 Q372 397 400 366 L411 353 L417 344 L418 342 L421 339 Q421 337 418 337 Q423 329 423 321 Q423 306 411.5 295 Q400 284 385 284 Q364 284 354 305 Q352 306 354 308 L345 319 Q297 376 221 376 Q153 376 107 330 Q62 285 62 220 Q62 156 109 107 Q158 60 221 60 Q300 60 345 114 Q355 126 372 126 L386 126 Q422 126 422 91 L422 -22 Q422 -41 407 -51 Q376 -73 355 -87 Q334 -101 321 -107 Q276 -130 220 -128 Q140 -127 87 -97 L87 -128 Q150 -164 223 -165 Q306 -167 335 -142 L363 -120 Q378 -108 392 -108 Q422 -108 422 -148 L422 -272 L486 -272 Q522 -272 522 -309 Q522 -343 486 -343 L386 -343 Z " />
<glyph glyph-name="uni100C" unicode="&#x100c;" horiz-adv-x="549" d="M422 -188 Q422 -266 384.5 -304.5 Q347 -343 266 -343 L85 -343 Q40 -343 13 -300 Q-11 -261 -11 -208 Q-11 -178 -0.5 -153.5 Q10 -129 28 -111.5 Q46 -94 71.5 -84.5 Q97 -75 127 -75 Q187 -75 234 -117 Q245 -128 245 -144 Q245 -157 234 -168.5 Q223 -180 209 -180 Q195 -180 184 -169 Q160 -145 127 -145 Q84 -145 64 -180 Q55 -197 55 -223 Q55 -272 85 -272 L266 -272 Q315 -272 332.5 -254 Q350 -236 350 -188 L350 29 Q292 -11 219 -11 Q126 -11 58 57 Q-9 125 -9 221 Q-9 316 56 381 Q120 447 219 447 Q326 447 397 366 Q401 361 406 354.5 Q411 348 418 340 Q418 339 416 339 Q423 329 423 317 Q423 283 386 283 Q368 283 355 301 Q354 304 355 305 Q357 305 358 304 Q359 302 358 301 Q358 300 357 301 L354 305 L342 319 Q294 376 219 376 Q152 376 106 331 Q61 286 61 221 Q61 157 108 108 Q154 60 219 60 Q295 60 337 110 Q341 119 359 119 Q369 119 380 115.5 Q391 112 400.5 106.5 Q410 101 416 94 Q422 87 422 79 L422 -188 L422 -188 Z " />
<glyph glyph-name="uni100D" unicode="&#x100d;" horiz-adv-x="522" d="M474 -327 Q474 -363 438 -363 L338 -363 Q303 -363 303 -327 L303 -111 Q265 -133 186 -139 Q88 -142 45 -114 L13 -91 Q-9 -76 -9 -59 L-9 91 Q-9 126 26 126 L39 126 Q56 126 67 114 Q112 60 191 60 Q256 60 303 107 Q351 155 351 220 Q351 285 304 330 Q258 376 191 376 Q113 376 67 319 L57 308 Q58 306 57 305 Q46 284 27 284 Q12 284 0 295 Q-12 306 -12 321 Q-12 329 -6 337 Q-7 337 -9 339 L-6 342 L-5 344 Q-4 347 12 366 Q39 397 85 421 Q139 447 191 447 Q289 447 355 381 Q422 315 422 220 Q422 126 353 57 Q283 -11 191 -11 Q110 -11 61 31 L61 -40 Q111 -75 183 -72 Q217 -70 257 -57 Q275 -51 293 -45 Q311 -39 329 -32 Q334 -31 338 -30.5 Q342 -30 347 -30 Q376 -30 376 -66 L376 -293 L438 -291 Q474 -291 474 -327 Z " />
<glyph glyph-name="uni100E" unicode="&#x100e;" horiz-adv-x="549" d="M449 226 Q449 129 380 59 Q311 -11 213 -11 Q140 -11 76 38 Q11 87 -5 152 Q-5 155 -5 158.5 Q-5 162 -6 167 Q-12 201 -3 225 Q8 255 19 263 Q34 279 65 291 Q123 316 126 345 Q126 359 102 373 Q91 380 77 375 Q62 370 62 360 Q62 324 27 324 Q-9 324 -9 360 Q-9 378 -0.5 393.5 Q8 409 22.5 420.5 Q37 432 55 438.5 Q73 445 93 445 Q133 445 165 413 Q197 382 196 342 Q193 288 142 251 Q135 247 122.5 241.5 Q110 236 91 228 Q79 223 73.5 216 Q68 209 61 190 Q59 186 60.5 180.5 Q62 175 61 166 Q72 124 117 92 Q164 60 213 60 Q282 60 330 109 Q378 158 378 226 Q378 331 296 382 Q280 394 280 411 Q280 425 290 436 Q300 447 315 447 Q321 447 333 442 Q360 425 381.5 401.5 Q403 378 418 350 Q433 322 441 290.5 Q449 259 449 226 Z " />
<glyph glyph-name="uni100F" unicode="&#x100f;" horiz-adv-x="1042" d="M901 349 Q940 290 940 220 Q940 95 842 27 Q783 -11 715 -11 Q678 -11 648 -1 Q623 6 623 33 Q623 69 657 69 Q666 69 684.5 64 Q703 59 713 59 Q761 59 801 87 Q868 132 868 219 Q868 269 841 308 Q794 376 715 376 Q662 376 622 345 L598 329 Q589 320 573 295 Q573 289 568 279 Q551 247 551 219 Q551 182 568 146 Q573 138 573 130 L573 101 Q573 57 541 22 Q509 -11 466 -11 Q422 -11 391 22 Q360 56 360 101 L360 131 Q360 140 362 146 Q380 180 380 219 Q380 228 377 238 Q374 248 370.5 258 Q367 268 364 276 Q361 284 361 289 Q357 294 352.5 301.5 Q348 309 342 319 Q338 324 309 344 Q267 374 216 374 Q136 374 91 308 Q63 270 63 220 Q63 139 130 94 Q176 60 226 60 Q235 60 251 64.5 Q267 69 275 69 Q308 69 308 33 Q308 20 301 11.5 Q294 3 282.5 -1.5 Q271 -6 256 -7.5 Q241 -9 226 -9 Q152 -9 88 34 Q-8 100 -8 221 Q-8 290 31 349 Q98 445 217 445 Q290 445 352 404 Q359 399 364 395 Q369 391 372 389 Q403 447 466 447 Q530 447 561 389 L579 402 Q641 446 715 446 Q834 446 901 349 Z M503 121 Q479 164 482 220 Q483 266 503 304 L503 339 Q503 354 492 365.5 Q481 377 466 377 Q451 377 440.5 365.5 Q430 354 430 339 L430 303 Q450 258 450 219 Q450 166 430 124 L430 101 Q430 85 440.5 72 Q451 59 466 59 Q481 59 492 72 Q503 85 503 101 L503 121 Z " />
<glyph glyph-name="uni1010" unicode="&#x1010;" horiz-adv-x="942" d="M773 58 Q698 -17 588 -9 L566 -8 Q562 -8 562 -7 Q562 -6 566 -6 L567 -6 L568 -6 L567 -7 L567 -8 Q554 -8 541 6 Q528 20 528 35 Q528 56 562 63 L565 63 L568 63 Q580 61 593 60 Q671 55 723 107 Q772 155 772 220 Q772 285 724 332 Q677 379 611 379 Q544 379 498 333 Q455 290 448 241 Q458 144 390 66 Q322 -11 222 -11 Q129 -11 59 57 Q-9 127 -9 221 Q-9 317 56 382 Q123 447 222 447 Q348 447 414 340 Q484 449 611 449 Q707 449 773 382 Q842 313 842 220 Q842 127 773 58 Z M378 200 Q376 220 378 243 Q369 300 325 338 Q281 376 222 376 Q153 376 107 332 Q62 288 62 221 Q62 156 109 107 Q158 60 222 60 Q282 60 326 100 Q370 140 378 200 Z " />
<glyph glyph-name="uni1011" unicode="&#x1011;" horiz-adv-x="932" d="M831 220 Q832 125 765 58 Q698 -9 602 -9 Q481 -9 411 94 Q342 -11 218 -11 Q126 -11 58 57 Q-9 125 -9 220 Q-9 316 56 381 Q120 447 218 447 Q341 447 409 345 Q473 447 602 447 Q697 447 763 380 Q830 313 831 220 Z M761 220 Q761 285 714 330 Q668 376 602 376 Q572 376 545.5 366.5 Q519 357 499 339.5 Q479 322 465 298 Q451 274 447 245 Q449 219 447 192 Q458 135 501 98 Q545 60 602 60 Q667 60 714 108 Q761 157 761 220 Z M376 189 Q373 205 373 220 Q373 228 373 235 Q373 242 374 250 Q365 304 320 340 Q276 376 218 376 Q152 376 107 331 Q62 286 62 220 Q62 154 108 107 Q155 60 218 60 Q277 60 320 97 Q366 135 376 189 Z " />
<glyph glyph-name="uni1012" unicode="&#x1012;" horiz-adv-x="550" d="M399 329 Q402 315 402 303 Q402 251 358 216 Q402 178 402 131 Q402 119 399 109 Q375 -8 201 -9 Q54 -12 7 101 Q4 108 4 115 Q4 150 42 150 Q66 150 75 126 Q100 58 201 60 Q318 61 330 123 Q337 165 273 184 Q270 183 266 183 L232 183 Q196 183 196 219 Q196 254 232 254 L266 254 L271 254 L272 254 Q339 264 330 314 Q316 377 201 377 Q87 377 75 315 Q67 286 41 286 Q23 286 12 297.5 Q1 309 4 328 Q28 449 201 447 Q377 445 399 329 Z " />
<glyph glyph-name="uni1013" unicode="&#x1013;" horiz-adv-x="549" d="M449 220 Q449 126 381 58 Q314 -9 218 -9 Q125 -9 57 59 Q-9 126 -9 220 Q-9 316 56 381 Q122 447 218 447 Q314 447 381 380 Q449 314 449 220 Z M378 220 Q378 283 331 330 Q285 376 218 376 Q152 376 107 331 Q62 286 62 220 Q62 185 77 154 Q129 217 217 217 Q307 217 363 152 Q378 185 378 220 Z M317 95 Q279 146 217 146 Q156 146 123 96 L123 95 Q173 60 218 60 Q273 60 317 95 Z " />
<glyph glyph-name="uni1014" unicode="&#x1014;" horiz-adv-x="549" d="M426 145 Q434 75 380 29 Q354 8 298 -2 L298 -327 Q298 -363 263 -363 Q227 -363 227 -327 L227 -11 Q174 -12 117 0 Q48 15 22 47 Q-8 87 -8 132 Q-8 168 13 203 Q45 250 111 250 Q167 250 215 217 Q239 199 262 161 Q284 127 290 106.5 Q296 86 298 67 Q362 85 356 138 Q348 188 302 215 Q284 226 261 230.5 Q238 235 217 239 Q138 258 110 306 Q98 325 98 348 Q98 386 126 414 Q160 447 213 447 Q270 447 302 417 Q333 389 333 370 Q333 339 301 339 Q286 339 275 346 Q268 353 254.5 364.5 Q241 376 213 376 Q190 376 177 363.5 Q164 351 171 342 Q185 321 233 309 Q261 303 289.5 296 Q318 289 341 275 Q415 229 426 145 Z M227 59 Q225 71 221 86 Q203 138 173 158 Q138 181 108 181 Q85 181 73 163 Q65 149 65 132 Q65 112 79 92 Q108 56 227 59 Z " />
<glyph glyph-name="uni1015" unicode="&#x1015;" horiz-adv-x="549" d="M451 225 Q451 128 384 60 Q318 -9 221 -9 Q125 -9 58 60 Q-9 128 -9 225 Q-9 286 22 345 Q53 405 107 442 Q117 449 127 449 Q142 449 152 437.5 Q162 426 162 411 Q162 394 147 382 Q62 327 62 225 Q62 158 108 109 Q154 60 221 60 Q287 60 333 109 Q380 159 380 225 Q380 329 293 382 Q277 394 277 411 Q277 425 287 436 Q297 447 312 447 Q319 447 331 442 Q359 425 381.5 401.5 Q404 378 419.5 349.5 Q435 321 443 289.5 Q451 258 451 225 Z " />
<glyph glyph-name="uni1016" unicode="&#x1016;" horiz-adv-x="549" d="M451 226 Q451 130 384 60 Q318 -9 221 -9 Q125 -9 58 60 Q-9 130 -9 226 Q-9 285 21 345 Q52 405 106 442 Q116 449 126 449 Q141 449 151 437.5 Q161 426 161 411 Q161 394 146 382 Q62 328 62 226 Q62 158 108 109 Q154 60 221 60 Q297 60 345 124 Q259 155 233 241 Q224 271 224 300 Q224 377 287 439 Q297 449 312 449 Q327 449 338 438 Q451 361 451 226 Z M380 226 Q380 309 317 365 Q296 333 296 297 Q296 253 321 224 Q341 200 376 189 Q380 206 380 226 Z " />
<glyph glyph-name="uni1017" unicode="&#x1017;" horiz-adv-x="549" d="M451 226 Q451 130 384 60 Q318 -9 221 -9 Q125 -9 58 60 Q-9 130 -9 226 Q-9 287 17 344 Q46 407 101 442 Q132 461 144 447 Q152 439 156 404 Q167 323 218 325 Q243 325 260.5 345.5 Q278 366 278 391 Q278 395 277 404.5 Q276 414 276 419 Q276 451 304 451 Q318 451 329 444 Q451 373 451 226 Z M380 226 Q380 293 340 342 Q304 257 221 255 Q182 254 147 277.5 Q112 301 96 339 Q62 290 62 226 Q62 158 108 109 Q154 60 221 60 Q287 60 333 109 Q380 159 380 226 Z " />
<glyph glyph-name="uni1018" unicode="&#x1018;" horiz-adv-x="907" d="M741 55 Q670 -13 581 -13 Q543 -13 520 -4 Q497 5 497 27 Q497 65 530 65 Q542 65 555 60.5 Q568 56 583 56 Q643 56 691 105 Q737 150 737 216 Q737 284 689 331 Q642 379 578 379 Q513 379 467 330 Q428 292 423 232 L423 216 Q423 121 357 55 Q291 -11 192 -11 Q138 -11 86 16 Q63 27 45 41 Q27 55 13 71 Q9 76 4 82.5 Q-1 89 -8 99 L-8 100 Q-12 108 -12 116 Q-12 131 0 142.5 Q12 154 27 154 Q47 154 57 132 Q57 131 54 131 L52 132 L52 134 L53 135 L57 131 L68 119 Q118 60 192 60 Q255 60 301 101 Q346 143 352 203 Q350 216 352 230 Q346 289 299 333 Q253 376 192 376 Q106 376 70 325 Q66 322 61 314 Q56 285 27 285 Q-10 285 -10 320 Q-10 334 10 366 Q70 447 192 447 Q316 447 385 340 Q393 351 401 360.5 Q409 370 417 380 Q487 449 578 449 Q670 449 739 380 Q806 313 806 216 Q806 122 741 55 Z " />
<glyph glyph-name="uni1019" unicode="&#x1019;" horiz-adv-x="549" d="M451 226 Q451 130 384 60 Q318 -9 221 -9 Q113 -9 43 76 Q33 83 30 96 Q-9 150 -9 226 Q-9 286 22 345 Q38 375 59.5 399 Q81 423 107 442 Q117 449 127 449 Q142 449 152 437.5 Q162 426 162 411 Q162 394 147 382 Q107 356 84.5 312.5 Q62 269 62 226 Q62 202 70 175 Q129 243 221 243 Q312 243 371 174 Q380 199 380 226 Q380 329 293 382 Q277 394 277 411 Q277 425 287 436 Q297 447 312 447 Q319 447 331 442 Q388 409 419.5 350.5 Q451 292 451 226 Z M332 109 Q288 171 221 171 Q152 171 108 109 Q154 60 221 60 Q284 60 332 109 Z " />
<glyph glyph-name="uni101A" unicode="&#x101a;" horiz-adv-x="939" d="M608 -11 Q516 -11 446 58 Q429 77 414 99 Q346 -9 221 -9 Q125 -9 58 60 Q-9 130 -9 226 Q-9 286 22 345 Q38 375 59.5 399 Q81 423 107 442 Q117 449 127 449 Q142 449 152 437.5 Q162 426 162 411 Q162 394 147 382 Q107 356 84.5 312.5 Q62 269 62 226 Q62 159 109 109 Q155 60 221 60 Q284 60 330 106 Q375 151 380 216 Q378 228 380 237 Q374 337 304 382 Q287 394 287 411 Q287 425 297 436 Q307 447 322 447 Q329 447 341 442 Q451 374 451 226 L451 212 Q457 144 496 107 Q542 59 610 59 Q675 59 721 105 Q767 151 767 220 Q767 286 719 334 Q672 382 611 382 Q588 382 579 378 Q570 374 561 374 Q526 374 526 411 Q526 436 552 445 Q556 446 564 447.5 Q572 449 586 451 Q591 452 597 452.5 Q603 453 610 453 Q698 453 771 382 Q837 316 837 219 Q837 124 769 56 Q702 -11 608 -11 Z " />
<glyph glyph-name="uni101B" unicode="&#x101b;" horiz-adv-x="557" d="M427 -358 Q392 -358 392 -322 L392 200 Q392 288 346 333 Q300 379 236 379 Q182 379 139 345 Q95 310 82 257 Q177 259 225 205 Q279 145 279 70 Q279 55 277 40.5 Q275 26 269.5 14.5 Q264 3 255.5 -4 Q247 -11 235 -11 Q176 -11 147 2 Q118 15 74 59 Q13 121 9 205 Q4 218 8 229 Q12 316 74 381 Q144 449 235 449 Q327 449 395 381 Q463 313 463 200 L463 -287 L515 -287 Q552 -287 552 -323 Q552 -358 515 -358 L427 -358 Z M207 61 Q211 112 171 158 Q143 190 82 186 Q92 134 146 89 Q172 66 207 61 Z " />
<glyph glyph-name="uni101C" unicode="&#x101c;" horiz-adv-x="932" d="M766 381 Q831 314 831 220 Q831 123 764 56 Q697 -11 604 -11 Q547 -11 496 17.5 Q445 46 414 95 Q389 134 380 188 Q376 195 376 205 Q378 285 330 333 Q282 381 218 381 Q155 381 108 334 Q62 288 62 220 Q62 154 107 109 Q155 60 213 60 Q238 60 247.5 65 Q257 70 266 70 Q300 70 300 33 Q300 10 274.5 0.5 Q249 -9 215 -9 Q128 -9 57 59 Q-8 124 -8 220 Q-8 316 59 383 Q127 451 218 451 Q309 451 380 382 Q426 335 442 256 Q448 245 447 235 Q442 158 493 107 Q542 60 604 60 Q669 60 715 106 Q762 153 762 220 Q762 286 715 333 Q668 380 606 380 Q583 380 574.5 375 Q566 370 557 370 Q523 370 523 408 Q523 430 547.5 440 Q572 450 604 450 Q695 450 766 381 Z " />
<glyph glyph-name="uni101D" unicode="&#x101d;" horiz-adv-x="549" d="M448 220 Q449 126 381 58 Q314 -9 218 -9 Q125 -9 58 58 Q-9 125 -9 220 Q-9 316 56 381 Q122 447 218 447 Q313 447 380 380 Q446 315 448 220 Z M378 220 Q378 283 331 330 Q285 376 218 376 Q152 376 107 331 Q62 286 62 220 Q62 154 108 107 Q155 60 218 60 Q284 60 331 107 Q378 156 378 220 Z " />
<glyph glyph-name="uni101E" unicode="&#x101e;" horiz-adv-x="909" d="M742 382 Q807 315 807 220 Q807 124 739 56 Q672 -11 579 -11 Q487 -11 417 58 Q409 66 401.5 76.5 Q394 87 387 98 Q351 50 302 21 Q246 -11 193 -11 Q73 -11 12 74 Q-10 105 -10 118 Q-10 152 27 152 Q57 152 61 124 Q64 122 71 115 Q111 60 193 60 Q257 60 304 108 Q352 156 352 221 Q352 286 306 331 Q259 376 193 376 Q158 376 114 354 Q70 333 57 305 Q46 284 28 284 Q13 284 0.5 295 Q-12 306 -12 321 Q-12 331 -5 341 L-4 341 Q-3 342 -3 340 L-4 341 L-3 340 L-5 337 L-8 337 Q-7 338 -3 344 L14 366 Q83 447 193 447 Q292 447 356 386 Q421 324 420 234 Q420 156 467 107 Q513 59 579 59 Q644 59 690 105 Q737 152 737 220 Q737 287 690 334 Q643 381 583 381 Q560 381 547 376 Q539 373 530 373 Q496 373 496 410 Q496 435 522 444 Q543 451 581 451 Q671 451 742 382 Z " />
<glyph glyph-name="uni101F" unicode="&#x101f;" horiz-adv-x="936" d="M769 59 Q699 -11 608 -11 Q598 -11 588 -10 Q578 -9 568 -7 Q527 1 527 31 Q527 66 562 66 Q570 66 576.5 64.5 Q583 63 595 60 Q600 59 611 59 Q670 59 720 109 Q766 154 766 220 Q766 288 718 335 Q671 382 607 382 Q534 382 487 326 Q455 290 451 236 L451 220 Q451 175 432 129.5 Q413 84 383 55 Q312 -9 216 -9 Q124 -9 57 52 Q-9 113 -9 220 Q-9 349 72 438 Q83 449 98 449 Q112 449 123.5 438.5 Q135 428 135 413 Q135 399 124 388 Q62 323 62 220 Q62 145 107 102 Q153 60 216 60 Q282 60 335 107 Q373 142 380 208 Q378 220 380 235 Q372 324 313 388 Q304 398 304 413 Q304 426 315 437.5 Q326 449 340 449 Q353 449 366 438 Q382 419 396 398 Q410 377 421 354 Q490 454 607 454 Q699 454 767 385 Q835 317 835 220 Q835 125 769 59 Z " />
<glyph glyph-name="uni1020" unicode="&#x1020;" horiz-adv-x="549" d="M448 -22 Q448 -41 433 -51 L405 -72 Q322 -131 220 -128 Q140 -127 87 -95 L87 -208 Q87 -257 104 -274 Q121 -291 170 -291 L362 -291 Q385 -291 377 -259 Q376 -255 369 -259 L367 -260 Q348 -270 340 -270 Q308 -270 308 -235 Q308 -213 327.5 -201.5 Q347 -190 369 -190 Q436 -190 447 -246 Q448 -251 448.5 -257 Q449 -263 449 -268 Q449 -308 424.5 -335.5 Q400 -363 362 -363 L170 -363 Q89 -363 52.5 -324.5 Q16 -286 16 -208 L16 -22 Q16 18 46 18 Q60 18 76 4 Q138 -56 221 -58 Q304 -60 362 -15 L377 -4 L377 45 Q315 -11 221 -11 Q127 -11 59 57 Q-9 127 -9 220 Q-9 315 57 381 Q123 447 221 447 Q273 447 327 421 Q372 397 400 366 L411 353 L417 344 L418 342 L421 339 Q421 337 418 337 Q423 329 423 321 Q423 306 411.5 295 Q400 284 385 284 Q364 284 354 305 Q352 306 354 308 L345 319 Q297 376 221 376 Q153 376 107 330 Q62 285 62 220 Q62 156 109 107 Q158 60 221 60 Q305 60 342 112 Q352 124 373 126 L412 126 Q448 126 448 91 L448 -22 L448 -22 Z " />
<glyph glyph-name="uni1021" unicode="&#x1021;" horiz-adv-x="850" d="M712 355 Q751 296 751 226 Q751 102 653 34 Q589 -9 516 -9 Q481 -9 438 6 Q435 7 432 8 Q429 9 425 11 Q398 27 413 58 Q425 160 525 206 Q553 220 587 220 Q630 220 677 199 Q678 206 678.5 212 Q679 218 679 225 Q679 275 652 314 Q607 380 527 380 Q444 380 398 322 Q393 317 387 304 Q385 248 343 215 Q387 176 387 129 Q387 119 384 109 Q360 -7 184 -9 Q38 -11 -8 101 Q-10 111 -10 115 Q-10 150 27 150 Q50 150 59 126 Q86 58 184 60 Q303 62 315 123 Q319 147 297 165 Q279 180 259 184 Q256 183 251 183 L217 183 Q181 183 181 219 Q181 254 217 254 L255 254 Q277 258 288 266 Q312 280 316 300 Q313 307 315 315 Q297 376 184 376 Q73 376 61 315 Q53 286 27 286 Q9 286 -2 297.5 Q-13 309 -9 328 Q14 447 184 447 Q309 447 360 385 Q371 396 391 410 Q453 451 526 451 Q644 451 712 355 Z M652 132 Q616 149 590 149 Q572 149 554 141 Q503 119 486 65 Q503 60 517 60 Q554 60 592.5 80.5 Q631 101 652 132 Z " />
<glyph glyph-name="uni1023" unicode="&#x1023;" horiz-adv-x="937" d="M838 211 Q838 64 728 -4 Q716 -9 710 -9 Q695 -9 685 2 Q675 13 675 26 Q675 45 691 55 Q767 103 767 211 Q767 279 721 328 Q676 377 608 377 Q548 377 502 334 Q457 290 451 229 Q452 219 452 201.5 Q452 184 452 158 Q452 148 448 131 Q443 101 414 101 Q398 101 386 113 Q374 125 378 144 Q381 159 381 164 Q381 167 381 176 Q381 185 380 200 Q378 206 378 211 Q378 216 378.5 220.5 Q379 225 380 230 Q374 294 329 339 Q284 384 221 384 Q156 384 109 334 Q62 284 62 217 Q62 196 68 174 Q74 152 85 131 Q96 110 111.5 92 Q127 74 147 61 Q162 50 162 33 Q162 18 152 7 Q142 -4 127 -4 Q119 -4 107 1 Q53 39 22 99 Q-9 158 -9 217 Q-9 314 58 384 Q125 454 221 454 Q352 452 417 341 Q487 447 608 447 Q706 447 772 377 Q838 308 838 211 Z M854 -325 Q854 -363 818 -363 L702 -363 Q678 -363 676 -286 L676 -204 Q676 -169 672 -157 Q644 -76 559 -75 Q461 -73 451 -140 L451 -148 Q451 -182 448 -200 Q445 -228 414 -228 Q398 -228 386 -217 Q374 -206 378 -187 Q380 -181 380 -178 L380 -163 Q378 -157 378 -152 Q378 -148 380 -138 Q369 -71 269 -69 Q221 -69 190 -90 Q159 -111 159 -148 Q159 -200 182 -232 Q190 -243 190 -254 Q190 -291 153 -291 Q122 -291 102 -232 Q88 -187 88 -148 Q88 -81 139 -40 Q191 0 269 0 Q367 0 417 -56 Q468 -4 559 -4 Q698 -5 740 -137 Q744 -152 744.5 -192.5 Q745 -233 741 -299 L818 -291 Q854 -288 854 -325 Z " />
<glyph glyph-name="uni1024" unicode="&#x1024;" horiz-adv-x="1112" d="M1012 -327 Q1012 -363 977 -363 Q941 -363 941 -327 L941 337 Q941 415 880 480 Q850 506 820 532 Q790 558 760 584 Q721 618 711.5 646 Q702 674 702 701 Q702 758 744 805 Q785 846 852 846 Q960 846 1001 760 Q1005 753 1005 744 Q1005 729 993.5 719 Q982 709 967 709 Q946 709 936 730 Q913 777 854 777 Q818 777 795.5 754 Q773 731 773 700 Q773 652 827 603 Q858 574 888 545.5 Q918 517 949 489 Q1012 417 1012 337 L1012 -327 Z M837 -249 Q837 -297 820 -325 Q794 -363 736 -363 L90 -363 Q55 -363 27 -326 Q-1 -289 -1 -243 Q-1 -236 -0.5 -229.5 Q0 -223 1 -217 Q28 -94 221 -94 Q392 -94 551 -141 Q577 -149 577 -173 Q577 -209 542 -209 Q534 -209 531 -208 Q385 -166 221 -166 Q86 -166 71 -231 Q67 -253 71 -271 Q77 -291 90 -291 L736 -291 Q755 -291 760.5 -283 Q766 -275 766 -249 L766 228 Q766 294 720 339 Q675 385 610 385 Q542 385 496 336 Q457 298 451 231 L451 217 Q451 69 341 1 Q332 -3 322 -3 Q307 -3 297 8 Q287 19 287 33 Q287 50 304 61 Q374 106 380 206 Q379 216 380 228 Q375 292 330 337 Q283 384 221 384 Q156 384 109 334 Q62 284 62 217 Q62 196 68 174 Q74 152 85 131 Q96 110 111.5 92 Q127 74 147 61 Q162 50 162 33 Q162 18 152 7 Q142 -4 127 -4 Q119 -4 107 1 Q53 39 22 99 Q-9 158 -9 217 Q-9 314 58 384 Q125 454 221 454 Q347 454 414 345 Q429 367 446 386 Q516 455 608 455 Q701 455 769 387 Q837 319 837 228 L837 -249 Z " />
<glyph glyph-name="uni1025" unicode="&#x1025;" horiz-adv-x="549" d="M422 221 Q422 128 354 58 Q286 -11 192 -11 Q121 -11 62 27 L62 -208 Q62 -257 79 -274 Q96 -291 144 -291 L336 -291 Q355 -291 350 -253 Q345 -215 387 -215 Q417 -215 421 -246 Q422 -251 422 -257 Q422 -263 422 -268 Q422 -313 398 -338 Q374 -363 336 -363 L144 -363 Q65 -363 28 -324.5 Q-9 -286 -9 -208 L-9 79 Q-9 95 11.5 106.5 Q32 118 53 118 Q66 118 72 112 Q112 60 192 60 Q256 60 303 108 Q351 156 351 221 Q351 286 305 331 Q258 376 192 376 Q116 376 70 319 L57 304 Q53 300 52 301 Q52 303 54 305 Q56 307 56 304 Q58 297 45 290 Q32 283 25 283 Q10 283 -1 293.5 Q-12 304 -12 317 Q-12 329 -4 340 L-4 339 Q-4 340 -3 339 L-4 339 L-5 339 L-6 340 L-5 341 Q-3 345 2 351 Q7 357 14 366 Q84 447 192 447 Q291 447 356 381 Q422 316 422 221 Z " />
<glyph glyph-name="uni1026" unicode="&#x1026;" horiz-adv-x="549" d="M422 221 Q422 128 354 58 Q286 -11 192 -11 Q121 -11 62 27 L62 -208 Q62 -257 79 -274 Q96 -291 144 -291 L336 -291 Q355 -291 350 -253 Q345 -215 387 -215 Q417 -215 421 -246 Q422 -251 422 -257 Q422 -263 422 -268 Q422 -313 398 -338 Q374 -363 336 -363 L144 -363 Q65 -363 28 -324.5 Q-9 -286 -9 -208 L-9 79 Q-9 95 11.5 106.5 Q32 118 53 118 Q66 118 72 112 Q112 60 192 60 Q256 60 303 108 Q351 156 351 221 Q351 286 305 331 Q258 376 192 376 Q116 376 70 319 L57 304 Q53 300 52 301 Q52 303 54 305 Q56 307 56 304 Q58 297 45 290 Q32 283 25 283 Q10 283 -1 293.5 Q-12 304 -12 317 Q-12 329 -4 340 L-4 339 Q-4 340 -3 339 L-4 339 L-5 339 L-6 340 L-5 341 Q-3 345 2 351 Q7 357 14 366 Q84 447 192 447 Q291 447 356 381 Q422 316 422 221 Z M381 661 Q381 587 328 532 Q276 480 197 478 Q122 476 68 530 Q64 533 61.5 536.5 Q59 540 57 544 Q14 594 14 661 Q14 740 66 793 Q118 848 197 848 Q273 848 327 792 Q381 736 381 661 Z M309 661 Q309 707 276 742 Q243 776 197 776 Q173 776 153 767 Q133 758 118 742.5 Q103 727 94.5 706 Q86 685 86 661 Q86 643 92 625 Q131 664 191 666 Q251 667 302 620 Q309 638 309 661 Z M256 565 Q228 596 193 596 Q157 596 135 566 Q163 547 196 547 Q227 547 256 565 Z " />
<glyph glyph-name="uni1027" unicode="&#x1027;" horiz-adv-x="531" d="M432 299 Q432 275 412 266 Q367 224 313 215 Q369 204 420 155 Q427 149 427 132 Q427 112 411 87 Q406 81 401 74.5 Q396 68 389 61 Q319 -12 212 -9 Q170 -7 130 7 Q106 9 98 24 Q72 37 51.5 58 Q31 79 17 104.5 Q3 130 -4 160 Q-11 190 -9 221 Q-3 353 106 416 Q113 423 118 424 Q163 449 224 447 Q321 445 377 385 Q384 377 395 364 Q406 351 421 334 Q426 327 425 326 Q427 324 429.5 314 Q432 304 432 299 Z M347 310 Q315 349 296 360 Q267 377 224 377 Q197 377 170 369 Q186 310 242 291 Q262 284 282 284 Q319 284 351 306 L347 310 Z M255 215 Q237 216 219 224 Q135 254 108 329 Q66 285 61 219 Q57 152 108 104 Q148 198 255 215 Z M349 123 Q318 145 282 145 Q266 145 246 140 Q190 123 171 66 Q192 60 213 60 Q289 59 336 109 Q342 113 349 123 Z " />
<glyph glyph-name="uni1029" unicode="&#x1029;" horiz-adv-x="1029" d="M856 -166 Q856 -249 798 -304 Q739 -361 658 -361 L187 -361 Q102 -361 46 -302 Q-9 -244 -9 -160 L-9 652 Q-9 736 45 792 Q99 848 186 848 L772 848 Q842 848 887 791 Q889 789 878 760 Q867 731 863 730 Q829 776 772 776 L186 776 Q129 776 95.5 742.5 Q62 709 62 652 L62 -160 Q62 -187 71.5 -211 Q81 -235 97.5 -252.5 Q114 -270 137 -280 Q160 -290 187 -290 L658 -290 Q720 -290 752 -249 Q784 -208 784 -166 L783 6 Q751 -3 731 -3 Q639 -3 568 65 Q551 84 538 105 Q459 -1 345 -3 Q227 -4 163 81 Q141 110 141 125 Q141 158 179 160 Q207 160 212 131 Q216 129 222 123 Q261 68 345 67 Q408 66 455 114 Q502 164 503 229 Q505 294 458 339 Q411 384 345 384 Q311 384 268 362 Q221 339 208 313 Q199 293 179 291 Q144 291 139 329 Q139 334 150 353 L166 374 Q230 453 345 455 Q441 455 506 395 Q571 335 571 241 Q571 166 614 117 Q657 67 731 66 Q798 65 842 112 Q886 159 888 228 Q889 292 843 340 Q797 387 735 389 Q715 389 698 384 Q691 380 682 380 Q648 380 647 417 Q645 459 732 459 Q827 459 892 391 Q957 323 958 228 Q960 131 891 64 Q875 47 856 34 L856 -166 L856 -166 Z " />
<glyph glyph-name="uni102A" unicode="&#x102a;" horiz-adv-x="1948" d="M1054 58 Q1036 75 1023 98 Q941 -10 829 -11 Q712 -12 650 74 Q627 106 626 118 Q626 150 664 152 Q690 154 697 124 Q698 123 700.5 121 Q703 119 707 115 Q746 62 829 60 Q893 59 940 107 Q986 155 988 221 Q989 285 942 331 Q895 376 829 376 Q796 376 753 355 Q706 332 693 305 Q686 283 664 283 Q626 283 626 321 Q626 333 632 341 Q633 341 633 340 L632 337 L631 337 L630 337 Q631 338 633 344 L652 366 Q719 445 829 447 Q926 449 990 389 Q1056 329 1056 234 Q1056 159 1099 110 Q1142 61 1217 59 Q1283 58 1328 106 Q1372 153 1374 220 Q1376 285 1329 333 Q1282 381 1219 381 Q1208 381 1192 377 Q1176 373 1168 373 Q1134 373 1133 410 Q1132 450 1217 451 Q1313 453 1377 384 Q1441 317 1443 220 Q1445 125 1377 56 Q1354 44 1354 33 L1354 -166 Q1354 -249 1296 -304 Q1237 -361 1157 -361 L686 -361 Q600 -361 544 -302 Q489 -244 489 -160 L489 652 Q489 736 543 792 Q599 848 684 848 L1271 848 Q1342 848 1387 791 Q1387 786 1376 758 Q1366 731 1362 730 Q1329 776 1271 776 L684 776 Q627 776 594 742.5 Q561 709 561 652 L561 -160 Q561 -187 570.5 -211 Q580 -235 596.5 -252.5 Q613 -270 636 -280 Q659 -290 686 -290 L1157 -290 Q1218 -290 1253 -248 Q1283 -211 1283 -166 L1283 0 Q1251 -9 1216 -9 Q1123 -11 1054 58 Z M422 331 Q429 321 429 308 Q429 272 393 271 Q387 271 373 279 Q364 285 361 294 Q322 340 304 354 Q274 375 224 377 Q157 378 111 332 Q65 285 61 219 Q56 153 108 104 Q143 185 227 209 Q259 217 284 217 Q358 219 420 155 Q427 151 427 132 Q427 112 411 87 Q403 75 389 61 Q319 -11 212 -9 Q166 -9 130 7 Q107 7 98 24 Q44 51 16 104.5 Q-12 158 -9 221 Q-4 319 61 383 Q126 447 224 447 Q318 447 377 385 Q380 382 386 374.5 Q392 367 402 356 L418 335 L420 335 L421 333 L422 331 Z M349 123 Q318 145 282 145 Q196 145 171 66 Q192 60 213 60 Q286 59 336 109 L349 123 Z M1857 350 Q1894 294 1896 221 Q1897 100 1797 31 Q1736 -10 1659 -12 Q1609 -13 1573 10 Q1562 21 1559 38 Q1559 72 1596 76 Q1606 76 1617 67 Q1619 67 1629 63.5 Q1639 60 1661 58 Q1720 58 1775 105 Q1824 148 1824 221 Q1824 268 1797 309 Q1752 374 1673 375 Q1624 376 1579 345 Q1568 337 1554.5 323.5 Q1541 310 1526 290 Q1497 254 1486 225 Q1472 190 1446 195 Q1414 201 1413 231 Q1412 250 1468 334 Q1544 446 1671 446 Q1789 446 1857 350 Z M1804 725 Q1809 690 1772 688 Q1738 685 1735 720 Q1735 744 1702 761 Q1677 774 1647 776 Q1617 777 1595 757 Q1573 737 1570 714 Q1561 665 1617 612 Q1622 608 1647.5 593 Q1673 578 1721 550 Q1738 539 1741 520 Q1741 482 1706 482 Q1694 482 1630 519 Q1607 532 1591.5 541.5 Q1576 551 1568 559 Q1497 624 1497 699 Q1497 761 1541 803 Q1584 846 1647 848 Q1700 849 1750 813 Q1800 777 1804 725 Z " />
<glyph glyph-name="uni102B" unicode="&#x102b;" horiz-adv-x="202" d="M113 25 Q113 -11 78 -11 Q42 -11 42 25 L42 708 Q42 723 34.5 735.5 Q27 748 14.5 757 Q2 766 -14 771.5 Q-30 777 -47 777 Q-78 777 -107 757 Q-136 737 -136 709 Q-136 672 -172 672 Q-203 672 -205 689 Q-206 698 -206 702.5 Q-206 707 -206 708 Q-206 764 -155 805 Q-103 848 -45 848 Q13 848 63 807 Q113 766 113 708 L113 25 L113 25 Z " />
<glyph glyph-name="uni102C" unicode="&#x102c;" horiz-adv-x="419" d="M317 350 Q355 291 355 221 Q355 98 258 31 Q193 -12 119 -12 Q90 -12 66.5 -5 Q43 2 33 10 Q19 21 19 38 Q19 53 30 64.5 Q41 76 56 76 Q66 76 77 67 Q78 66 88 63 Q105 58 121 58 Q169 58 217 91 Q284 136 284 221 Q284 270 257 309 Q212 375 133 375 Q81 375 39 345 Q28 337 14.5 323.5 Q1 310 -14 290 Q-43 254 -54 225 Q-68 189 -94 195 Q-127 201 -127 231 Q-127 246 -120 257 Q-113 270 -100.5 289 Q-88 308 -71 334 Q-55 357 -38 374.5 Q-21 392 -3 405 Q59 446 130 446 Q249 446 317 350 Z " />
<glyph glyph-name="uni102D" unicode="&#x102d;" horiz-adv-x="2" d="M-132 661 Q-132 587 -185 532 Q-239 480 -316 478 Q-394 476 -446 531 Q-499 587 -499 661 Q-499 738 -446 793 Q-394 848 -316 848 Q-240 848 -186 792 Q-132 736 -132 661 Z M-204 661 Q-204 707 -237 742 Q-270 776 -316 776 Q-340 776 -360.5 767 Q-381 758 -395.5 742.5 Q-410 727 -418.5 706 Q-427 685 -427 661 Q-427 615 -394 581 Q-363 547 -316 547 Q-270 547 -237 581 Q-204 615 -204 661 Z " />
<glyph glyph-name="uni102E" unicode="&#x102e;" horiz-adv-x="2" d="M-132 661 Q-132 587 -185 532 Q-239 480 -316 478 Q-391 476 -445 530 Q-453 536 -456 544 Q-499 594 -499 661 Q-499 738 -446 793 Q-394 848 -316 848 Q-240 848 -186 792 Q-132 736 -132 661 Z M-204 661 Q-204 707 -237 742 Q-270 776 -316 776 Q-340 776 -360.5 767 Q-381 758 -395.5 742.5 Q-410 727 -418.5 706 Q-427 685 -427 661 Q-427 643 -421 625 Q-382 664 -322 666 Q-262 667 -211 620 Q-204 638 -204 661 Z M-257 565 Q-285 596 -320 596 Q-355 596 -377 566 Q-351 547 -317 547 Q-286 547 -257 565 Z " />
<glyph glyph-name="uni102F" unicode="&#x102f;" horiz-adv-x="1" d="M-311 -363 Q-347 -363 -347 -327 L-347 -48 Q-347 -12 -311 -12 Q-275 -12 -275 -48 L-275 -291 L-205 -291 Q-169 -291 -169 -328 Q-169 -363 -205 -363 L-311 -363 Z " />
<glyph glyph-name="uni1030" unicode="&#x1030;" horiz-adv-x="1" d="M-258 -363 Q-294 -363 -294 -327 L-294 -50 Q-294 -14 -258 -14 Q-222 -14 -222 -50 L-222 -291 L-152 -291 Q-116 -291 -116 -328 Q-116 -363 -152 -363 L-258 -363 Z M-347 -327 Q-347 -363 -383 -363 Q-419 -363 -419 -327 L-419 -50 Q-419 -14 -383 -14 Q-347 -14 -347 -50 L-347 -327 Z " />
<glyph glyph-name="uni1031" unicode="&#x1031;" horiz-adv-x="475" d="M422 331 Q429 321 429 308 Q429 271 393 271 Q384 271 373.5 278.5 Q363 286 361 294 Q317 345 304 354 Q275 377 224 377 Q157 377 111 331 Q66 287 61 219 Q57 152 108 104 Q143 185 227 209 Q259 217 284 217 Q358 217 420 155 Q427 149 427 132 Q427 112 411 87 Q406 81 401 74.5 Q396 68 389 61 Q319 -12 212 -9 Q170 -7 130 7 Q106 9 98 24 Q72 37 51.5 58 Q31 79 17 104.5 Q3 130 -4 160 Q-11 190 -9 221 Q-4 318 61 383 Q128 449 224 447 Q321 445 377 385 Q380 382 386 374.5 Q392 367 402 356 L418 335 L420 335 L421 333 L422 331 Z M349 123 Q318 145 282 145 Q266 145 246 140 Q190 123 171 66 Q192 60 213 60 Q289 59 336 109 Q342 113 349 123 Z " />
<glyph glyph-name="uni1032" unicode="&#x1032;" horiz-adv-x="1" d="M-195 566 Q-181 555 -181 539 Q-181 524 -192.5 512.5 Q-204 501 -218 501 Q-229 501 -240 509 L-459 678 Q-473 689 -473 705 Q-473 720 -461.5 731.5 Q-450 743 -436 743 Q-425 743 -414 735 L-195 566 L-195 566 Z " />
<glyph glyph-name="uni1036" unicode="&#x1036;" horiz-adv-x="1" d="M-237 617 Q-237 600 -244 584.5 Q-251 569 -262.5 557 Q-274 545 -289.5 537.5 Q-305 530 -322 530 Q-339 530 -354 537.5 Q-369 545 -380.5 558 Q-392 571 -399 587.5 Q-406 604 -406 622 Q-406 657 -382.5 678.5 Q-359 700 -322 700 Q-304 700 -288.5 693.5 Q-273 687 -261.5 675.5 Q-250 664 -243.5 649 Q-237 634 -237 617 Z M-298 617 Q-298 639 -322 639 Q-343 639 -343 624 Q-343 592 -322 592 Q-298 592 -298 617 Z " />
<glyph glyph-name="uni1037" unicode="&#x1037;" horiz-adv-x="1" d="M-194 -165 Q-194 -199 -219 -225 Q-245 -252 -279 -252 Q-296 -252 -311 -244.5 Q-326 -237 -337.5 -224 Q-349 -211 -356 -194.5 Q-363 -178 -363 -160 Q-363 -125 -339.5 -103.5 Q-316 -82 -279 -82 Q-261 -82 -245.5 -88.5 Q-230 -95 -218.5 -106.5 Q-207 -118 -200.5 -133 Q-194 -148 -194 -165 Z M-255 -165 Q-255 -143 -279 -143 Q-300 -143 -300 -158 Q-300 -189 -279 -189 Q-255 -189 -255 -165 Z " />
<glyph glyph-name="uni1038" unicode="&#x1038;" horiz-adv-x="317" d="M175 80 Q175 63 168 47.5 Q161 32 149.5 20 Q138 8 122.5 0.5 Q107 -7 90 -7 Q73 -7 58 0.5 Q43 8 31.5 20.5 Q20 33 13 49.5 Q6 66 6 84 Q6 120 29 141 Q52 162 90 162 Q108 162 123.5 155.5 Q139 149 150.5 137.5 Q162 126 168.5 111 Q175 96 175 80 Z M113 80 Q113 101 90 101 Q69 101 69 86 Q69 55 90 55 Q113 55 113 80 Z M175 356 Q175 324 149 296 Q123 269 90 269 Q73 269 58 276.5 Q43 284 31.5 297 Q20 310 13 326.5 Q6 343 6 361 Q6 396 29 417.5 Q52 439 90 439 Q108 439 123.5 432.5 Q139 426 150.5 414.5 Q162 403 168.5 388 Q175 373 175 356 Z M113 356 Q113 378 90 378 Q69 378 69 363 Q69 332 90 332 Q113 332 113 356 Z " />
<glyph glyph-name="uni1039" unicode="&#x1039;" d="M-267 -219 L-267 -292 L-316 -292 L-316 -219 L-390 -219 L-390 -170 L-316 -170 L-316 -97 L-267 -97 L-267 -170 L-194 -170 L-194 -219 L-267 -219 Z " />
<glyph glyph-name="uni103A" unicode="&#x103a;" horiz-adv-x="1" d="M-138 725 Q-135 690 -171 688 Q-205 685 -208 720 Q-209 743 -235.5 759.5 Q-262 776 -296 776 Q-328 776 -348.5 757.5 Q-369 739 -373 714 Q-382 663 -325 612 Q-320 607 -295 591.5 Q-270 576 -222 550 Q-202 539 -202 520 Q-202 482 -237 482 Q-249 482 -313 519 Q-333 530 -348.5 540 Q-364 550 -374 559 Q-446 623 -446 699 Q-446 760 -402 804 Q-358 848 -296 848 Q-235 848 -188 809 Q-143 772 -138 725 Z " />
<glyph glyph-name="uni103B" unicode="&#x103b;" horiz-adv-x="142" d="M42 -332 Q42 -369 12 -369 Q7 -369 -3 -367 L-220 -308 Q-247 -301 -247 -273 L-247 17 Q-247 54 -211 54 Q-175 54 -175 17 L-175 -245 L-29 -285 L-29 413 Q-29 449 7 449 Q42 449 42 413 L42 -332 L42 -332 Z " />
<glyph glyph-name="uni103C" unicode="&#x103c;" horiz-adv-x="161" d="M592 -163 Q592 -244 541 -299 Q483 -363 389 -363 L188 -363 Q138 -363 107 -348 Q81 -336 50 -305 Q-9 -246 -9 -159 L-9 643 Q-9 736 39 789 Q96 848 186 848 L409 848 Q505 848 565 765 Q592 726 592 689 L592 675 Q592 639 557 639 Q521 639 521 675 L521 689 Q521 704 507 723 Q466 776 409 776 L186 776 Q126 776 92 739 Q62 706 62 643 L62 -159 Q62 -189 71.5 -213.5 Q81 -238 98 -255 Q115 -272 138 -281.5 Q161 -291 188 -291 L389 -291 Q452 -291 487 -250 Q521 -213 521 -163 L521 -84 Q521 -48 557 -48 Q592 -48 592 -84 L592 -163 L592 -163 Z " />
<glyph glyph-name="uni103D" unicode="&#x103d;" horiz-adv-x="2" d="M-146 -192 Q-146 -266 -197 -318 Q-250 -371 -325 -372 Q-397 -372 -450 -319 Q-503 -266 -503 -192 Q-503 -116 -451 -64 Q-399 -12 -325 -12 Q-251 -12 -198 -65 Q-146 -117 -146 -192 Z M-215 -192 Q-215 -149 -247 -114 Q-279 -81 -325 -81 Q-348 -81 -367.5 -89.5 Q-387 -98 -401.5 -113 Q-416 -128 -424.5 -148 Q-433 -168 -433 -192 Q-433 -215 -424.5 -235 Q-416 -255 -401.5 -270 Q-387 -285 -367.5 -294 Q-348 -303 -325 -303 Q-279 -303 -247 -270 Q-215 -236 -215 -192 Z " />
<glyph glyph-name="uni103E" unicode="&#x103e;" horiz-adv-x="1" d="M-272 -327 Q-272 -363 -308 -363 L-414 -363 Q-451 -363 -451 -328 Q-451 -291 -414 -291 L-343 -291 L-343 -50 Q-343 -14 -308 -14 Q-272 -14 -272 -50 L-272 -327 L-272 -327 Z " />
<glyph glyph-name="uni103F" unicode="&#x103f;" horiz-adv-x="1292" d="M1127 385 Q1192 318 1192 223 Q1192 127 1124 59 Q1057 -8 965 -8 Q873 -8 802 60 Q786 78 772 100 Q759 76 741 56 Q673 -11 579 -11 Q487 -11 417 58 Q407 68 399 78 Q391 88 384 98 Q320 -11 193 -11 Q73 -11 12 74 Q-10 105 -10 118 Q-10 152 27 152 Q57 152 61 124 Q64 122 71 115 Q111 60 193 60 Q257 60 304 108 Q352 156 352 221 Q352 286 306 331 Q259 376 193 376 Q158 376 114 354 Q70 333 57 305 Q46 284 28 284 Q13 284 0.5 295 Q-12 306 -12 321 Q-12 331 -5 341 L-4 341 Q-3 342 -3 340 L-4 341 L-3 340 L-5 337 L-8 337 Q-7 338 -3 344 L14 366 Q83 447 193 447 Q290 447 358 381 Q425 317 423 221 Q423 151 467 107 Q513 59 579 59 Q644 59 690 105 Q737 152 737 220 Q737 287 690 334 Q643 381 583 381 Q560 381 547 376 Q539 373 530 373 Q496 373 496 410 Q496 435 522 444 Q543 451 581 451 Q671 451 742 382 Q801 321 807 239 Q804 156 852 108 Q901 61 965 61 Q1029 61 1076 108 Q1122 154 1122 223 Q1122 291 1076 337 Q1029 384 968 384 Q947 384 932 379 Q925 375 916 375 Q881 375 881 413 Q881 438 907 446 Q931 454 966 454 Q1056 454 1127 385 Z " />
<glyph glyph-name="uni1040" unicode="&#x1040;" horiz-adv-x="576" d="M267 73 Q318 81 355 121 Q400 167 401 231 Q403 294 354 341 Q332 364 267 384 L267 458 Q343 450 403 391 Q469 325 471 231 Q473 137 406 70 Q344 8 267 1 L267 73 Z M205 73 L205 3 Q126 10 69 69 Q0 138 1 231 Q3 325 69 391 Q130 451 205 458 L205 383 Q141 363 119 341 Q69 294 71 231 Q72 167 117 121 Q155 80 205 73 Z " />
<glyph glyph-name="uni1041" unicode="&#x1041;" horiz-adv-x="522" d="M422 220 Q422 127 354 57 Q286 -11 192 -11 Q65 -11 1 86 Q-10 103 -10 118 Q-10 152 26 152 Q51 152 59 126 Q60 124 68 114 Q107 60 192 60 Q256 60 303 108 Q351 156 351 220 Q351 286 305 331 Q259 377 192 377 Q112 377 67 320 Q65 318 62.5 315 Q60 312 57 308 L57 305 Q46 284 27 284 Q12 284 0 295 Q-12 306 -12 321 Q-12 330 -6 339 Q-8 339 -8 341 Q-6 343 -6 344 L-4 345 Q-1 350 3 355 Q7 360 12 366 Q83 449 192 449 Q289 449 355 382 Q422 316 422 220 Z " />
<glyph glyph-name="uni1042" unicode="&#x1042;" horiz-adv-x="458" d="M335 -158 Q335 -259 269 -314 Q216 -362 152 -362 Q92 -362 31 -320 Q-34 -274 -33 -220 Q-32 -187 0 -187 Q36 -187 36 -223 Q36 -251 78 -273 Q115 -291 150 -291 Q192 -291 224 -259 Q264 -222 264 -158 L264 413 Q264 449 300 449 Q335 449 335 413 L335 -158 L335 -158 Z " />
<glyph glyph-name="uni1043" unicode="&#x1043;" horiz-adv-x="522" d="M422 220 Q422 127 354 57 Q286 -11 192 -11 Q154 -11 121 -1 L316 -312 Q322 -323 322 -332 Q322 -347 311 -357 Q300 -367 284 -367 Q266 -367 256 -352 L-5 59 Q-8 63 -8 69 Q-8 84 15 99 Q38 115 58 115 Q66 115 70 111 Q110 60 192 60 Q256 60 303 108 Q351 156 351 220 Q351 286 305 331 Q259 377 192 377 Q112 377 67 320 Q65 318 62.5 315 Q60 312 57 308 L57 305 Q46 284 27 284 Q12 284 0 295 Q-12 306 -12 321 Q-12 330 -6 339 Q-8 339 -8 341 Q-6 343 -6 344 L-4 345 Q-1 350 3 355 Q7 360 12 366 Q83 449 192 449 Q289 449 355 382 Q422 316 422 220 Z " />
<glyph glyph-name="uni1044" unicode="&#x1044;" horiz-adv-x="522" d="M420 341 Q420 339 418 339 Q423 329 423 321 Q423 306 411.5 295 Q400 284 385 284 Q364 284 354 305 L354 308 Q352 309 345 320 Q300 377 220 377 Q153 377 107 331 Q62 286 62 220 Q62 156 109 107 Q156 60 220 60 Q301 60 340 110 Q343 115 353 115 Q373 115 395 99 Q418 84 418 69 Q418 65 416 59 L156 -352 Q144 -367 127 -367 Q112 -367 101 -357 Q90 -347 90 -332 Q90 -323 96 -312 L289 -1 Q258 -11 220 -11 Q127 -11 59 57 Q-9 127 -9 220 Q-9 315 56 382 Q122 449 220 449 Q328 449 400 366 Q405 360 408.5 355 Q412 350 416 345 L418 344 Q418 343 420 341 Z " />
<glyph glyph-name="uni1045" unicode="&#x1045;" horiz-adv-x="549" d="M449 -138 Q449 -231 381 -299 Q313 -368 219 -368 Q125 -368 58 -301 Q-9 -235 -9 -138 Q-9 -102 27 -102 Q62 -102 62 -138 Q62 -204 108 -250 Q154 -296 219 -296 Q283 -296 330 -249 Q378 -203 378 -138 L378 219 Q378 282 330 329 Q283 376 219 376 Q153 376 106 329 Q148 326 178 296 Q208 266 208 220 Q208 197 199.5 177 Q191 157 176 142.5 Q161 128 141 119.5 Q121 111 99 111 Q55 111 21 143 Q-12 176 -12 220 Q-12 235 -8 246 Q2 333 67 390 Q131 447 219 447 Q314 447 381 380 Q449 312 449 219 L449 -138 Z M138 220 Q138 259 99 259 Q61 259 61 220 Q61 181 99 181 Q138 181 138 220 Z M59 228 L59 221 L59 217 L59 228 Z " />
<glyph glyph-name="uni1046" unicode="&#x1046;" horiz-adv-x="549" d="M449 214 Q449 120 381 52 Q313 -16 220 -16 Q126 -16 58 52 Q-9 119 -9 214 L-9 585 Q-9 679 58 746 Q126 814 220 814 Q314 814 382 748 Q449 682 449 585 Q449 549 414 549 Q378 549 378 585 Q378 652 331 697 Q285 743 220 743 Q156 743 109 696 Q62 649 62 585 L62 214 Q62 151 109 102 Q156 55 220 55 Q277 55 322 94 Q367 133 376 189 L266 228 Q264 229 263 229 Q262 229 261 230 Q226 234 202 259 Q171 290 171 336 Q171 360 179.5 380 Q188 400 203 414.5 Q218 429 237.5 437 Q257 445 280 445 Q324 445 357 412 Q391 381 391 336 Q391 300 365 269 L425 248 Q449 239 449 214 Z M318 336 Q318 375 280 375 Q241 375 241 336 Q241 298 280 298 Q318 298 318 336 Z " />
<glyph glyph-name="uni1047" unicode="&#x1047;" horiz-adv-x="542" d="M429 127 Q409 90 390 53 Q371 16 352 -21 Q309 -106 309 -202 Q309 -220 312 -236 Q316 -281 356 -289 Q386 -295 386 -323 Q386 -339 374 -350 Q362 -361 343 -359 Q310 -355 281 -324 Q248 -291 242 -245 Q241 -234 240.5 -224 Q240 -214 240 -203 Q240 -102 282 -7 L363 155 Q378 189 378 223 Q378 284 335 328 Q287 377 216 377 Q157 377 111 336 Q62 294 62 223 Q62 190 74 159 Q77 151 77 145 Q77 110 39 110 Q16 110 7 134 Q-9 173 -9 219 Q-9 321 63 389 Q130 449 217 449 Q318 449 387 377 Q449 309 449 225 Q449 178 429 127 Z " />
<glyph glyph-name="uni1048" unicode="&#x1048;" horiz-adv-x="549" d="M451 211 Q451 153 419 92 Q388 34 333 -4 Q323 -11 313 -11 Q298 -11 288 0 Q278 11 278 26 Q278 44 293 55 Q313 68 329 86 Q345 104 356.5 125 Q368 146 374 168 Q380 190 380 211 Q380 277 332 327 Q284 377 220 377 Q142 377 96 313 Q182 280 207 195 Q222 145 222 96 Q222 59 212 36 Q191 -13 142 -13 Q124 -13 108 -4 Q81 12 59.5 35.5 Q38 59 22.5 87 Q7 115 -1 146.5 Q-9 178 -9 211 Q-9 307 56 377 Q122 447 220 447 Q316 447 383 377 Q451 307 451 211 Z M157 91 Q152 131 139 175 Q122 229 66 248 Q62 232 62 211 Q62 166 87 123 Q100 101 114.5 84 Q129 67 146 56 Q156 49 157 67 Q158 76 157 91 Z " />
<glyph glyph-name="uni1049" unicode="&#x1049;" horiz-adv-x="549" d="M449 -138 Q449 -235 382 -301 Q315 -368 220 -368 Q125 -368 58 -299 Q-9 -232 -9 -138 L-9 219 Q-9 313 58 380 Q125 447 220 447 Q314 447 381 380 Q449 312 449 219 Q449 194 425 185 L365 164 Q391 133 391 96 Q391 53 357 20 Q323 -12 280 -12 Q257 -12 237.5 -3.5 Q218 5 203 19.5 Q188 34 179.5 53.5 Q171 73 171 96 Q171 143 202 174 Q228 197 261 203 Q262 204 263 204 Q264 204 266 205 L376 244 Q367 299 322 337 Q277 376 220 376 Q156 376 109 329 Q62 282 62 219 L62 -138 Q62 -202 109 -249 Q156 -296 220 -296 Q285 -296 331 -250 Q378 -203 378 -138 Q378 -102 414 -102 Q449 -102 449 -138 Z M318 96 Q318 135 280 135 Q241 135 241 96 Q241 58 280 58 Q318 58 318 96 Z " />
<glyph glyph-name="uni104A" unicode="&#x104a;" horiz-adv-x="222" d="M123 25 Q123 -11 88 -11 Q52 -11 52 25 L52 413 Q52 449 88 449 Q123 449 123 413 L123 25 L123 25 Z " />
<glyph glyph-name="uni104B" unicode="&#x104b;" horiz-adv-x="375" d="M273 25 Q273 -11 238 -11 Q202 -11 202 25 L202 413 Q202 449 238 449 Q273 449 273 413 L273 25 Z M123 25 Q123 -11 88 -11 Q52 -11 52 25 L52 413 Q52 449 88 449 Q123 449 123 413 L123 25 Z " />
<glyph glyph-name="uni104C" unicode="&#x104c;" horiz-adv-x="549" d="M362 725 Q364 690 329 688 Q295 685 292 720 Q291 743 264.5 759.5 Q238 776 204 776 Q172 776 151.5 757.5 Q131 739 127 714 Q118 663 175 612 Q180 607 205 591.5 Q230 576 278 550 Q298 539 298 520 Q298 482 263 482 Q251 482 187 519 Q167 530 151.5 540 Q136 550 126 559 Q54 623 54 699 Q54 760 98 804 Q142 848 204 848 Q265 848 312 809 Q357 772 362 725 Z M448 220 Q448 126 379 57 Q311 -11 217 -11 Q123 -11 62 44 L62 -4 L76 -15 Q134 -58 217 -58 Q300 -58 362 4 Q378 18 393 18 Q423 18 423 -22 L423 -208 Q423 -284 386 -323.5 Q349 -363 268 -363 L76 -363 Q38 -363 13 -335.5 Q-12 -308 -12 -268 Q-12 -257 -9 -246 Q2 -190 67 -190 Q91 -190 110.5 -201.5 Q130 -213 130 -235 Q130 -270 98 -270 Q90 -270 81 -267 Q67 -260 66 -258 Q61 -256 61 -259 Q53 -291 76 -291 L268 -291 Q317 -291 334.5 -273 Q352 -255 352 -208 L352 -95 Q296 -129 217 -129 Q112 -129 33 -72 L5 -51 Q-9 -40 -9 -22 L-9 91 Q-9 126 26 126 L65 126 Q86 124 94 112 Q131 60 217 60 Q282 60 329 107 Q377 155 377 220 Q377 285 330 330 Q284 376 217 376 Q141 376 93 319 L83 308 Q84 306 83 305 Q72 284 53 284 Q38 284 26 295 Q14 306 14 321 Q14 329 19 337 Q19 337 17 339 Q18 340 18 340.5 Q18 341 19 342 L21 344 Q22 347 38 366 Q66 397 111 421 Q165 447 217 447 Q316 447 382 381 Q448 315 448 220 Z " />
<glyph glyph-name="uni104D" unicode="&#x104d;" horiz-adv-x="696" d="M597 -213 Q597 -279 574 -314 Q541 -363 476 -363 L102 -363 Q61 -363 31 -328 Q2 -293 2 -243 Q2 -200 25 -162 Q62 -95 148 -95 Q213 -95 263 -137 Q276 -147 276 -163 Q276 -178 265.5 -189 Q255 -200 239 -200 Q227 -200 216 -192 Q185 -166 147 -166 Q106 -166 89 -195 Q72 -224 72 -250 Q72 -291 102 -291 L476 -291 Q503 -291 514.5 -274.5 Q526 -258 526 -213 L526 337 Q526 413 476 466 Q462 481 368 553 Q287 614 287 701 Q287 754 329 801 Q371 849 440 849 Q535 849 587 764 Q592 752 592 744 Q592 729 581 719 Q570 709 554 709 Q536 709 525 726 Q493 779 440 779 Q407 779 384 755.5 Q361 732 361 700 Q361 644 433 584 Q529 503 547 481 Q597 419 597 337 L597 -213 Z M447 -203 Q447 -239 412 -239 Q376 -239 376 -203 L376 200 Q376 288 330 333 Q284 379 221 379 Q194 379 169 370 Q144 361 123 345 Q102 329 87 306.5 Q72 284 66 257 Q161 259 210 205 Q263 144 263 70 Q263 55 261 40.5 Q259 26 253.5 14.5 Q248 3 239.5 -4 Q231 -11 219 -11 Q160 -11 131 2 Q102 15 58 59 Q-2 122 -6 205 Q-12 218 -8 229 Q-3 324 66 388 Q131 449 221 449 Q311 449 379 381 Q447 313 447 200 L447 -203 Z M191 61 Q195 112 155 158 Q127 190 66 186 Q76 134 130 89 Q156 66 191 61 Z " />
<glyph glyph-name="uni104E" unicode="&#x104e;" horiz-adv-x="522" d="M422 -327 Q422 -363 387 -363 Q351 -363 351 -327 L351 26 Q293 -11 220 -11 Q127 -11 59 57 Q-9 127 -9 220 Q-9 315 56 382 Q122 449 220 449 Q328 449 400 366 Q405 360 408.5 355 Q412 350 416 345 L418 344 Q418 343 420 341 Q420 339 418 339 Q423 329 423 321 Q423 306 411.5 295 Q400 284 385 284 Q364 284 354 305 L354 308 Q352 309 345 320 Q300 377 220 377 Q153 377 107 331 Q62 286 62 220 Q62 156 109 107 Q156 60 220 60 Q301 60 340 110 Q345 118 361 118 Q382 118 402 106 Q422 94 422 78 L422 -327 L422 -327 Z " />
<glyph glyph-name="uni104F" unicode="&#x104f;" horiz-adv-x="971" d="M746 25 Q746 -11 711 -11 Q675 -11 675 25 L675 337 Q675 433 624 480 Q595 501 565.5 522 Q536 543 507 565 Q468 595 451 640 Q438 673 438 704 Q438 764 483 806 Q528 848 588 848 Q645 848 695 810 Q739 775 739 743 Q739 709 702 709 Q681 709 671 730 Q649 776 591 776 Q572 776 557 770 Q510 750 510 701 Q510 686 518 665 Q526 643 540.5 625.5 Q555 608 573 594 Q591 580 611.5 568 Q632 556 652 544 Q746 484 746 337 L746 25 Z M583 25 Q583 -11 548 -11 Q512 -11 512 25 L512 270 Q512 304 496 336 Q476 380 443 380 Q416 380 394 365 Q399 359 407 350 Q415 341 426 328 Q426 326 425 326 Q427 324 429.5 314 Q432 304 432 299 Q432 275 412 266 Q367 224 313 215 Q369 204 420 155 Q427 149 427 132 Q427 112 411 87 Q406 81 401 74.5 Q396 68 389 61 Q319 -12 212 -9 Q170 -7 130 7 Q106 9 98 24 Q72 37 51.5 58 Q31 79 17 104.5 Q3 130 -4 160 Q-11 190 -9 221 Q-3 353 106 416 Q113 423 118 424 Q163 449 224 447 Q297 445 342 415 Q377 441 446 444 Q506 445 547 389 Q583 336 583 270 L583 25 Z M347 310 Q315 349 296 360 Q267 377 224 377 Q197 377 170 369 Q186 310 242 291 Q262 284 282 284 Q319 284 351 306 L347 310 Z M255 215 Q237 216 219 224 Q135 254 108 329 Q66 285 61 219 Q57 152 108 104 Q148 198 255 215 Z M349 123 Q318 145 282 145 Q266 145 246 140 Q190 123 171 66 Q192 60 213 60 Q289 59 336 109 Q342 113 349 123 Z " />
<glyph glyph-name="uni1050" unicode="&#x1050;" horiz-adv-x="549" d="M458 228 Q458 98 376 10 Q365 -1 350 -1 Q336 -1 325 10 Q314 21 314 35 Q314 50 324 60 Q384 125 386 228 Q388 297 342 340 Q297 383 228 385 Q161 386 116 340 Q71 295 71 228 Q71 128 135 60 Q144 50 145 35 Q145 21 134 10 Q123 -1 109 -1 Q92 -1 83 10 Q0 99 0 228 Q0 268 20 319 Q39 366 70 396 Q134 456 226 456 Q329 456 393 392 Q458 329 458 228 Z M294 205 Q294 143 232 141 Q174 140 170 204 Q167 259 232 265 Q289 265 294 205 Z M252 204 Q252 220 232 225 Q215 225 211 204 Q211 187 232 183 Q250 183 252 204 Z " />
<glyph glyph-name="uni1051" unicode="&#x1051;" horiz-adv-x="549" d="M460 235 Q461 138 394 69 Q328 2 230 0 Q134 -1 67 69 Q0 139 0 235 Q0 296 31 355 Q80 448 136 459 Q150 459 161 447 Q170 437 171 421 Q171 406 156 393 Q73 336 71 235 Q70 169 117 118 Q163 70 230 70 Q297 70 342 118 Q387 166 389 235 Q389 290 366 328 Q350 356 300 395 Q288 404 286 421 Q286 458 321 458 Q330 458 340 453 Q367 437 389 413 Q411 389 427 360.5 Q443 332 451.5 300 Q460 268 460 235 Z M294 243 Q294 181 232 179 Q175 178 170 241 Q167 295 232 303 Q289 303 294 243 Z M252 241 Q252 257 232 263 Q215 263 211 241 Q211 224 232 220 Q250 220 252 241 Z " />
<glyph glyph-name="uni1052" unicode="&#x1052;" horiz-adv-x="549" d="M2 239 Q2 381 118 455 Q130 460 137 460 Q172 460 172 424 Q169 404 156 395 Q72 339 73 239 Q74 171 122 120 Q169 70 238 72 Q286 73 333 104 Q380 135 391 179 L391 203 Q386 213 383 219.5 Q380 226 377 229.5 Q374 233 370.5 235 Q367 237 361 240 Q326 253 310 264 Q257 303 256 355 Q254 395 286 427 Q318 459 358 458 Q397 457 429 432 Q463 408 461 373 Q459 335 426 336 Q390 337 390 373 Q390 383 375 388 Q358 390 342 381.5 Q326 373 326 357 Q331 329 387 304 Q417 290 432 275 Q466 250 459 180 Q458 175 457.5 171 Q457 167 457 165 Q437 96 373 48 Q309 0 238 1 Q139 3 71 71 Q2 140 2 239 Z " />
<glyph glyph-name="uni1053" unicode="&#x1053;" horiz-adv-x="549" d="M238 72 Q284 71 332 103 Q379 135 391 179 L391 203 Q390 205 387 211.5 Q384 218 378 229 Q376 234 346 246 Q323 253 310 264 Q259 302 256 355 Q253 395 285 425 Q316 456 358 458 Q392 459 428 433 Q459 409 461 373 Q462 338 426 336 Q392 335 390 373 Q390 383 375 388 Q359 391 343 382 Q327 373 326 357 Q327 329 387 304 L402 297 Q419 291 432 275 Q464 254 459 180 Q459 178 458.5 174 Q458 170 457 165 Q439 95 375 49 Q310 2 238 1 Q161 0 98 47 Q38 94 12 171 L9 179 Q2 243 37 275 Q53 290 82 304 Q140 326 143 357 Q143 373 126 381.5 Q109 390 93 388 Q81 383 80 373 Q80 337 44 336 Q10 335 8 373 Q7 409 42 434 Q72 456 111 458 Q150 459 182 427 Q214 395 213 355 Q212 303 158 264 Q147 256 107 240 Q101 237 97.5 235 Q94 233 91 229.5 Q88 226 85 219 Q82 212 77 200 Q84 172 99.5 149 Q115 126 136 109 Q157 92 183 82.5 Q209 73 238 72 Z " />
<glyph glyph-name="uni1054" unicode="&#x1054;" horiz-adv-x="531" d="M431 115 L430 115 L414 94 Q404 83 398 75.5 Q392 68 389 65 Q330 2 236 2 Q139 2 72 66 Q7 130 2 229 Q0 292 28 345.5 Q56 399 110 426 Q119 442 141 442 Q180 460 224 460 Q330 461 401 389 Q414 375 422 362 Q439 336 439 317 Q439 300 431 295 Q369 230 296 232 Q269 232 239 241 Q155 265 120 346 Q67 296 72 231 Q78 163 123 117 Q169 71 236 72 Q285 74 316 96 Q334 109 373 156 Q376 165 385 171 Q399 179 405 179 Q441 177 441 143 Q441 129 434 119 L433 118 L431 115 Z M348 341 Q296 391 225 390 Q204 390 183 384 Q208 305 294 305 Q329 305 361 328 L348 341 Z " />
<glyph glyph-name="uni1055" unicode="&#x1055;" horiz-adv-x="813" d="M405 179 Q420 177 441 155 Q449 147 457 138 Q465 129 473 119 Q520 70 586 72 Q635 74 666 96 Q684 109 723 156 Q726 165 735 171 Q749 179 755 179 Q791 177 791 143 Q791 129 784 119 L783 118 L781 115 L780 115 L764 94 Q754 83 748 75.5 Q742 68 739 65 Q680 2 586 2 Q490 2 422 67 Q415 75 412 79.5 Q409 84 408 85 L389 65 Q330 2 236 2 Q139 2 72 66 Q7 130 2 229 Q0 292 28 345.5 Q56 399 110 426 Q119 442 141 442 Q180 460 224 460 Q330 461 401 389 Q414 375 422 362 Q439 336 439 317 Q439 300 431 295 Q369 230 296 232 Q269 232 239 241 Q155 265 120 346 Q67 296 72 231 Q78 163 123 117 Q169 71 236 72 Q285 74 316 96 Q334 109 373 156 Q376 165 385 171 Q399 179 405 179 Z M348 341 Q296 391 225 390 Q204 390 183 384 Q208 305 294 305 Q329 305 361 328 L348 341 Z " />
<glyph glyph-name="uni1056" unicode="&#x1056;" horiz-adv-x="320" d="M-165 80 Q-169 84 -133 102 Q-96 120 -101 125 Q-47 70 6 72 Q54 72 102 102 Q149 132 160 176 Q159 185 160 195 Q160 229 130 240 Q83 260 78 263 Q27 301 25 354 Q24 412 85 446 Q102 456 130 456 Q168 456 200 436 Q237 414 236 377 Q236 339 200 341 Q165 343 165 377 Q164 390 147 390 Q128 390 118 383 Q95 371 95 357 Q99 325 155 303 Q185 292 199 276 Q224 259 228 217 Q234 187 225 171 Q207 99 143 50 Q79 0 6 1 Q-101 3 -165 80 Z " />
<glyph glyph-name="uni1057" unicode="&#x1057;" horiz-adv-x="807" d="M254 180 Q257 190 260 200.5 Q263 211 265 222 Q270 245 303 250 Q320 252 330 242 Q340 232 340 226 Q346 163 390 116 Q436 69 499 70 Q548 72 594 100 Q641 130 653 174 Q651 184 653 192 Q653 228 623 237 Q575 257 570 261 Q520 298 518 353 Q515 411 578 444 Q595 454 623 454 Q661 454 693 434 Q731 411 729 375 Q727 337 693 339 Q658 341 658 375 Q657 388 640 388 Q620 388 610 381 Q588 369 588 355 Q592 323 648 301 Q679 289 692 274 Q715 257 721 215 Q725 185 718 169 Q701 98 636 48 Q570 -2 499 -1 Q372 1 305 110 Q231 -1 112 -1 Q18 -1 -48 66 Q-96 115 -109 174 Q-112 184 -95.5 193.5 Q-79 203 -63 203 Q-48 203 -42 194 Q-38 186 -34.5 178.5 Q-31 171 -27 163 Q-12 130 2 116 Q48 70 112 70 Q178 70 224 119 Q240 135 254 180 Z " />
<glyph glyph-name="uni1058" unicode="&#x1058;" d="M-195 -301 Q-250 -356 -340 -358 Q-414 -359 -470 -314 Q-524 -270 -526 -194 Q-528 -122 -468 -74 Q-414 -29 -340 -29 Q-234 -29 -178 -109 Q-169 -133 -166 -151 Q-163 -175 -171 -183 Q-226 -224 -290 -226 Q-394 -228 -440 -134 Q-461 -158 -463 -194 Q-464 -240 -423 -269 Q-389 -293 -340 -295 Q-285 -297 -233 -249 Q-226 -233 -207 -231 Q-196 -231 -185 -242 Q-178 -246 -173 -265 Q-180 -280 -195 -301 Z M-387 -100 Q-363 -164 -291 -164 Q-256 -164 -222 -142 L-233 -142 Q-234 -141 -236 -138.5 Q-238 -136 -242 -131 Q-280 -92 -340 -92 Q-361 -92 -387 -100 Z " />
<glyph glyph-name="uni1059" unicode="&#x1059;" horiz-adv-x="49" d="M74 -268 Q69 -282 53 -304 Q-3 -360 -89 -361 Q-165 -362 -222 -312 Q-271 -360 -354 -361 Q-429 -362 -484 -317 Q-538 -273 -540 -198 Q-542 -126 -483 -79 Q-428 -34 -354 -34 Q-249 -34 -194 -113 Q-185 -137 -182 -156 Q-181 -170 -193 -184 Q-252 -229 -305 -229 Q-409 -231 -455 -139 Q-477 -165 -478 -198 Q-479 -243 -438 -272 Q-403 -296 -354 -298 Q-301 -300 -249 -252 Q-242 -237 -223 -235 Q-213 -235 -199 -247 Q-190 -267 -151 -284 Q-117 -298 -89 -298 Q-36 -300 16 -252 Q23 -236 41 -235 Q52 -235 63 -246 Q69 -250 74 -268 Z M-262 -137 Q-318 -96 -354 -96 Q-376 -96 -406 -105 Q-379 -174 -304 -174 Q-283 -174 -244 -156 L-262 -137 Z " />
<glyph glyph-name="zwsp" unicode="&#x200b;" d="" />
<glyph glyph-name="zwnj" unicode="&#x200c;" d="" />
<glyph glyph-name="zwj" unicode="&#x200d;" d="" />
<glyph glyph-name="u2060" unicode="&#x2060;" d="" />
<glyph glyph-name="notequal" unicode="&#x2260;" horiz-adv-x="556" d="M76 75 L7 75 L7 139 L136 139 L255 264 L7 264 L7 328 L315 328 L424 442 L468 400 L400 328 L481 328 L481 264 L340 264 L222 139 L481 139 L481 75 L162 75 L71 -21 L26 21 L76 75 Z " />
<glyph glyph-name="uni1700" unicode="&#x1700;" horiz-adv-x="849" d="M768 355 Q806 296 806 226 Q806 102 709 34 Q644 -9 572 -9 Q536 -9 494 6 Q491 7 488 8 Q485 9 481 11 Q454 27 469 58 Q481 160 581 206 Q608 220 643 220 Q686 220 733 199 Q734 206 734 212 Q734 218 734 225 Q734 275 707 314 Q662 380 583 380 Q500 380 454 322 Q449 317 443 304 Q441 248 399 215 Q443 176 443 129 Q443 119 440 109 Q416 -7 239 -9 Q94 -11 48 101 Q46 111 46 115 Q46 150 83 150 Q106 150 115 126 Q142 58 239 60 Q359 62 371 123 Q374 147 353 165 Q335 180 315 184 Q311 183 307 183 L273 183 Q237 183 237 219 Q237 254 273 254 L311 254 Q333 258 344 266 Q368 280 372 300 Q369 307 371 315 Q353 376 239 376 Q129 376 117 315 Q109 286 83 286 Q65 286 54 297.5 Q43 309 47 328 Q70 447 239 447 Q365 447 416 385 Q427 396 446 410 Q509 451 581 451 Q700 451 768 355 Z M707 132 Q671 149 646 149 Q628 149 610 141 Q559 119 542 65 Q559 60 572 60 Q610 60 648.5 80.5 Q687 101 707 132 Z " />
<glyph glyph-name="hsp" unicode="&#x200a;" d="" />
<glyph glyph-name="uni25CC" unicode="&#x25cc;" horiz-adv-x="549" d="M11 178 Q6 201 6 228 Q6 241 7 254 Q8 267 11 278 L65 269 Q62 259 61.5 249 Q61 239 61 228 Q61 217 61.5 207 Q62 197 65 188 L11 178 Z M107 38 Q63 67 37 109 L81 141 Q101 106 137 83 L107 38 Z M423 109 Q398 67 354 38 L323 83 Q359 106 380 141 L423 109 Z M137 373 Q101 350 81 315 L37 347 Q50 369 67.5 386.5 Q85 404 107 418 L137 373 Z M380 315 Q358 350 323 373 L354 418 Q398 389 423 347 L380 315 Z M454 228 Q454 215 452.5 202.5 Q451 190 449 178 L396 188 Q398 198 399.5 207.5 Q401 217 401 228 Q401 247 396 269 L449 278 Q454 253 454 228 Z M279 5 Q265 3 253 1.5 Q241 0 230 0 Q219 0 207 1.5 Q195 3 181 5 L190 59 Q200 56 210 55.5 Q220 55 230 55 Q240 55 250 55.5 Q260 56 270 59 L279 5 Z M270 397 Q260 400 250 401 Q240 402 230 402 Q220 402 210 401 Q200 400 190 397 L181 452 Q208 458 230 458 Q252 458 279 452 L270 397 Z " />
</font>
</svg>
